<svg version="1.1" xmlns="http://www.w3.org/2000/svg" xmlns:xlink="http://www.w3.org/1999/xlink" width="900" height="500" style="width: 900px; height: 500px;"><defs/><g><g transform="scale(1,1) translate(0.5,0.5)"><rect fill="#FFFFFF" stroke="none" x="0" y="0" width="900" height="500"/><rect fill="#ffffff" stroke="none" x="0" y="0" width="900" height="500"/><rect fill="#FFFFFF" stroke="none" x="67" y="39" width="803" height="412"/><rect fill="white" stroke="none" x="67" y="39" width="803" height="412"/><g><rect fill="none" stroke="rgb(0, 131, 255)" x="67" y="39" width="803" height="412" stroke-miterlimit="10" stroke-width="7" stroke-opacity="0.5"/></g><g><g><path fill="none" stroke="rgb(0, 131, 255)" paint-order="fill stroke markers" d=" M 90 451 L 90 39" stroke-miterlimit="10" stroke-opacity="0"/><path fill="none" stroke="rgb(0, 131, 255)" paint-order="fill stroke markers" d=" M 186 451 L 186 39" stroke-miterlimit="10" stroke-opacity="0"/><path fill="none" stroke="rgb(0, 131, 255)" paint-order="fill stroke markers" d=" M 282 451 L 282 39" stroke-miterlimit="10" stroke-opacity="0"/><path fill="none" stroke="rgb(0, 131, 255)" paint-order="fill stroke markers" d=" M 379 451 L 379 39" stroke-miterlimit="10" stroke-opacity="0"/><path fill="none" stroke="rgb(0, 131, 255)" paint-order="fill stroke markers" d=" M 475 451 L 475 39" stroke-miterlimit="10" stroke-opacity="0"/><path fill="none" stroke="rgb(0, 131, 255)" paint-order="fill stroke markers" d=" M 571 451 L 571 39" stroke-miterlimit="10" stroke-opacity="0"/><path fill="none" stroke="rgb(0, 131, 255)" paint-order="fill stroke markers" d=" M 668 451 L 668 39" stroke-miterlimit="10" stroke-opacity="0"/><path fill="none" stroke="rgb(0, 131, 255)" paint-order="fill stroke markers" d=" M 764 451 L 764 39" stroke-miterlimit="10" stroke-opacity="0"/><path fill="none" stroke="rgb(0, 131, 255)" paint-order="fill stroke markers" d=" M 860 451 L 860 39" stroke-miterlimit="10" stroke-opacity="0"/></g><g><path fill="none" stroke="rgb(0, 131, 255)" paint-order="fill stroke markers" d=" M 67 441 L 870 441" stroke-miterlimit="10" stroke-opacity="0.25"/><path fill="none" stroke="rgb(0, 131, 255)" paint-order="fill stroke markers" d=" M 67 349 L 870 349" stroke-miterlimit="10" stroke-opacity="0.25"/><path fill="none" stroke="rgb(0, 131, 255)" paint-order="fill stroke markers" d=" M 67 257 L 870 257" stroke-miterlimit="10" stroke-opacity="0.25"/><path fill="none" stroke="rgb(0, 131, 255)" paint-order="fill stroke markers" d=" M 67 166 L 870 166" stroke-miterlimit="10" stroke-opacity="0.25"/><path fill="none" stroke="rgb(0, 131, 255)" paint-order="fill stroke markers" d=" M 67 74 L 870 74" stroke-miterlimit="10" stroke-opacity="0.25"/></g><g><path fill="none" stroke="none"/><path fill="none" stroke="rgb(0, 28, 100)" paint-order="fill stroke markers" d=" M 103.5 74.15644834254522 L 106.39108910890764 68.09144661858858 L 119.40099009900655 89.6908026524257 L 123.73762376237914 57.72727272727277 L 127.59240924092387 70.51854637221061 L 131.4471947194686 80.9477482191895 L 135.78382838284097 78.03064908134567 L 139.63861386138592 96.41249513990951 L 143.49339933993065 89.15226127313144 L 147.34818481848447 95.51401028771961 L 151.68481848184774 86.49344218454098 L 155.05775577557392 75.89113775136036 L 163.7310231023098 86.06022777568693 L 167.58580858085452 84.07183775111582 L 171.9224422442269 77.7082569631287 L 175.77722772277184 80.81311287436594 L 179.63201320131657 83.15045573143894 L 183.96864686468894 81.18129932755691 L 186.8597359735984 93.71795647003931 L 192.16006600660626 129.14445400592615 L 196.01485148515098 102.9968046224713 L 199.8696369636957 111.31763528724721 L 203.72442244224044 82.48918553441436 L 208.0610561056128 82.38843799747156 L 211.91584158415776 103.6937944007756 L 215.77062706270226 106.3700153366562 L 220.10726072607486 99.67213590335886 L 223.96204620461958 66.26791619992387 L 227.81683168316454 90.13775536177195 L 232.1534653465369 94.81885228281428 L 236.00825082508163 103.18914082936212 L 239.8630363036266 108.4957883661493 L 243.71782178218018 107.03403319377921 L 248.05445544554368 99.14733282455683 L 251.9092409240884 99.93865893290754 L 256.2458745874608 91.65080018931292 L 260.1006600660055 85.14342518950744 L 263.95544554455046 104.81758738103757 L 268.2920792079226 83.58641780039142 L 272.14686468646755 84.7468462486326 L 276.0016501650125 82.46995191372528 L 280.33828382838465 86.23333036188865 L 284.1930693069296 102.62953405597982 L 288.0478547854743 105.0914375041821 L 291.90264026402815 101.11557334173936 L 296.2392739273914 101.92704895747866 L 300.0940594059364 89.8190267903529 L 303.9488448844902 87.7152350416473 L 308.2854785478535 91.42915560803876 L 312.1402640263984 73.56020610118372 L 316.47689768977057 74.4962423080523 L 320.3316831683155 80.2241977266003 L 324.18646864686025 88.3618510514802 L 328.5231023102326 96.2384766670083 L 332.37788778877734 115.30815363688163 L 336.2326732673223 112.89296041035283 L 340.0874587458761 115.6113121344095 L 344.4240924092394 106.20149218395187 L 348.27887788778435 79.93935696306201 L 352.13366336633794 98.16000696251737 L 356.47029702970144 100.70800376047076 L 360.32508250824617 93.80221804639147 L 364.66171617161854 91.4502210021268 L 368.51650165016326 107.6018829474568 L 372.3712871287082 116.27441410483304 L 376.70792079208036 116.58947912945416 L 380.5627062706253 139.14044144405102 L 384.41749174917004 135.4439227249497 L 388.7541254125424 134.23586816833554 L 392.60891089108736 120.96283811947123 L 396.4636963696321 121.01595954804105 L 400.80033003300446 117.79936545946725 L 404.6551155115492 143.51654809416652 L 408.50990099009414 148.56766324179878 L 412.8465346534663 122.92191976965897 L 416.70132013201123 122.78453676473697 L 420.55610561055596 117.14450646933905 L 424.8927392739283 125.92877580405184 L 428.7475247524733 136.07771632098985 L 432.602310231018 132.34273036051036 L 436.45709570957183 127.94097888280943 L 440.7937293729351 126.57447592718526 L 444.64851485148006 125.74193491735792 L 448.9851485148522 125.60638368583489 L 452.83993399339715 123.51541435092201 L 456.6947194719419 124.04113331642353 L 461.03135313531425 123.28552678935253 L 464.8861386138592 123.66653565633621 L 468.74092409240393 127.20643774982646 L 473.0775577557763 127.35389550844275 L 476.932343234321 151.20266927620276 L 480.787128712866 135.2415117643646 L 484.6419141914198 130.60254563149834 L 488.9785478547831 138.14945203521364 L 492.8333333333278 140.1341785129868 L 496.6881188118816 147.53729070488376 L 501.0247524752449 171.46941016229647 L 504.87953795378985 160.72331151729747 L 509.2161716171622 150.3389881185931 L 513.070957095707 158.84208023656555 L 516.9257425742519 158.46473491637977 L 521.262376237624 145.95921792167968 L 529.4537953795411 168.17679747766581 L 532.8267326732675 173.15097814254176 L 537.1633663366308 177.80276668920075 L 541.0181518151758 166.67657506391757 L 549.6914191419114 168.4295822067223 L 553.0643564356378 160.77643294586733 L 557.40099009901 149.23809230581816 L 561.2557755775549 157.1861570839057 L 563.1831683168273 129.43021065616392 L 571.3745874587444 160.37985400499247 L 573.3019801980167 171.17815819186183 L 577.1567656765617 173.21875375830328 L 581.4933993399341 167.59429353679656 L 584.3844884488433 169.3326464924096 L 593.5396039603959 167.5961253101955 L 597.3943894389408 182.99218072845449 L 601.2491749174856 163.9032701378921 L 605.1039603960394 140.9007756804516 L 614.2590759075933 147.87800055709033 L 617.6320132013198 164.73855880781787 L 621.4867986798649 185.45042062985885 L 625.3415841584097 195.39420252611333 L 634.0148514851453 175.9819839306345 L 637.3877887788717 164.72665228072464 L 641.7244224422438 164.26779304428513 L 645.5792079207886 172.8698009258014 L 657.6254125412506 171.31096176328643 L 661.4801980197954 184.74427198455976 L 665.816831683168 180.00364242805122 L 668.707920792077 204.30669599875333 L 677.8630363036295 221.0097217371703 L 681.7178217821747 200.52683158999932 L 685.5726072607195 188.29974415194116 L 689.4273927392733 209.06014796905458 L 697.6188118811815 213.89511385560957 L 701.9554455445536 188.25761336376507 L 705.8102310230984 199.87563614666902 L 710.146864686471 194.4105402108718 L 718.8201320131961 228.06113343646692 L 721.7112211221051 229.18950585022628 L 725.566006600659 239.1048952587969 L 729.9026402640225 240.71410818978327 L 731.3481848184765 232.37038035752036 L 741.4669966996657 244.117543165051 L 745.8036303630292 250.3767128692974 L 749.6584158415831 236.03850658893782 L 762.6683168316822 223.20510215582388 L 766.0412541254082 220.20923676182477 L 769.8960396039533 227.28995683550474 L 774.2326732673255 212.29963922511538 L 782.4240924092428 234.1700977219986 L 786.2788778877875 220.25686287019775 L 790.1336633663323 231.80894181073913 L 794.9521452145232 234.17650892889495 L 807.9620462046219 202.87791274756452 L 811.3349834983469 240.2644078203386 L 815.1897689768916 249.58996619444406 L 824.3448844884456 244.025954495103 L 827.2359735973537 189.8237796198759 L 829.6452145214448 225.1696791262085 L 833.5 245.42634525860794" stroke-miterlimit="10" stroke-width="3" stroke-opacity="0.7"/></g><g><path fill="none" stroke="none"/><path fill="none" stroke="rgb(255, 67, 67)" paint-order="fill stroke markers" d=" M 103.5 74.15644834254522 L 106.39108910890764 73.01616940169261 L 119.40099009900655 96.3346447704537 L 123.73762376237914 98.67931472112254 L 127.59240924092387 99.71151903143651 L 131.4471947194686 96.61673787389354 L 135.78382838284097 90.95655807110708 L 139.63861386138592 88.91962605146352 L 143.49339933993065 89.56532617459693 L 147.34818481848447 81.22800954923039 L 151.68481848184774 76.3747259286858 L 155.05775577557392 73.94579440166481 L 163.7310231023098 91.91549144546265 L 167.58580858085452 107.09356582924539 L 171.9224422442269 112.12819501628702 L 175.77722772277184 110.3696925532854 L 179.63201320131657 106.5660150903449 L 183.96864686468894 107.25934132185128 L 186.8597359735984 109.44281521341162 L 192.16006600660626 108.10470474547134 L 196.01485148515098 105.49625942535226 L 199.8696369636957 96.90982161772715 L 203.72442244224044 98.78189403146429 L 208.0610561056128 103.86506521357836 L 211.91584158415776 111.4879902133505 L 215.77062706270226 123.72881595190086 L 220.10726072607486 123.355134178513 L 223.96204620461958 130.3250319615559 L 227.81683168316454 125.58440240504736 L 232.1534653465369 126.3894668138903 L 236.00825082508163 125.73643959716104 L 239.8630363036266 117.15366533633384 L 243.71782178218018 112.68780178966931 L 248.05445544554368 110.97967309513909 L 251.9092409240884 113.2565674300464 L 256.2458745874608 116.73327334127252 L 260.1006600660055 127.61125967099662 L 263.95544554455046 143.68507124687085 L 268.2920792079226 151.43713627126965 L 272.14686468646755 156.17593405437924 L 276.0016501650125 154.99444021205 L 280.33828382838465 143.59073491682437 L 284.1930693069296 143.3938192764362 L 288.0478547854743 137.31416336528787 L 291.90264026402815 134.47399871020036 L 296.2392739273914 140.44557999081002 L 300.0940594059364 139.5434315918222 L 303.9488448844902 135.79012789735313 L 308.2854785478535 145.26131225667592 L 312.1402640263984 159.20568725625913 L 316.47689768977057 168.73823602444708 L 320.3316831683155 166.30197740383025 L 324.18646864686025 164.14689599995376 L 328.5231023102326 163.10919636944294 L 332.37788778877734 159.63798577841368 L 336.2326732673223 158.72301496563313 L 340.0874587458761 159.66088294590068 L 344.4240924092394 156.76851274894278 L 348.27887788778435 154.90193565540255 L 352.13366336633794 155.4807760494739 L 356.47029702970144 173.5530524036135 L 360.32508250824617 193.57433565424654 L 364.66171617161854 199.04950634373807 L 368.51650165016326 195.98861299407588 L 372.3712871287082 195.62225831428384 L 376.70792079208036 190.34308737848107 L 380.5627062706253 189.6323592996846 L 384.41749174917004 187.57619365935193 L 388.7541254125424 180.30588503887964 L 392.60891089108736 182.0707987087776 L 396.4636963696321 189.3063036346697 L 400.80033003300446 188.99764981694494 L 404.6551155115492 202.32746484117703 L 408.50990099009414 217.29671705747833 L 412.8465346534663 219.5672001854893 L 416.70132013201123 220.3594421805395 L 420.55610561055596 213.5864600378848 L 424.8927392739283 209.9485580675502 L 428.7475247524733 204.15649058003862 L 432.602310231018 202.58757666382934 L 436.45709570957183 208.4730645946879 L 440.7937293729351 210.1784456291197 L 444.64851485148006 208.8494940281742 L 448.9851485148522 203.3376878707035 L 452.83993399339715 210.27552961926457 L 456.6947194719419 226.8787237074382 L 461.03135313531425 239.5353620075525 L 464.8861386138592 237.59093454455643 L 468.74092409240393 237.3912712440698 L 473.0775577557763 227.34033060397616 L 476.932343234321 230.7547562196376 L 480.787128712866 231.15774636740883 L 484.6419141914198 226.83934057936057 L 488.9785478547831 229.34612247583738 L 492.8333333333278 226.72577062862504 L 496.6881188118816 232.27970757427184 L 501.0247524752449 252.13521533229903 L 504.87953795378985 272.066741686383 L 509.2161716171622 285.20422050372434 L 513.070957095707 280.13112407530457 L 516.9257425742519 279.6942461196526 L 521.262376237624 274.3546266616841 L 529.4537953795411 275.3959898389929 L 532.8267326732675 271.1133036322243 L 537.1633663366308 269.9345574499936 L 541.0181518151758 269.9226509229003 L 549.6914191419114 292.25013688282405 L 553.0643564356378 309.0383400842927 L 557.40099009901 316.4011532614125 L 561.2557755775549 313.4684840496775 L 563.1831683168273 319.70292481303795 L 571.3745874587444 317.3271147145868 L 573.3019801980167 316.07234993629913 L 577.1567656765617 312.75684008418153 L 581.4933993399341 304.5651494440323 L 584.3844884488433 300.88328491212263 L 593.5396039603959 308.2534251828383 L 597.3943894389408 329.9672670541104 L 601.2491749174856 355.76230005826545 L 605.1039603960394 364.2901211171239 L 614.2590759075933 361.81539525512886 L 617.6320132013198 358.97981003353874 L 621.4867986798649 357.34403638826745 L 625.3415841584097 352.55944427018386 L 634.0148514851453 355.52508540310015 L 637.3877887788717 352.47793035393016 L 641.7244224422438 349.74767210278026 L 645.5792079207886 361.3684425457826 L 657.6254125412506 370.0602073238479 L 661.4801980197954 364.4137658215536 L 665.816831683168 365.612661511173 L 668.707920792077 362.954758309282 L 677.8630363036295 360.6293219793023 L 681.7178217821747 359.35257592022714 L 685.5726072607195 357.66459673308543 L 689.4273927392733 360.81524697929666 L 697.6188118811815 390.21704180600403 L 701.9554455445536 394.43653183050844 L 705.8102310230984 389.68307986020716 L 710.146864686471 386.6295136041408 L 718.8201320131961 380.9079693924892 L 721.7112211221051 374.33098700352326 L 725.566006600659 373.3454929148827 L 729.9026402640225 373.4205956242401 L 731.3481848184765 374.3621271513056 L 741.4669966996657 392.68993589460007 L 745.8036303630292 407.41647813553914 L 749.6584158415831 405.35481717500966 L 762.6683168316822 404.8813037513785 L 766.0412541254082 402.35712000761157 L 769.8960396039533 399.75600178108834 L 774.2326732673255 399.1396100323383 L 782.4240924092428 394.3348684068662 L 786.2788778877875 396.99643515555505 L 790.1336633663323 412.58299500730595 L 794.9521452145232 432.27272727272725 L 807.9620462046219 422.936178258228 L 811.3349834983469 422.5304404503583 L 815.1897689768916 421.03113392330954 L 824.3448844884456 419.01709907115304 L 827.2359735973537 425.0234840463429 L 829.6452145214448 420.0804435292493 L 833.5 419.5391544898566" stroke-miterlimit="10" stroke-width="3"/></g></g><g><g/><g><path fill="#ffffff" stroke="#e5e5e5" paint-order="fill stroke markers" d=" M 77 378 L 396 378 L 396 441 L 77 441 L 77 378 Z" fill-opacity="0.95" stroke-miterlimit="10" stroke-opacity="0.5"/><text fill="#444444" stroke="none" font-family="ADAM" font-size="10pt" font-style="normal" font-weight="normal" text-decoration="normal" x="112" y="398" text-anchor="start" dominant-baseline="central">Variación Masa de Hielo Antártida</text><g><path fill="none" stroke="rgb(0, 28, 100)" paint-order="fill stroke markers" d=" M 87 398 L 107 398" stroke-miterlimit="10" stroke-width="3" stroke-opacity="0.7"/></g><text fill="#444444" stroke="none" font-family="ADAM" font-size="10pt" font-style="normal" font-weight="normal" text-decoration="normal" x="112" y="421" text-anchor="start" dominant-baseline="central">Variación Masa de Hielo Groenlandia</text><g><path fill="none" stroke="rgb(255, 67, 67)" paint-order="fill stroke markers" d=" M 87 421 L 107 421" stroke-miterlimit="10" stroke-width="3"/></g></g></g><g><g fill="#444444"><path fill="none" stroke="black" paint-order="fill stroke markers" d=" M 67 451 L 870 451" stroke-miterlimit="10"/><path fill="none" stroke="rgb(255, 67, 67)" paint-order="fill stroke markers" d=" M 90 457 L 90 449" stroke-miterlimit="10" stroke-width="3"/><path fill="none" stroke="rgb(255, 67, 67)" paint-order="fill stroke markers" d=" M 186 457 L 186 449" stroke-miterlimit="10" stroke-width="3"/><path fill="none" stroke="rgb(255, 67, 67)" paint-order="fill stroke markers" d=" M 282 457 L 282 449" stroke-miterlimit="10" stroke-width="3"/><path fill="none" stroke="rgb(255, 67, 67)" paint-order="fill stroke markers" d=" M 379 457 L 379 449" stroke-miterlimit="10" stroke-width="3"/><path fill="none" stroke="rgb(255, 67, 67)" paint-order="fill stroke markers" d=" M 475 457 L 475 449" stroke-miterlimit="10" stroke-width="3"/><path fill="none" stroke="rgb(255, 67, 67)" paint-order="fill stroke markers" d=" M 571 457 L 571 449" stroke-miterlimit="10" stroke-width="3"/><path fill="none" stroke="rgb(255, 67, 67)" paint-order="fill stroke markers" d=" M 668 457 L 668 449" stroke-miterlimit="10" stroke-width="3"/><path fill="none" stroke="rgb(255, 67, 67)" paint-order="fill stroke markers" d=" M 764 457 L 764 449" stroke-miterlimit="10" stroke-width="3"/><path fill="" stroke="rgb(255, 67, 67)" paint-order="fill stroke markers" d=" M 860 457 L 860 449" stroke-miterlimit="10" stroke-width="3"/><g transform="translate(90,462) rotate(0,0,0)"><text fill="" stroke="none" font-family="helvetica" font-size="8pt" font-style="normal" font-weight="normal" text-decoration="normal" x="0" y="0" text-anchor="middle" dominant-baseline="hanging">2002</text><g transform="rotate(0,0,0) translate(-90,-462) translate(186,462) rotate(0,0,0)"><text fill="" stroke="none" font-family="helvetica" font-size="8pt" font-style="normal" font-weight="normal" text-decoration="normal" x="0" y="0" text-anchor="middle" dominant-baseline="hanging">2004</text><g transform="rotate(0,0,0) translate(-186,-462) translate(282,462) rotate(0,0,0)"><text fill="" stroke="none" font-family="helvetica" font-size="8pt" font-style="normal" font-weight="normal" text-decoration="normal" x="0" y="0" text-anchor="middle" dominant-baseline="hanging">2006</text><g transform="rotate(0,0,0) translate(-282,-462) translate(379,462) rotate(0,0,0)"><text fill="" stroke="none" font-family="helvetica" font-size="8pt" font-style="normal" font-weight="normal" text-decoration="normal" x="0" y="0" text-anchor="middle" dominant-baseline="hanging">2008</text><g transform="rotate(0,0,0) translate(-379,-462) translate(475,462) rotate(0,0,0)"><text fill="" stroke="none" font-family="helvetica" font-size="8pt" font-style="normal" font-weight="normal" text-decoration="normal" x="0" y="0" text-anchor="middle" dominant-baseline="hanging">2010</text><g transform="rotate(0,0,0) translate(-475,-462) translate(571,462) rotate(0,0,0)"><text fill="" stroke="none" font-family="helvetica" font-size="8pt" font-style="normal" font-weight="normal" text-decoration="normal" x="0" y="0" text-anchor="middle" dominant-baseline="hanging">2012</text><g transform="rotate(0,0,0) translate(-571,-462) translate(668,462) rotate(0,0,0)"><text fill="" stroke="none" font-family="helvetica" font-size="8pt" font-style="normal" font-weight="normal" text-decoration="normal" x="0" y="0" text-anchor="middle" dominant-baseline="hanging">2014</text><g transform="rotate(0,0,0) translate(-668,-462) translate(764,462) rotate(0,0,0)"><text fill="" stroke="none" font-family="helvetica" font-size="8pt" font-style="normal" font-weight="normal" text-decoration="normal" x="0" y="0" text-anchor="middle" dominant-baseline="hanging">2016</text><g transform="rotate(0,0,0) translate(-764,-462) translate(860,462) rotate(0,0,0)"><text fill="" stroke="none" font-family="helvetica" font-size="8pt" font-style="normal" font-weight="normal" text-decoration="normal" x="0" y="0" text-anchor="middle" dominant-baseline="hanging">2018</text><g transform="rotate(0,0,0) translate(-860,-462) translate(469,480) rotate(0,0,0)"><text fill="" stroke="none" font-family="ADAM" font-size="12pt" font-style="normal" font-weight="normal" text-decoration="normal" x="0" y="0" text-anchor="middle" dominant-baseline="hanging">Fecha</text><g transform="rotate(0,0,0) translate(-469,-480)"/></g></g></g></g></g></g></g></g></g></g></g><g fill="#444444"><path fill="none" stroke="black" paint-order="fill stroke markers" d=" M 67 451 L 67 39" stroke-miterlimit="10"/><path fill="none" stroke="rgb(255, 67, 67)" paint-order="fill stroke markers" d=" M 61 441 L 69 441" stroke-miterlimit="10" stroke-width="3"/><path fill="none" stroke="rgb(255, 67, 67)" paint-order="fill stroke markers" d=" M 61 349 L 69 349" stroke-miterlimit="10" stroke-width="3"/><path fill="none" stroke="rgb(255, 67, 67)" paint-order="fill stroke markers" d=" M 61 257 L 69 257" stroke-miterlimit="10" stroke-width="3"/><path fill="none" stroke="rgb(255, 67, 67)" paint-order="fill stroke markers" d=" M 61 166 L 69 166" stroke-miterlimit="10" stroke-width="3"/><path fill="none" stroke="rgb(255, 67, 67)" paint-order="fill stroke markers" d=" M 61 74 L 69 74" stroke-miterlimit="10" stroke-width="3"/><path fill="none" stroke="rgb(255, 67, 67)" paint-order="fill stroke markers" d=" M 63 441 L 67 441" stroke-miterlimit="10"/><path fill="none" stroke="rgb(255, 67, 67)" paint-order="fill stroke markers" d=" M 63 422 L 67 422" stroke-miterlimit="10"/><path fill="none" stroke="rgb(255, 67, 67)" paint-order="fill stroke markers" d=" M 63 404 L 67 404" stroke-miterlimit="10"/><path fill="none" stroke="rgb(255, 67, 67)" paint-order="fill stroke markers" d=" M 63 386 L 67 386" stroke-miterlimit="10"/><path fill="none" stroke="rgb(255, 67, 67)" paint-order="fill stroke markers" d=" M 63 367 L 67 367" stroke-miterlimit="10"/><path fill="none" stroke="rgb(255, 67, 67)" paint-order="fill stroke markers" d=" M 63 349 L 67 349" stroke-miterlimit="10"/><path fill="none" stroke="rgb(255, 67, 67)" paint-order="fill stroke markers" d=" M 63 331 L 67 331" stroke-miterlimit="10"/><path fill="none" stroke="rgb(255, 67, 67)" paint-order="fill stroke markers" d=" M 63 312 L 67 312" stroke-miterlimit="10"/><path fill="none" stroke="rgb(255, 67, 67)" paint-order="fill stroke markers" d=" M 63 294 L 67 294" stroke-miterlimit="10"/><path fill="none" stroke="rgb(255, 67, 67)" paint-order="fill stroke markers" d=" M 63 276 L 67 276" stroke-miterlimit="10"/><path fill="none" stroke="rgb(255, 67, 67)" paint-order="fill stroke markers" d=" M 63 257 L 67 257" stroke-miterlimit="10"/><path fill="none" stroke="rgb(255, 67, 67)" paint-order="fill stroke markers" d=" M 63 239 L 67 239" stroke-miterlimit="10"/><path fill="none" stroke="rgb(255, 67, 67)" paint-order="fill stroke markers" d=" M 63 221 L 67 221" stroke-miterlimit="10"/><path fill="none" stroke="rgb(255, 67, 67)" paint-order="fill stroke markers" d=" M 63 202 L 67 202" stroke-miterlimit="10"/><path fill="none" stroke="rgb(255, 67, 67)" paint-order="fill stroke markers" d=" M 63 184 L 67 184" stroke-miterlimit="10"/><path fill="none" stroke="rgb(255, 67, 67)" paint-order="fill stroke markers" d=" M 63 166 L 67 166" stroke-miterlimit="10"/><path fill="none" stroke="rgb(255, 67, 67)" paint-order="fill stroke markers" d=" M 63 147 L 67 147" stroke-miterlimit="10"/><path fill="none" stroke="rgb(255, 67, 67)" paint-order="fill stroke markers" d=" M 63 129 L 67 129" stroke-miterlimit="10"/><path fill="none" stroke="rgb(255, 67, 67)" paint-order="fill stroke markers" d=" M 63 111 L 67 111" stroke-miterlimit="10"/><path fill="none" stroke="rgb(255, 67, 67)" paint-order="fill stroke markers" d=" M 63 92 L 67 92" stroke-miterlimit="10"/><path fill="none" stroke="rgb(255, 67, 67)" paint-order="fill stroke markers" d=" M 63 74 L 67 74" stroke-miterlimit="10"/><path fill="" stroke="rgb(255, 67, 67)" paint-order="fill stroke markers" d=" M 63 56 L 67 56" stroke-miterlimit="10"/><g transform="translate(56,441) rotate(0,0,0)"><text fill="" stroke="none" font-family="helvetica" font-size="8pt" font-style="normal" font-weight="normal" text-decoration="normal" x="0" y="0" text-anchor="end" dominant-baseline="central">-4000</text><g transform="rotate(0,0,0) translate(-56,-441) translate(56,349) rotate(0,0,0)"><text fill="" stroke="none" font-family="helvetica" font-size="8pt" font-style="normal" font-weight="normal" text-decoration="normal" x="0" y="0" text-anchor="end" dominant-baseline="central">-3000</text><g transform="rotate(0,0,0) translate(-56,-349) translate(56,257) rotate(0,0,0)"><text fill="" stroke="none" font-family="helvetica" font-size="8pt" font-style="normal" font-weight="normal" text-decoration="normal" x="0" y="0" text-anchor="end" dominant-baseline="central">-2000</text><g transform="rotate(0,0,0) translate(-56,-257) translate(56,166) rotate(0,0,0)"><text fill="" stroke="none" font-family="helvetica" font-size="8pt" font-style="normal" font-weight="normal" text-decoration="normal" x="0" y="0" text-anchor="end" dominant-baseline="central">-1000</text><g transform="rotate(0,0,0) translate(-56,-166) translate(56,74) rotate(0,0,0)"><text fill="" stroke="none" font-family="helvetica" font-size="8pt" font-style="normal" font-weight="normal" text-decoration="normal" x="0" y="0" text-anchor="end" dominant-baseline="central">0</text><g transform="rotate(0,0,0) translate(-56,-74) translate(20,245) rotate(-90,0,0)"><text fill="" stroke="none" font-family="ADAM" font-size="12pt" font-style="normal" font-weight="normal" text-decoration="normal" x="0" y="0" text-anchor="middle" dominant-baseline="alphabetic">Variación (Gigatoneladas)</text><g transform="rotate(90,0,0) translate(-20,-245)"/></g></g></g></g></g></g></g><g fill="black"><path fill="" stroke="none" d=""/><g transform="translate(468.5,34)"><path fill="none" stroke="none"/><text fill="" stroke="none" font-family="ADAM" font-size="16pt" font-style="normal" font-weight="normal" text-decoration="normal" x="0" y="0" text-anchor="middle" dominant-baseline="text-after-edge">Variación de la Masa de Hielo en la Antártida y Groenlandia</text></g></g></g></g><g transform="scale(1,1) translate(0.5,0.5)"><rect fill="#FFFFFF" stroke="none" x="0" y="0" width="900" height="500"/><rect fill="#ffffff" stroke="none" x="0" y="0" width="900" height="500"/><rect fill="#FFFFFF" stroke="none" x="67" y="39" width="803" height="412"/><rect fill="white" stroke="none" x="67" y="39" width="803" height="412"/><g><rect fill="none" stroke="rgb(0, 131, 255)" x="67" y="39" width="803" height="412" stroke-miterlimit="10" stroke-width="7" stroke-opacity="0.5"/></g><g><g><path fill="none" stroke="rgb(0, 131, 255)" paint-order="fill stroke markers" d=" M 90 451 L 90 39" stroke-miterlimit="10" stroke-opacity="0"/><path fill="none" stroke="rgb(0, 131, 255)" paint-order="fill stroke markers" d=" M 186 451 L 186 39" stroke-miterlimit="10" stroke-opacity="0"/><path fill="none" stroke="rgb(0, 131, 255)" paint-order="fill stroke markers" d=" M 282 451 L 282 39" stroke-miterlimit="10" stroke-opacity="0"/><path fill="none" stroke="rgb(0, 131, 255)" paint-order="fill stroke markers" d=" M 379 451 L 379 39" stroke-miterlimit="10" stroke-opacity="0"/><path fill="none" stroke="rgb(0, 131, 255)" paint-order="fill stroke markers" d=" M 475 451 L 475 39" stroke-miterlimit="10" stroke-opacity="0"/><path fill="none" stroke="rgb(0, 131, 255)" paint-order="fill stroke markers" d=" M 571 451 L 571 39" stroke-miterlimit="10" stroke-opacity="0"/><path fill="none" stroke="rgb(0, 131, 255)" paint-order="fill stroke markers" d=" M 668 451 L 668 39" stroke-miterlimit="10" stroke-opacity="0"/><path fill="none" stroke="rgb(0, 131, 255)" paint-order="fill stroke markers" d=" M 764 451 L 764 39" stroke-miterlimit="10" stroke-opacity="0"/><path fill="none" stroke="rgb(0, 131, 255)" paint-order="fill stroke markers" d=" M 860 451 L 860 39" stroke-miterlimit="10" stroke-opacity="0"/></g><g><path fill="none" stroke="rgb(0, 131, 255)" paint-order="fill stroke markers" d=" M 67 441 L 870 441" stroke-miterlimit="10" stroke-opacity="0.25"/><path fill="none" stroke="rgb(0, 131, 255)" paint-order="fill stroke markers" d=" M 67 349 L 870 349" stroke-miterlimit="10" stroke-opacity="0.25"/><path fill="none" stroke="rgb(0, 131, 255)" paint-order="fill stroke markers" d=" M 67 257 L 870 257" stroke-miterlimit="10" stroke-opacity="0.25"/><path fill="none" stroke="rgb(0, 131, 255)" paint-order="fill stroke markers" d=" M 67 166 L 870 166" stroke-miterlimit="10" stroke-opacity="0.25"/><path fill="none" stroke="rgb(0, 131, 255)" paint-order="fill stroke markers" d=" M 67 74 L 870 74" stroke-miterlimit="10" stroke-opacity="0.25"/></g><g><path fill="none" stroke="none"/><path fill="none" stroke="rgb(0, 28, 100)" paint-order="fill stroke markers" d=" M 103.5 74.15644834254522 L 106.39108910890764 68.09144661858858 L 119.40099009900655 89.6908026524257 L 123.73762376237914 57.72727272727277 L 127.59240924092387 70.51854637221061 L 131.4471947194686 80.9477482191895 L 135.78382838284097 78.03064908134567 L 139.63861386138592 96.41249513990951 L 143.49339933993065 89.15226127313144 L 147.34818481848447 95.51401028771961 L 151.68481848184774 86.49344218454098 L 155.05775577557392 75.89113775136036 L 163.7310231023098 86.06022777568693 L 167.58580858085452 84.07183775111582 L 171.9224422442269 77.7082569631287 L 175.77722772277184 80.81311287436594 L 179.63201320131657 83.15045573143894 L 183.96864686468894 81.18129932755691 L 186.8597359735984 93.71795647003931 L 192.16006600660626 129.14445400592615 L 196.01485148515098 102.9968046224713 L 199.8696369636957 111.31763528724721 L 203.72442244224044 82.48918553441436 L 208.0610561056128 82.38843799747156 L 211.91584158415776 103.6937944007756 L 215.77062706270226 106.3700153366562 L 220.10726072607486 99.67213590335886 L 223.96204620461958 66.26791619992387 L 227.81683168316454 90.13775536177195 L 232.1534653465369 94.81885228281428 L 236.00825082508163 103.18914082936212 L 239.8630363036266 108.4957883661493 L 243.71782178218018 107.03403319377921 L 248.05445544554368 99.14733282455683 L 251.9092409240884 99.93865893290754 L 256.2458745874608 91.65080018931292 L 260.1006600660055 85.14342518950744 L 263.95544554455046 104.81758738103757 L 268.2920792079226 83.58641780039142 L 272.14686468646755 84.7468462486326 L 276.0016501650125 82.46995191372528 L 280.33828382838465 86.23333036188865 L 284.1930693069296 102.62953405597982 L 288.0478547854743 105.0914375041821 L 291.90264026402815 101.11557334173936 L 296.2392739273914 101.92704895747866 L 300.0940594059364 89.8190267903529 L 303.9488448844902 87.7152350416473 L 308.2854785478535 91.42915560803876 L 312.1402640263984 73.56020610118372 L 316.47689768977057 74.4962423080523 L 320.3316831683155 80.2241977266003 L 324.18646864686025 88.3618510514802 L 328.5231023102326 96.2384766670083 L 332.37788778877734 115.30815363688163 L 336.2326732673223 112.89296041035283 L 340.0874587458761 115.6113121344095 L 344.4240924092394 106.20149218395187 L 348.27887788778435 79.93935696306201 L 352.13366336633794 98.16000696251737 L 356.47029702970144 100.70800376047076 L 360.32508250824617 93.80221804639147 L 364.66171617161854 91.4502210021268 L 368.51650165016326 107.6018829474568 L 372.3712871287082 116.27441410483304 L 376.70792079208036 116.58947912945416 L 380.5627062706253 139.14044144405102 L 384.41749174917004 135.4439227249497 L 388.7541254125424 134.23586816833554 L 392.60891089108736 120.96283811947123 L 396.4636963696321 121.01595954804105 L 400.80033003300446 117.79936545946725 L 404.6551155115492 143.51654809416652 L 408.50990099009414 148.56766324179878 L 412.8465346534663 122.92191976965897 L 416.70132013201123 122.78453676473697 L 420.55610561055596 117.14450646933905 L 424.8927392739283 125.92877580405184 L 428.7475247524733 136.07771632098985 L 432.602310231018 132.34273036051036 L 436.45709570957183 127.94097888280943 L 440.7937293729351 126.57447592718526 L 444.64851485148006 125.74193491735792 L 448.9851485148522 125.60638368583489 L 452.83993399339715 123.51541435092201 L 456.6947194719419 124.04113331642353 L 461.03135313531425 123.28552678935253 L 464.8861386138592 123.66653565633621 L 468.74092409240393 127.20643774982646 L 473.0775577557763 127.35389550844275 L 476.932343234321 151.20266927620276 L 480.787128712866 135.2415117643646 L 484.6419141914198 130.60254563149834 L 488.9785478547831 138.14945203521364 L 492.8333333333278 140.1341785129868 L 496.6881188118816 147.53729070488376 L 501.0247524752449 171.46941016229647 L 504.87953795378985 160.72331151729747 L 509.2161716171622 150.3389881185931 L 513.070957095707 158.84208023656555 L 516.9257425742519 158.46473491637977 L 521.262376237624 145.95921792167968 L 529.4537953795411 168.17679747766581 L 532.8267326732675 173.15097814254176 L 537.1633663366308 177.80276668920075 L 541.0181518151758 166.67657506391757 L 549.6914191419114 168.4295822067223 L 553.0643564356378 160.77643294586733 L 557.40099009901 149.23809230581816 L 561.2557755775549 157.1861570839057 L 563.1831683168273 129.43021065616392 L 571.3745874587444 160.37985400499247 L 573.3019801980167 171.17815819186183 L 577.1567656765617 173.21875375830328 L 581.4933993399341 167.59429353679656 L 584.3844884488433 169.3326464924096 L 593.5396039603959 167.5961253101955 L 597.3943894389408 182.99218072845449 L 601.2491749174856 163.9032701378921 L 605.1039603960394 140.9007756804516 L 614.2590759075933 147.87800055709033 L 617.6320132013198 164.73855880781787 L 621.4867986798649 185.45042062985885 L 625.3415841584097 195.39420252611333 L 634.0148514851453 175.9819839306345 L 637.3877887788717 164.72665228072464 L 641.7244224422438 164.26779304428513 L 645.5792079207886 172.8698009258014 L 657.6254125412506 171.31096176328643 L 661.4801980197954 184.74427198455976 L 665.816831683168 180.00364242805122 L 668.707920792077 204.30669599875333 L 677.8630363036295 221.0097217371703 L 681.7178217821747 200.52683158999932 L 685.5726072607195 188.29974415194116 L 689.4273927392733 209.06014796905458 L 697.6188118811815 213.89511385560957 L 701.9554455445536 188.25761336376507 L 705.8102310230984 199.87563614666902 L 710.146864686471 194.4105402108718 L 718.8201320131961 228.06113343646692 L 721.7112211221051 229.18950585022628 L 725.566006600659 239.1048952587969 L 729.9026402640225 240.71410818978327 L 731.3481848184765 232.37038035752036 L 741.4669966996657 244.117543165051 L 745.8036303630292 250.3767128692974 L 749.6584158415831 236.03850658893782 L 762.6683168316822 223.20510215582388 L 766.0412541254082 220.20923676182477 L 769.8960396039533 227.28995683550474 L 774.2326732673255 212.29963922511538 L 782.4240924092428 234.1700977219986 L 786.2788778877875 220.25686287019775 L 790.1336633663323 231.80894181073913 L 794.9521452145232 234.17650892889495 L 807.9620462046219 202.87791274756452 L 811.3349834983469 240.2644078203386 L 815.1897689768916 249.58996619444406 L 824.3448844884456 244.025954495103 L 827.2359735973537 189.8237796198759 L 829.6452145214448 225.1696791262085 L 833.5 245.42634525860794" stroke-miterlimit="10" stroke-width="3" stroke-opacity="0.7"/></g><g><path fill="none" stroke="none"/><path fill="none" stroke="rgb(255, 67, 67)" paint-order="fill stroke markers" d=" M 103.5 74.15644834254522 L 106.39108910890764 73.01616940169261 L 119.40099009900655 96.3346447704537 L 123.73762376237914 98.67931472112254 L 127.59240924092387 99.71151903143651 L 131.4471947194686 96.61673787389354 L 135.78382838284097 90.95655807110708 L 139.63861386138592 88.91962605146352 L 143.49339933993065 89.56532617459693 L 147.34818481848447 81.22800954923039 L 151.68481848184774 76.3747259286858 L 155.05775577557392 73.94579440166481 L 163.7310231023098 91.91549144546265 L 167.58580858085452 107.09356582924539 L 171.9224422442269 112.12819501628702 L 175.77722772277184 110.3696925532854 L 179.63201320131657 106.5660150903449 L 183.96864686468894 107.25934132185128 L 186.8597359735984 109.44281521341162 L 192.16006600660626 108.10470474547134 L 196.01485148515098 105.49625942535226 L 199.8696369636957 96.90982161772715 L 203.72442244224044 98.78189403146429 L 208.0610561056128 103.86506521357836 L 211.91584158415776 111.4879902133505 L 215.77062706270226 123.72881595190086 L 220.10726072607486 123.355134178513 L 223.96204620461958 130.3250319615559 L 227.81683168316454 125.58440240504736 L 232.1534653465369 126.3894668138903 L 236.00825082508163 125.73643959716104 L 239.8630363036266 117.15366533633384 L 243.71782178218018 112.68780178966931 L 248.05445544554368 110.97967309513909 L 251.9092409240884 113.2565674300464 L 256.2458745874608 116.73327334127252 L 260.1006600660055 127.61125967099662 L 263.95544554455046 143.68507124687085 L 268.2920792079226 151.43713627126965 L 272.14686468646755 156.17593405437924 L 276.0016501650125 154.99444021205 L 280.33828382838465 143.59073491682437 L 284.1930693069296 143.3938192764362 L 288.0478547854743 137.31416336528787 L 291.90264026402815 134.47399871020036 L 296.2392739273914 140.44557999081002 L 300.0940594059364 139.5434315918222 L 303.9488448844902 135.79012789735313 L 308.2854785478535 145.26131225667592 L 312.1402640263984 159.20568725625913 L 316.47689768977057 168.73823602444708 L 320.3316831683155 166.30197740383025 L 324.18646864686025 164.14689599995376 L 328.5231023102326 163.10919636944294 L 332.37788778877734 159.63798577841368 L 336.2326732673223 158.72301496563313 L 340.0874587458761 159.66088294590068 L 344.4240924092394 156.76851274894278 L 348.27887788778435 154.90193565540255 L 352.13366336633794 155.4807760494739 L 356.47029702970144 173.5530524036135 L 360.32508250824617 193.57433565424654 L 364.66171617161854 199.04950634373807 L 368.51650165016326 195.98861299407588 L 372.3712871287082 195.62225831428384 L 376.70792079208036 190.34308737848107 L 380.5627062706253 189.6323592996846 L 384.41749174917004 187.57619365935193 L 388.7541254125424 180.30588503887964 L 392.60891089108736 182.0707987087776 L 396.4636963696321 189.3063036346697 L 400.80033003300446 188.99764981694494 L 404.6551155115492 202.32746484117703 L 408.50990099009414 217.29671705747833 L 412.8465346534663 219.5672001854893 L 416.70132013201123 220.3594421805395 L 420.55610561055596 213.5864600378848 L 424.8927392739283 209.9485580675502 L 428.7475247524733 204.15649058003862 L 432.602310231018 202.58757666382934 L 436.45709570957183 208.4730645946879 L 440.7937293729351 210.1784456291197 L 444.64851485148006 208.8494940281742 L 448.9851485148522 203.3376878707035 L 452.83993399339715 210.27552961926457 L 456.6947194719419 226.8787237074382 L 461.03135313531425 239.5353620075525 L 464.8861386138592 237.59093454455643 L 468.74092409240393 237.3912712440698 L 473.0775577557763 227.34033060397616 L 476.932343234321 230.7547562196376 L 480.787128712866 231.15774636740883 L 484.6419141914198 226.83934057936057 L 488.9785478547831 229.34612247583738 L 492.8333333333278 226.72577062862504 L 496.6881188118816 232.27970757427184 L 501.0247524752449 252.13521533229903 L 504.87953795378985 272.066741686383 L 509.2161716171622 285.20422050372434 L 513.070957095707 280.13112407530457 L 516.9257425742519 279.6942461196526 L 521.262376237624 274.3546266616841 L 529.4537953795411 275.3959898389929 L 532.8267326732675 271.1133036322243 L 537.1633663366308 269.9345574499936 L 541.0181518151758 269.9226509229003 L 549.6914191419114 292.25013688282405 L 553.0643564356378 309.0383400842927 L 557.40099009901 316.4011532614125 L 561.2557755775549 313.4684840496775 L 563.1831683168273 319.70292481303795 L 571.3745874587444 317.3271147145868 L 573.3019801980167 316.07234993629913 L 577.1567656765617 312.75684008418153 L 581.4933993399341 304.5651494440323 L 584.3844884488433 300.88328491212263 L 593.5396039603959 308.2534251828383 L 597.3943894389408 329.9672670541104 L 601.2491749174856 355.76230005826545 L 605.1039603960394 364.2901211171239 L 614.2590759075933 361.81539525512886 L 617.6320132013198 358.97981003353874 L 621.4867986798649 357.34403638826745 L 625.3415841584097 352.55944427018386 L 634.0148514851453 355.52508540310015 L 637.3877887788717 352.47793035393016 L 641.7244224422438 349.74767210278026 L 645.5792079207886 361.3684425457826 L 657.6254125412506 370.0602073238479 L 661.4801980197954 364.4137658215536 L 665.816831683168 365.612661511173 L 668.707920792077 362.954758309282 L 677.8630363036295 360.6293219793023 L 681.7178217821747 359.35257592022714 L 685.5726072607195 357.66459673308543 L 689.4273927392733 360.81524697929666 L 697.6188118811815 390.21704180600403 L 701.9554455445536 394.43653183050844 L 705.8102310230984 389.68307986020716 L 710.146864686471 386.6295136041408 L 718.8201320131961 380.9079693924892 L 721.7112211221051 374.33098700352326 L 725.566006600659 373.3454929148827 L 729.9026402640225 373.4205956242401 L 731.3481848184765 374.3621271513056 L 741.4669966996657 392.68993589460007 L 745.8036303630292 407.41647813553914 L 749.6584158415831 405.35481717500966 L 762.6683168316822 404.8813037513785 L 766.0412541254082 402.35712000761157 L 769.8960396039533 399.75600178108834 L 774.2326732673255 399.1396100323383 L 782.4240924092428 394.3348684068662 L 786.2788778877875 396.99643515555505 L 790.1336633663323 412.58299500730595 L 794.9521452145232 432.27272727272725 L 807.9620462046219 422.936178258228 L 811.3349834983469 422.5304404503583 L 815.1897689768916 421.03113392330954 L 824.3448844884456 419.01709907115304 L 827.2359735973537 425.0234840463429 L 829.6452145214448 420.0804435292493 L 833.5 419.5391544898566" stroke-miterlimit="10" stroke-width="3"/></g></g><g><g/><g><path fill="#ffffff" stroke="#e5e5e5" paint-order="fill stroke markers" d=" M 77 378 L 396 378 L 396 441 L 77 441 L 77 378 Z" fill-opacity="0.95" stroke-miterlimit="10" stroke-opacity="0.5"/><text fill="#444444" stroke="none" font-family="ADAM" font-size="10pt" font-style="normal" font-weight="normal" text-decoration="normal" x="112" y="398" text-anchor="start" dominant-baseline="central">Variación Masa de Hielo Antártida</text><g><path fill="none" stroke="rgb(0, 28, 100)" paint-order="fill stroke markers" d=" M 87 398 L 107 398" stroke-miterlimit="10" stroke-width="3" stroke-opacity="0.7"/></g><text fill="#444444" stroke="none" font-family="ADAM" font-size="10pt" font-style="normal" font-weight="normal" text-decoration="normal" x="112" y="421" text-anchor="start" dominant-baseline="central">Variación Masa de Hielo Groenlandia</text><g><path fill="none" stroke="rgb(255, 67, 67)" paint-order="fill stroke markers" d=" M 87 421 L 107 421" stroke-miterlimit="10" stroke-width="3"/></g></g></g><g><g fill="#444444"><path fill="none" stroke="black" paint-order="fill stroke markers" d=" M 67 451 L 870 451" stroke-miterlimit="10"/><path fill="none" stroke="rgb(255, 67, 67)" paint-order="fill stroke markers" d=" M 90 457 L 90 449" stroke-miterlimit="10" stroke-width="3"/><path fill="none" stroke="rgb(255, 67, 67)" paint-order="fill stroke markers" d=" M 186 457 L 186 449" stroke-miterlimit="10" stroke-width="3"/><path fill="none" stroke="rgb(255, 67, 67)" paint-order="fill stroke markers" d=" M 282 457 L 282 449" stroke-miterlimit="10" stroke-width="3"/><path fill="none" stroke="rgb(255, 67, 67)" paint-order="fill stroke markers" d=" M 379 457 L 379 449" stroke-miterlimit="10" stroke-width="3"/><path fill="none" stroke="rgb(255, 67, 67)" paint-order="fill stroke markers" d=" M 475 457 L 475 449" stroke-miterlimit="10" stroke-width="3"/><path fill="none" stroke="rgb(255, 67, 67)" paint-order="fill stroke markers" d=" M 571 457 L 571 449" stroke-miterlimit="10" stroke-width="3"/><path fill="none" stroke="rgb(255, 67, 67)" paint-order="fill stroke markers" d=" M 668 457 L 668 449" stroke-miterlimit="10" stroke-width="3"/><path fill="none" stroke="rgb(255, 67, 67)" paint-order="fill stroke markers" d=" M 764 457 L 764 449" stroke-miterlimit="10" stroke-width="3"/><path fill="" stroke="rgb(255, 67, 67)" paint-order="fill stroke markers" d=" M 860 457 L 860 449" stroke-miterlimit="10" stroke-width="3"/><g transform="translate(90,462) rotate(0,0,0)"><text fill="" stroke="none" font-family="helvetica" font-size="8pt" font-style="normal" font-weight="normal" text-decoration="normal" x="0" y="0" text-anchor="middle" dominant-baseline="hanging">2002</text><g transform="rotate(0,0,0) translate(-90,-462) translate(186,462) rotate(0,0,0)"><text fill="" stroke="none" font-family="helvetica" font-size="8pt" font-style="normal" font-weight="normal" text-decoration="normal" x="0" y="0" text-anchor="middle" dominant-baseline="hanging">2004</text><g transform="rotate(0,0,0) translate(-186,-462) translate(282,462) rotate(0,0,0)"><text fill="" stroke="none" font-family="helvetica" font-size="8pt" font-style="normal" font-weight="normal" text-decoration="normal" x="0" y="0" text-anchor="middle" dominant-baseline="hanging">2006</text><g transform="rotate(0,0,0) translate(-282,-462) translate(379,462) rotate(0,0,0)"><text fill="" stroke="none" font-family="helvetica" font-size="8pt" font-style="normal" font-weight="normal" text-decoration="normal" x="0" y="0" text-anchor="middle" dominant-baseline="hanging">2008</text><g transform="rotate(0,0,0) translate(-379,-462) translate(475,462) rotate(0,0,0)"><text fill="" stroke="none" font-family="helvetica" font-size="8pt" font-style="normal" font-weight="normal" text-decoration="normal" x="0" y="0" text-anchor="middle" dominant-baseline="hanging">2010</text><g transform="rotate(0,0,0) translate(-475,-462) translate(571,462) rotate(0,0,0)"><text fill="" stroke="none" font-family="helvetica" font-size="8pt" font-style="normal" font-weight="normal" text-decoration="normal" x="0" y="0" text-anchor="middle" dominant-baseline="hanging">2012</text><g transform="rotate(0,0,0) translate(-571,-462) translate(668,462) rotate(0,0,0)"><text fill="" stroke="none" font-family="helvetica" font-size="8pt" font-style="normal" font-weight="normal" text-decoration="normal" x="0" y="0" text-anchor="middle" dominant-baseline="hanging">2014</text><g transform="rotate(0,0,0) translate(-668,-462) translate(764,462) rotate(0,0,0)"><text fill="" stroke="none" font-family="helvetica" font-size="8pt" font-style="normal" font-weight="normal" text-decoration="normal" x="0" y="0" text-anchor="middle" dominant-baseline="hanging">2016</text><g transform="rotate(0,0,0) translate(-764,-462) translate(860,462) rotate(0,0,0)"><text fill="" stroke="none" font-family="helvetica" font-size="8pt" font-style="normal" font-weight="normal" text-decoration="normal" x="0" y="0" text-anchor="middle" dominant-baseline="hanging">2018</text><g transform="rotate(0,0,0) translate(-860,-462) translate(469,480) rotate(0,0,0)"><text fill="" stroke="none" font-family="ADAM" font-size="12pt" font-style="normal" font-weight="normal" text-decoration="normal" x="0" y="0" text-anchor="middle" dominant-baseline="hanging">Fecha</text><g transform="rotate(0,0,0) translate(-469,-480)"/></g></g></g></g></g></g></g></g></g></g></g><g fill="#444444"><path fill="none" stroke="black" paint-order="fill stroke markers" d=" M 67 451 L 67 39" stroke-miterlimit="10"/><path fill="none" stroke="rgb(255, 67, 67)" paint-order="fill stroke markers" d=" M 61 441 L 69 441" stroke-miterlimit="10" stroke-width="3"/><path fill="none" stroke="rgb(255, 67, 67)" paint-order="fill stroke markers" d=" M 61 349 L 69 349" stroke-miterlimit="10" stroke-width="3"/><path fill="none" stroke="rgb(255, 67, 67)" paint-order="fill stroke markers" d=" M 61 257 L 69 257" stroke-miterlimit="10" stroke-width="3"/><path fill="none" stroke="rgb(255, 67, 67)" paint-order="fill stroke markers" d=" M 61 166 L 69 166" stroke-miterlimit="10" stroke-width="3"/><path fill="none" stroke="rgb(255, 67, 67)" paint-order="fill stroke markers" d=" M 61 74 L 69 74" stroke-miterlimit="10" stroke-width="3"/><path fill="none" stroke="rgb(255, 67, 67)" paint-order="fill stroke markers" d=" M 63 441 L 67 441" stroke-miterlimit="10"/><path fill="none" stroke="rgb(255, 67, 67)" paint-order="fill stroke markers" d=" M 63 422 L 67 422" stroke-miterlimit="10"/><path fill="none" stroke="rgb(255, 67, 67)" paint-order="fill stroke markers" d=" M 63 404 L 67 404" stroke-miterlimit="10"/><path fill="none" stroke="rgb(255, 67, 67)" paint-order="fill stroke markers" d=" M 63 386 L 67 386" stroke-miterlimit="10"/><path fill="none" stroke="rgb(255, 67, 67)" paint-order="fill stroke markers" d=" M 63 367 L 67 367" stroke-miterlimit="10"/><path fill="none" stroke="rgb(255, 67, 67)" paint-order="fill stroke markers" d=" M 63 349 L 67 349" stroke-miterlimit="10"/><path fill="none" stroke="rgb(255, 67, 67)" paint-order="fill stroke markers" d=" M 63 331 L 67 331" stroke-miterlimit="10"/><path fill="none" stroke="rgb(255, 67, 67)" paint-order="fill stroke markers" d=" M 63 312 L 67 312" stroke-miterlimit="10"/><path fill="none" stroke="rgb(255, 67, 67)" paint-order="fill stroke markers" d=" M 63 294 L 67 294" stroke-miterlimit="10"/><path fill="none" stroke="rgb(255, 67, 67)" paint-order="fill stroke markers" d=" M 63 276 L 67 276" stroke-miterlimit="10"/><path fill="none" stroke="rgb(255, 67, 67)" paint-order="fill stroke markers" d=" M 63 257 L 67 257" stroke-miterlimit="10"/><path fill="none" stroke="rgb(255, 67, 67)" paint-order="fill stroke markers" d=" M 63 239 L 67 239" stroke-miterlimit="10"/><path fill="none" stroke="rgb(255, 67, 67)" paint-order="fill stroke markers" d=" M 63 221 L 67 221" stroke-miterlimit="10"/><path fill="none" stroke="rgb(255, 67, 67)" paint-order="fill stroke markers" d=" M 63 202 L 67 202" stroke-miterlimit="10"/><path fill="none" stroke="rgb(255, 67, 67)" paint-order="fill stroke markers" d=" M 63 184 L 67 184" stroke-miterlimit="10"/><path fill="none" stroke="rgb(255, 67, 67)" paint-order="fill stroke markers" d=" M 63 166 L 67 166" stroke-miterlimit="10"/><path fill="none" stroke="rgb(255, 67, 67)" paint-order="fill stroke markers" d=" M 63 147 L 67 147" stroke-miterlimit="10"/><path fill="none" stroke="rgb(255, 67, 67)" paint-order="fill stroke markers" d=" M 63 129 L 67 129" stroke-miterlimit="10"/><path fill="none" stroke="rgb(255, 67, 67)" paint-order="fill stroke markers" d=" M 63 111 L 67 111" stroke-miterlimit="10"/><path fill="none" stroke="rgb(255, 67, 67)" paint-order="fill stroke markers" d=" M 63 92 L 67 92" stroke-miterlimit="10"/><path fill="none" stroke="rgb(255, 67, 67)" paint-order="fill stroke markers" d=" M 63 74 L 67 74" stroke-miterlimit="10"/><path fill="" stroke="rgb(255, 67, 67)" paint-order="fill stroke markers" d=" M 63 56 L 67 56" stroke-miterlimit="10"/><g transform="translate(56,441) rotate(0,0,0)"><text fill="" stroke="none" font-family="helvetica" font-size="8pt" font-style="normal" font-weight="normal" text-decoration="normal" x="0" y="0" text-anchor="end" dominant-baseline="central">-4000</text><g transform="rotate(0,0,0) translate(-56,-441) translate(56,349) rotate(0,0,0)"><text fill="" stroke="none" font-family="helvetica" font-size="8pt" font-style="normal" font-weight="normal" text-decoration="normal" x="0" y="0" text-anchor="end" dominant-baseline="central">-3000</text><g transform="rotate(0,0,0) translate(-56,-349) translate(56,257) rotate(0,0,0)"><text fill="" stroke="none" font-family="helvetica" font-size="8pt" font-style="normal" font-weight="normal" text-decoration="normal" x="0" y="0" text-anchor="end" dominant-baseline="central">-2000</text><g transform="rotate(0,0,0) translate(-56,-257) translate(56,166) rotate(0,0,0)"><text fill="" stroke="none" font-family="helvetica" font-size="8pt" font-style="normal" font-weight="normal" text-decoration="normal" x="0" y="0" text-anchor="end" dominant-baseline="central">-1000</text><g transform="rotate(0,0,0) translate(-56,-166) translate(56,74) rotate(0,0,0)"><text fill="" stroke="none" font-family="helvetica" font-size="8pt" font-style="normal" font-weight="normal" text-decoration="normal" x="0" y="0" text-anchor="end" dominant-baseline="central">0</text><g transform="rotate(0,0,0) translate(-56,-74) translate(20,245) rotate(-90,0,0)"><text fill="" stroke="none" font-family="ADAM" font-size="12pt" font-style="normal" font-weight="normal" text-decoration="normal" x="0" y="0" text-anchor="middle" dominant-baseline="alphabetic">Variación (Gigatoneladas)</text><g transform="rotate(90,0,0) translate(-20,-245)"/></g></g></g></g></g></g></g><g fill="black"><path fill="" stroke="none" d=""/><g transform="translate(468.5,34)"><path fill="none" stroke="none"/><text fill="" stroke="none" font-family="ADAM" font-size="16pt" font-style="normal" font-weight="normal" text-decoration="normal" x="0" y="0" text-anchor="middle" dominant-baseline="text-after-edge">Variación de la Masa de Hielo en la Antártida y Groenlandia</text></g></g></g></g><g/><g/><g/><g/><g/><g/><g/><g/><g/><g/><g/><g/><g/><g/><g/><g/><g/><g/><g/><g/><g/><g/><g/><g/><g/><g/><g/><g/><g/><g/><g/><g/><g/><g/><g/><g/><g/><g/><g/><g/><g/><g/><g/><g/><g/><g/><g/><g/><g/><g/><g/><g/><g/><g/><g/><g/><g/><g/><g/><g/><g/><g/><g/><g/><g/><g/><g/><g/><g/><g/><g/><g/><g/><g/><g/><g/></g></svg>