<svg version="1.1" xmlns="http://www.w3.org/2000/svg" xmlns:xlink="http://www.w3.org/1999/xlink" width="900" height="500" style="width: 900px; height: 500px;"><defs/><g><g transform="scale(1,1) translate(0.5,0.5)"><rect fill="#FFFFFF" stroke="none" x="0" y="0" width="900" height="500"/><rect fill="#ffffff" stroke="none" x="0" y="0" width="900" height="500"/><rect fill="#FFFFFF" stroke="none" x="49" y="39" width="821" height="412"/><rect fill="white" stroke="none" x="49" y="39" width="821" height="412"/><g><rect fill="none" stroke="rgb(0, 131, 255)" x="49" y="39" width="821" height="412" stroke-miterlimit="10" stroke-width="7" stroke-opacity="0.5"/></g><g><g><path fill="none" stroke="rgb(0, 131, 255)" paint-order="fill stroke markers" d=" M 82 451 L 82 39" stroke-miterlimit="10" stroke-opacity="0"/><path fill="none" stroke="rgb(0, 131, 255)" paint-order="fill stroke markers" d=" M 311 451 L 311 39" stroke-miterlimit="10" stroke-opacity="0"/><path fill="none" stroke="rgb(0, 131, 255)" paint-order="fill stroke markers" d=" M 540 451 L 540 39" stroke-miterlimit="10" stroke-opacity="0"/><path fill="none" stroke="rgb(0, 131, 255)" paint-order="fill stroke markers" d=" M 769 451 L 769 39" stroke-miterlimit="10" stroke-opacity="0"/></g><g><path fill="none" stroke="rgb(0, 131, 255)" paint-order="fill stroke markers" d=" M 49 432 L 870 432" stroke-miterlimit="10" stroke-opacity="0.25"/><path fill="none" stroke="rgb(0, 131, 255)" paint-order="fill stroke markers" d=" M 49 365 L 870 365" stroke-miterlimit="10" stroke-opacity="0.25"/><path fill="none" stroke="rgb(0, 131, 255)" paint-order="fill stroke markers" d=" M 49 299 L 870 299" stroke-miterlimit="10" stroke-opacity="0.25"/><path fill="none" stroke="rgb(0, 131, 255)" paint-order="fill stroke markers" d=" M 49 232 L 870 232" stroke-miterlimit="10" stroke-opacity="0.25"/><path fill="none" stroke="rgb(0, 131, 255)" paint-order="fill stroke markers" d=" M 49 165 L 870 165" stroke-miterlimit="10" stroke-opacity="0.25"/><path fill="none" stroke="rgb(0, 131, 255)" paint-order="fill stroke markers" d=" M 49 98 L 870 98" stroke-miterlimit="10" stroke-opacity="0.25"/></g><g><path fill="none" stroke="none"/><path fill="none" stroke="rgb(172, 255, 165)" paint-order="fill stroke markers" d=" M 86.31818181818198 352.01298701298697 L 90.89709983268222 365.38961038961037 L 95.47601784718427 325.2597402597403 L 100.0549358616845 365.38961038961037 L 104.63385387618473 365.38961038961037 L 109.21277189068678 352.01298701298697 L 113.79168990518701 378.76623376623377 L 118.37060791968725 352.01298701298697 L 122.9495259341893 325.2597402597403 L 127.52844394868953 338.6363636363636 L 132.10736196318976 325.2597402597403 L 136.6862799776918 352.01298701298697 L 141.26519799219204 311.8831168831169 L 145.84411600669227 365.38961038961037 L 150.42303402119433 338.6363636363636 L 155.00195203569456 338.6363636363636 L 159.5808700501948 311.8831168831169 L 164.15978806469684 378.76623376623377 L 168.73870607919707 298.5064935064935 L 173.3176240936973 285.12987012987014 L 177.89654210819936 325.2597402597403 L 182.4754601226996 365.38961038961037 L 187.05437813719982 365.38961038961037 L 191.63329615170187 338.6363636363636 L 196.2122141662021 352.01298701298697 L 200.79113218070233 365.38961038961037 L 205.37005019520439 325.2597402597403 L 209.94896820970462 271.75324675324674 L 214.52788622420485 325.2597402597403 L 219.1068042387069 285.12987012987014 L 223.68572225320713 338.6363636363636 L 228.26464026770736 352.01298701298697 L 232.84355828220941 378.76623376623377 L 237.42247629670965 378.76623376623377 L 242.00139431120988 325.2597402597403 L 246.58031232571193 271.75324675324674 L 251.15923034021216 178.11688311688314 L 255.7381483547124 311.8831168831169 L 260.31706636921444 311.8831168831169 L 264.8959843837147 378.76623376623377 L 269.4749023982149 298.5064935064935 L 274.05382041271696 311.8831168831169 L 278.6327384272172 271.75324675324674 L 283.2116564417174 338.6363636363636 L 287.79057445621766 352.01298701298697 L 292.3694924707197 338.6363636363636 L 296.94841048521994 352.01298701298697 L 301.52732849972017 285.12987012987014 L 306.1062465142222 298.5064935064935 L 310.68516452872245 338.6363636363636 L 315.2640825432227 258.37662337662334 L 319.84300055772474 365.38961038961037 L 324.42191857222497 298.5064935064935 L 329.0008365867252 352.01298701298697 L 333.57975460122725 365.38961038961037 L 338.1586726157275 285.12987012987014 L 342.7375906302277 365.38961038961037 L 347.31650864472977 298.5064935064935 L 351.89542665923 271.75324675324674 L 356.47434467373023 365.38961038961037 L 361.0532626882323 352.01298701298697 L 365.6321807027325 338.6363636363636 L 370.21109871723274 352.01298701298697 L 374.7900167317348 418.89610389610385 L 379.368934746235 352.01298701298697 L 383.94785276073526 231.62337662337663 L 388.5267707752373 378.76623376623377 L 393.10568878973754 352.01298701298697 L 397.6846068042378 365.38961038961037 L 402.2635248187398 365.38961038961037 L 406.84244283324006 338.6363636363636 L 411.4213608477403 365.38961038961037 L 416.00027886224234 311.8831168831169 L 420.57919687674257 285.12987012987014 L 425.1581148912428 378.76623376623377 L 429.73703290574485 285.12987012987014 L 434.3159509202451 325.2597402597403 L 438.8948689347453 352.01298701298697 L 443.47378694924737 365.38961038961037 L 448.0527049637476 392.1428571428571 L 452.63162297824783 258.37662337662334 L 457.2105409927499 231.62337662337663 L 461.7894590072501 164.74025974025977 L 466.36837702175035 258.37662337662334 L 470.9472950362524 325.2597402597403 L 475.52621305075263 204.8701298701299 L 480.10513106525286 285.12987012987014 L 484.6840490797549 311.8831168831169 L 489.26296709425515 352.01298701298697 L 493.8418851087554 311.8831168831169 L 498.42080312325743 352.01298701298697 L 502.99972113775766 285.12987012987014 L 507.5786391522579 298.5064935064935 L 512.15755716676 245 L 516.7364751812602 285.12987012987014 L 521.3153931957604 338.6363636363636 L 525.8943112102625 298.5064935064935 L 530.4732292247627 298.5064935064935 L 535.0521472392629 218.24675324675326 L 539.631065253765 218.24675324675326 L 544.2099832682652 271.75324675324674 L 548.7889012827654 285.12987012987014 L 553.3678192972675 245 L 557.9467373117677 218.24675324675326 L 562.525655326268 258.37662337662334 L 567.10457334077 325.2597402597403 L 571.6834913552702 325.2597402597403 L 576.2624093697705 298.5064935064935 L 580.8413273842725 285.12987012987014 L 585.4202453987727 338.6363636363636 L 589.999163413273 285.12987012987014 L 594.578081427775 365.38961038961037 L 599.1569994422753 311.8831168831169 L 603.7359174567755 271.75324675324674 L 608.3148354712775 352.01298701298697 L 612.8937534857778 285.12987012987014 L 617.472671500278 325.2597402597403 L 622.0515895147801 325.2597402597403 L 626.6305075292803 191.49350649350652 L 631.2094255437805 298.5064935064935 L 635.7883435582826 258.37662337662334 L 640.3672615727828 338.6363636363636 L 644.946179587283 325.2597402597403 L 649.5250976017851 285.12987012987014 L 654.1040156162853 311.8831168831169 L 658.6829336307856 298.5064935064935 L 663.2618516452876 352.01298701298697 L 667.8407696597878 271.75324675324674 L 672.4196876742881 311.8831168831169 L 676.9986056887901 285.12987012987014 L 681.5775237032904 271.75324675324674 L 686.1564417177906 352.01298701298697 L 690.7353597322926 378.76623376623377 L 695.3142777467929 258.37662337662334 L 699.8931957612931 285.12987012987014 L 704.4721137757952 352.01298701298697 L 709.0510317902954 338.6363636363636 L 713.6299498047956 271.75324675324674 L 718.2088678192977 285.12987012987014 L 722.7877858337979 245 L 727.3667038482981 325.2597402597403 L 731.9456218628002 338.6363636363636 L 736.5245398773004 325.2597402597403 L 741.1034578918006 338.6363636363636 L 745.6823759063027 178.11688311688314 L 750.2612939208029 258.37662337662334 L 754.8402119353032 325.2597402597403 L 759.4191299498034 245 L 763.9980479643054 271.75324675324674 L 768.5769659788057 231.62337662337663 L 773.1558839933059 231.62337662337663 L 777.734802007808 271.75324675324674 L 782.3137200223082 218.24675324675326 L 786.8926380368084 231.62337662337663 L 791.4715560513105 57.72727272727275 L 796.0504740658107 298.5064935064935 L 800.6293920803109 231.62337662337663 L 805.208310094813 218.24675324675326 L 809.7872281093132 311.8831168831169 L 814.3661461238135 178.11688311688314 L 818.9450641383155 178.11688311688314 L 823.5239821528157 178.11688311688314 L 828.102900167316 245 L 832.681818181818 325.2597402597403" stroke-miterlimit="10" stroke-width="3"/></g><g><path fill="none" stroke="none"/><path fill="none" stroke="rgb(0, 28, 100)" paint-order="fill stroke markers" d=" M 86.31818181818198 392.1428571428571 L 90.89709983268222 365.38961038961037 L 95.47601784718427 378.76623376623377 L 100.0549358616845 392.1428571428571 L 104.63385387618473 378.76623376623377 L 109.21277189068678 378.76623376623377 L 113.79168990518701 392.1428571428571 L 118.37060791968725 352.01298701298697 L 122.9495259341893 338.6363636363636 L 127.52844394868953 352.01298701298697 L 132.10736196318976 352.01298701298697 L 136.6862799776918 392.1428571428571 L 141.26519799219204 365.38961038961037 L 145.84411600669227 392.1428571428571 L 150.42303402119433 392.1428571428571 L 155.00195203569456 352.01298701298697 L 159.5808700501948 338.6363636363636 L 164.15978806469684 392.1428571428571 L 168.73870607919707 338.6363636363636 L 173.3176240936973 298.5064935064935 L 177.89654210819936 352.01298701298697 L 182.4754601226996 378.76623376623377 L 187.05437813719982 392.1428571428571 L 191.63329615170187 378.76623376623377 L 196.2122141662021 365.38961038961037 L 200.79113218070233 378.76623376623377 L 205.37005019520439 392.1428571428571 L 209.94896820970462 298.5064935064935 L 214.52788622420485 352.01298701298697 L 219.1068042387069 311.8831168831169 L 223.68572225320713 378.76623376623377 L 228.26464026770736 378.76623376623377 L 232.84355828220941 392.1428571428571 L 237.42247629670965 378.76623376623377 L 242.00139431120988 352.01298701298697 L 246.58031232571193 298.5064935064935 L 251.15923034021216 285.12987012987014 L 255.7381483547124 352.01298701298697 L 260.31706636921444 352.01298701298697 L 264.8959843837147 405.5194805194805 L 269.4749023982149 338.6363636363636 L 274.05382041271696 365.38961038961037 L 278.6327384272172 298.5064935064935 L 283.2116564417174 365.38961038961037 L 287.79057445621766 405.5194805194805 L 292.3694924707197 352.01298701298697 L 296.94841048521994 392.1428571428571 L 301.52732849972017 365.38961038961037 L 306.1062465142222 365.38961038961037 L 310.68516452872245 392.1428571428571 L 315.2640825432227 352.01298701298697 L 319.84300055772474 392.1428571428571 L 324.42191857222497 338.6363636363636 L 329.0008365867252 378.76623376623377 L 333.57975460122725 418.89610389610385 L 338.1586726157275 352.01298701298697 L 342.7375906302277 432.27272727272725 L 347.31650864472977 352.01298701298697 L 351.89542665923 352.01298701298697 L 356.47434467373023 392.1428571428571 L 361.0532626882323 392.1428571428571 L 365.6321807027325 378.76623376623377 L 370.21109871723274 378.76623376623377 L 374.7900167317348 432.27272727272725 L 379.368934746235 365.38961038961037 L 383.94785276073526 298.5064935064935 L 388.5267707752373 405.5194805194805 L 393.10568878973754 378.76623376623377 L 397.6846068042378 405.5194805194805 L 402.2635248187398 378.76623376623377 L 406.84244283324006 365.38961038961037 L 411.4213608477403 392.1428571428571 L 416.00027886224234 378.76623376623377 L 420.57919687674257 365.38961038961037 L 425.1581148912428 418.89610389610385 L 429.73703290574485 325.2597402597403 L 434.3159509202451 378.76623376623377 L 438.8948689347453 378.76623376623377 L 443.47378694924737 392.1428571428571 L 448.0527049637476 405.5194805194805 L 452.63162297824783 392.1428571428571 L 457.2105409927499 352.01298701298697 L 461.7894590072501 285.12987012987014 L 466.36837702175035 338.6363636363636 L 470.9472950362524 365.38961038961037 L 475.52621305075263 338.6363636363636 L 480.10513106525286 378.76623376623377 L 484.6840490797549 378.76623376623377 L 489.26296709425515 392.1428571428571 L 493.8418851087554 352.01298701298697 L 498.42080312325743 378.76623376623377 L 502.99972113775766 378.76623376623377 L 507.5786391522579 365.38961038961037 L 512.15755716676 325.2597402597403 L 516.7364751812602 365.38961038961037 L 521.3153931957604 392.1428571428571 L 525.8943112102625 365.38961038961037 L 530.4732292247627 352.01298701298697 L 535.0521472392629 338.6363636363636 L 539.631065253765 285.12987012987014 L 544.2099832682652 325.2597402597403 L 548.7889012827654 365.38961038961037 L 553.3678192972675 338.6363636363636 L 557.9467373117677 338.6363636363636 L 562.525655326268 311.8831168831169 L 567.10457334077 378.76623376623377 L 571.6834913552702 392.1428571428571 L 576.2624093697705 338.6363636363636 L 580.8413273842725 338.6363636363636 L 585.4202453987727 378.76623376623377 L 589.999163413273 325.2597402597403 L 594.578081427775 392.1428571428571 L 599.1569994422753 338.6363636363636 L 603.7359174567755 352.01298701298697 L 608.3148354712775 378.76623376623377 L 612.8937534857778 338.6363636363636 L 617.472671500278 352.01298701298697 L 622.0515895147801 365.38961038961037 L 626.6305075292803 271.75324675324674 L 631.2094255437805 365.38961038961037 L 635.7883435582826 352.01298701298697 L 640.3672615727828 392.1428571428571 L 644.946179587283 378.76623376623377 L 649.5250976017851 378.76623376623377 L 654.1040156162853 352.01298701298697 L 658.6829336307856 352.01298701298697 L 663.2618516452876 365.38961038961037 L 667.8407696597878 365.38961038961037 L 672.4196876742881 352.01298701298697 L 676.9986056887901 311.8831168831169 L 681.5775237032904 338.6363636363636 L 686.1564417177906 405.5194805194805 L 690.7353597322926 392.1428571428571 L 695.3142777467929 365.38961038961037 L 699.8931957612931 338.6363636363636 L 704.4721137757952 378.76623376623377 L 709.0510317902954 392.1428571428571 L 713.6299498047956 365.38961038961037 L 718.2088678192977 338.6363636363636 L 722.7877858337979 325.2597402597403 L 727.3667038482981 378.76623376623377 L 731.9456218628002 378.76623376623377 L 736.5245398773004 378.76623376623377 L 741.1034578918006 392.1428571428571 L 745.6823759063027 285.12987012987014 L 750.2612939208029 311.8831168831169 L 754.8402119353032 392.1428571428571 L 759.4191299498034 298.5064935064935 L 763.9980479643054 325.2597402597403 L 768.5769659788057 325.2597402597403 L 773.1558839933059 311.8831168831169 L 777.734802007808 378.76623376623377 L 782.3137200223082 338.6363636363636 L 786.8926380368084 311.8831168831169 L 791.4715560513105 231.62337662337663 L 796.0504740658107 365.38961038961037 L 800.6293920803109 352.01298701298697 L 805.208310094813 325.2597402597403 L 809.7872281093132 392.1428571428571 L 814.3661461238135 271.75324675324674 L 818.9450641383155 338.6363636363636 L 823.5239821528157 298.5064935064935 L 828.102900167316 405.5194805194805 L 832.681818181818 352.01298701298697" stroke-miterlimit="10" stroke-width="3" stroke-opacity="0.7"/></g><g><path fill="none" stroke="none"/><path fill="none" stroke="rgb(255, 67, 67)" paint-order="fill stroke markers" d=" M 86.31818181818198 418.89610389610385 L 90.89709983268222 418.89610389610385 L 95.47601784718427 405.5194805194805 L 100.0549358616845 418.89610389610385 L 104.63385387618473 418.89610389610385 L 109.21277189068678 405.5194805194805 L 113.79168990518701 432.27272727272725 L 118.37060791968725 432.27272727272725 L 122.9495259341893 418.89610389610385 L 127.52844394868953 418.89610389610385 L 132.10736196318976 432.27272727272725 L 136.6862799776918 432.27272727272725 L 141.26519799219204 432.27272727272725 L 145.84411600669227 432.27272727272725 L 150.42303402119433 432.27272727272725 L 155.00195203569456 418.89610389610385 L 159.5808700501948 418.89610389610385 L 164.15978806469684 432.27272727272725 L 168.73870607919707 418.89610389610385 L 173.3176240936973 405.5194805194805 L 177.89654210819936 405.5194805194805 L 182.4754601226996 432.27272727272725 L 187.05437813719982 405.5194805194805 L 191.63329615170187 432.27272727272725 L 196.2122141662021 418.89610389610385 L 200.79113218070233 405.5194805194805 L 205.37005019520439 418.89610389610385 L 209.94896820970462 405.5194805194805 L 214.52788622420485 405.5194805194805 L 219.1068042387069 405.5194805194805 L 223.68572225320713 432.27272727272725 L 228.26464026770736 405.5194805194805 L 232.84355828220941 405.5194805194805 L 237.42247629670965 418.89610389610385 L 242.00139431120988 432.27272727272725 L 246.58031232571193 378.76623376623377 L 251.15923034021216 405.5194805194805 L 255.7381483547124 405.5194805194805 L 260.31706636921444 432.27272727272725 L 264.8959843837147 418.89610389610385 L 269.4749023982149 418.89610389610385 L 274.05382041271696 432.27272727272725 L 278.6327384272172 365.38961038961037 L 283.2116564417174 378.76623376623377 L 287.79057445621766 432.27272727272725 L 292.3694924707197 405.5194805194805 L 296.94841048521994 432.27272727272725 L 301.52732849972017 418.89610389610385 L 306.1062465142222 405.5194805194805 L 310.68516452872245 405.5194805194805 L 315.2640825432227 432.27272727272725 L 319.84300055772474 432.27272727272725 L 324.42191857222497 418.89610389610385 L 329.0008365867252 432.27272727272725 L 333.57975460122725 418.89610389610385 L 338.1586726157275 392.1428571428571 L 342.7375906302277 432.27272727272725 L 347.31650864472977 418.89610389610385 L 351.89542665923 378.76623376623377 L 356.47434467373023 418.89610389610385 L 361.0532626882323 432.27272727272725 L 365.6321807027325 418.89610389610385 L 370.21109871723274 432.27272727272725 L 374.7900167317348 432.27272727272725 L 379.368934746235 392.1428571428571 L 383.94785276073526 365.38961038961037 L 388.5267707752373 405.5194805194805 L 393.10568878973754 418.89610389610385 L 397.6846068042378 418.89610389610385 L 402.2635248187398 432.27272727272725 L 406.84244283324006 405.5194805194805 L 411.4213608477403 418.89610389610385 L 416.00027886224234 418.89610389610385 L 420.57919687674257 405.5194805194805 L 425.1581148912428 432.27272727272725 L 429.73703290574485 352.01298701298697 L 434.3159509202451 418.89610389610385 L 438.8948689347453 418.89610389610385 L 443.47378694924737 418.89610389610385 L 448.0527049637476 405.5194805194805 L 452.63162297824783 418.89610389610385 L 457.2105409927499 378.76623376623377 L 461.7894590072501 352.01298701298697 L 466.36837702175035 418.89610389610385 L 470.9472950362524 392.1428571428571 L 475.52621305075263 418.89610389610385 L 480.10513106525286 418.89610389610385 L 484.6840490797549 405.5194805194805 L 489.26296709425515 418.89610389610385 L 493.8418851087554 432.27272727272725 L 498.42080312325743 392.1428571428571 L 502.99972113775766 418.89610389610385 L 507.5786391522579 405.5194805194805 L 512.15755716676 392.1428571428571 L 516.7364751812602 405.5194805194805 L 521.3153931957604 432.27272727272725 L 525.8943112102625 405.5194805194805 L 530.4732292247627 378.76623376623377 L 535.0521472392629 405.5194805194805 L 539.631065253765 352.01298701298697 L 544.2099832682652 392.1428571428571 L 548.7889012827654 405.5194805194805 L 553.3678192972675 392.1428571428571 L 557.9467373117677 392.1428571428571 L 562.525655326268 378.76623376623377 L 567.10457334077 405.5194805194805 L 571.6834913552702 405.5194805194805 L 576.2624093697705 365.38961038961037 L 580.8413273842725 405.5194805194805 L 585.4202453987727 405.5194805194805 L 589.999163413273 338.6363636363636 L 594.578081427775 418.89610389610385 L 599.1569994422753 405.5194805194805 L 603.7359174567755 352.01298701298697 L 608.3148354712775 418.89610389610385 L 612.8937534857778 392.1428571428571 L 617.472671500278 418.89610389610385 L 622.0515895147801 432.27272727272725 L 626.6305075292803 365.38961038961037 L 631.2094255437805 405.5194805194805 L 635.7883435582826 418.89610389610385 L 640.3672615727828 432.27272727272725 L 644.946179587283 418.89610389610385 L 649.5250976017851 405.5194805194805 L 654.1040156162853 392.1428571428571 L 658.6829336307856 405.5194805194805 L 663.2618516452876 418.89610389610385 L 667.8407696597878 405.5194805194805 L 672.4196876742881 405.5194805194805 L 676.9986056887901 405.5194805194805 L 681.5775237032904 392.1428571428571 L 686.1564417177906 418.89610389610385 L 690.7353597322926 418.89610389610385 L 695.3142777467929 418.89610389610385 L 699.8931957612931 392.1428571428571 L 704.4721137757952 432.27272727272725 L 709.0510317902954 418.89610389610385 L 713.6299498047956 392.1428571428571 L 718.2088678192977 405.5194805194805 L 722.7877858337979 418.89610389610385 L 727.3667038482981 405.5194805194805 L 731.9456218628002 418.89610389610385 L 736.5245398773004 418.89610389610385 L 741.1034578918006 432.27272727272725 L 745.6823759063027 365.38961038961037 L 750.2612939208029 352.01298701298697 L 754.8402119353032 418.89610389610385 L 759.4191299498034 392.1428571428571 L 763.9980479643054 365.38961038961037 L 768.5769659788057 392.1428571428571 L 773.1558839933059 378.76623376623377 L 777.734802007808 405.5194805194805 L 782.3137200223082 392.1428571428571 L 786.8926380368084 352.01298701298697 L 791.4715560513105 338.6363636363636 L 796.0504740658107 405.5194805194805 L 800.6293920803109 405.5194805194805 L 805.208310094813 365.38961038961037 L 809.7872281093132 405.5194805194805 L 814.3661461238135 365.38961038961037 L 818.9450641383155 378.76623376623377 L 823.5239821528157 405.5194805194805 L 828.102900167316 432.27272727272725 L 832.681818181818 405.5194805194805" stroke-miterlimit="10" stroke-width="3"/></g><g><path fill="none" stroke="none"/><path fill="none" stroke="black" paint-order="fill stroke markers" d=" M 86.31818181818198 354.68831168831167 L 90.89709983268222 354.24242424242425 L 95.47601784718427 357.74582560296847 L 100.0549358616845 357.02922077922074 L 104.63385387618473 353.4992784992785 L 109.21277189068678 352.01298701298697 L 113.79168990518701 349.3376623376623 L 118.37060791968725 348 L 122.9495259341893 346.6623376623377 L 127.52844394868953 346.6623376623377 L 132.10736196318976 343.987012987013 L 136.6862799776918 342.64935064935065 L 141.26519799219204 335.961038961039 L 145.84411600669227 338.6363636363636 L 150.42303402119433 335.961038961039 L 155.00195203569456 330.6103896103896 L 159.5808700501948 330.6103896103896 L 164.15978806469684 331.94805194805195 L 168.73870607919707 337.2987012987013 L 173.3176240936973 334.6233766233766 L 177.89654210819936 335.961038961039 L 182.4754601226996 338.6363636363636 L 187.05437813719982 339.97402597402595 L 191.63329615170187 329.27272727272725 L 196.2122141662021 331.94805194805195 L 200.79113218070233 331.94805194805195 L 205.37005019520439 333.2857142857143 L 209.94896820970462 331.94805194805195 L 214.52788622420485 333.2857142857143 L 219.1068042387069 337.2987012987013 L 223.68572225320713 334.6233766233766 L 228.26464026770736 325.2597402597403 L 232.84355828220941 310.54545454545456 L 237.42247629670965 314.55844155844153 L 242.00139431120988 313.2207792207792 L 246.58031232571193 322.5844155844156 L 251.15923034021216 318.57142857142856 L 255.7381483547124 314.55844155844153 L 260.31706636921444 303.8571428571429 L 264.8959843837147 299.8441558441558 L 269.4749023982149 302.51948051948057 L 274.05382041271696 309.2077922077922 L 278.6327384272172 326.5974025974026 L 283.2116564417174 323.9220779220779 L 287.79057445621766 322.5844155844156 L 292.3694924707197 318.57142857142856 L 296.94841048521994 314.55844155844153 L 301.52732849972017 319.9090909090909 L 306.1062465142222 322.5844155844156 L 310.68516452872245 323.9220779220779 L 315.2640825432227 325.2597402597403 L 319.84300055772474 319.9090909090909 L 324.42191857222497 321.2467532467532 L 329.0008365867252 322.5844155844156 L 333.57975460122725 319.9090909090909 L 338.1586726157275 322.5844155844156 L 342.7375906302277 331.94805194805195 L 347.31650864472977 329.27272727272725 L 351.89542665923 334.6233766233766 L 356.47434467373023 341.3116883116883 L 361.0532626882323 339.97402597402595 L 365.6321807027325 334.6233766233766 L 370.21109871723274 335.961038961039 L 374.7900167317348 341.3116883116883 L 379.368934746235 350.67532467532465 L 383.94785276073526 350.67532467532465 L 388.5267707752373 349.3376623376623 L 393.10568878973754 352.01298701298697 L 397.6846068042378 348 L 402.2635248187398 334.6233766233766 L 406.84244283324006 337.2987012987013 L 411.4213608477403 342.64935064935065 L 416.00027886224234 337.2987012987013 L 420.57919687674257 337.2987012987013 L 425.1581148912428 337.2987012987013 L 429.73703290574485 339.97402597402595 L 434.3159509202451 331.94805194805195 L 438.8948689347453 318.57142857142856 L 443.47378694924737 303.8571428571429 L 448.0527049637476 301.18181818181813 L 452.63162297824783 295.83116883116884 L 457.2105409927499 287.8051948051948 L 461.7894590072501 283.7922077922078 L 466.36837702175035 279.77922077922074 L 470.9472950362524 278.4415584415584 L 475.52621305075263 270.4155844155844 L 480.10513106525286 279.77922077922074 L 484.6840490797549 285.12987012987014 L 489.26296709425515 298.5064935064935 L 493.8418851087554 297.16883116883116 L 498.42080312325743 293.1558441558442 L 502.99972113775766 306.53246753246754 L 507.5786391522579 307.87012987012986 L 512.15755716676 306.53246753246754 L 516.7364751812602 293.1558441558442 L 521.3153931957604 283.7922077922078 L 525.8943112102625 275.76623376623377 L 530.4732292247627 275.76623376623377 L 535.0521472392629 270.4155844155844 L 539.631065253765 267.7402597402597 L 544.2099832682652 265.06493506493507 L 548.7889012827654 263.72727272727275 L 553.3678192972675 266.4025974025974 L 557.9467373117677 266.4025974025974 L 562.525655326268 273.0909090909091 L 567.10457334077 285.12987012987014 L 571.6834913552702 286.46753246753246 L 576.2624093697705 294.4935064935065 L 580.8413273842725 301.18181818181813 L 585.4202453987727 306.53246753246754 L 589.999163413273 315.8961038961039 L 594.578081427775 311.8831168831169 L 599.1569994422753 311.8831168831169 L 603.7359174567755 314.55844155844153 L 608.3148354712775 305.1948051948052 L 612.8937534857778 301.18181818181813 L 617.472671500278 298.5064935064935 L 622.0515895147801 295.83116883116884 L 626.6305075292803 297.16883116883116 L 631.2094255437805 298.5064935064935 L 635.7883435582826 294.4935064935065 L 640.3672615727828 295.83116883116884 L 644.946179587283 298.5064935064935 L 649.5250976017851 293.1558441558442 L 654.1040156162853 305.1948051948052 L 658.6829336307856 303.8571428571429 L 663.2618516452876 305.1948051948052 L 667.8407696597878 306.53246753246754 L 672.4196876742881 311.8831168831169 L 676.9986056887901 309.2077922077922 L 681.5775237032904 306.53246753246754 L 686.1564417177906 311.8831168831169 L 690.7353597322926 310.54545454545456 L 695.3142777467929 310.54545454545456 L 699.8931957612931 307.87012987012986 L 704.4721137757952 303.8571428571429 L 709.0510317902954 309.2077922077922 L 713.6299498047956 307.87012987012986 L 718.2088678192977 302.51948051948057 L 722.7877858337979 310.54545454545456 L 727.3667038482981 299.8441558441558 L 731.9456218628002 290.4805194805195 L 736.5245398773004 289.1428571428571 L 741.1034578918006 286.46753246753246 L 745.6823759063027 285.12987012987014 L 750.2612939208029 283.7922077922078 L 754.8402119353032 274.42857142857144 L 759.4191299498034 267.7402597402597 L 763.9980479643054 257.038961038961 L 768.5769659788057 246.33766233766235 L 773.1558839933059 234.2987012987013 L 777.734802007808 238.31168831168833 L 782.3137200223082 228.94805194805195 L 786.8926380368084 226.27272727272728 L 791.4715560513105 230.2857142857143 L 796.0504740658107 224.93506493506496 L 800.6293920803109 219.58441558441558 L 805.208310094813 210.2207792207792 L 809.7872281093132 212.89610389610394 L 814.3661461238135 222.25974025974028 L 818.9450641383155 240.54112554112555 L 823.5239821528157 233.29545454545456 L 828.102900167316 233.53432282003712 L 832.681818181818 236.0822510822511" stroke-miterlimit="10" stroke-width="3"/></g></g><g><g/><g><path fill="#ffffff" stroke="#e5e5e5" paint-order="fill stroke markers" d=" M 59 49 L 373 49 L 373 158 L 59 158 L 59 49 Z" fill-opacity="0.95" stroke-miterlimit="10" stroke-opacity="0.5"/><text fill="#444444" stroke="none" font-family="ADAM" font-size="10pt" font-style="normal" font-weight="normal" text-decoration="normal" x="94" y="69" text-anchor="start" dominant-baseline="central">Tormentas Tropicales</text><g><path fill="none" stroke="rgb(172, 255, 165)" paint-order="fill stroke markers" d=" M 69 69 L 89 69" stroke-miterlimit="10" stroke-width="3"/></g><text fill="#444444" stroke="none" font-family="ADAM" font-size="10pt" font-style="normal" font-weight="normal" text-decoration="normal" x="94" y="92" text-anchor="start" dominant-baseline="central">Huracanes</text><g><path fill="none" stroke="rgb(0, 28, 100)" paint-order="fill stroke markers" d=" M 69 92 L 89 92" stroke-miterlimit="10" stroke-width="3" stroke-opacity="0.7"/></g><text fill="#444444" stroke="none" font-family="ADAM" font-size="10pt" font-style="normal" font-weight="normal" text-decoration="normal" x="94" y="115" text-anchor="start" dominant-baseline="central">Grandes Huracanes</text><g><path fill="none" stroke="rgb(255, 67, 67)" paint-order="fill stroke markers" d=" M 69 115 L 89 115" stroke-miterlimit="10" stroke-width="3"/></g><text fill="#444444" stroke="none" font-family="ADAM" font-size="10pt" font-style="normal" font-weight="normal" text-decoration="normal" x="94" y="138" text-anchor="start" dominant-baseline="central">Promedio a 10 años de Tormentas Tr.</text><g><path fill="none" stroke="black" paint-order="fill stroke markers" d=" M 69 138 L 89 138" stroke-miterlimit="10" stroke-width="3"/></g></g></g><g><g fill="#444444"><path fill="none" stroke="black" paint-order="fill stroke markers" d=" M 49 451 L 870 451" stroke-miterlimit="10"/><path fill="none" stroke="rgb(255, 67, 67)" paint-order="fill stroke markers" d=" M 82 457 L 82 449" stroke-miterlimit="10" stroke-width="3"/><path fill="none" stroke="rgb(255, 67, 67)" paint-order="fill stroke markers" d=" M 311 457 L 311 449" stroke-miterlimit="10" stroke-width="3"/><path fill="none" stroke="rgb(255, 67, 67)" paint-order="fill stroke markers" d=" M 540 457 L 540 449" stroke-miterlimit="10" stroke-width="3"/><path fill="none" stroke="rgb(255, 67, 67)" paint-order="fill stroke markers" d=" M 769 457 L 769 449" stroke-miterlimit="10" stroke-width="3"/><path fill="none" stroke="rgb(255, 67, 67)" paint-order="fill stroke markers" d=" M 82 455 L 82 451" stroke-miterlimit="10"/><path fill="none" stroke="rgb(255, 67, 67)" paint-order="fill stroke markers" d=" M 128 455 L 128 451" stroke-miterlimit="10"/><path fill="none" stroke="rgb(255, 67, 67)" paint-order="fill stroke markers" d=" M 173 455 L 173 451" stroke-miterlimit="10"/><path fill="none" stroke="rgb(255, 67, 67)" paint-order="fill stroke markers" d=" M 219 455 L 219 451" stroke-miterlimit="10"/><path fill="none" stroke="rgb(255, 67, 67)" paint-order="fill stroke markers" d=" M 265 455 L 265 451" stroke-miterlimit="10"/><path fill="none" stroke="rgb(255, 67, 67)" paint-order="fill stroke markers" d=" M 311 455 L 311 451" stroke-miterlimit="10"/><path fill="none" stroke="rgb(255, 67, 67)" paint-order="fill stroke markers" d=" M 356 455 L 356 451" stroke-miterlimit="10"/><path fill="none" stroke="rgb(255, 67, 67)" paint-order="fill stroke markers" d=" M 402 455 L 402 451" stroke-miterlimit="10"/><path fill="none" stroke="rgb(255, 67, 67)" paint-order="fill stroke markers" d=" M 448 455 L 448 451" stroke-miterlimit="10"/><path fill="none" stroke="rgb(255, 67, 67)" paint-order="fill stroke markers" d=" M 494 455 L 494 451" stroke-miterlimit="10"/><path fill="none" stroke="rgb(255, 67, 67)" paint-order="fill stroke markers" d=" M 540 455 L 540 451" stroke-miterlimit="10"/><path fill="none" stroke="rgb(255, 67, 67)" paint-order="fill stroke markers" d=" M 585 455 L 585 451" stroke-miterlimit="10"/><path fill="none" stroke="rgb(255, 67, 67)" paint-order="fill stroke markers" d=" M 631 455 L 631 451" stroke-miterlimit="10"/><path fill="none" stroke="rgb(255, 67, 67)" paint-order="fill stroke markers" d=" M 677 455 L 677 451" stroke-miterlimit="10"/><path fill="none" stroke="rgb(255, 67, 67)" paint-order="fill stroke markers" d=" M 723 455 L 723 451" stroke-miterlimit="10"/><path fill="none" stroke="rgb(255, 67, 67)" paint-order="fill stroke markers" d=" M 769 455 L 769 451" stroke-miterlimit="10"/><path fill="none" stroke="rgb(255, 67, 67)" paint-order="fill stroke markers" d=" M 814 455 L 814 451" stroke-miterlimit="10"/><path fill="" stroke="rgb(255, 67, 67)" paint-order="fill stroke markers" d=" M 860 455 L 860 451" stroke-miterlimit="10"/><g transform="translate(82,462) rotate(0,0,0)"><text fill="" stroke="none" font-family="helvetica" font-size="8pt" font-style="normal" font-weight="normal" text-decoration="normal" x="0" y="0" text-anchor="middle" dominant-baseline="hanging">1850</text><g transform="rotate(0,0,0) translate(-82,-462) translate(311,462) rotate(0,0,0)"><text fill="" stroke="none" font-family="helvetica" font-size="8pt" font-style="normal" font-weight="normal" text-decoration="normal" x="0" y="0" text-anchor="middle" dominant-baseline="hanging">1900</text><g transform="rotate(0,0,0) translate(-311,-462) translate(540,462) rotate(0,0,0)"><text fill="" stroke="none" font-family="helvetica" font-size="8pt" font-style="normal" font-weight="normal" text-decoration="normal" x="0" y="0" text-anchor="middle" dominant-baseline="hanging">1950</text><g transform="rotate(0,0,0) translate(-540,-462) translate(769,462) rotate(0,0,0)"><text fill="" stroke="none" font-family="helvetica" font-size="8pt" font-style="normal" font-weight="normal" text-decoration="normal" x="0" y="0" text-anchor="middle" dominant-baseline="hanging">2000</text><g transform="rotate(0,0,0) translate(-769,-462) translate(460,480) rotate(0,0,0)"><text fill="" stroke="none" font-family="ADAM" font-size="12pt" font-style="normal" font-weight="normal" text-decoration="normal" x="0" y="0" text-anchor="middle" dominant-baseline="hanging">Año</text><g transform="rotate(0,0,0) translate(-460,-480)"/></g></g></g></g></g></g><g fill="#444444"><path fill="none" stroke="black" paint-order="fill stroke markers" d=" M 49 451 L 49 39" stroke-miterlimit="10"/><path fill="none" stroke="rgb(255, 67, 67)" paint-order="fill stroke markers" d=" M 43 432 L 51 432" stroke-miterlimit="10" stroke-width="3"/><path fill="none" stroke="rgb(255, 67, 67)" paint-order="fill stroke markers" d=" M 43 365 L 51 365" stroke-miterlimit="10" stroke-width="3"/><path fill="none" stroke="rgb(255, 67, 67)" paint-order="fill stroke markers" d=" M 43 299 L 51 299" stroke-miterlimit="10" stroke-width="3"/><path fill="none" stroke="rgb(255, 67, 67)" paint-order="fill stroke markers" d=" M 43 232 L 51 232" stroke-miterlimit="10" stroke-width="3"/><path fill="none" stroke="rgb(255, 67, 67)" paint-order="fill stroke markers" d=" M 43 165 L 51 165" stroke-miterlimit="10" stroke-width="3"/><path fill="none" stroke="rgb(255, 67, 67)" paint-order="fill stroke markers" d=" M 43 98 L 51 98" stroke-miterlimit="10" stroke-width="3"/><path fill="none" stroke="rgb(255, 67, 67)" paint-order="fill stroke markers" d=" M 45 446 L 49 446" stroke-miterlimit="10"/><path fill="none" stroke="rgb(255, 67, 67)" paint-order="fill stroke markers" d=" M 45 432 L 49 432" stroke-miterlimit="10"/><path fill="none" stroke="rgb(255, 67, 67)" paint-order="fill stroke markers" d=" M 45 419 L 49 419" stroke-miterlimit="10"/><path fill="none" stroke="rgb(255, 67, 67)" paint-order="fill stroke markers" d=" M 45 406 L 49 406" stroke-miterlimit="10"/><path fill="none" stroke="rgb(255, 67, 67)" paint-order="fill stroke markers" d=" M 45 392 L 49 392" stroke-miterlimit="10"/><path fill="none" stroke="rgb(255, 67, 67)" paint-order="fill stroke markers" d=" M 45 379 L 49 379" stroke-miterlimit="10"/><path fill="none" stroke="rgb(255, 67, 67)" paint-order="fill stroke markers" d=" M 45 365 L 49 365" stroke-miterlimit="10"/><path fill="none" stroke="rgb(255, 67, 67)" paint-order="fill stroke markers" d=" M 45 352 L 49 352" stroke-miterlimit="10"/><path fill="none" stroke="rgb(255, 67, 67)" paint-order="fill stroke markers" d=" M 45 339 L 49 339" stroke-miterlimit="10"/><path fill="none" stroke="rgb(255, 67, 67)" paint-order="fill stroke markers" d=" M 45 325 L 49 325" stroke-miterlimit="10"/><path fill="none" stroke="rgb(255, 67, 67)" paint-order="fill stroke markers" d=" M 45 312 L 49 312" stroke-miterlimit="10"/><path fill="none" stroke="rgb(255, 67, 67)" paint-order="fill stroke markers" d=" M 45 299 L 49 299" stroke-miterlimit="10"/><path fill="none" stroke="rgb(255, 67, 67)" paint-order="fill stroke markers" d=" M 45 285 L 49 285" stroke-miterlimit="10"/><path fill="none" stroke="rgb(255, 67, 67)" paint-order="fill stroke markers" d=" M 45 272 L 49 272" stroke-miterlimit="10"/><path fill="none" stroke="rgb(255, 67, 67)" paint-order="fill stroke markers" d=" M 45 258 L 49 258" stroke-miterlimit="10"/><path fill="none" stroke="rgb(255, 67, 67)" paint-order="fill stroke markers" d=" M 45 245 L 49 245" stroke-miterlimit="10"/><path fill="none" stroke="rgb(255, 67, 67)" paint-order="fill stroke markers" d=" M 45 232 L 49 232" stroke-miterlimit="10"/><path fill="none" stroke="rgb(255, 67, 67)" paint-order="fill stroke markers" d=" M 45 218 L 49 218" stroke-miterlimit="10"/><path fill="none" stroke="rgb(255, 67, 67)" paint-order="fill stroke markers" d=" M 45 205 L 49 205" stroke-miterlimit="10"/><path fill="none" stroke="rgb(255, 67, 67)" paint-order="fill stroke markers" d=" M 45 191 L 49 191" stroke-miterlimit="10"/><path fill="none" stroke="rgb(255, 67, 67)" paint-order="fill stroke markers" d=" M 45 178 L 49 178" stroke-miterlimit="10"/><path fill="none" stroke="rgb(255, 67, 67)" paint-order="fill stroke markers" d=" M 45 165 L 49 165" stroke-miterlimit="10"/><path fill="none" stroke="rgb(255, 67, 67)" paint-order="fill stroke markers" d=" M 45 151 L 49 151" stroke-miterlimit="10"/><path fill="none" stroke="rgb(255, 67, 67)" paint-order="fill stroke markers" d=" M 45 138 L 49 138" stroke-miterlimit="10"/><path fill="none" stroke="rgb(255, 67, 67)" paint-order="fill stroke markers" d=" M 45 125 L 49 125" stroke-miterlimit="10"/><path fill="none" stroke="rgb(255, 67, 67)" paint-order="fill stroke markers" d=" M 45 111 L 49 111" stroke-miterlimit="10"/><path fill="none" stroke="rgb(255, 67, 67)" paint-order="fill stroke markers" d=" M 45 98 L 49 98" stroke-miterlimit="10"/><path fill="none" stroke="rgb(255, 67, 67)" paint-order="fill stroke markers" d=" M 45 84 L 49 84" stroke-miterlimit="10"/><path fill="none" stroke="rgb(255, 67, 67)" paint-order="fill stroke markers" d=" M 45 71 L 49 71" stroke-miterlimit="10"/><path fill="none" stroke="rgb(255, 67, 67)" paint-order="fill stroke markers" d=" M 45 58 L 49 58" stroke-miterlimit="10"/><path fill="" stroke="rgb(255, 67, 67)" paint-order="fill stroke markers" d=" M 45 44 L 49 44" stroke-miterlimit="10"/><g transform="translate(38,432) rotate(0,0,0)"><text fill="" stroke="none" font-family="helvetica" font-size="8pt" font-style="normal" font-weight="normal" text-decoration="normal" x="0" y="0" text-anchor="end" dominant-baseline="central">0</text><g transform="rotate(0,0,0) translate(-38,-432) translate(38,365) rotate(0,0,0)"><text fill="" stroke="none" font-family="helvetica" font-size="8pt" font-style="normal" font-weight="normal" text-decoration="normal" x="0" y="0" text-anchor="end" dominant-baseline="central">5</text><g transform="rotate(0,0,0) translate(-38,-365) translate(38,299) rotate(0,0,0)"><text fill="" stroke="none" font-family="helvetica" font-size="8pt" font-style="normal" font-weight="normal" text-decoration="normal" x="0" y="0" text-anchor="end" dominant-baseline="central">10</text><g transform="rotate(0,0,0) translate(-38,-299) translate(38,232) rotate(0,0,0)"><text fill="" stroke="none" font-family="helvetica" font-size="8pt" font-style="normal" font-weight="normal" text-decoration="normal" x="0" y="0" text-anchor="end" dominant-baseline="central">15</text><g transform="rotate(0,0,0) translate(-38,-232) translate(38,165) rotate(0,0,0)"><text fill="" stroke="none" font-family="helvetica" font-size="8pt" font-style="normal" font-weight="normal" text-decoration="normal" x="0" y="0" text-anchor="end" dominant-baseline="central">20</text><g transform="rotate(0,0,0) translate(-38,-165) translate(38,98) rotate(0,0,0)"><text fill="" stroke="none" font-family="helvetica" font-size="8pt" font-style="normal" font-weight="normal" text-decoration="normal" x="0" y="0" text-anchor="end" dominant-baseline="central">25</text><g transform="rotate(0,0,0) translate(-38,-98) translate(20,245) rotate(-90,0,0)"><text fill="" stroke="none" font-family="ADAM" font-size="12pt" font-style="normal" font-weight="normal" text-decoration="normal" x="0" y="0" text-anchor="middle" dominant-baseline="alphabetic">Número</text><g transform="rotate(90,0,0) translate(-20,-245)"/></g></g></g></g></g></g></g></g><g fill="black"><path fill="" stroke="none" d=""/><g transform="translate(459.5,34)"><path fill="none" stroke="none"/><text fill="" stroke="none" font-family="ADAM" font-size="16pt" font-style="normal" font-weight="normal" text-decoration="normal" x="0" y="0" text-anchor="middle" dominant-baseline="text-after-edge">Tormentas Tropicales y Huracanes desde 1851</text></g></g></g></g><g transform="scale(1,1) translate(0.5,0.5)"><rect fill="#FFFFFF" stroke="none" x="0" y="0" width="900" height="500"/><rect fill="#ffffff" stroke="none" x="0" y="0" width="900" height="500"/><rect fill="#FFFFFF" stroke="none" x="49" y="39" width="821" height="412"/><rect fill="white" stroke="none" x="49" y="39" width="821" height="412"/><g><rect fill="none" stroke="rgb(0, 131, 255)" x="49" y="39" width="821" height="412" stroke-miterlimit="10" stroke-width="7" stroke-opacity="0.5"/></g><g><g><path fill="none" stroke="rgb(0, 131, 255)" paint-order="fill stroke markers" d=" M 82 451 L 82 39" stroke-miterlimit="10" stroke-opacity="0"/><path fill="none" stroke="rgb(0, 131, 255)" paint-order="fill stroke markers" d=" M 311 451 L 311 39" stroke-miterlimit="10" stroke-opacity="0"/><path fill="none" stroke="rgb(0, 131, 255)" paint-order="fill stroke markers" d=" M 540 451 L 540 39" stroke-miterlimit="10" stroke-opacity="0"/><path fill="none" stroke="rgb(0, 131, 255)" paint-order="fill stroke markers" d=" M 769 451 L 769 39" stroke-miterlimit="10" stroke-opacity="0"/></g><g><path fill="none" stroke="rgb(0, 131, 255)" paint-order="fill stroke markers" d=" M 49 432 L 870 432" stroke-miterlimit="10" stroke-opacity="0.25"/><path fill="none" stroke="rgb(0, 131, 255)" paint-order="fill stroke markers" d=" M 49 365 L 870 365" stroke-miterlimit="10" stroke-opacity="0.25"/><path fill="none" stroke="rgb(0, 131, 255)" paint-order="fill stroke markers" d=" M 49 299 L 870 299" stroke-miterlimit="10" stroke-opacity="0.25"/><path fill="none" stroke="rgb(0, 131, 255)" paint-order="fill stroke markers" d=" M 49 232 L 870 232" stroke-miterlimit="10" stroke-opacity="0.25"/><path fill="none" stroke="rgb(0, 131, 255)" paint-order="fill stroke markers" d=" M 49 165 L 870 165" stroke-miterlimit="10" stroke-opacity="0.25"/><path fill="none" stroke="rgb(0, 131, 255)" paint-order="fill stroke markers" d=" M 49 98 L 870 98" stroke-miterlimit="10" stroke-opacity="0.25"/></g><g><path fill="none" stroke="none"/><path fill="none" stroke="rgb(172, 255, 165)" paint-order="fill stroke markers" d=" M 86.31818181818198 352.01298701298697 L 90.89709983268222 365.38961038961037 L 95.47601784718427 325.2597402597403 L 100.0549358616845 365.38961038961037 L 104.63385387618473 365.38961038961037 L 109.21277189068678 352.01298701298697 L 113.79168990518701 378.76623376623377 L 118.37060791968725 352.01298701298697 L 122.9495259341893 325.2597402597403 L 127.52844394868953 338.6363636363636 L 132.10736196318976 325.2597402597403 L 136.6862799776918 352.01298701298697 L 141.26519799219204 311.8831168831169 L 145.84411600669227 365.38961038961037 L 150.42303402119433 338.6363636363636 L 155.00195203569456 338.6363636363636 L 159.5808700501948 311.8831168831169 L 164.15978806469684 378.76623376623377 L 168.73870607919707 298.5064935064935 L 173.3176240936973 285.12987012987014 L 177.89654210819936 325.2597402597403 L 182.4754601226996 365.38961038961037 L 187.05437813719982 365.38961038961037 L 191.63329615170187 338.6363636363636 L 196.2122141662021 352.01298701298697 L 200.79113218070233 365.38961038961037 L 205.37005019520439 325.2597402597403 L 209.94896820970462 271.75324675324674 L 214.52788622420485 325.2597402597403 L 219.1068042387069 285.12987012987014 L 223.68572225320713 338.6363636363636 L 228.26464026770736 352.01298701298697 L 232.84355828220941 378.76623376623377 L 237.42247629670965 378.76623376623377 L 242.00139431120988 325.2597402597403 L 246.58031232571193 271.75324675324674 L 251.15923034021216 178.11688311688314 L 255.7381483547124 311.8831168831169 L 260.31706636921444 311.8831168831169 L 264.8959843837147 378.76623376623377 L 269.4749023982149 298.5064935064935 L 274.05382041271696 311.8831168831169 L 278.6327384272172 271.75324675324674 L 283.2116564417174 338.6363636363636 L 287.79057445621766 352.01298701298697 L 292.3694924707197 338.6363636363636 L 296.94841048521994 352.01298701298697 L 301.52732849972017 285.12987012987014 L 306.1062465142222 298.5064935064935 L 310.68516452872245 338.6363636363636 L 315.2640825432227 258.37662337662334 L 319.84300055772474 365.38961038961037 L 324.42191857222497 298.5064935064935 L 329.0008365867252 352.01298701298697 L 333.57975460122725 365.38961038961037 L 338.1586726157275 285.12987012987014 L 342.7375906302277 365.38961038961037 L 347.31650864472977 298.5064935064935 L 351.89542665923 271.75324675324674 L 356.47434467373023 365.38961038961037 L 361.0532626882323 352.01298701298697 L 365.6321807027325 338.6363636363636 L 370.21109871723274 352.01298701298697 L 374.7900167317348 418.89610389610385 L 379.368934746235 352.01298701298697 L 383.94785276073526 231.62337662337663 L 388.5267707752373 378.76623376623377 L 393.10568878973754 352.01298701298697 L 397.6846068042378 365.38961038961037 L 402.2635248187398 365.38961038961037 L 406.84244283324006 338.6363636363636 L 411.4213608477403 365.38961038961037 L 416.00027886224234 311.8831168831169 L 420.57919687674257 285.12987012987014 L 425.1581148912428 378.76623376623377 L 429.73703290574485 285.12987012987014 L 434.3159509202451 325.2597402597403 L 438.8948689347453 352.01298701298697 L 443.47378694924737 365.38961038961037 L 448.0527049637476 392.1428571428571 L 452.63162297824783 258.37662337662334 L 457.2105409927499 231.62337662337663 L 461.7894590072501 164.74025974025977 L 466.36837702175035 258.37662337662334 L 470.9472950362524 325.2597402597403 L 475.52621305075263 204.8701298701299 L 480.10513106525286 285.12987012987014 L 484.6840490797549 311.8831168831169 L 489.26296709425515 352.01298701298697 L 493.8418851087554 311.8831168831169 L 498.42080312325743 352.01298701298697 L 502.99972113775766 285.12987012987014 L 507.5786391522579 298.5064935064935 L 512.15755716676 245 L 516.7364751812602 285.12987012987014 L 521.3153931957604 338.6363636363636 L 525.8943112102625 298.5064935064935 L 530.4732292247627 298.5064935064935 L 535.0521472392629 218.24675324675326 L 539.631065253765 218.24675324675326 L 544.2099832682652 271.75324675324674 L 548.7889012827654 285.12987012987014 L 553.3678192972675 245 L 557.9467373117677 218.24675324675326 L 562.525655326268 258.37662337662334 L 567.10457334077 325.2597402597403 L 571.6834913552702 325.2597402597403 L 576.2624093697705 298.5064935064935 L 580.8413273842725 285.12987012987014 L 585.4202453987727 338.6363636363636 L 589.999163413273 285.12987012987014 L 594.578081427775 365.38961038961037 L 599.1569994422753 311.8831168831169 L 603.7359174567755 271.75324675324674 L 608.3148354712775 352.01298701298697 L 612.8937534857778 285.12987012987014 L 617.472671500278 325.2597402597403 L 622.0515895147801 325.2597402597403 L 626.6305075292803 191.49350649350652 L 631.2094255437805 298.5064935064935 L 635.7883435582826 258.37662337662334 L 640.3672615727828 338.6363636363636 L 644.946179587283 325.2597402597403 L 649.5250976017851 285.12987012987014 L 654.1040156162853 311.8831168831169 L 658.6829336307856 298.5064935064935 L 663.2618516452876 352.01298701298697 L 667.8407696597878 271.75324675324674 L 672.4196876742881 311.8831168831169 L 676.9986056887901 285.12987012987014 L 681.5775237032904 271.75324675324674 L 686.1564417177906 352.01298701298697 L 690.7353597322926 378.76623376623377 L 695.3142777467929 258.37662337662334 L 699.8931957612931 285.12987012987014 L 704.4721137757952 352.01298701298697 L 709.0510317902954 338.6363636363636 L 713.6299498047956 271.75324675324674 L 718.2088678192977 285.12987012987014 L 722.7877858337979 245 L 727.3667038482981 325.2597402597403 L 731.9456218628002 338.6363636363636 L 736.5245398773004 325.2597402597403 L 741.1034578918006 338.6363636363636 L 745.6823759063027 178.11688311688314 L 750.2612939208029 258.37662337662334 L 754.8402119353032 325.2597402597403 L 759.4191299498034 245 L 763.9980479643054 271.75324675324674 L 768.5769659788057 231.62337662337663 L 773.1558839933059 231.62337662337663 L 777.734802007808 271.75324675324674 L 782.3137200223082 218.24675324675326 L 786.8926380368084 231.62337662337663 L 791.4715560513105 57.72727272727275 L 796.0504740658107 298.5064935064935 L 800.6293920803109 231.62337662337663 L 805.208310094813 218.24675324675326 L 809.7872281093132 311.8831168831169 L 814.3661461238135 178.11688311688314 L 818.9450641383155 178.11688311688314 L 823.5239821528157 178.11688311688314 L 828.102900167316 245 L 832.681818181818 325.2597402597403" stroke-miterlimit="10" stroke-width="3"/></g><g><path fill="none" stroke="none"/><path fill="none" stroke="rgb(0, 28, 100)" paint-order="fill stroke markers" d=" M 86.31818181818198 392.1428571428571 L 90.89709983268222 365.38961038961037 L 95.47601784718427 378.76623376623377 L 100.0549358616845 392.1428571428571 L 104.63385387618473 378.76623376623377 L 109.21277189068678 378.76623376623377 L 113.79168990518701 392.1428571428571 L 118.37060791968725 352.01298701298697 L 122.9495259341893 338.6363636363636 L 127.52844394868953 352.01298701298697 L 132.10736196318976 352.01298701298697 L 136.6862799776918 392.1428571428571 L 141.26519799219204 365.38961038961037 L 145.84411600669227 392.1428571428571 L 150.42303402119433 392.1428571428571 L 155.00195203569456 352.01298701298697 L 159.5808700501948 338.6363636363636 L 164.15978806469684 392.1428571428571 L 168.73870607919707 338.6363636363636 L 173.3176240936973 298.5064935064935 L 177.89654210819936 352.01298701298697 L 182.4754601226996 378.76623376623377 L 187.05437813719982 392.1428571428571 L 191.63329615170187 378.76623376623377 L 196.2122141662021 365.38961038961037 L 200.79113218070233 378.76623376623377 L 205.37005019520439 392.1428571428571 L 209.94896820970462 298.5064935064935 L 214.52788622420485 352.01298701298697 L 219.1068042387069 311.8831168831169 L 223.68572225320713 378.76623376623377 L 228.26464026770736 378.76623376623377 L 232.84355828220941 392.1428571428571 L 237.42247629670965 378.76623376623377 L 242.00139431120988 352.01298701298697 L 246.58031232571193 298.5064935064935 L 251.15923034021216 285.12987012987014 L 255.7381483547124 352.01298701298697 L 260.31706636921444 352.01298701298697 L 264.8959843837147 405.5194805194805 L 269.4749023982149 338.6363636363636 L 274.05382041271696 365.38961038961037 L 278.6327384272172 298.5064935064935 L 283.2116564417174 365.38961038961037 L 287.79057445621766 405.5194805194805 L 292.3694924707197 352.01298701298697 L 296.94841048521994 392.1428571428571 L 301.52732849972017 365.38961038961037 L 306.1062465142222 365.38961038961037 L 310.68516452872245 392.1428571428571 L 315.2640825432227 352.01298701298697 L 319.84300055772474 392.1428571428571 L 324.42191857222497 338.6363636363636 L 329.0008365867252 378.76623376623377 L 333.57975460122725 418.89610389610385 L 338.1586726157275 352.01298701298697 L 342.7375906302277 432.27272727272725 L 347.31650864472977 352.01298701298697 L 351.89542665923 352.01298701298697 L 356.47434467373023 392.1428571428571 L 361.0532626882323 392.1428571428571 L 365.6321807027325 378.76623376623377 L 370.21109871723274 378.76623376623377 L 374.7900167317348 432.27272727272725 L 379.368934746235 365.38961038961037 L 383.94785276073526 298.5064935064935 L 388.5267707752373 405.5194805194805 L 393.10568878973754 378.76623376623377 L 397.6846068042378 405.5194805194805 L 402.2635248187398 378.76623376623377 L 406.84244283324006 365.38961038961037 L 411.4213608477403 392.1428571428571 L 416.00027886224234 378.76623376623377 L 420.57919687674257 365.38961038961037 L 425.1581148912428 418.89610389610385 L 429.73703290574485 325.2597402597403 L 434.3159509202451 378.76623376623377 L 438.8948689347453 378.76623376623377 L 443.47378694924737 392.1428571428571 L 448.0527049637476 405.5194805194805 L 452.63162297824783 392.1428571428571 L 457.2105409927499 352.01298701298697 L 461.7894590072501 285.12987012987014 L 466.36837702175035 338.6363636363636 L 470.9472950362524 365.38961038961037 L 475.52621305075263 338.6363636363636 L 480.10513106525286 378.76623376623377 L 484.6840490797549 378.76623376623377 L 489.26296709425515 392.1428571428571 L 493.8418851087554 352.01298701298697 L 498.42080312325743 378.76623376623377 L 502.99972113775766 378.76623376623377 L 507.5786391522579 365.38961038961037 L 512.15755716676 325.2597402597403 L 516.7364751812602 365.38961038961037 L 521.3153931957604 392.1428571428571 L 525.8943112102625 365.38961038961037 L 530.4732292247627 352.01298701298697 L 535.0521472392629 338.6363636363636 L 539.631065253765 285.12987012987014 L 544.2099832682652 325.2597402597403 L 548.7889012827654 365.38961038961037 L 553.3678192972675 338.6363636363636 L 557.9467373117677 338.6363636363636 L 562.525655326268 311.8831168831169 L 567.10457334077 378.76623376623377 L 571.6834913552702 392.1428571428571 L 576.2624093697705 338.6363636363636 L 580.8413273842725 338.6363636363636 L 585.4202453987727 378.76623376623377 L 589.999163413273 325.2597402597403 L 594.578081427775 392.1428571428571 L 599.1569994422753 338.6363636363636 L 603.7359174567755 352.01298701298697 L 608.3148354712775 378.76623376623377 L 612.8937534857778 338.6363636363636 L 617.472671500278 352.01298701298697 L 622.0515895147801 365.38961038961037 L 626.6305075292803 271.75324675324674 L 631.2094255437805 365.38961038961037 L 635.7883435582826 352.01298701298697 L 640.3672615727828 392.1428571428571 L 644.946179587283 378.76623376623377 L 649.5250976017851 378.76623376623377 L 654.1040156162853 352.01298701298697 L 658.6829336307856 352.01298701298697 L 663.2618516452876 365.38961038961037 L 667.8407696597878 365.38961038961037 L 672.4196876742881 352.01298701298697 L 676.9986056887901 311.8831168831169 L 681.5775237032904 338.6363636363636 L 686.1564417177906 405.5194805194805 L 690.7353597322926 392.1428571428571 L 695.3142777467929 365.38961038961037 L 699.8931957612931 338.6363636363636 L 704.4721137757952 378.76623376623377 L 709.0510317902954 392.1428571428571 L 713.6299498047956 365.38961038961037 L 718.2088678192977 338.6363636363636 L 722.7877858337979 325.2597402597403 L 727.3667038482981 378.76623376623377 L 731.9456218628002 378.76623376623377 L 736.5245398773004 378.76623376623377 L 741.1034578918006 392.1428571428571 L 745.6823759063027 285.12987012987014 L 750.2612939208029 311.8831168831169 L 754.8402119353032 392.1428571428571 L 759.4191299498034 298.5064935064935 L 763.9980479643054 325.2597402597403 L 768.5769659788057 325.2597402597403 L 773.1558839933059 311.8831168831169 L 777.734802007808 378.76623376623377 L 782.3137200223082 338.6363636363636 L 786.8926380368084 311.8831168831169 L 791.4715560513105 231.62337662337663 L 796.0504740658107 365.38961038961037 L 800.6293920803109 352.01298701298697 L 805.208310094813 325.2597402597403 L 809.7872281093132 392.1428571428571 L 814.3661461238135 271.75324675324674 L 818.9450641383155 338.6363636363636 L 823.5239821528157 298.5064935064935 L 828.102900167316 405.5194805194805 L 832.681818181818 352.01298701298697" stroke-miterlimit="10" stroke-width="3" stroke-opacity="0.7"/></g><g><path fill="none" stroke="none"/><path fill="none" stroke="rgb(255, 67, 67)" paint-order="fill stroke markers" d=" M 86.31818181818198 418.89610389610385 L 90.89709983268222 418.89610389610385 L 95.47601784718427 405.5194805194805 L 100.0549358616845 418.89610389610385 L 104.63385387618473 418.89610389610385 L 109.21277189068678 405.5194805194805 L 113.79168990518701 432.27272727272725 L 118.37060791968725 432.27272727272725 L 122.9495259341893 418.89610389610385 L 127.52844394868953 418.89610389610385 L 132.10736196318976 432.27272727272725 L 136.6862799776918 432.27272727272725 L 141.26519799219204 432.27272727272725 L 145.84411600669227 432.27272727272725 L 150.42303402119433 432.27272727272725 L 155.00195203569456 418.89610389610385 L 159.5808700501948 418.89610389610385 L 164.15978806469684 432.27272727272725 L 168.73870607919707 418.89610389610385 L 173.3176240936973 405.5194805194805 L 177.89654210819936 405.5194805194805 L 182.4754601226996 432.27272727272725 L 187.05437813719982 405.5194805194805 L 191.63329615170187 432.27272727272725 L 196.2122141662021 418.89610389610385 L 200.79113218070233 405.5194805194805 L 205.37005019520439 418.89610389610385 L 209.94896820970462 405.5194805194805 L 214.52788622420485 405.5194805194805 L 219.1068042387069 405.5194805194805 L 223.68572225320713 432.27272727272725 L 228.26464026770736 405.5194805194805 L 232.84355828220941 405.5194805194805 L 237.42247629670965 418.89610389610385 L 242.00139431120988 432.27272727272725 L 246.58031232571193 378.76623376623377 L 251.15923034021216 405.5194805194805 L 255.7381483547124 405.5194805194805 L 260.31706636921444 432.27272727272725 L 264.8959843837147 418.89610389610385 L 269.4749023982149 418.89610389610385 L 274.05382041271696 432.27272727272725 L 278.6327384272172 365.38961038961037 L 283.2116564417174 378.76623376623377 L 287.79057445621766 432.27272727272725 L 292.3694924707197 405.5194805194805 L 296.94841048521994 432.27272727272725 L 301.52732849972017 418.89610389610385 L 306.1062465142222 405.5194805194805 L 310.68516452872245 405.5194805194805 L 315.2640825432227 432.27272727272725 L 319.84300055772474 432.27272727272725 L 324.42191857222497 418.89610389610385 L 329.0008365867252 432.27272727272725 L 333.57975460122725 418.89610389610385 L 338.1586726157275 392.1428571428571 L 342.7375906302277 432.27272727272725 L 347.31650864472977 418.89610389610385 L 351.89542665923 378.76623376623377 L 356.47434467373023 418.89610389610385 L 361.0532626882323 432.27272727272725 L 365.6321807027325 418.89610389610385 L 370.21109871723274 432.27272727272725 L 374.7900167317348 432.27272727272725 L 379.368934746235 392.1428571428571 L 383.94785276073526 365.38961038961037 L 388.5267707752373 405.5194805194805 L 393.10568878973754 418.89610389610385 L 397.6846068042378 418.89610389610385 L 402.2635248187398 432.27272727272725 L 406.84244283324006 405.5194805194805 L 411.4213608477403 418.89610389610385 L 416.00027886224234 418.89610389610385 L 420.57919687674257 405.5194805194805 L 425.1581148912428 432.27272727272725 L 429.73703290574485 352.01298701298697 L 434.3159509202451 418.89610389610385 L 438.8948689347453 418.89610389610385 L 443.47378694924737 418.89610389610385 L 448.0527049637476 405.5194805194805 L 452.63162297824783 418.89610389610385 L 457.2105409927499 378.76623376623377 L 461.7894590072501 352.01298701298697 L 466.36837702175035 418.89610389610385 L 470.9472950362524 392.1428571428571 L 475.52621305075263 418.89610389610385 L 480.10513106525286 418.89610389610385 L 484.6840490797549 405.5194805194805 L 489.26296709425515 418.89610389610385 L 493.8418851087554 432.27272727272725 L 498.42080312325743 392.1428571428571 L 502.99972113775766 418.89610389610385 L 507.5786391522579 405.5194805194805 L 512.15755716676 392.1428571428571 L 516.7364751812602 405.5194805194805 L 521.3153931957604 432.27272727272725 L 525.8943112102625 405.5194805194805 L 530.4732292247627 378.76623376623377 L 535.0521472392629 405.5194805194805 L 539.631065253765 352.01298701298697 L 544.2099832682652 392.1428571428571 L 548.7889012827654 405.5194805194805 L 553.3678192972675 392.1428571428571 L 557.9467373117677 392.1428571428571 L 562.525655326268 378.76623376623377 L 567.10457334077 405.5194805194805 L 571.6834913552702 405.5194805194805 L 576.2624093697705 365.38961038961037 L 580.8413273842725 405.5194805194805 L 585.4202453987727 405.5194805194805 L 589.999163413273 338.6363636363636 L 594.578081427775 418.89610389610385 L 599.1569994422753 405.5194805194805 L 603.7359174567755 352.01298701298697 L 608.3148354712775 418.89610389610385 L 612.8937534857778 392.1428571428571 L 617.472671500278 418.89610389610385 L 622.0515895147801 432.27272727272725 L 626.6305075292803 365.38961038961037 L 631.2094255437805 405.5194805194805 L 635.7883435582826 418.89610389610385 L 640.3672615727828 432.27272727272725 L 644.946179587283 418.89610389610385 L 649.5250976017851 405.5194805194805 L 654.1040156162853 392.1428571428571 L 658.6829336307856 405.5194805194805 L 663.2618516452876 418.89610389610385 L 667.8407696597878 405.5194805194805 L 672.4196876742881 405.5194805194805 L 676.9986056887901 405.5194805194805 L 681.5775237032904 392.1428571428571 L 686.1564417177906 418.89610389610385 L 690.7353597322926 418.89610389610385 L 695.3142777467929 418.89610389610385 L 699.8931957612931 392.1428571428571 L 704.4721137757952 432.27272727272725 L 709.0510317902954 418.89610389610385 L 713.6299498047956 392.1428571428571 L 718.2088678192977 405.5194805194805 L 722.7877858337979 418.89610389610385 L 727.3667038482981 405.5194805194805 L 731.9456218628002 418.89610389610385 L 736.5245398773004 418.89610389610385 L 741.1034578918006 432.27272727272725 L 745.6823759063027 365.38961038961037 L 750.2612939208029 352.01298701298697 L 754.8402119353032 418.89610389610385 L 759.4191299498034 392.1428571428571 L 763.9980479643054 365.38961038961037 L 768.5769659788057 392.1428571428571 L 773.1558839933059 378.76623376623377 L 777.734802007808 405.5194805194805 L 782.3137200223082 392.1428571428571 L 786.8926380368084 352.01298701298697 L 791.4715560513105 338.6363636363636 L 796.0504740658107 405.5194805194805 L 800.6293920803109 405.5194805194805 L 805.208310094813 365.38961038961037 L 809.7872281093132 405.5194805194805 L 814.3661461238135 365.38961038961037 L 818.9450641383155 378.76623376623377 L 823.5239821528157 405.5194805194805 L 828.102900167316 432.27272727272725 L 832.681818181818 405.5194805194805" stroke-miterlimit="10" stroke-width="3"/></g><g><path fill="none" stroke="none"/><path fill="none" stroke="black" paint-order="fill stroke markers" d=" M 86.31818181818198 354.68831168831167 L 90.89709983268222 354.24242424242425 L 95.47601784718427 357.74582560296847 L 100.0549358616845 357.02922077922074 L 104.63385387618473 353.4992784992785 L 109.21277189068678 352.01298701298697 L 113.79168990518701 349.3376623376623 L 118.37060791968725 348 L 122.9495259341893 346.6623376623377 L 127.52844394868953 346.6623376623377 L 132.10736196318976 343.987012987013 L 136.6862799776918 342.64935064935065 L 141.26519799219204 335.961038961039 L 145.84411600669227 338.6363636363636 L 150.42303402119433 335.961038961039 L 155.00195203569456 330.6103896103896 L 159.5808700501948 330.6103896103896 L 164.15978806469684 331.94805194805195 L 168.73870607919707 337.2987012987013 L 173.3176240936973 334.6233766233766 L 177.89654210819936 335.961038961039 L 182.4754601226996 338.6363636363636 L 187.05437813719982 339.97402597402595 L 191.63329615170187 329.27272727272725 L 196.2122141662021 331.94805194805195 L 200.79113218070233 331.94805194805195 L 205.37005019520439 333.2857142857143 L 209.94896820970462 331.94805194805195 L 214.52788622420485 333.2857142857143 L 219.1068042387069 337.2987012987013 L 223.68572225320713 334.6233766233766 L 228.26464026770736 325.2597402597403 L 232.84355828220941 310.54545454545456 L 237.42247629670965 314.55844155844153 L 242.00139431120988 313.2207792207792 L 246.58031232571193 322.5844155844156 L 251.15923034021216 318.57142857142856 L 255.7381483547124 314.55844155844153 L 260.31706636921444 303.8571428571429 L 264.8959843837147 299.8441558441558 L 269.4749023982149 302.51948051948057 L 274.05382041271696 309.2077922077922 L 278.6327384272172 326.5974025974026 L 283.2116564417174 323.9220779220779 L 287.79057445621766 322.5844155844156 L 292.3694924707197 318.57142857142856 L 296.94841048521994 314.55844155844153 L 301.52732849972017 319.9090909090909 L 306.1062465142222 322.5844155844156 L 310.68516452872245 323.9220779220779 L 315.2640825432227 325.2597402597403 L 319.84300055772474 319.9090909090909 L 324.42191857222497 321.2467532467532 L 329.0008365867252 322.5844155844156 L 333.57975460122725 319.9090909090909 L 338.1586726157275 322.5844155844156 L 342.7375906302277 331.94805194805195 L 347.31650864472977 329.27272727272725 L 351.89542665923 334.6233766233766 L 356.47434467373023 341.3116883116883 L 361.0532626882323 339.97402597402595 L 365.6321807027325 334.6233766233766 L 370.21109871723274 335.961038961039 L 374.7900167317348 341.3116883116883 L 379.368934746235 350.67532467532465 L 383.94785276073526 350.67532467532465 L 388.5267707752373 349.3376623376623 L 393.10568878973754 352.01298701298697 L 397.6846068042378 348 L 402.2635248187398 334.6233766233766 L 406.84244283324006 337.2987012987013 L 411.4213608477403 342.64935064935065 L 416.00027886224234 337.2987012987013 L 420.57919687674257 337.2987012987013 L 425.1581148912428 337.2987012987013 L 429.73703290574485 339.97402597402595 L 434.3159509202451 331.94805194805195 L 438.8948689347453 318.57142857142856 L 443.47378694924737 303.8571428571429 L 448.0527049637476 301.18181818181813 L 452.63162297824783 295.83116883116884 L 457.2105409927499 287.8051948051948 L 461.7894590072501 283.7922077922078 L 466.36837702175035 279.77922077922074 L 470.9472950362524 278.4415584415584 L 475.52621305075263 270.4155844155844 L 480.10513106525286 279.77922077922074 L 484.6840490797549 285.12987012987014 L 489.26296709425515 298.5064935064935 L 493.8418851087554 297.16883116883116 L 498.42080312325743 293.1558441558442 L 502.99972113775766 306.53246753246754 L 507.5786391522579 307.87012987012986 L 512.15755716676 306.53246753246754 L 516.7364751812602 293.1558441558442 L 521.3153931957604 283.7922077922078 L 525.8943112102625 275.76623376623377 L 530.4732292247627 275.76623376623377 L 535.0521472392629 270.4155844155844 L 539.631065253765 267.7402597402597 L 544.2099832682652 265.06493506493507 L 548.7889012827654 263.72727272727275 L 553.3678192972675 266.4025974025974 L 557.9467373117677 266.4025974025974 L 562.525655326268 273.0909090909091 L 567.10457334077 285.12987012987014 L 571.6834913552702 286.46753246753246 L 576.2624093697705 294.4935064935065 L 580.8413273842725 301.18181818181813 L 585.4202453987727 306.53246753246754 L 589.999163413273 315.8961038961039 L 594.578081427775 311.8831168831169 L 599.1569994422753 311.8831168831169 L 603.7359174567755 314.55844155844153 L 608.3148354712775 305.1948051948052 L 612.8937534857778 301.18181818181813 L 617.472671500278 298.5064935064935 L 622.0515895147801 295.83116883116884 L 626.6305075292803 297.16883116883116 L 631.2094255437805 298.5064935064935 L 635.7883435582826 294.4935064935065 L 640.3672615727828 295.83116883116884 L 644.946179587283 298.5064935064935 L 649.5250976017851 293.1558441558442 L 654.1040156162853 305.1948051948052 L 658.6829336307856 303.8571428571429 L 663.2618516452876 305.1948051948052 L 667.8407696597878 306.53246753246754 L 672.4196876742881 311.8831168831169 L 676.9986056887901 309.2077922077922 L 681.5775237032904 306.53246753246754 L 686.1564417177906 311.8831168831169 L 690.7353597322926 310.54545454545456 L 695.3142777467929 310.54545454545456 L 699.8931957612931 307.87012987012986 L 704.4721137757952 303.8571428571429 L 709.0510317902954 309.2077922077922 L 713.6299498047956 307.87012987012986 L 718.2088678192977 302.51948051948057 L 722.7877858337979 310.54545454545456 L 727.3667038482981 299.8441558441558 L 731.9456218628002 290.4805194805195 L 736.5245398773004 289.1428571428571 L 741.1034578918006 286.46753246753246 L 745.6823759063027 285.12987012987014 L 750.2612939208029 283.7922077922078 L 754.8402119353032 274.42857142857144 L 759.4191299498034 267.7402597402597 L 763.9980479643054 257.038961038961 L 768.5769659788057 246.33766233766235 L 773.1558839933059 234.2987012987013 L 777.734802007808 238.31168831168833 L 782.3137200223082 228.94805194805195 L 786.8926380368084 226.27272727272728 L 791.4715560513105 230.2857142857143 L 796.0504740658107 224.93506493506496 L 800.6293920803109 219.58441558441558 L 805.208310094813 210.2207792207792 L 809.7872281093132 212.89610389610394 L 814.3661461238135 222.25974025974028 L 818.9450641383155 240.54112554112555 L 823.5239821528157 233.29545454545456 L 828.102900167316 233.53432282003712 L 832.681818181818 236.0822510822511" stroke-miterlimit="10" stroke-width="3"/></g></g><g><g/><g><path fill="#ffffff" stroke="#e5e5e5" paint-order="fill stroke markers" d=" M 59 49 L 373 49 L 373 158 L 59 158 L 59 49 Z" fill-opacity="0.95" stroke-miterlimit="10" stroke-opacity="0.5"/><text fill="#444444" stroke="none" font-family="ADAM" font-size="10pt" font-style="normal" font-weight="normal" text-decoration="normal" x="94" y="69" text-anchor="start" dominant-baseline="central">Tormentas Tropicales</text><g><path fill="none" stroke="rgb(172, 255, 165)" paint-order="fill stroke markers" d=" M 69 69 L 89 69" stroke-miterlimit="10" stroke-width="3"/></g><text fill="#444444" stroke="none" font-family="ADAM" font-size="10pt" font-style="normal" font-weight="normal" text-decoration="normal" x="94" y="92" text-anchor="start" dominant-baseline="central">Huracanes</text><g><path fill="none" stroke="rgb(0, 28, 100)" paint-order="fill stroke markers" d=" M 69 92 L 89 92" stroke-miterlimit="10" stroke-width="3" stroke-opacity="0.7"/></g><text fill="#444444" stroke="none" font-family="ADAM" font-size="10pt" font-style="normal" font-weight="normal" text-decoration="normal" x="94" y="115" text-anchor="start" dominant-baseline="central">Grandes Huracanes</text><g><path fill="none" stroke="rgb(255, 67, 67)" paint-order="fill stroke markers" d=" M 69 115 L 89 115" stroke-miterlimit="10" stroke-width="3"/></g><text fill="#444444" stroke="none" font-family="ADAM" font-size="10pt" font-style="normal" font-weight="normal" text-decoration="normal" x="94" y="138" text-anchor="start" dominant-baseline="central">Promedio a 10 años de Tormentas Tr.</text><g><path fill="none" stroke="black" paint-order="fill stroke markers" d=" M 69 138 L 89 138" stroke-miterlimit="10" stroke-width="3"/></g></g></g><g><g fill="#444444"><path fill="none" stroke="black" paint-order="fill stroke markers" d=" M 49 451 L 870 451" stroke-miterlimit="10"/><path fill="none" stroke="rgb(255, 67, 67)" paint-order="fill stroke markers" d=" M 82 457 L 82 449" stroke-miterlimit="10" stroke-width="3"/><path fill="none" stroke="rgb(255, 67, 67)" paint-order="fill stroke markers" d=" M 311 457 L 311 449" stroke-miterlimit="10" stroke-width="3"/><path fill="none" stroke="rgb(255, 67, 67)" paint-order="fill stroke markers" d=" M 540 457 L 540 449" stroke-miterlimit="10" stroke-width="3"/><path fill="none" stroke="rgb(255, 67, 67)" paint-order="fill stroke markers" d=" M 769 457 L 769 449" stroke-miterlimit="10" stroke-width="3"/><path fill="none" stroke="rgb(255, 67, 67)" paint-order="fill stroke markers" d=" M 82 455 L 82 451" stroke-miterlimit="10"/><path fill="none" stroke="rgb(255, 67, 67)" paint-order="fill stroke markers" d=" M 128 455 L 128 451" stroke-miterlimit="10"/><path fill="none" stroke="rgb(255, 67, 67)" paint-order="fill stroke markers" d=" M 173 455 L 173 451" stroke-miterlimit="10"/><path fill="none" stroke="rgb(255, 67, 67)" paint-order="fill stroke markers" d=" M 219 455 L 219 451" stroke-miterlimit="10"/><path fill="none" stroke="rgb(255, 67, 67)" paint-order="fill stroke markers" d=" M 265 455 L 265 451" stroke-miterlimit="10"/><path fill="none" stroke="rgb(255, 67, 67)" paint-order="fill stroke markers" d=" M 311 455 L 311 451" stroke-miterlimit="10"/><path fill="none" stroke="rgb(255, 67, 67)" paint-order="fill stroke markers" d=" M 356 455 L 356 451" stroke-miterlimit="10"/><path fill="none" stroke="rgb(255, 67, 67)" paint-order="fill stroke markers" d=" M 402 455 L 402 451" stroke-miterlimit="10"/><path fill="none" stroke="rgb(255, 67, 67)" paint-order="fill stroke markers" d=" M 448 455 L 448 451" stroke-miterlimit="10"/><path fill="none" stroke="rgb(255, 67, 67)" paint-order="fill stroke markers" d=" M 494 455 L 494 451" stroke-miterlimit="10"/><path fill="none" stroke="rgb(255, 67, 67)" paint-order="fill stroke markers" d=" M 540 455 L 540 451" stroke-miterlimit="10"/><path fill="none" stroke="rgb(255, 67, 67)" paint-order="fill stroke markers" d=" M 585 455 L 585 451" stroke-miterlimit="10"/><path fill="none" stroke="rgb(255, 67, 67)" paint-order="fill stroke markers" d=" M 631 455 L 631 451" stroke-miterlimit="10"/><path fill="none" stroke="rgb(255, 67, 67)" paint-order="fill stroke markers" d=" M 677 455 L 677 451" stroke-miterlimit="10"/><path fill="none" stroke="rgb(255, 67, 67)" paint-order="fill stroke markers" d=" M 723 455 L 723 451" stroke-miterlimit="10"/><path fill="none" stroke="rgb(255, 67, 67)" paint-order="fill stroke markers" d=" M 769 455 L 769 451" stroke-miterlimit="10"/><path fill="none" stroke="rgb(255, 67, 67)" paint-order="fill stroke markers" d=" M 814 455 L 814 451" stroke-miterlimit="10"/><path fill="" stroke="rgb(255, 67, 67)" paint-order="fill stroke markers" d=" M 860 455 L 860 451" stroke-miterlimit="10"/><g transform="translate(82,462) rotate(0,0,0)"><text fill="" stroke="none" font-family="helvetica" font-size="8pt" font-style="normal" font-weight="normal" text-decoration="normal" x="0" y="0" text-anchor="middle" dominant-baseline="hanging">1850</text><g transform="rotate(0,0,0) translate(-82,-462) translate(311,462) rotate(0,0,0)"><text fill="" stroke="none" font-family="helvetica" font-size="8pt" font-style="normal" font-weight="normal" text-decoration="normal" x="0" y="0" text-anchor="middle" dominant-baseline="hanging">1900</text><g transform="rotate(0,0,0) translate(-311,-462) translate(540,462) rotate(0,0,0)"><text fill="" stroke="none" font-family="helvetica" font-size="8pt" font-style="normal" font-weight="normal" text-decoration="normal" x="0" y="0" text-anchor="middle" dominant-baseline="hanging">1950</text><g transform="rotate(0,0,0) translate(-540,-462) translate(769,462) rotate(0,0,0)"><text fill="" stroke="none" font-family="helvetica" font-size="8pt" font-style="normal" font-weight="normal" text-decoration="normal" x="0" y="0" text-anchor="middle" dominant-baseline="hanging">2000</text><g transform="rotate(0,0,0) translate(-769,-462) translate(460,480) rotate(0,0,0)"><text fill="" stroke="none" font-family="ADAM" font-size="12pt" font-style="normal" font-weight="normal" text-decoration="normal" x="0" y="0" text-anchor="middle" dominant-baseline="hanging">Año</text><g transform="rotate(0,0,0) translate(-460,-480)"/></g></g></g></g></g></g><g fill="#444444"><path fill="none" stroke="black" paint-order="fill stroke markers" d=" M 49 451 L 49 39" stroke-miterlimit="10"/><path fill="none" stroke="rgb(255, 67, 67)" paint-order="fill stroke markers" d=" M 43 432 L 51 432" stroke-miterlimit="10" stroke-width="3"/><path fill="none" stroke="rgb(255, 67, 67)" paint-order="fill stroke markers" d=" M 43 365 L 51 365" stroke-miterlimit="10" stroke-width="3"/><path fill="none" stroke="rgb(255, 67, 67)" paint-order="fill stroke markers" d=" M 43 299 L 51 299" stroke-miterlimit="10" stroke-width="3"/><path fill="none" stroke="rgb(255, 67, 67)" paint-order="fill stroke markers" d=" M 43 232 L 51 232" stroke-miterlimit="10" stroke-width="3"/><path fill="none" stroke="rgb(255, 67, 67)" paint-order="fill stroke markers" d=" M 43 165 L 51 165" stroke-miterlimit="10" stroke-width="3"/><path fill="none" stroke="rgb(255, 67, 67)" paint-order="fill stroke markers" d=" M 43 98 L 51 98" stroke-miterlimit="10" stroke-width="3"/><path fill="none" stroke="rgb(255, 67, 67)" paint-order="fill stroke markers" d=" M 45 446 L 49 446" stroke-miterlimit="10"/><path fill="none" stroke="rgb(255, 67, 67)" paint-order="fill stroke markers" d=" M 45 432 L 49 432" stroke-miterlimit="10"/><path fill="none" stroke="rgb(255, 67, 67)" paint-order="fill stroke markers" d=" M 45 419 L 49 419" stroke-miterlimit="10"/><path fill="none" stroke="rgb(255, 67, 67)" paint-order="fill stroke markers" d=" M 45 406 L 49 406" stroke-miterlimit="10"/><path fill="none" stroke="rgb(255, 67, 67)" paint-order="fill stroke markers" d=" M 45 392 L 49 392" stroke-miterlimit="10"/><path fill="none" stroke="rgb(255, 67, 67)" paint-order="fill stroke markers" d=" M 45 379 L 49 379" stroke-miterlimit="10"/><path fill="none" stroke="rgb(255, 67, 67)" paint-order="fill stroke markers" d=" M 45 365 L 49 365" stroke-miterlimit="10"/><path fill="none" stroke="rgb(255, 67, 67)" paint-order="fill stroke markers" d=" M 45 352 L 49 352" stroke-miterlimit="10"/><path fill="none" stroke="rgb(255, 67, 67)" paint-order="fill stroke markers" d=" M 45 339 L 49 339" stroke-miterlimit="10"/><path fill="none" stroke="rgb(255, 67, 67)" paint-order="fill stroke markers" d=" M 45 325 L 49 325" stroke-miterlimit="10"/><path fill="none" stroke="rgb(255, 67, 67)" paint-order="fill stroke markers" d=" M 45 312 L 49 312" stroke-miterlimit="10"/><path fill="none" stroke="rgb(255, 67, 67)" paint-order="fill stroke markers" d=" M 45 299 L 49 299" stroke-miterlimit="10"/><path fill="none" stroke="rgb(255, 67, 67)" paint-order="fill stroke markers" d=" M 45 285 L 49 285" stroke-miterlimit="10"/><path fill="none" stroke="rgb(255, 67, 67)" paint-order="fill stroke markers" d=" M 45 272 L 49 272" stroke-miterlimit="10"/><path fill="none" stroke="rgb(255, 67, 67)" paint-order="fill stroke markers" d=" M 45 258 L 49 258" stroke-miterlimit="10"/><path fill="none" stroke="rgb(255, 67, 67)" paint-order="fill stroke markers" d=" M 45 245 L 49 245" stroke-miterlimit="10"/><path fill="none" stroke="rgb(255, 67, 67)" paint-order="fill stroke markers" d=" M 45 232 L 49 232" stroke-miterlimit="10"/><path fill="none" stroke="rgb(255, 67, 67)" paint-order="fill stroke markers" d=" M 45 218 L 49 218" stroke-miterlimit="10"/><path fill="none" stroke="rgb(255, 67, 67)" paint-order="fill stroke markers" d=" M 45 205 L 49 205" stroke-miterlimit="10"/><path fill="none" stroke="rgb(255, 67, 67)" paint-order="fill stroke markers" d=" M 45 191 L 49 191" stroke-miterlimit="10"/><path fill="none" stroke="rgb(255, 67, 67)" paint-order="fill stroke markers" d=" M 45 178 L 49 178" stroke-miterlimit="10"/><path fill="none" stroke="rgb(255, 67, 67)" paint-order="fill stroke markers" d=" M 45 165 L 49 165" stroke-miterlimit="10"/><path fill="none" stroke="rgb(255, 67, 67)" paint-order="fill stroke markers" d=" M 45 151 L 49 151" stroke-miterlimit="10"/><path fill="none" stroke="rgb(255, 67, 67)" paint-order="fill stroke markers" d=" M 45 138 L 49 138" stroke-miterlimit="10"/><path fill="none" stroke="rgb(255, 67, 67)" paint-order="fill stroke markers" d=" M 45 125 L 49 125" stroke-miterlimit="10"/><path fill="none" stroke="rgb(255, 67, 67)" paint-order="fill stroke markers" d=" M 45 111 L 49 111" stroke-miterlimit="10"/><path fill="none" stroke="rgb(255, 67, 67)" paint-order="fill stroke markers" d=" M 45 98 L 49 98" stroke-miterlimit="10"/><path fill="none" stroke="rgb(255, 67, 67)" paint-order="fill stroke markers" d=" M 45 84 L 49 84" stroke-miterlimit="10"/><path fill="none" stroke="rgb(255, 67, 67)" paint-order="fill stroke markers" d=" M 45 71 L 49 71" stroke-miterlimit="10"/><path fill="none" stroke="rgb(255, 67, 67)" paint-order="fill stroke markers" d=" M 45 58 L 49 58" stroke-miterlimit="10"/><path fill="" stroke="rgb(255, 67, 67)" paint-order="fill stroke markers" d=" M 45 44 L 49 44" stroke-miterlimit="10"/><g transform="translate(38,432) rotate(0,0,0)"><text fill="" stroke="none" font-family="helvetica" font-size="8pt" font-style="normal" font-weight="normal" text-decoration="normal" x="0" y="0" text-anchor="end" dominant-baseline="central">0</text><g transform="rotate(0,0,0) translate(-38,-432) translate(38,365) rotate(0,0,0)"><text fill="" stroke="none" font-family="helvetica" font-size="8pt" font-style="normal" font-weight="normal" text-decoration="normal" x="0" y="0" text-anchor="end" dominant-baseline="central">5</text><g transform="rotate(0,0,0) translate(-38,-365) translate(38,299) rotate(0,0,0)"><text fill="" stroke="none" font-family="helvetica" font-size="8pt" font-style="normal" font-weight="normal" text-decoration="normal" x="0" y="0" text-anchor="end" dominant-baseline="central">10</text><g transform="rotate(0,0,0) translate(-38,-299) translate(38,232) rotate(0,0,0)"><text fill="" stroke="none" font-family="helvetica" font-size="8pt" font-style="normal" font-weight="normal" text-decoration="normal" x="0" y="0" text-anchor="end" dominant-baseline="central">15</text><g transform="rotate(0,0,0) translate(-38,-232) translate(38,165) rotate(0,0,0)"><text fill="" stroke="none" font-family="helvetica" font-size="8pt" font-style="normal" font-weight="normal" text-decoration="normal" x="0" y="0" text-anchor="end" dominant-baseline="central">20</text><g transform="rotate(0,0,0) translate(-38,-165) translate(38,98) rotate(0,0,0)"><text fill="" stroke="none" font-family="helvetica" font-size="8pt" font-style="normal" font-weight="normal" text-decoration="normal" x="0" y="0" text-anchor="end" dominant-baseline="central">25</text><g transform="rotate(0,0,0) translate(-38,-98) translate(20,245) rotate(-90,0,0)"><text fill="" stroke="none" font-family="ADAM" font-size="12pt" font-style="normal" font-weight="normal" text-decoration="normal" x="0" y="0" text-anchor="middle" dominant-baseline="alphabetic">Número</text><g transform="rotate(90,0,0) translate(-20,-245)"/></g></g></g></g></g></g></g></g><g fill="black"><path fill="" stroke="none" d=""/><g transform="translate(459.5,34)"><path fill="none" stroke="none"/><text fill="" stroke="none" font-family="ADAM" font-size="16pt" font-style="normal" font-weight="normal" text-decoration="normal" x="0" y="0" text-anchor="middle" dominant-baseline="text-after-edge">Tormentas Tropicales y Huracanes desde 1851</text></g></g></g></g><g/><g/><g/><g/><g/><g/><g/><g/><g/><g/><g/><g/><g/><g/><g/><g/><g/><g/><g/><g/><g/><g/><g/><g/><g/><g/><g/><g/><g/><g/><g/><g/><g/><g/><g/><g/><g/><g/><g/><g/><g/><g/><g/><g/><g/><g/><g/><g/><g/><g/><g/><g/><g/><g/><g/><g/><g/><g/><g/><g/><g/><g/><g/><g/><g/><g/><g/><g/><g/><g/><g/><g/><g/><g/><g/><g/><g/><g/><g/><g/><g/><g/><g/><g/><g/><g/><g/><g/><g/><g/><g/><g/><g/><g/><g/></g></svg>