<svg version="1.1" xmlns="http://www.w3.org/2000/svg" xmlns:xlink="http://www.w3.org/1999/xlink" width="900" height="500" style="width: 900px; height: 500px;"><defs/><g><g transform="scale(1,1) translate(0.5,0.5)"><rect fill="#FFFFFF" stroke="none" x="0" y="0" width="900" height="500"/><rect fill="#ffffff" stroke="none" x="0" y="0" width="900" height="500"/><rect fill="#FFFFFF" stroke="none" x="79" y="39" width="791" height="412"/><rect fill="white" stroke="none" x="79" y="39" width="791" height="412"/><g><rect fill="none" stroke="rgb(0, 131, 255)" x="79" y="39" width="791" height="412" stroke-miterlimit="10" stroke-width="7" stroke-opacity="0.5"/></g><g><g><path fill="none" stroke="rgb(0, 131, 255)" paint-order="fill stroke markers" d=" M 115 451 L 115 39" stroke-miterlimit="10" stroke-opacity="0"/><path fill="none" stroke="rgb(0, 131, 255)" paint-order="fill stroke markers" d=" M 295 451 L 295 39" stroke-miterlimit="10" stroke-opacity="0"/><path fill="none" stroke="rgb(0, 131, 255)" paint-order="fill stroke markers" d=" M 475 451 L 475 39" stroke-miterlimit="10" stroke-opacity="0"/><path fill="none" stroke="rgb(0, 131, 255)" paint-order="fill stroke markers" d=" M 654 451 L 654 39" stroke-miterlimit="10" stroke-opacity="0"/><path fill="none" stroke="rgb(0, 131, 255)" paint-order="fill stroke markers" d=" M 834 451 L 834 39" stroke-miterlimit="10" stroke-opacity="0"/></g><g><path fill="none" stroke="rgb(0, 131, 255)" paint-order="fill stroke markers" d=" M 79 348 L 870 348" stroke-miterlimit="10" stroke-opacity="0.25"/><path fill="none" stroke="rgb(0, 131, 255)" paint-order="fill stroke markers" d=" M 79 245 L 870 245" stroke-miterlimit="10" stroke-opacity="0.25"/><path fill="none" stroke="rgb(0, 131, 255)" paint-order="fill stroke markers" d=" M 79 142 L 870 142" stroke-miterlimit="10" stroke-opacity="0.25"/></g><g><path fill="none" stroke="none"/><path fill="rgb(0, 28, 100)" stroke="none" paint-order="stroke fill markers" d=" M 114.9545454545455 451 L 150.88448136394754 451 L 186.91285545392327 451 L 222.84279136332532 451 L 258.77272727272737 451 L 294.7026631821294 451 L 330.731037272105 451 L 366.6609731815071 451 L 402.5909090909091 451 L 438.52084500031117 451 L 474.5492190902868 451 L 510.47915499968883 451 L 546.4090909090909 451 L 582.3390268184929 451 L 618.3674009084688 451 L 654.2973368178708 451 L 690.2272727272729 451 L 726.1572086366747 451 L 762.1855827266505 451 L 798.1155186360526 451 L 834.0454545454546 451 L 834.0454545454546 421.2845 L 798.1155186360526 427.0216 L 762.1855827266505 427.52218 L 726.1572086366747 419.04528 L 690.2272727272729 424.8174 L 654.2973368178708 436.25864 L 618.3674009084688 435.4367 L 582.3390268184929 422.18883999999997 L 546.4090909090909 409.08518 L 510.47915499968883 412.93326 L 474.5492190902868 407.36302 L 438.52084500031117 407.95835999999997 L 402.5909090909091 409.32207999999997 L 366.6609731815071 405.90454 L 330.731037272105 410.77026 L 294.7026631821294 406.4319 L 258.77272727272737 408.82356 L 222.84279136332532 414.6204 L 186.91285545392327 414.59568 L 150.88448136394754 418.97112 L 114.9545454545455 412.85086 Z" fill-opacity="0.6"/><path fill="none" stroke="rgb(0, 28, 100)" paint-order="fill stroke markers" d=" M 114.9545454545455 451 L 150.88448136394754 451 L 186.91285545392327 451 L 222.84279136332532 451 L 258.77272727272737 451 L 294.7026631821294 451 L 330.731037272105 451 L 366.6609731815071 451 L 402.5909090909091 451 L 438.52084500031117 451 L 474.5492190902868 451 L 510.47915499968883 451 L 546.4090909090909 451 L 582.3390268184929 451 L 618.3674009084688 451 L 654.2973368178708 451 L 690.2272727272729 451 L 726.1572086366747 451 L 762.1855827266505 451 L 798.1155186360526 451 L 834.0454545454546 451 L 834.0454545454546 421.2845 L 798.1155186360526 427.0216 L 762.1855827266505 427.52218 L 726.1572086366747 419.04528 L 690.2272727272729 424.8174 L 654.2973368178708 436.25864 L 618.3674009084688 435.4367 L 582.3390268184929 422.18883999999997 L 546.4090909090909 409.08518 L 510.47915499968883 412.93326 L 474.5492190902868 407.36302 L 438.52084500031117 407.95835999999997 L 402.5909090909091 409.32207999999997 L 366.6609731815071 405.90454 L 330.731037272105 410.77026 L 294.7026631821294 406.4319 L 258.77272727272737 408.82356 L 222.84279136332532 414.6204 L 186.91285545392327 414.59568 L 150.88448136394754 418.97112 L 114.9545454545455 412.85086 Z" stroke-miterlimit="10" stroke-opacity="0.3"/></g><g><path fill="none" stroke="none"/><path fill="rgb(0, 28, 100)" stroke="none" paint-order="stroke fill markers" d=" M 114.9545454545455 412.85086 L 150.88448136394754 418.97112 L 186.91285545392327 414.59568 L 222.84279136332532 414.6204 L 258.77272727272737 408.82356 L 294.7026631821294 406.4319 L 330.731037272105 410.77026 L 366.6609731815071 405.90454 L 402.5909090909091 409.32207999999997 L 438.52084500031117 407.95835999999997 L 474.5492190902868 407.36302 L 510.47915499968883 412.93326 L 546.4090909090909 409.08518 L 582.3390268184929 422.18883999999997 L 618.3674009084688 435.4367 L 654.2973368178708 436.25864 L 690.2272727272729 424.8174 L 726.1572086366747 419.04528 L 762.1855827266505 427.52218 L 798.1155186360526 427.0216 L 834.0454545454546 421.2845 L 834.0454545454546 313.26634 L 798.1155186360526 323.1049 L 762.1855827266505 321.8071 L 726.1572086366747 307.85266 L 690.2272727272729 304.84506 L 654.2973368178708 310.60893999999996 L 618.3674009084688 305.0696 L 582.3390268184929 281.7401 L 546.4090909090909 263.13829999999996 L 510.47915499968883 267.1656 L 474.5492190902868 259.48386 L 438.52084500031117 261.58299999999997 L 402.5909090909091 266.53729999999996 L 366.6609731815071 266.55377999999996 L 330.731037272105 273.32705999999996 L 294.7026631821294 273.222 L 258.77272727272737 278.95704 L 222.84279136332532 287.57813999999996 L 186.91285545392327 296.35992 L 150.88448136394754 304.77502 L 114.9545454545455 298.92462 Z"/><path fill="none" stroke="rgb(0, 28, 100)" paint-order="fill stroke markers" d=" M 114.9545454545455 412.85086 L 150.88448136394754 418.97112 L 186.91285545392327 414.59568 L 222.84279136332532 414.6204 L 258.77272727272737 408.82356 L 294.7026631821294 406.4319 L 330.731037272105 410.77026 L 366.6609731815071 405.90454 L 402.5909090909091 409.32207999999997 L 438.52084500031117 407.95835999999997 L 474.5492190902868 407.36302 L 510.47915499968883 412.93326 L 546.4090909090909 409.08518 L 582.3390268184929 422.18883999999997 L 618.3674009084688 435.4367 L 654.2973368178708 436.25864 L 690.2272727272729 424.8174 L 726.1572086366747 419.04528 L 762.1855827266505 427.52218 L 798.1155186360526 427.0216 L 834.0454545454546 421.2845 L 834.0454545454546 313.26634 L 798.1155186360526 323.1049 L 762.1855827266505 321.8071 L 726.1572086366747 307.85266 L 690.2272727272729 304.84506 L 654.2973368178708 310.60893999999996 L 618.3674009084688 305.0696 L 582.3390268184929 281.7401 L 546.4090909090909 263.13829999999996 L 510.47915499968883 267.1656 L 474.5492190902868 259.48386 L 438.52084500031117 261.58299999999997 L 402.5909090909091 266.53729999999996 L 366.6609731815071 266.55377999999996 L 330.731037272105 273.32705999999996 L 294.7026631821294 273.222 L 258.77272727272737 278.95704 L 222.84279136332532 287.57813999999996 L 186.91285545392327 296.35992 L 150.88448136394754 304.77502 L 114.9545454545455 298.92462 Z" stroke-miterlimit="10" stroke-opacity="0.3"/></g><g><path fill="none" stroke="none"/><path fill="rgb(244, 255, 84)" stroke="none" paint-order="stroke fill markers" d=" M 114.9545454545455 298.92462 L 150.88448136394754 304.77502 L 186.91285545392327 296.35992 L 222.84279136332532 287.57813999999996 L 258.77272727272737 278.95704 L 294.7026631821294 273.222 L 330.731037272105 273.32705999999996 L 366.6609731815071 266.55377999999996 L 402.5909090909091 266.53729999999996 L 438.52084500031117 261.58299999999997 L 474.5492190902868 259.48386 L 510.47915499968883 267.1656 L 546.4090909090909 263.13829999999996 L 582.3390268184929 281.7401 L 618.3674009084688 305.0696 L 654.2973368178708 310.60893999999996 L 690.2272727272729 304.84506 L 726.1572086366747 307.85266 L 762.1855827266505 321.8071 L 798.1155186360526 323.1049 L 834.0454545454546 313.26634 L 834.0454545454546 262.61093999999997 L 798.1155186360526 274.36118 L 762.1855827266505 268.08642 L 726.1572086366747 249.79155999999998 L 690.2272727272729 245.13183999999998 L 654.2973368178708 246.37401999999997 L 618.3674009084688 240.75845999999999 L 582.3390268184929 210.08711999999997 L 546.4090909090909 198.03817999999998 L 510.47915499968883 204.75171999999998 L 474.5492190902868 199.49459999999996 L 438.52084500031117 210.75867999999997 L 402.5909090909091 222.75405999999998 L 366.6609731815071 227.90406 L 330.731037272105 239.52863999999997 L 294.7026631821294 241.86262 L 258.77272727272737 251.07287999999997 L 222.84279136332532 263.23512 L 186.91285545392327 273.58456 L 150.88448136394754 287.46896 L 114.9545454545455 283.46637999999996 Z"/><path fill="none" stroke="rgb(244, 255, 84)" paint-order="fill stroke markers" d=" M 114.9545454545455 298.92462 L 150.88448136394754 304.77502 L 186.91285545392327 296.35992 L 222.84279136332532 287.57813999999996 L 258.77272727272737 278.95704 L 294.7026631821294 273.222 L 330.731037272105 273.32705999999996 L 366.6609731815071 266.55377999999996 L 402.5909090909091 266.53729999999996 L 438.52084500031117 261.58299999999997 L 474.5492190902868 259.48386 L 510.47915499968883 267.1656 L 546.4090909090909 263.13829999999996 L 582.3390268184929 281.7401 L 618.3674009084688 305.0696 L 654.2973368178708 310.60893999999996 L 690.2272727272729 304.84506 L 726.1572086366747 307.85266 L 762.1855827266505 321.8071 L 798.1155186360526 323.1049 L 834.0454545454546 313.26634 L 834.0454545454546 262.61093999999997 L 798.1155186360526 274.36118 L 762.1855827266505 268.08642 L 726.1572086366747 249.79155999999998 L 690.2272727272729 245.13183999999998 L 654.2973368178708 246.37401999999997 L 618.3674009084688 240.75845999999999 L 582.3390268184929 210.08711999999997 L 546.4090909090909 198.03817999999998 L 510.47915499968883 204.75171999999998 L 474.5492190902868 199.49459999999996 L 438.52084500031117 210.75867999999997 L 402.5909090909091 222.75405999999998 L 366.6609731815071 227.90406 L 330.731037272105 239.52863999999997 L 294.7026631821294 241.86262 L 258.77272727272737 251.07287999999997 L 222.84279136332532 263.23512 L 186.91285545392327 273.58456 L 150.88448136394754 287.46896 L 114.9545454545455 283.46637999999996 Z" stroke-miterlimit="10" stroke-opacity="0.3"/></g><g><path fill="none" stroke="none"/><path fill="rgb(255, 67, 67)" stroke="none" paint-order="stroke fill markers" d=" M 114.9545454545455 283.46637999999996 L 150.88448136394754 287.46896 L 186.91285545392327 273.58456 L 222.84279136332532 263.23512 L 258.77272727272737 251.07287999999997 L 294.7026631821294 241.86262 L 330.731037272105 239.52863999999997 L 366.6609731815071 227.90406 L 402.5909090909091 222.75405999999998 L 438.52084500031117 210.75867999999997 L 474.5492190902868 199.49459999999996 L 510.47915499968883 204.75171999999998 L 546.4090909090909 198.03817999999998 L 582.3390268184929 210.08711999999997 L 618.3674009084688 240.75845999999999 L 654.2973368178708 246.37401999999997 L 690.2272727272729 245.13183999999998 L 726.1572086366747 249.79155999999998 L 762.1855827266505 268.08642 L 798.1155186360526 274.36118 L 834.0454545454546 262.61093999999997 L 834.0454545454546 231.86543999999998 L 798.1155186360526 243.59919999999997 L 762.1855827266505 237.63137999999998 L 726.1572086366747 216.79035999999996 L 690.2272727272729 214.13913999999997 L 654.2973368178708 213.09471999999997 L 618.3674009084688 212.43345999999997 L 582.3390268184929 178.42697999999996 L 546.4090909090909 168.45451999999995 L 510.47915499968883 172.47357999999997 L 474.5492190902868 168.60283999999996 L 438.52084500031117 176.61211999999995 L 402.5909090909091 189.53449999999998 L 366.6609731815071 194.07268 L 330.731037272105 205.32645999999997 L 294.7026631821294 208.47001999999998 L 258.77272727272737 219.48072 L 222.84279136332532 231.56261999999998 L 186.91285545392327 243.89584 L 150.88448136394754 257.22816 L 114.9545454545455 253.7035 Z"/><path fill="none" stroke="rgb(255, 67, 67)" paint-order="fill stroke markers" d=" M 114.9545454545455 283.46637999999996 L 150.88448136394754 287.46896 L 186.91285545392327 273.58456 L 222.84279136332532 263.23512 L 258.77272727272737 251.07287999999997 L 294.7026631821294 241.86262 L 330.731037272105 239.52863999999997 L 366.6609731815071 227.90406 L 402.5909090909091 222.75405999999998 L 438.52084500031117 210.75867999999997 L 474.5492190902868 199.49459999999996 L 510.47915499968883 204.75171999999998 L 546.4090909090909 198.03817999999998 L 582.3390268184929 210.08711999999997 L 618.3674009084688 240.75845999999999 L 654.2973368178708 246.37401999999997 L 690.2272727272729 245.13183999999998 L 726.1572086366747 249.79155999999998 L 762.1855827266505 268.08642 L 798.1155186360526 274.36118 L 834.0454545454546 262.61093999999997 L 834.0454545454546 231.86543999999998 L 798.1155186360526 243.59919999999997 L 762.1855827266505 237.63137999999998 L 726.1572086366747 216.79035999999996 L 690.2272727272729 214.13913999999997 L 654.2973368178708 213.09471999999997 L 618.3674009084688 212.43345999999997 L 582.3390268184929 178.42697999999996 L 546.4090909090909 168.45451999999995 L 510.47915499968883 172.47357999999997 L 474.5492190902868 168.60283999999996 L 438.52084500031117 176.61211999999995 L 402.5909090909091 189.53449999999998 L 366.6609731815071 194.07268 L 330.731037272105 205.32645999999997 L 294.7026631821294 208.47001999999998 L 258.77272727272737 219.48072 L 222.84279136332532 231.56261999999998 L 186.91285545392327 243.89584 L 150.88448136394754 257.22816 L 114.9545454545455 253.7035 Z" stroke-miterlimit="10" stroke-opacity="0.3"/></g><g><path fill="none" stroke="none"/><path fill="rgb(0, 131, 255)" stroke="none" paint-order="stroke fill markers" d=" M 114.9545454545455 253.7035 L 150.88448136394754 257.22816 L 186.91285545392327 243.89584 L 222.84279136332532 231.56261999999998 L 258.77272727272737 219.48072 L 294.7026631821294 208.47001999999998 L 330.731037272105 205.32645999999997 L 366.6609731815071 194.07268 L 402.5909090909091 189.53449999999998 L 438.52084500031117 176.61211999999995 L 474.5492190902868 168.60283999999996 L 510.47915499968883 172.47357999999997 L 546.4090909090909 168.45451999999995 L 582.3390268184929 178.42697999999996 L 618.3674009084688 212.43345999999997 L 654.2973368178708 213.09471999999997 L 690.2272727272729 214.13913999999997 L 726.1572086366747 216.79035999999996 L 762.1855827266505 237.63137999999998 L 798.1155186360526 243.59919999999997 L 834.0454545454546 231.86543999999998 L 834.0454545454546 226.92968 L 798.1155186360526 236.65699999999998 L 762.1855827266505 231.11559999999997 L 726.1572086366747 213.15033999999997 L 690.2272727272729 208.71515999999997 L 654.2973368178708 205.60455999999996 L 618.3674009084688 207.76549999999997 L 582.3390268184929 174.30079999999998 L 546.4090909090909 163.63 L 510.47915499968883 167.94363999999996 L 474.5492190902868 165.13997999999998 L 438.52084500031117 170.99449999999996 L 402.5909090909091 182.25858 L 366.6609731815071 189.9774 L 330.731037272105 198.05671999999998 L 294.7026631821294 203.24791999999997 L 258.77272727272737 214.84983999999997 L 222.84279136332532 225.17043999999999 L 186.91285545392327 237.59841999999998 L 150.88448136394754 250.04081999999997 L 114.9545454545455 249.6247 Z"/><path fill="none" stroke="rgb(0, 131, 255)" paint-order="fill stroke markers" d=" M 114.9545454545455 253.7035 L 150.88448136394754 257.22816 L 186.91285545392327 243.89584 L 222.84279136332532 231.56261999999998 L 258.77272727272737 219.48072 L 294.7026631821294 208.47001999999998 L 330.731037272105 205.32645999999997 L 366.6609731815071 194.07268 L 402.5909090909091 189.53449999999998 L 438.52084500031117 176.61211999999995 L 474.5492190902868 168.60283999999996 L 510.47915499968883 172.47357999999997 L 546.4090909090909 168.45451999999995 L 582.3390268184929 178.42697999999996 L 618.3674009084688 212.43345999999997 L 654.2973368178708 213.09471999999997 L 690.2272727272729 214.13913999999997 L 726.1572086366747 216.79035999999996 L 762.1855827266505 237.63137999999998 L 798.1155186360526 243.59919999999997 L 834.0454545454546 231.86543999999998 L 834.0454545454546 226.92968 L 798.1155186360526 236.65699999999998 L 762.1855827266505 231.11559999999997 L 726.1572086366747 213.15033999999997 L 690.2272727272729 208.71515999999997 L 654.2973368178708 205.60455999999996 L 618.3674009084688 207.76549999999997 L 582.3390268184929 174.30079999999998 L 546.4090909090909 163.63 L 510.47915499968883 167.94363999999996 L 474.5492190902868 165.13997999999998 L 438.52084500031117 170.99449999999996 L 402.5909090909091 182.25858 L 366.6609731815071 189.9774 L 330.731037272105 198.05671999999998 L 294.7026631821294 203.24791999999997 L 258.77272727272737 214.84983999999997 L 222.84279136332532 225.17043999999999 L 186.91285545392327 237.59841999999998 L 150.88448136394754 250.04081999999997 L 114.9545454545455 249.6247 Z" stroke-miterlimit="10" stroke-opacity="0.3"/></g><g><path fill="none" stroke="none"/><path fill="rgb(172, 255, 165)" stroke="none" paint-order="stroke fill markers" d=" M 114.9545454545455 249.6247 L 150.88448136394754 250.04081999999997 L 186.91285545392327 237.59841999999998 L 222.84279136332532 225.17043999999999 L 258.77272727272737 214.84983999999997 L 294.7026631821294 203.24791999999997 L 330.731037272105 198.05671999999998 L 366.6609731815071 189.9774 L 402.5909090909091 182.25858 L 438.52084500031117 170.99449999999996 L 474.5492190902868 165.13997999999998 L 510.47915499968883 167.94363999999996 L 546.4090909090909 163.63 L 582.3390268184929 174.30079999999998 L 618.3674009084688 207.76549999999997 L 654.2973368178708 205.60455999999996 L 690.2272727272729 208.71515999999997 L 726.1572086366747 213.15033999999997 L 762.1855827266505 231.11559999999997 L 798.1155186360526 236.65699999999998 L 834.0454545454546 226.92968 L 834.0454545454546 196.18417999999997 L 798.1155186360526 205.89502 L 762.1855827266505 200.66055999999998 L 726.1572086366747 180.14914 L 690.2272727272729 177.72245999999996 L 654.2973368178708 172.32525999999996 L 618.3674009084688 179.4405 L 582.3390268184929 142.64065999999997 L 546.4090909090909 134.04634 L 510.47915499968883 135.66549999999995 L 474.5492190902868 134.24821999999995 L 438.52084500031117 136.84794 L 402.5909090909091 149.03902 L 366.6609731815071 156.14601999999996 L 330.731037272105 163.85454 L 294.7026631821294 169.85531999999995 L 258.77272727272737 183.25768 L 222.84279136332532 193.49793999999997 L 186.91285545392327 207.9097 L 150.88448136394754 219.80002 L 114.9545454545455 219.86181999999997 Z"/><path fill="none" stroke="rgb(172, 255, 165)" paint-order="fill stroke markers" d=" M 114.9545454545455 249.6247 L 150.88448136394754 250.04081999999997 L 186.91285545392327 237.59841999999998 L 222.84279136332532 225.17043999999999 L 258.77272727272737 214.84983999999997 L 294.7026631821294 203.24791999999997 L 330.731037272105 198.05671999999998 L 366.6609731815071 189.9774 L 402.5909090909091 182.25858 L 438.52084500031117 170.99449999999996 L 474.5492190902868 165.13997999999998 L 510.47915499968883 167.94363999999996 L 546.4090909090909 163.63 L 582.3390268184929 174.30079999999998 L 618.3674009084688 207.76549999999997 L 654.2973368178708 205.60455999999996 L 690.2272727272729 208.71515999999997 L 726.1572086366747 213.15033999999997 L 762.1855827266505 231.11559999999997 L 798.1155186360526 236.65699999999998 L 834.0454545454546 226.92968 L 834.0454545454546 196.18417999999997 L 798.1155186360526 205.89502 L 762.1855827266505 200.66055999999998 L 726.1572086366747 180.14914 L 690.2272727272729 177.72245999999996 L 654.2973368178708 172.32525999999996 L 618.3674009084688 179.4405 L 582.3390268184929 142.64065999999997 L 546.4090909090909 134.04634 L 510.47915499968883 135.66549999999995 L 474.5492190902868 134.24821999999995 L 438.52084500031117 136.84794 L 402.5909090909091 149.03902 L 366.6609731815071 156.14601999999996 L 330.731037272105 163.85454 L 294.7026631821294 169.85531999999995 L 258.77272727272737 183.25768 L 222.84279136332532 193.49793999999997 L 186.91285545392327 207.9097 L 150.88448136394754 219.80002 L 114.9545454545455 219.86181999999997 Z" stroke-miterlimit="10" stroke-opacity="0.3"/></g><g><path fill="none" stroke="none"/><path fill="rgb(255, 67, 67)" stroke="none" paint-order="stroke fill markers" d=" M 114.9545454545455 219.86181999999997 L 150.88448136394754 219.80002 L 186.91285545392327 207.9097 L 222.84279136332532 193.49793999999997 L 258.77272727272737 183.25768 L 294.7026631821294 169.85531999999995 L 330.731037272105 163.85454 L 366.6609731815071 156.14601999999996 L 402.5909090909091 149.03902 L 438.52084500031117 136.84794 L 474.5492190902868 134.24821999999995 L 510.47915499968883 135.66549999999995 L 546.4090909090909 134.04634 L 582.3390268184929 142.64065999999997 L 618.3674009084688 179.4405 L 654.2973368178708 172.32525999999996 L 690.2272727272729 177.72245999999996 L 726.1572086366747 180.14914 L 762.1855827266505 200.66055999999998 L 798.1155186360526 205.89502 L 834.0454545454546 196.18417999999997 L 834.0454545454546 180.99991999999997 L 798.1155186360526 191.83139999999997 L 762.1855827266505 186.62989999999996 L 726.1572086366747 164.58171999999996 L 690.2272727272729 162.95637999999997 L 654.2973368178708 158.12773999999996 L 618.3674009084688 166.29564 L 582.3390268184929 136.76759999999996 L 546.4090909090909 134.04634 L 510.47915499968883 135.66549999999995 L 474.5492190902868 134.24821999999995 L 438.52084500031117 136.84794 L 402.5909090909091 149.03902 L 366.6609731815071 156.14601999999996 L 330.731037272105 163.85454 L 294.7026631821294 169.85531999999995 L 258.77272727272737 183.25768 L 222.84279136332532 193.49793999999997 L 186.91285545392327 207.9097 L 150.88448136394754 219.80002 L 114.9545454545455 219.86181999999997 Z" fill-opacity="0.5"/><path fill="none" stroke="rgb(255, 67, 67)" paint-order="fill stroke markers" d=" M 114.9545454545455 219.86181999999997 L 150.88448136394754 219.80002 L 186.91285545392327 207.9097 L 222.84279136332532 193.49793999999997 L 258.77272727272737 183.25768 L 294.7026631821294 169.85531999999995 L 330.731037272105 163.85454 L 366.6609731815071 156.14601999999996 L 402.5909090909091 149.03902 L 438.52084500031117 136.84794 L 474.5492190902868 134.24821999999995 L 510.47915499968883 135.66549999999995 L 546.4090909090909 134.04634 L 582.3390268184929 142.64065999999997 L 618.3674009084688 179.4405 L 654.2973368178708 172.32525999999996 L 690.2272727272729 177.72245999999996 L 726.1572086366747 180.14914 L 762.1855827266505 200.66055999999998 L 798.1155186360526 205.89502 L 834.0454545454546 196.18417999999997 L 834.0454545454546 180.99991999999997 L 798.1155186360526 191.83139999999997 L 762.1855827266505 186.62989999999996 L 726.1572086366747 164.58171999999996 L 690.2272727272729 162.95637999999997 L 654.2973368178708 158.12773999999996 L 618.3674009084688 166.29564 L 582.3390268184929 136.76759999999996 L 546.4090909090909 134.04634 L 510.47915499968883 135.66549999999995 L 474.5492190902868 134.24821999999995 L 438.52084500031117 136.84794 L 402.5909090909091 149.03902 L 366.6609731815071 156.14601999999996 L 330.731037272105 163.85454 L 294.7026631821294 169.85531999999995 L 258.77272727272737 183.25768 L 222.84279136332532 193.49793999999997 L 186.91285545392327 207.9097 L 150.88448136394754 219.80002 L 114.9545454545455 219.86181999999997 Z" stroke-miterlimit="10" stroke-opacity="0.3"/></g></g><g><g/><g><path fill="#ffffff" stroke="#e5e5e5" paint-order="fill stroke markers" d=" M 89 49 L 854 49 L 854 89 L 89 89 L 89 49 Z" fill-opacity="0.95" stroke-miterlimit="10" stroke-opacity="0.5"/><text fill="#444444" stroke="none" font-family="ADAM CG PRO" font-size="10pt" font-style="normal" font-weight="normal" text-decoration="normal" x="124" y="69" text-anchor="start" dominant-baseline="central">Carbón</text><rect fill="rgb(0, 28, 100)" stroke="none" x="101" y="61" width="16" height="16" fill-opacity="0.6"/><path fill="none" stroke="rgb(0, 28, 100)" paint-order="fill stroke markers" d=" M 101 61 L 117 61 L 117 77 L 101 77 L 101 61 Z" stroke-miterlimit="10" stroke-opacity="0.3"/><text fill="#444444" stroke="none" font-family="ADAM CG PRO" font-size="10pt" font-style="normal" font-weight="normal" text-decoration="normal" x="208" y="69" text-anchor="start" dominant-baseline="central">Petróleo</text><rect fill="rgb(0, 28, 100)" stroke="none" x="185" y="61" width="16" height="16"/><path fill="none" stroke="rgb(0, 28, 100)" paint-order="fill stroke markers" d=" M 185 61 L 201 61 L 201 77 L 185 77 L 185 61 Z" stroke-miterlimit="10" stroke-opacity="0.3"/><text fill="#444444" stroke="none" font-family="ADAM CG PRO" font-size="10pt" font-style="normal" font-weight="normal" text-decoration="normal" x="303" y="69" text-anchor="start" dominant-baseline="central">Gas Natural</text><rect fill="rgb(244, 255, 84)" stroke="none" x="280" y="61" width="16" height="16"/><path fill="none" stroke="rgb(244, 255, 84)" paint-order="fill stroke markers" d=" M 280 61 L 296 61 L 296 77 L 280 77 L 280 61 Z" stroke-miterlimit="10" stroke-opacity="0.3"/><text fill="#444444" stroke="none" font-family="ADAM CG PRO" font-size="10pt" font-style="normal" font-weight="normal" text-decoration="normal" x="420" y="69" text-anchor="start" dominant-baseline="central">Nuclear</text><rect fill="rgb(255, 67, 67)" stroke="none" x="397" y="61" width="16" height="16"/><path fill="none" stroke="rgb(255, 67, 67)" paint-order="fill stroke markers" d=" M 397 61 L 413 61 L 413 77 L 397 77 L 397 61 Z" stroke-miterlimit="10" stroke-opacity="0.3"/><text fill="#444444" stroke="none" font-family="ADAM CG PRO" font-size="10pt" font-style="normal" font-weight="normal" text-decoration="normal" x="509" y="69" text-anchor="start" dominant-baseline="central">Hidroeléctrica</text><rect fill="rgb(0, 131, 255)" stroke="none" x="486" y="61" width="16" height="16"/><path fill="none" stroke="rgb(0, 131, 255)" paint-order="fill stroke markers" d=" M 486 61 L 502 61 L 502 77 L 486 77 L 486 61 Z" stroke-miterlimit="10" stroke-opacity="0.3"/><text fill="#444444" stroke="none" font-family="ADAM CG PRO" font-size="10pt" font-style="normal" font-weight="normal" text-decoration="normal" x="649" y="69" text-anchor="start" dominant-baseline="central">Solar y Eólica</text><rect fill="rgb(172, 255, 165)" stroke="none" x="626" y="61" width="16" height="16"/><path fill="none" stroke="rgb(172, 255, 165)" paint-order="fill stroke markers" d=" M 626 61 L 642 61 L 642 77 L 626 77 L 626 61 Z" stroke-miterlimit="10" stroke-opacity="0.3"/><text fill="#444444" stroke="none" font-family="ADAM CG PRO" font-size="10pt" font-style="normal" font-weight="normal" text-decoration="normal" x="785" y="69" text-anchor="start" dominant-baseline="central">Biomasa</text><rect fill="rgb(255, 67, 67)" stroke="none" x="762" y="61" width="16" height="16" fill-opacity="0.5"/><path fill="none" stroke="rgb(255, 67, 67)" paint-order="fill stroke markers" d=" M 762 61 L 778 61 L 778 77 L 762 77 L 762 61 Z" stroke-miterlimit="10" stroke-opacity="0.3"/></g></g><g><g fill="#444444"><path fill="none" stroke="black" paint-order="fill stroke markers" d=" M 79 451 L 870 451" stroke-miterlimit="10"/><path fill="none" stroke="rgb(255, 67, 67)" paint-order="fill stroke markers" d=" M 115 457 L 115 449" stroke-miterlimit="10" stroke-width="3"/><path fill="none" stroke="rgb(255, 67, 67)" paint-order="fill stroke markers" d=" M 295 457 L 295 449" stroke-miterlimit="10" stroke-width="3"/><path fill="none" stroke="rgb(255, 67, 67)" paint-order="fill stroke markers" d=" M 475 457 L 475 449" stroke-miterlimit="10" stroke-width="3"/><path fill="none" stroke="rgb(255, 67, 67)" paint-order="fill stroke markers" d=" M 654 457 L 654 449" stroke-miterlimit="10" stroke-width="3"/><path fill="" stroke="rgb(255, 67, 67)" paint-order="fill stroke markers" d=" M 834 457 L 834 449" stroke-miterlimit="10" stroke-width="3"/><g transform="translate(115,462) rotate(0,0,0)"><text fill="" stroke="none" font-family="helvetica" font-size="8pt" font-style="normal" font-weight="normal" text-decoration="normal" x="0" y="0" text-anchor="middle" dominant-baseline="hanging">1995</text><g transform="rotate(0,0,0) translate(-115,-462) translate(295,462) rotate(0,0,0)"><text fill="" stroke="none" font-family="helvetica" font-size="8pt" font-style="normal" font-weight="normal" text-decoration="normal" x="0" y="0" text-anchor="middle" dominant-baseline="hanging">2000</text><g transform="rotate(0,0,0) translate(-295,-462) translate(475,462) rotate(0,0,0)"><text fill="" stroke="none" font-family="helvetica" font-size="8pt" font-style="normal" font-weight="normal" text-decoration="normal" x="0" y="0" text-anchor="middle" dominant-baseline="hanging">2005</text><g transform="rotate(0,0,0) translate(-475,-462) translate(654,462) rotate(0,0,0)"><text fill="" stroke="none" font-family="helvetica" font-size="8pt" font-style="normal" font-weight="normal" text-decoration="normal" x="0" y="0" text-anchor="middle" dominant-baseline="hanging">2010</text><g transform="rotate(0,0,0) translate(-654,-462) translate(834,462) rotate(0,0,0)"><text fill="" stroke="none" font-family="helvetica" font-size="8pt" font-style="normal" font-weight="normal" text-decoration="normal" x="0" y="0" text-anchor="middle" dominant-baseline="hanging">2015</text><g transform="rotate(0,0,0) translate(-834,-462) translate(475,480) rotate(0,0,0)"><text fill="" stroke="none" font-family="ADAM CG PRO" font-size="12pt" font-style="normal" font-weight="normal" text-decoration="normal" x="0" y="0" text-anchor="middle" dominant-baseline="hanging">Año</text><g transform="rotate(0,0,0) translate(-475,-480)"/></g></g></g></g></g></g></g><g fill="#444444"><path fill="none" stroke="black" paint-order="fill stroke markers" d=" M 79 451 L 79 39" stroke-miterlimit="10"/><path fill="none" stroke="rgb(255, 67, 67)" paint-order="fill stroke markers" d=" M 73 451 L 81 451" stroke-miterlimit="10" stroke-width="3"/><path fill="none" stroke="rgb(255, 67, 67)" paint-order="fill stroke markers" d=" M 73 348 L 81 348" stroke-miterlimit="10" stroke-width="3"/><path fill="none" stroke="rgb(255, 67, 67)" paint-order="fill stroke markers" d=" M 73 245 L 81 245" stroke-miterlimit="10" stroke-width="3"/><path fill="none" stroke="rgb(255, 67, 67)" paint-order="fill stroke markers" d=" M 73 142 L 81 142" stroke-miterlimit="10" stroke-width="3"/><path fill="none" stroke="rgb(255, 67, 67)" paint-order="fill stroke markers" d=" M 73 39 L 81 39" stroke-miterlimit="10" stroke-width="3"/><path fill="none" stroke="rgb(255, 67, 67)" paint-order="fill stroke markers" d=" M 75 451 L 79 451" stroke-miterlimit="10"/><path fill="none" stroke="rgb(255, 67, 67)" paint-order="fill stroke markers" d=" M 75 430 L 79 430" stroke-miterlimit="10"/><path fill="none" stroke="rgb(255, 67, 67)" paint-order="fill stroke markers" d=" M 75 410 L 79 410" stroke-miterlimit="10"/><path fill="none" stroke="rgb(255, 67, 67)" paint-order="fill stroke markers" d=" M 75 389 L 79 389" stroke-miterlimit="10"/><path fill="none" stroke="rgb(255, 67, 67)" paint-order="fill stroke markers" d=" M 75 369 L 79 369" stroke-miterlimit="10"/><path fill="none" stroke="rgb(255, 67, 67)" paint-order="fill stroke markers" d=" M 75 348 L 79 348" stroke-miterlimit="10"/><path fill="none" stroke="rgb(255, 67, 67)" paint-order="fill stroke markers" d=" M 75 327 L 79 327" stroke-miterlimit="10"/><path fill="none" stroke="rgb(255, 67, 67)" paint-order="fill stroke markers" d=" M 75 307 L 79 307" stroke-miterlimit="10"/><path fill="none" stroke="rgb(255, 67, 67)" paint-order="fill stroke markers" d=" M 75 286 L 79 286" stroke-miterlimit="10"/><path fill="none" stroke="rgb(255, 67, 67)" paint-order="fill stroke markers" d=" M 75 266 L 79 266" stroke-miterlimit="10"/><path fill="none" stroke="rgb(255, 67, 67)" paint-order="fill stroke markers" d=" M 75 245 L 79 245" stroke-miterlimit="10"/><path fill="none" stroke="rgb(255, 67, 67)" paint-order="fill stroke markers" d=" M 75 224 L 79 224" stroke-miterlimit="10"/><path fill="none" stroke="rgb(255, 67, 67)" paint-order="fill stroke markers" d=" M 75 204 L 79 204" stroke-miterlimit="10"/><path fill="none" stroke="rgb(255, 67, 67)" paint-order="fill stroke markers" d=" M 75 183 L 79 183" stroke-miterlimit="10"/><path fill="none" stroke="rgb(255, 67, 67)" paint-order="fill stroke markers" d=" M 75 163 L 79 163" stroke-miterlimit="10"/><path fill="none" stroke="rgb(255, 67, 67)" paint-order="fill stroke markers" d=" M 75 142 L 79 142" stroke-miterlimit="10"/><path fill="none" stroke="rgb(255, 67, 67)" paint-order="fill stroke markers" d=" M 75 121 L 79 121" stroke-miterlimit="10"/><path fill="none" stroke="rgb(255, 67, 67)" paint-order="fill stroke markers" d=" M 75 101 L 79 101" stroke-miterlimit="10"/><path fill="none" stroke="rgb(255, 67, 67)" paint-order="fill stroke markers" d=" M 75 80 L 79 80" stroke-miterlimit="10"/><path fill="none" stroke="rgb(255, 67, 67)" paint-order="fill stroke markers" d=" M 75 60 L 79 60" stroke-miterlimit="10"/><path fill="" stroke="rgb(255, 67, 67)" paint-order="fill stroke markers" d=" M 75 39 L 79 39" stroke-miterlimit="10"/><g transform="translate(68,451) rotate(0,0,0)"><text fill="" stroke="none" font-family="helvetica" font-size="8pt" font-style="normal" font-weight="normal" text-decoration="normal" x="0" y="0" text-anchor="end" dominant-baseline="central">0</text><g transform="rotate(0,0,0) translate(-68,-451) translate(68,348) rotate(0,0,0)"><text fill="" stroke="none" font-family="helvetica" font-size="8pt" font-style="normal" font-weight="normal" text-decoration="normal" x="0" y="0" text-anchor="end" dominant-baseline="central">50,000</text><g transform="rotate(0,0,0) translate(-68,-348) translate(68,245) rotate(0,0,0)"><text fill="" stroke="none" font-family="helvetica" font-size="8pt" font-style="normal" font-weight="normal" text-decoration="normal" x="0" y="0" text-anchor="end" dominant-baseline="central">100,000</text><g transform="rotate(0,0,0) translate(-68,-245) translate(68,142) rotate(0,0,0)"><text fill="" stroke="none" font-family="helvetica" font-size="8pt" font-style="normal" font-weight="normal" text-decoration="normal" x="0" y="0" text-anchor="end" dominant-baseline="central">150,000</text><g transform="rotate(0,0,0) translate(-68,-142) translate(68,39) rotate(0,0,0)"><text fill="" stroke="none" font-family="helvetica" font-size="8pt" font-style="normal" font-weight="normal" text-decoration="normal" x="0" y="0" text-anchor="end" dominant-baseline="central">200,000</text><g transform="rotate(0,0,0) translate(-68,-39) translate(20,245) rotate(-90,0,0)"><text fill="" stroke="none" font-family="ADAM CG PRO" font-size="12pt" font-style="normal" font-weight="normal" text-decoration="normal" x="0" y="0" text-anchor="middle" dominant-baseline="alphabetic">Tonelada Equivalentes de Petróleo</text><g transform="rotate(90,0,0) translate(-20,-245)"/></g></g></g></g></g></g></g><g fill="black"><path fill="" stroke="none" d=""/><g transform="translate(474.5,34)"><path fill="none" stroke="none"/><text fill="" stroke="none" font-family="ADAM CG PRO" font-size="16pt" font-style="normal" font-weight="normal" text-decoration="normal" x="0" y="0" text-anchor="middle" dominant-baseline="text-after-edge">Consumo Energético en España</text></g></g></g></g><g transform="scale(1,1) translate(0.5,0.5)"><rect fill="#FFFFFF" stroke="none" x="0" y="0" width="900" height="500"/><rect fill="#ffffff" stroke="none" x="0" y="0" width="900" height="500"/><rect fill="#FFFFFF" stroke="none" x="79" y="39" width="791" height="412"/><rect fill="white" stroke="none" x="79" y="39" width="791" height="412"/><g><rect fill="none" stroke="rgb(0, 131, 255)" x="79" y="39" width="791" height="412" stroke-miterlimit="10" stroke-width="7" stroke-opacity="0.5"/></g><g><g><path fill="none" stroke="rgb(0, 131, 255)" paint-order="fill stroke markers" d=" M 115 451 L 115 39" stroke-miterlimit="10" stroke-opacity="0"/><path fill="none" stroke="rgb(0, 131, 255)" paint-order="fill stroke markers" d=" M 295 451 L 295 39" stroke-miterlimit="10" stroke-opacity="0"/><path fill="none" stroke="rgb(0, 131, 255)" paint-order="fill stroke markers" d=" M 475 451 L 475 39" stroke-miterlimit="10" stroke-opacity="0"/><path fill="none" stroke="rgb(0, 131, 255)" paint-order="fill stroke markers" d=" M 654 451 L 654 39" stroke-miterlimit="10" stroke-opacity="0"/><path fill="none" stroke="rgb(0, 131, 255)" paint-order="fill stroke markers" d=" M 834 451 L 834 39" stroke-miterlimit="10" stroke-opacity="0"/></g><g><path fill="none" stroke="rgb(0, 131, 255)" paint-order="fill stroke markers" d=" M 79 348 L 870 348" stroke-miterlimit="10" stroke-opacity="0.25"/><path fill="none" stroke="rgb(0, 131, 255)" paint-order="fill stroke markers" d=" M 79 245 L 870 245" stroke-miterlimit="10" stroke-opacity="0.25"/><path fill="none" stroke="rgb(0, 131, 255)" paint-order="fill stroke markers" d=" M 79 142 L 870 142" stroke-miterlimit="10" stroke-opacity="0.25"/></g><g><path fill="none" stroke="none"/><path fill="rgb(0, 28, 100)" stroke="none" paint-order="stroke fill markers" d=" M 114.9545454545455 451 L 150.88448136394754 451 L 186.91285545392327 451 L 222.84279136332532 451 L 258.77272727272737 451 L 294.7026631821294 451 L 330.731037272105 451 L 366.6609731815071 451 L 402.5909090909091 451 L 438.52084500031117 451 L 474.5492190902868 451 L 510.47915499968883 451 L 546.4090909090909 451 L 582.3390268184929 451 L 618.3674009084688 451 L 654.2973368178708 451 L 690.2272727272729 451 L 726.1572086366747 451 L 762.1855827266505 451 L 798.1155186360526 451 L 834.0454545454546 451 L 834.0454545454546 421.2845 L 798.1155186360526 427.0216 L 762.1855827266505 427.52218 L 726.1572086366747 419.04528 L 690.2272727272729 424.8174 L 654.2973368178708 436.25864 L 618.3674009084688 435.4367 L 582.3390268184929 422.18883999999997 L 546.4090909090909 409.08518 L 510.47915499968883 412.93326 L 474.5492190902868 407.36302 L 438.52084500031117 407.95835999999997 L 402.5909090909091 409.32207999999997 L 366.6609731815071 405.90454 L 330.731037272105 410.77026 L 294.7026631821294 406.4319 L 258.77272727272737 408.82356 L 222.84279136332532 414.6204 L 186.91285545392327 414.59568 L 150.88448136394754 418.97112 L 114.9545454545455 412.85086 Z" fill-opacity="0.6"/><path fill="none" stroke="rgb(0, 28, 100)" paint-order="fill stroke markers" d=" M 114.9545454545455 451 L 150.88448136394754 451 L 186.91285545392327 451 L 222.84279136332532 451 L 258.77272727272737 451 L 294.7026631821294 451 L 330.731037272105 451 L 366.6609731815071 451 L 402.5909090909091 451 L 438.52084500031117 451 L 474.5492190902868 451 L 510.47915499968883 451 L 546.4090909090909 451 L 582.3390268184929 451 L 618.3674009084688 451 L 654.2973368178708 451 L 690.2272727272729 451 L 726.1572086366747 451 L 762.1855827266505 451 L 798.1155186360526 451 L 834.0454545454546 451 L 834.0454545454546 421.2845 L 798.1155186360526 427.0216 L 762.1855827266505 427.52218 L 726.1572086366747 419.04528 L 690.2272727272729 424.8174 L 654.2973368178708 436.25864 L 618.3674009084688 435.4367 L 582.3390268184929 422.18883999999997 L 546.4090909090909 409.08518 L 510.47915499968883 412.93326 L 474.5492190902868 407.36302 L 438.52084500031117 407.95835999999997 L 402.5909090909091 409.32207999999997 L 366.6609731815071 405.90454 L 330.731037272105 410.77026 L 294.7026631821294 406.4319 L 258.77272727272737 408.82356 L 222.84279136332532 414.6204 L 186.91285545392327 414.59568 L 150.88448136394754 418.97112 L 114.9545454545455 412.85086 Z" stroke-miterlimit="10" stroke-opacity="0.3"/></g><g><path fill="none" stroke="none"/><path fill="rgb(0, 28, 100)" stroke="none" paint-order="stroke fill markers" d=" M 114.9545454545455 412.85086 L 150.88448136394754 418.97112 L 186.91285545392327 414.59568 L 222.84279136332532 414.6204 L 258.77272727272737 408.82356 L 294.7026631821294 406.4319 L 330.731037272105 410.77026 L 366.6609731815071 405.90454 L 402.5909090909091 409.32207999999997 L 438.52084500031117 407.95835999999997 L 474.5492190902868 407.36302 L 510.47915499968883 412.93326 L 546.4090909090909 409.08518 L 582.3390268184929 422.18883999999997 L 618.3674009084688 435.4367 L 654.2973368178708 436.25864 L 690.2272727272729 424.8174 L 726.1572086366747 419.04528 L 762.1855827266505 427.52218 L 798.1155186360526 427.0216 L 834.0454545454546 421.2845 L 834.0454545454546 313.26634 L 798.1155186360526 323.1049 L 762.1855827266505 321.8071 L 726.1572086366747 307.85266 L 690.2272727272729 304.84506 L 654.2973368178708 310.60893999999996 L 618.3674009084688 305.0696 L 582.3390268184929 281.7401 L 546.4090909090909 263.13829999999996 L 510.47915499968883 267.1656 L 474.5492190902868 259.48386 L 438.52084500031117 261.58299999999997 L 402.5909090909091 266.53729999999996 L 366.6609731815071 266.55377999999996 L 330.731037272105 273.32705999999996 L 294.7026631821294 273.222 L 258.77272727272737 278.95704 L 222.84279136332532 287.57813999999996 L 186.91285545392327 296.35992 L 150.88448136394754 304.77502 L 114.9545454545455 298.92462 Z"/><path fill="none" stroke="rgb(0, 28, 100)" paint-order="fill stroke markers" d=" M 114.9545454545455 412.85086 L 150.88448136394754 418.97112 L 186.91285545392327 414.59568 L 222.84279136332532 414.6204 L 258.77272727272737 408.82356 L 294.7026631821294 406.4319 L 330.731037272105 410.77026 L 366.6609731815071 405.90454 L 402.5909090909091 409.32207999999997 L 438.52084500031117 407.95835999999997 L 474.5492190902868 407.36302 L 510.47915499968883 412.93326 L 546.4090909090909 409.08518 L 582.3390268184929 422.18883999999997 L 618.3674009084688 435.4367 L 654.2973368178708 436.25864 L 690.2272727272729 424.8174 L 726.1572086366747 419.04528 L 762.1855827266505 427.52218 L 798.1155186360526 427.0216 L 834.0454545454546 421.2845 L 834.0454545454546 313.26634 L 798.1155186360526 323.1049 L 762.1855827266505 321.8071 L 726.1572086366747 307.85266 L 690.2272727272729 304.84506 L 654.2973368178708 310.60893999999996 L 618.3674009084688 305.0696 L 582.3390268184929 281.7401 L 546.4090909090909 263.13829999999996 L 510.47915499968883 267.1656 L 474.5492190902868 259.48386 L 438.52084500031117 261.58299999999997 L 402.5909090909091 266.53729999999996 L 366.6609731815071 266.55377999999996 L 330.731037272105 273.32705999999996 L 294.7026631821294 273.222 L 258.77272727272737 278.95704 L 222.84279136332532 287.57813999999996 L 186.91285545392327 296.35992 L 150.88448136394754 304.77502 L 114.9545454545455 298.92462 Z" stroke-miterlimit="10" stroke-opacity="0.3"/></g><g><path fill="none" stroke="none"/><path fill="rgb(244, 255, 84)" stroke="none" paint-order="stroke fill markers" d=" M 114.9545454545455 298.92462 L 150.88448136394754 304.77502 L 186.91285545392327 296.35992 L 222.84279136332532 287.57813999999996 L 258.77272727272737 278.95704 L 294.7026631821294 273.222 L 330.731037272105 273.32705999999996 L 366.6609731815071 266.55377999999996 L 402.5909090909091 266.53729999999996 L 438.52084500031117 261.58299999999997 L 474.5492190902868 259.48386 L 510.47915499968883 267.1656 L 546.4090909090909 263.13829999999996 L 582.3390268184929 281.7401 L 618.3674009084688 305.0696 L 654.2973368178708 310.60893999999996 L 690.2272727272729 304.84506 L 726.1572086366747 307.85266 L 762.1855827266505 321.8071 L 798.1155186360526 323.1049 L 834.0454545454546 313.26634 L 834.0454545454546 262.61093999999997 L 798.1155186360526 274.36118 L 762.1855827266505 268.08642 L 726.1572086366747 249.79155999999998 L 690.2272727272729 245.13183999999998 L 654.2973368178708 246.37401999999997 L 618.3674009084688 240.75845999999999 L 582.3390268184929 210.08711999999997 L 546.4090909090909 198.03817999999998 L 510.47915499968883 204.75171999999998 L 474.5492190902868 199.49459999999996 L 438.52084500031117 210.75867999999997 L 402.5909090909091 222.75405999999998 L 366.6609731815071 227.90406 L 330.731037272105 239.52863999999997 L 294.7026631821294 241.86262 L 258.77272727272737 251.07287999999997 L 222.84279136332532 263.23512 L 186.91285545392327 273.58456 L 150.88448136394754 287.46896 L 114.9545454545455 283.46637999999996 Z"/><path fill="none" stroke="rgb(244, 255, 84)" paint-order="fill stroke markers" d=" M 114.9545454545455 298.92462 L 150.88448136394754 304.77502 L 186.91285545392327 296.35992 L 222.84279136332532 287.57813999999996 L 258.77272727272737 278.95704 L 294.7026631821294 273.222 L 330.731037272105 273.32705999999996 L 366.6609731815071 266.55377999999996 L 402.5909090909091 266.53729999999996 L 438.52084500031117 261.58299999999997 L 474.5492190902868 259.48386 L 510.47915499968883 267.1656 L 546.4090909090909 263.13829999999996 L 582.3390268184929 281.7401 L 618.3674009084688 305.0696 L 654.2973368178708 310.60893999999996 L 690.2272727272729 304.84506 L 726.1572086366747 307.85266 L 762.1855827266505 321.8071 L 798.1155186360526 323.1049 L 834.0454545454546 313.26634 L 834.0454545454546 262.61093999999997 L 798.1155186360526 274.36118 L 762.1855827266505 268.08642 L 726.1572086366747 249.79155999999998 L 690.2272727272729 245.13183999999998 L 654.2973368178708 246.37401999999997 L 618.3674009084688 240.75845999999999 L 582.3390268184929 210.08711999999997 L 546.4090909090909 198.03817999999998 L 510.47915499968883 204.75171999999998 L 474.5492190902868 199.49459999999996 L 438.52084500031117 210.75867999999997 L 402.5909090909091 222.75405999999998 L 366.6609731815071 227.90406 L 330.731037272105 239.52863999999997 L 294.7026631821294 241.86262 L 258.77272727272737 251.07287999999997 L 222.84279136332532 263.23512 L 186.91285545392327 273.58456 L 150.88448136394754 287.46896 L 114.9545454545455 283.46637999999996 Z" stroke-miterlimit="10" stroke-opacity="0.3"/></g><g><path fill="none" stroke="none"/><path fill="rgb(255, 67, 67)" stroke="none" paint-order="stroke fill markers" d=" M 114.9545454545455 283.46637999999996 L 150.88448136394754 287.46896 L 186.91285545392327 273.58456 L 222.84279136332532 263.23512 L 258.77272727272737 251.07287999999997 L 294.7026631821294 241.86262 L 330.731037272105 239.52863999999997 L 366.6609731815071 227.90406 L 402.5909090909091 222.75405999999998 L 438.52084500031117 210.75867999999997 L 474.5492190902868 199.49459999999996 L 510.47915499968883 204.75171999999998 L 546.4090909090909 198.03817999999998 L 582.3390268184929 210.08711999999997 L 618.3674009084688 240.75845999999999 L 654.2973368178708 246.37401999999997 L 690.2272727272729 245.13183999999998 L 726.1572086366747 249.79155999999998 L 762.1855827266505 268.08642 L 798.1155186360526 274.36118 L 834.0454545454546 262.61093999999997 L 834.0454545454546 231.86543999999998 L 798.1155186360526 243.59919999999997 L 762.1855827266505 237.63137999999998 L 726.1572086366747 216.79035999999996 L 690.2272727272729 214.13913999999997 L 654.2973368178708 213.09471999999997 L 618.3674009084688 212.43345999999997 L 582.3390268184929 178.42697999999996 L 546.4090909090909 168.45451999999995 L 510.47915499968883 172.47357999999997 L 474.5492190902868 168.60283999999996 L 438.52084500031117 176.61211999999995 L 402.5909090909091 189.53449999999998 L 366.6609731815071 194.07268 L 330.731037272105 205.32645999999997 L 294.7026631821294 208.47001999999998 L 258.77272727272737 219.48072 L 222.84279136332532 231.56261999999998 L 186.91285545392327 243.89584 L 150.88448136394754 257.22816 L 114.9545454545455 253.7035 Z"/><path fill="none" stroke="rgb(255, 67, 67)" paint-order="fill stroke markers" d=" M 114.9545454545455 283.46637999999996 L 150.88448136394754 287.46896 L 186.91285545392327 273.58456 L 222.84279136332532 263.23512 L 258.77272727272737 251.07287999999997 L 294.7026631821294 241.86262 L 330.731037272105 239.52863999999997 L 366.6609731815071 227.90406 L 402.5909090909091 222.75405999999998 L 438.52084500031117 210.75867999999997 L 474.5492190902868 199.49459999999996 L 510.47915499968883 204.75171999999998 L 546.4090909090909 198.03817999999998 L 582.3390268184929 210.08711999999997 L 618.3674009084688 240.75845999999999 L 654.2973368178708 246.37401999999997 L 690.2272727272729 245.13183999999998 L 726.1572086366747 249.79155999999998 L 762.1855827266505 268.08642 L 798.1155186360526 274.36118 L 834.0454545454546 262.61093999999997 L 834.0454545454546 231.86543999999998 L 798.1155186360526 243.59919999999997 L 762.1855827266505 237.63137999999998 L 726.1572086366747 216.79035999999996 L 690.2272727272729 214.13913999999997 L 654.2973368178708 213.09471999999997 L 618.3674009084688 212.43345999999997 L 582.3390268184929 178.42697999999996 L 546.4090909090909 168.45451999999995 L 510.47915499968883 172.47357999999997 L 474.5492190902868 168.60283999999996 L 438.52084500031117 176.61211999999995 L 402.5909090909091 189.53449999999998 L 366.6609731815071 194.07268 L 330.731037272105 205.32645999999997 L 294.7026631821294 208.47001999999998 L 258.77272727272737 219.48072 L 222.84279136332532 231.56261999999998 L 186.91285545392327 243.89584 L 150.88448136394754 257.22816 L 114.9545454545455 253.7035 Z" stroke-miterlimit="10" stroke-opacity="0.3"/></g><g><path fill="none" stroke="none"/><path fill="rgb(0, 131, 255)" stroke="none" paint-order="stroke fill markers" d=" M 114.9545454545455 253.7035 L 150.88448136394754 257.22816 L 186.91285545392327 243.89584 L 222.84279136332532 231.56261999999998 L 258.77272727272737 219.48072 L 294.7026631821294 208.47001999999998 L 330.731037272105 205.32645999999997 L 366.6609731815071 194.07268 L 402.5909090909091 189.53449999999998 L 438.52084500031117 176.61211999999995 L 474.5492190902868 168.60283999999996 L 510.47915499968883 172.47357999999997 L 546.4090909090909 168.45451999999995 L 582.3390268184929 178.42697999999996 L 618.3674009084688 212.43345999999997 L 654.2973368178708 213.09471999999997 L 690.2272727272729 214.13913999999997 L 726.1572086366747 216.79035999999996 L 762.1855827266505 237.63137999999998 L 798.1155186360526 243.59919999999997 L 834.0454545454546 231.86543999999998 L 834.0454545454546 226.92968 L 798.1155186360526 236.65699999999998 L 762.1855827266505 231.11559999999997 L 726.1572086366747 213.15033999999997 L 690.2272727272729 208.71515999999997 L 654.2973368178708 205.60455999999996 L 618.3674009084688 207.76549999999997 L 582.3390268184929 174.30079999999998 L 546.4090909090909 163.63 L 510.47915499968883 167.94363999999996 L 474.5492190902868 165.13997999999998 L 438.52084500031117 170.99449999999996 L 402.5909090909091 182.25858 L 366.6609731815071 189.9774 L 330.731037272105 198.05671999999998 L 294.7026631821294 203.24791999999997 L 258.77272727272737 214.84983999999997 L 222.84279136332532 225.17043999999999 L 186.91285545392327 237.59841999999998 L 150.88448136394754 250.04081999999997 L 114.9545454545455 249.6247 Z"/><path fill="none" stroke="rgb(0, 131, 255)" paint-order="fill stroke markers" d=" M 114.9545454545455 253.7035 L 150.88448136394754 257.22816 L 186.91285545392327 243.89584 L 222.84279136332532 231.56261999999998 L 258.77272727272737 219.48072 L 294.7026631821294 208.47001999999998 L 330.731037272105 205.32645999999997 L 366.6609731815071 194.07268 L 402.5909090909091 189.53449999999998 L 438.52084500031117 176.61211999999995 L 474.5492190902868 168.60283999999996 L 510.47915499968883 172.47357999999997 L 546.4090909090909 168.45451999999995 L 582.3390268184929 178.42697999999996 L 618.3674009084688 212.43345999999997 L 654.2973368178708 213.09471999999997 L 690.2272727272729 214.13913999999997 L 726.1572086366747 216.79035999999996 L 762.1855827266505 237.63137999999998 L 798.1155186360526 243.59919999999997 L 834.0454545454546 231.86543999999998 L 834.0454545454546 226.92968 L 798.1155186360526 236.65699999999998 L 762.1855827266505 231.11559999999997 L 726.1572086366747 213.15033999999997 L 690.2272727272729 208.71515999999997 L 654.2973368178708 205.60455999999996 L 618.3674009084688 207.76549999999997 L 582.3390268184929 174.30079999999998 L 546.4090909090909 163.63 L 510.47915499968883 167.94363999999996 L 474.5492190902868 165.13997999999998 L 438.52084500031117 170.99449999999996 L 402.5909090909091 182.25858 L 366.6609731815071 189.9774 L 330.731037272105 198.05671999999998 L 294.7026631821294 203.24791999999997 L 258.77272727272737 214.84983999999997 L 222.84279136332532 225.17043999999999 L 186.91285545392327 237.59841999999998 L 150.88448136394754 250.04081999999997 L 114.9545454545455 249.6247 Z" stroke-miterlimit="10" stroke-opacity="0.3"/></g><g><path fill="none" stroke="none"/><path fill="rgb(172, 255, 165)" stroke="none" paint-order="stroke fill markers" d=" M 114.9545454545455 249.6247 L 150.88448136394754 250.04081999999997 L 186.91285545392327 237.59841999999998 L 222.84279136332532 225.17043999999999 L 258.77272727272737 214.84983999999997 L 294.7026631821294 203.24791999999997 L 330.731037272105 198.05671999999998 L 366.6609731815071 189.9774 L 402.5909090909091 182.25858 L 438.52084500031117 170.99449999999996 L 474.5492190902868 165.13997999999998 L 510.47915499968883 167.94363999999996 L 546.4090909090909 163.63 L 582.3390268184929 174.30079999999998 L 618.3674009084688 207.76549999999997 L 654.2973368178708 205.60455999999996 L 690.2272727272729 208.71515999999997 L 726.1572086366747 213.15033999999997 L 762.1855827266505 231.11559999999997 L 798.1155186360526 236.65699999999998 L 834.0454545454546 226.92968 L 834.0454545454546 196.18417999999997 L 798.1155186360526 205.89502 L 762.1855827266505 200.66055999999998 L 726.1572086366747 180.14914 L 690.2272727272729 177.72245999999996 L 654.2973368178708 172.32525999999996 L 618.3674009084688 179.4405 L 582.3390268184929 142.64065999999997 L 546.4090909090909 134.04634 L 510.47915499968883 135.66549999999995 L 474.5492190902868 134.24821999999995 L 438.52084500031117 136.84794 L 402.5909090909091 149.03902 L 366.6609731815071 156.14601999999996 L 330.731037272105 163.85454 L 294.7026631821294 169.85531999999995 L 258.77272727272737 183.25768 L 222.84279136332532 193.49793999999997 L 186.91285545392327 207.9097 L 150.88448136394754 219.80002 L 114.9545454545455 219.86181999999997 Z"/><path fill="none" stroke="rgb(172, 255, 165)" paint-order="fill stroke markers" d=" M 114.9545454545455 249.6247 L 150.88448136394754 250.04081999999997 L 186.91285545392327 237.59841999999998 L 222.84279136332532 225.17043999999999 L 258.77272727272737 214.84983999999997 L 294.7026631821294 203.24791999999997 L 330.731037272105 198.05671999999998 L 366.6609731815071 189.9774 L 402.5909090909091 182.25858 L 438.52084500031117 170.99449999999996 L 474.5492190902868 165.13997999999998 L 510.47915499968883 167.94363999999996 L 546.4090909090909 163.63 L 582.3390268184929 174.30079999999998 L 618.3674009084688 207.76549999999997 L 654.2973368178708 205.60455999999996 L 690.2272727272729 208.71515999999997 L 726.1572086366747 213.15033999999997 L 762.1855827266505 231.11559999999997 L 798.1155186360526 236.65699999999998 L 834.0454545454546 226.92968 L 834.0454545454546 196.18417999999997 L 798.1155186360526 205.89502 L 762.1855827266505 200.66055999999998 L 726.1572086366747 180.14914 L 690.2272727272729 177.72245999999996 L 654.2973368178708 172.32525999999996 L 618.3674009084688 179.4405 L 582.3390268184929 142.64065999999997 L 546.4090909090909 134.04634 L 510.47915499968883 135.66549999999995 L 474.5492190902868 134.24821999999995 L 438.52084500031117 136.84794 L 402.5909090909091 149.03902 L 366.6609731815071 156.14601999999996 L 330.731037272105 163.85454 L 294.7026631821294 169.85531999999995 L 258.77272727272737 183.25768 L 222.84279136332532 193.49793999999997 L 186.91285545392327 207.9097 L 150.88448136394754 219.80002 L 114.9545454545455 219.86181999999997 Z" stroke-miterlimit="10" stroke-opacity="0.3"/></g><g><path fill="none" stroke="none"/><path fill="rgb(255, 67, 67)" stroke="none" paint-order="stroke fill markers" d=" M 114.9545454545455 219.86181999999997 L 150.88448136394754 219.80002 L 186.91285545392327 207.9097 L 222.84279136332532 193.49793999999997 L 258.77272727272737 183.25768 L 294.7026631821294 169.85531999999995 L 330.731037272105 163.85454 L 366.6609731815071 156.14601999999996 L 402.5909090909091 149.03902 L 438.52084500031117 136.84794 L 474.5492190902868 134.24821999999995 L 510.47915499968883 135.66549999999995 L 546.4090909090909 134.04634 L 582.3390268184929 142.64065999999997 L 618.3674009084688 179.4405 L 654.2973368178708 172.32525999999996 L 690.2272727272729 177.72245999999996 L 726.1572086366747 180.14914 L 762.1855827266505 200.66055999999998 L 798.1155186360526 205.89502 L 834.0454545454546 196.18417999999997 L 834.0454545454546 180.99991999999997 L 798.1155186360526 191.83139999999997 L 762.1855827266505 186.62989999999996 L 726.1572086366747 164.58171999999996 L 690.2272727272729 162.95637999999997 L 654.2973368178708 158.12773999999996 L 618.3674009084688 166.29564 L 582.3390268184929 136.76759999999996 L 546.4090909090909 134.04634 L 510.47915499968883 135.66549999999995 L 474.5492190902868 134.24821999999995 L 438.52084500031117 136.84794 L 402.5909090909091 149.03902 L 366.6609731815071 156.14601999999996 L 330.731037272105 163.85454 L 294.7026631821294 169.85531999999995 L 258.77272727272737 183.25768 L 222.84279136332532 193.49793999999997 L 186.91285545392327 207.9097 L 150.88448136394754 219.80002 L 114.9545454545455 219.86181999999997 Z" fill-opacity="0.5"/><path fill="none" stroke="rgb(255, 67, 67)" paint-order="fill stroke markers" d=" M 114.9545454545455 219.86181999999997 L 150.88448136394754 219.80002 L 186.91285545392327 207.9097 L 222.84279136332532 193.49793999999997 L 258.77272727272737 183.25768 L 294.7026631821294 169.85531999999995 L 330.731037272105 163.85454 L 366.6609731815071 156.14601999999996 L 402.5909090909091 149.03902 L 438.52084500031117 136.84794 L 474.5492190902868 134.24821999999995 L 510.47915499968883 135.66549999999995 L 546.4090909090909 134.04634 L 582.3390268184929 142.64065999999997 L 618.3674009084688 179.4405 L 654.2973368178708 172.32525999999996 L 690.2272727272729 177.72245999999996 L 726.1572086366747 180.14914 L 762.1855827266505 200.66055999999998 L 798.1155186360526 205.89502 L 834.0454545454546 196.18417999999997 L 834.0454545454546 180.99991999999997 L 798.1155186360526 191.83139999999997 L 762.1855827266505 186.62989999999996 L 726.1572086366747 164.58171999999996 L 690.2272727272729 162.95637999999997 L 654.2973368178708 158.12773999999996 L 618.3674009084688 166.29564 L 582.3390268184929 136.76759999999996 L 546.4090909090909 134.04634 L 510.47915499968883 135.66549999999995 L 474.5492190902868 134.24821999999995 L 438.52084500031117 136.84794 L 402.5909090909091 149.03902 L 366.6609731815071 156.14601999999996 L 330.731037272105 163.85454 L 294.7026631821294 169.85531999999995 L 258.77272727272737 183.25768 L 222.84279136332532 193.49793999999997 L 186.91285545392327 207.9097 L 150.88448136394754 219.80002 L 114.9545454545455 219.86181999999997 Z" stroke-miterlimit="10" stroke-opacity="0.3"/></g></g><g><g/><g><path fill="#ffffff" stroke="#e5e5e5" paint-order="fill stroke markers" d=" M 89 49 L 854 49 L 854 89 L 89 89 L 89 49 Z" fill-opacity="0.95" stroke-miterlimit="10" stroke-opacity="0.5"/><text fill="#444444" stroke="none" font-family="ADAM CG PRO" font-size="10pt" font-style="normal" font-weight="normal" text-decoration="normal" x="124" y="69" text-anchor="start" dominant-baseline="central">Carbón</text><rect fill="rgb(0, 28, 100)" stroke="none" x="101" y="61" width="16" height="16" fill-opacity="0.6"/><path fill="none" stroke="rgb(0, 28, 100)" paint-order="fill stroke markers" d=" M 101 61 L 117 61 L 117 77 L 101 77 L 101 61 Z" stroke-miterlimit="10" stroke-opacity="0.3"/><text fill="#444444" stroke="none" font-family="ADAM CG PRO" font-size="10pt" font-style="normal" font-weight="normal" text-decoration="normal" x="208" y="69" text-anchor="start" dominant-baseline="central">Petróleo</text><rect fill="rgb(0, 28, 100)" stroke="none" x="185" y="61" width="16" height="16"/><path fill="none" stroke="rgb(0, 28, 100)" paint-order="fill stroke markers" d=" M 185 61 L 201 61 L 201 77 L 185 77 L 185 61 Z" stroke-miterlimit="10" stroke-opacity="0.3"/><text fill="#444444" stroke="none" font-family="ADAM CG PRO" font-size="10pt" font-style="normal" font-weight="normal" text-decoration="normal" x="303" y="69" text-anchor="start" dominant-baseline="central">Gas Natural</text><rect fill="rgb(244, 255, 84)" stroke="none" x="280" y="61" width="16" height="16"/><path fill="none" stroke="rgb(244, 255, 84)" paint-order="fill stroke markers" d=" M 280 61 L 296 61 L 296 77 L 280 77 L 280 61 Z" stroke-miterlimit="10" stroke-opacity="0.3"/><text fill="#444444" stroke="none" font-family="ADAM CG PRO" font-size="10pt" font-style="normal" font-weight="normal" text-decoration="normal" x="420" y="69" text-anchor="start" dominant-baseline="central">Nuclear</text><rect fill="rgb(255, 67, 67)" stroke="none" x="397" y="61" width="16" height="16"/><path fill="none" stroke="rgb(255, 67, 67)" paint-order="fill stroke markers" d=" M 397 61 L 413 61 L 413 77 L 397 77 L 397 61 Z" stroke-miterlimit="10" stroke-opacity="0.3"/><text fill="#444444" stroke="none" font-family="ADAM CG PRO" font-size="10pt" font-style="normal" font-weight="normal" text-decoration="normal" x="509" y="69" text-anchor="start" dominant-baseline="central">Hidroeléctrica</text><rect fill="rgb(0, 131, 255)" stroke="none" x="486" y="61" width="16" height="16"/><path fill="none" stroke="rgb(0, 131, 255)" paint-order="fill stroke markers" d=" M 486 61 L 502 61 L 502 77 L 486 77 L 486 61 Z" stroke-miterlimit="10" stroke-opacity="0.3"/><text fill="#444444" stroke="none" font-family="ADAM CG PRO" font-size="10pt" font-style="normal" font-weight="normal" text-decoration="normal" x="649" y="69" text-anchor="start" dominant-baseline="central">Solar y Eólica</text><rect fill="rgb(172, 255, 165)" stroke="none" x="626" y="61" width="16" height="16"/><path fill="none" stroke="rgb(172, 255, 165)" paint-order="fill stroke markers" d=" M 626 61 L 642 61 L 642 77 L 626 77 L 626 61 Z" stroke-miterlimit="10" stroke-opacity="0.3"/><text fill="#444444" stroke="none" font-family="ADAM CG PRO" font-size="10pt" font-style="normal" font-weight="normal" text-decoration="normal" x="785" y="69" text-anchor="start" dominant-baseline="central">Biomasa</text><rect fill="rgb(255, 67, 67)" stroke="none" x="762" y="61" width="16" height="16" fill-opacity="0.5"/><path fill="none" stroke="rgb(255, 67, 67)" paint-order="fill stroke markers" d=" M 762 61 L 778 61 L 778 77 L 762 77 L 762 61 Z" stroke-miterlimit="10" stroke-opacity="0.3"/></g></g><g><g fill="#444444"><path fill="none" stroke="black" paint-order="fill stroke markers" d=" M 79 451 L 870 451" stroke-miterlimit="10"/><path fill="none" stroke="rgb(255, 67, 67)" paint-order="fill stroke markers" d=" M 115 457 L 115 449" stroke-miterlimit="10" stroke-width="3"/><path fill="none" stroke="rgb(255, 67, 67)" paint-order="fill stroke markers" d=" M 295 457 L 295 449" stroke-miterlimit="10" stroke-width="3"/><path fill="none" stroke="rgb(255, 67, 67)" paint-order="fill stroke markers" d=" M 475 457 L 475 449" stroke-miterlimit="10" stroke-width="3"/><path fill="none" stroke="rgb(255, 67, 67)" paint-order="fill stroke markers" d=" M 654 457 L 654 449" stroke-miterlimit="10" stroke-width="3"/><path fill="" stroke="rgb(255, 67, 67)" paint-order="fill stroke markers" d=" M 834 457 L 834 449" stroke-miterlimit="10" stroke-width="3"/><g transform="translate(115,462) rotate(0,0,0)"><text fill="" stroke="none" font-family="helvetica" font-size="8pt" font-style="normal" font-weight="normal" text-decoration="normal" x="0" y="0" text-anchor="middle" dominant-baseline="hanging">1995</text><g transform="rotate(0,0,0) translate(-115,-462) translate(295,462) rotate(0,0,0)"><text fill="" stroke="none" font-family="helvetica" font-size="8pt" font-style="normal" font-weight="normal" text-decoration="normal" x="0" y="0" text-anchor="middle" dominant-baseline="hanging">2000</text><g transform="rotate(0,0,0) translate(-295,-462) translate(475,462) rotate(0,0,0)"><text fill="" stroke="none" font-family="helvetica" font-size="8pt" font-style="normal" font-weight="normal" text-decoration="normal" x="0" y="0" text-anchor="middle" dominant-baseline="hanging">2005</text><g transform="rotate(0,0,0) translate(-475,-462) translate(654,462) rotate(0,0,0)"><text fill="" stroke="none" font-family="helvetica" font-size="8pt" font-style="normal" font-weight="normal" text-decoration="normal" x="0" y="0" text-anchor="middle" dominant-baseline="hanging">2010</text><g transform="rotate(0,0,0) translate(-654,-462) translate(834,462) rotate(0,0,0)"><text fill="" stroke="none" font-family="helvetica" font-size="8pt" font-style="normal" font-weight="normal" text-decoration="normal" x="0" y="0" text-anchor="middle" dominant-baseline="hanging">2015</text><g transform="rotate(0,0,0) translate(-834,-462) translate(475,480) rotate(0,0,0)"><text fill="" stroke="none" font-family="ADAM CG PRO" font-size="12pt" font-style="normal" font-weight="normal" text-decoration="normal" x="0" y="0" text-anchor="middle" dominant-baseline="hanging">Año</text><g transform="rotate(0,0,0) translate(-475,-480)"/></g></g></g></g></g></g></g><g fill="#444444"><path fill="none" stroke="black" paint-order="fill stroke markers" d=" M 79 451 L 79 39" stroke-miterlimit="10"/><path fill="none" stroke="rgb(255, 67, 67)" paint-order="fill stroke markers" d=" M 73 451 L 81 451" stroke-miterlimit="10" stroke-width="3"/><path fill="none" stroke="rgb(255, 67, 67)" paint-order="fill stroke markers" d=" M 73 348 L 81 348" stroke-miterlimit="10" stroke-width="3"/><path fill="none" stroke="rgb(255, 67, 67)" paint-order="fill stroke markers" d=" M 73 245 L 81 245" stroke-miterlimit="10" stroke-width="3"/><path fill="none" stroke="rgb(255, 67, 67)" paint-order="fill stroke markers" d=" M 73 142 L 81 142" stroke-miterlimit="10" stroke-width="3"/><path fill="none" stroke="rgb(255, 67, 67)" paint-order="fill stroke markers" d=" M 73 39 L 81 39" stroke-miterlimit="10" stroke-width="3"/><path fill="none" stroke="rgb(255, 67, 67)" paint-order="fill stroke markers" d=" M 75 451 L 79 451" stroke-miterlimit="10"/><path fill="none" stroke="rgb(255, 67, 67)" paint-order="fill stroke markers" d=" M 75 430 L 79 430" stroke-miterlimit="10"/><path fill="none" stroke="rgb(255, 67, 67)" paint-order="fill stroke markers" d=" M 75 410 L 79 410" stroke-miterlimit="10"/><path fill="none" stroke="rgb(255, 67, 67)" paint-order="fill stroke markers" d=" M 75 389 L 79 389" stroke-miterlimit="10"/><path fill="none" stroke="rgb(255, 67, 67)" paint-order="fill stroke markers" d=" M 75 369 L 79 369" stroke-miterlimit="10"/><path fill="none" stroke="rgb(255, 67, 67)" paint-order="fill stroke markers" d=" M 75 348 L 79 348" stroke-miterlimit="10"/><path fill="none" stroke="rgb(255, 67, 67)" paint-order="fill stroke markers" d=" M 75 327 L 79 327" stroke-miterlimit="10"/><path fill="none" stroke="rgb(255, 67, 67)" paint-order="fill stroke markers" d=" M 75 307 L 79 307" stroke-miterlimit="10"/><path fill="none" stroke="rgb(255, 67, 67)" paint-order="fill stroke markers" d=" M 75 286 L 79 286" stroke-miterlimit="10"/><path fill="none" stroke="rgb(255, 67, 67)" paint-order="fill stroke markers" d=" M 75 266 L 79 266" stroke-miterlimit="10"/><path fill="none" stroke="rgb(255, 67, 67)" paint-order="fill stroke markers" d=" M 75 245 L 79 245" stroke-miterlimit="10"/><path fill="none" stroke="rgb(255, 67, 67)" paint-order="fill stroke markers" d=" M 75 224 L 79 224" stroke-miterlimit="10"/><path fill="none" stroke="rgb(255, 67, 67)" paint-order="fill stroke markers" d=" M 75 204 L 79 204" stroke-miterlimit="10"/><path fill="none" stroke="rgb(255, 67, 67)" paint-order="fill stroke markers" d=" M 75 183 L 79 183" stroke-miterlimit="10"/><path fill="none" stroke="rgb(255, 67, 67)" paint-order="fill stroke markers" d=" M 75 163 L 79 163" stroke-miterlimit="10"/><path fill="none" stroke="rgb(255, 67, 67)" paint-order="fill stroke markers" d=" M 75 142 L 79 142" stroke-miterlimit="10"/><path fill="none" stroke="rgb(255, 67, 67)" paint-order="fill stroke markers" d=" M 75 121 L 79 121" stroke-miterlimit="10"/><path fill="none" stroke="rgb(255, 67, 67)" paint-order="fill stroke markers" d=" M 75 101 L 79 101" stroke-miterlimit="10"/><path fill="none" stroke="rgb(255, 67, 67)" paint-order="fill stroke markers" d=" M 75 80 L 79 80" stroke-miterlimit="10"/><path fill="none" stroke="rgb(255, 67, 67)" paint-order="fill stroke markers" d=" M 75 60 L 79 60" stroke-miterlimit="10"/><path fill="" stroke="rgb(255, 67, 67)" paint-order="fill stroke markers" d=" M 75 39 L 79 39" stroke-miterlimit="10"/><g transform="translate(68,451) rotate(0,0,0)"><text fill="" stroke="none" font-family="helvetica" font-size="8pt" font-style="normal" font-weight="normal" text-decoration="normal" x="0" y="0" text-anchor="end" dominant-baseline="central">0</text><g transform="rotate(0,0,0) translate(-68,-451) translate(68,348) rotate(0,0,0)"><text fill="" stroke="none" font-family="helvetica" font-size="8pt" font-style="normal" font-weight="normal" text-decoration="normal" x="0" y="0" text-anchor="end" dominant-baseline="central">50,000</text><g transform="rotate(0,0,0) translate(-68,-348) translate(68,245) rotate(0,0,0)"><text fill="" stroke="none" font-family="helvetica" font-size="8pt" font-style="normal" font-weight="normal" text-decoration="normal" x="0" y="0" text-anchor="end" dominant-baseline="central">100,000</text><g transform="rotate(0,0,0) translate(-68,-245) translate(68,142) rotate(0,0,0)"><text fill="" stroke="none" font-family="helvetica" font-size="8pt" font-style="normal" font-weight="normal" text-decoration="normal" x="0" y="0" text-anchor="end" dominant-baseline="central">150,000</text><g transform="rotate(0,0,0) translate(-68,-142) translate(68,39) rotate(0,0,0)"><text fill="" stroke="none" font-family="helvetica" font-size="8pt" font-style="normal" font-weight="normal" text-decoration="normal" x="0" y="0" text-anchor="end" dominant-baseline="central">200,000</text><g transform="rotate(0,0,0) translate(-68,-39) translate(20,245) rotate(-90,0,0)"><text fill="" stroke="none" font-family="ADAM CG PRO" font-size="12pt" font-style="normal" font-weight="normal" text-decoration="normal" x="0" y="0" text-anchor="middle" dominant-baseline="alphabetic">Tonelada Equivalentes de Petróleo</text><g transform="rotate(90,0,0) translate(-20,-245)"/></g></g></g></g></g></g></g><g fill="black"><path fill="" stroke="none" d=""/><g transform="translate(474.5,34)"><path fill="none" stroke="none"/><text fill="" stroke="none" font-family="ADAM CG PRO" font-size="16pt" font-style="normal" font-weight="normal" text-decoration="normal" x="0" y="0" text-anchor="middle" dominant-baseline="text-after-edge">Consumo Energético en España</text></g></g></g></g><g/><g/><g/><g/><g/><g/><g/><g/><g/><g/><g/><g/><g/><g/><g/><g/><g/><g/><g/><g/><g/><g/><g/><g/><g/><g/><g/><g/><g/><g/><g/><g/><g/><g/><g/><g/><g/><g/><g/></g></svg>