<svg version="1.1" xmlns="http://www.w3.org/2000/svg" xmlns:xlink="http://www.w3.org/1999/xlink" width="900" height="500" style="width: 900px; height: 500px;"><defs/><g><g transform="scale(1,1) translate(0.5,0.5)"><rect fill="#FFFFFF" stroke="none" x="0" y="0" width="900" height="500"/><rect fill="#ffffff" stroke="none" x="0" y="0" width="900" height="500"/><rect fill="#FFFFFF" stroke="none" x="119" y="39" width="751" height="412"/><rect fill="white" stroke="none" x="119" y="39" width="751" height="412"/><g><rect fill="none" stroke="rgb(0, 131, 255)" x="119" y="39" width="751" height="412" stroke-miterlimit="10" stroke-width="7" stroke-opacity="0.5"/></g><g><g><path fill="none" stroke="rgb(0, 131, 255)" paint-order="fill stroke markers" d=" M 298 451 L 298 39" stroke-miterlimit="10" stroke-opacity="0"/><path fill="none" stroke="rgb(0, 131, 255)" paint-order="fill stroke markers" d=" M 477 451 L 477 39" stroke-miterlimit="10" stroke-opacity="0"/><path fill="none" stroke="rgb(0, 131, 255)" paint-order="fill stroke markers" d=" M 655 451 L 655 39" stroke-miterlimit="10" stroke-opacity="0"/><path fill="none" stroke="rgb(0, 131, 255)" paint-order="fill stroke markers" d=" M 834 451 L 834 39" stroke-miterlimit="10" stroke-opacity="0"/></g><g><path fill="none" stroke="rgb(0, 131, 255)" paint-order="fill stroke markers" d=" M 119 432 L 870 432" stroke-miterlimit="10" stroke-opacity="0.25"/><path fill="none" stroke="rgb(0, 131, 255)" paint-order="fill stroke markers" d=" M 119 366 L 870 366" stroke-miterlimit="10" stroke-opacity="0.25"/><path fill="none" stroke="rgb(0, 131, 255)" paint-order="fill stroke markers" d=" M 119 299 L 870 299" stroke-miterlimit="10" stroke-opacity="0.25"/><path fill="none" stroke="rgb(0, 131, 255)" paint-order="fill stroke markers" d=" M 119 232 L 870 232" stroke-miterlimit="10" stroke-opacity="0.25"/><path fill="none" stroke="rgb(0, 131, 255)" paint-order="fill stroke markers" d=" M 119 165 L 870 165" stroke-miterlimit="10" stroke-opacity="0.25"/><path fill="none" stroke="rgb(0, 131, 255)" paint-order="fill stroke markers" d=" M 119 98 L 870 98" stroke-miterlimit="10" stroke-opacity="0.25"/></g><g><path fill="none" stroke="none"/><path fill="none" stroke="rgb(0, 28, 100)" paint-order="fill stroke markers" d=" M -3457.190476190476 432.27272727272725 L -3099.5714285714284 432.2348683312371 L -2741.9523809523807 432.18234744520504 L -2384.3333333333335 432.1013225958582 L -2026.7142857142858 431.9710502826477 L -1669.095238095238 431.7552553551765 L -1311.4761904761904 431.40612182865465 L -953.8571428571429 430.8565603177196 L -596.2380952380952 429.944885182479 L -238.6190476190476 428.5097133023073 L 119.35761904761905 426.065056111778 L 154.76190476190476 425.8371025157011 L 190.52380952380952 425.5949748479535 L 226.28571428571428 425.4945136619254 L 262.04761904761904 425.3744654976509 L 297.8095238095238 425.3236835879128 L 333.57142857142856 425.249751520764 L 369.33333333333337 424.80901078374774 L 405.0952380952381 424.31947985301696 L 440.85714285714283 423.3753455530915 L 476.6190476190476 422.4969288948994 L 512.3809523809523 420.5736773412491 L 548.1428571428571 419.2214739507742 L 583.9047619047619 419.2441088732729 L 619.6666666666667 419.3319315025954 L 655.4285714285714 416.9400805450949 L 691.1904761904761 413.8467848294115 L 726.952380952381 412.20267603832485 L 744.8333333333334 405.2404031241784 L 762.7142857142857 399.28502781969513 L 780.5952380952381 390.1688989119559 L 798.4761904761905 377.2289613209957 L 798.8338095238095 376.89662204046994 L 799.1914285714286 376.560892940523 L 799.5490476190477 376.2228501611983 L 799.9066666666666 375.88359760548934 L 800.2642857142857 375.5442674404754 L 800.6219047619047 375.20602026436745 L 800.9795238095238 374.87004487264437 L 801.3371428571428 374.5375580241892 L 801.6947619047619 374.2098038065169 L 802.052380952381 373.8880528005468 L 802.41 373.57256970646097 L 802.7676190476191 373.2594735244676 L 803.125238095238 372.9437508538318 L 803.4828571428571 372.62027527088344 L 803.8404761904761 372.28380245129074 L 804.1980952380952 371.9289606150618 L 804.5557142857143 371.5502362942744 L 804.9133333333333 371.1419543878522 L 805.2709523809524 370.6982532049778 L 805.6285714285714 370.21305342805294 L 805.9861904761905 369.6815431131265 L 806.3438095238096 369.1048192141021 L 806.7014285714286 368.48551216189423 L 807.0590476190476 367.826313024907 L 807.4166666666666 367.12999616039406 L 807.7742857142857 366.39944029559103 L 808.1319047619047 365.6376488738487 L 808.4895238095238 364.84776842962987 L 808.8471428571429 364.033106161688 L 809.2047619047619 363.1971455351101 L 809.562380952381 362.34440128662527 L 809.92 361.48304170370244 L 810.277619047619 360.6225293083622 L 810.635238095238 359.772806878225 L 810.9928571428571 358.944289528558 L 811.3504761904762 358.1478415931879 L 811.7080952380952 357.39473713496227 L 812.0657142857143 356.6966033841686 L 812.4233333333333 356.0653460692285 L 812.7809523809524 355.5130559380775 L 813.1385714285714 355.04348917416513 L 813.4961904761905 354.62636094288973 L 813.8538095238096 354.2219995592072 L 814.2114285714285 353.7898121493668 L 814.5690476190476 353.28824225478263 L 814.9266666666666 352.6745011895789 L 815.2842857142857 351.90406069022254 L 815.6419047619047 350.9298881147443 L 815.9995238095238 349.7013954931458 L 816.3571428571429 347.9910233897373 L 816.7147619047619 346.4302109651096 L 817.072380952381 344.89095805793704 L 817.43 343.3511797260815 L 817.787619047619 341.79268722833046 L 818.1452380952381 340.2011869218973 L 818.5028571428571 338.56642615989637 L 818.8604761904762 336.8820482625039 L 819.2180952380952 335.14516050407747 L 819.5757142857143 333.3556143144152 L 819.9333333333333 331.51384578230625 L 820.2909523809524 329.61857026160635 L 820.6485714285715 327.66476723544554 L 821.0061904761905 325.6428164909209 L 821.3638095238096 323.5409455684517 L 821.7214285714285 321.3524293194136 L 822.0790476190476 319.0742503688672 L 822.4366666666666 316.7136429530773 L 822.7942857142857 314.2873506030485 L 823.1519047619048 311.818465578247 L 823.5095238095238 309.3254068753004 L 823.8671428571429 306.8114742093271 L 824.2247619047619 304.2770534552613 L 824.582380952381 301.7337124754458 L 824.9399999999999 299.1942326170166 L 825.297619047619 296.6663190507033 L 825.6552380952381 294.1558654398178 L 826.0128571428571 291.65752212118264 L 826.3704761904762 289.1531764260724 L 826.7280952380952 286.61719018909207 L 827.0857142857143 284.02989260860033 L 827.4433333333333 281.3915912820449 L 827.8009523809524 278.7054563307024 L 828.1585714285715 275.9589911864795 L 828.5161904761904 273.1376923641254 L 828.8738095238095 270.23501058044013 L 829.2314285714285 267.24437797677245 L 829.5890476190476 264.17913363152655 L 829.9466666666666 261.07784342243554 L 830.3042857142857 257.9926705912742 L 830.6619047619048 254.96281134498633 L 831.0195238095238 252.00072663758047 L 831.3771428571429 249.10126829607208 L 831.7347619047619 246.26383121510992 L 832.092380952381 243.48183955127135 L 832.45 240.7487361368124 L 832.807619047619 238.0670148931254 L 833.1652380952381 235.43562179698122 L 833.5228571428571 232.8388097767505 L 833.8804761904762 230.25553986193475 L 834.2380952380952 227.66911145220377 L 834.5957142857143 225.0736057940227 L 834.9533333333334 222.46799689438498 L 835.3109523809524 219.8466226149392 L 835.6685714285715 217.20470819604608 L 836.0261904761904 214.53888229350858 L 836.3838095238095 211.84663130798316 L 836.7414285714285 209.12756365158214 L 837.0990476190476 206.3838238534848 L 837.4566666666667 203.61933424052143 L 837.8142857142857 200.8381775031312 L 838.1719047619048 198.04176995266323 L 838.5295238095238 195.23295453522303 L 838.8871428571429 192.41941891517968 L 839.2447619047618 189.61069016090647 L 839.6023809523809 186.81481234489354" stroke-miterlimit="10" stroke-width="3" stroke-opacity="0.7"/></g><g><path fill="none" stroke="none"/><path fill="none" stroke="rgb(255, 67, 67)" paint-order="fill stroke markers" d=" M 839.6023809523809 186.81481234489354 L 839.96 184.03547125764783 L 840.317619047619 181.2751833048761 L 840.6752380952381 178.53926717953377 L 841.0328571428571 175.83316061114692 L 841.3904761904762 173.16103061468584 L 841.7480952380952 170.52599669666336 L 842.1057142857143 167.92894008851988 L 842.4633333333334 165.36868993545528 L 842.8209523809523 162.84258086065205 L 843.1785714285714 160.34850561946996 L 843.5361904761904 157.88666135892078 L 843.8938095238095 155.45761723618006 L 844.2514285714285 153.05988708150159 L 844.6090476190476 150.6915617661204 L 844.9666666666667 148.3511345737029 L 845.3242857142857 146.0380959822906 L 845.6819047619048 143.7523538496265 L 846.0395238095238 141.4933774389831 L 846.3971428571429 139.2607174983916 L 846.754761904762 137.0541255310763 L 847.1123809523809 134.87352837114048 L 847.47 132.71914254286554 L 847.827619047619 130.591463937303 L 848.1852380952381 128.49121131751207 L 848.5428571428571 126.4191417667725 L 848.9004761904762 124.37562004547652 L 849.2580952380953 122.36127340919893 L 849.6157142857143 120.37749190974785 L 849.9733333333334 118.42595699297243 L 850.3309523809523 116.5080759163597 L 850.6885714285714 114.62460800159823 L 851.0461904761904 112.77599341338549 L 851.4038095238095 110.9629113918329 L 851.7614285714286 109.1859613627471 L 852.1190476190476 107.4456539505864 L 852.4766666666667 105.74212198987362 L 852.8342857142857 104.07562607147321 L 853.1919047619048 102.44685365413159 L 853.5495238095237 100.8565824679431 L 853.9071428571428 99.30516390966602 L 854.2647619047619 97.79254362271865 L 854.6223809523809 96.31792176019218 L 854.98 94.8798795718742 L 855.337619047619 93.47652272922465 L 855.6952380952381 92.10613981844483 L 856.0528571428571 90.76808587714481 L 856.4104761904762 89.46159286386484 L 856.7680952380953 88.18466007553752 L 857.1257142857143 86.93495709483335 L 857.4833333333333 85.71067425183423 L 857.8409523809523 84.5107346714966 L 858.1985714285714 83.33491334363174 L 858.5561904761905 82.18336405025877 L 858.9138095238095 81.05668257559421 L 859.2714285714286 79.9552886379754 L 859.6290476190476 78.87891022063064 L 859.9866666666667 77.82714036749309 L 860.3442857142857 76.80015046716977 L 860.7019047619048 75.79821998665852 L 861.0595238095239 74.82151957956648 L 861.4171428571428 73.86981929116018 L 861.7747619047619 72.9428829192073 L 862.1323809523809 72.04083123755083 L 862.49 71.1638455907052 L 862.847619047619 70.31188749140432 L 863.2052380952381 69.48493732851517 L 863.5628571428572 68.68240265872976 L 863.9204761904762 67.90294290909526 L 864.2780952380953 67.14482478286209 L 864.6357142857142 66.40670820821367 L 864.9933333333333 65.68815342136145 L 865.3509523809523 64.98917669252995 L 865.7085714285714 64.30949240744968 L 866.0661904761905 63.64894113796606 L 866.4238095238095 63.00749057749374 L 866.7814285714286 62.38523540738015 L 867.1390476190476 61.78240037054155 L 867.4966666666667 61.19933338919111 L 867.8542857142857 60.63651161188386 L 868.2119047619047 60.0945372707896 L 868.5695238095238 59.57413888442039 L 868.9271428571428 59.076170756493866 L 869.2847619047619 58.601611606161214 L 869.6423809523809 58.15156877755146 L 870 57.72727272727275" stroke-miterlimit="10" stroke-width="3" stroke-dasharray="2,4"/></g></g><g><g/><g><path fill="#ffffff" stroke="#e5e5e5" paint-order="fill stroke markers" d=" M 129 49 L 315 49 L 315 112 L 129 112 L 129 49 Z" fill-opacity="0.95" stroke-miterlimit="10" stroke-opacity="0.5"/><text fill="#444444" stroke="none" font-family="ADAM CG PRO" font-size="10pt" font-style="normal" font-weight="normal" text-decoration="normal" x="164" y="69" text-anchor="start" dominant-baseline="central">Población Mundial</text><g><path fill="none" stroke="rgb(0, 28, 100)" paint-order="fill stroke markers" d=" M 139 69 L 159 69" stroke-miterlimit="10" stroke-width="3" stroke-opacity="0.7"/></g><text fill="#444444" stroke="none" font-family="ADAM CG PRO" font-size="10pt" font-style="normal" font-weight="normal" text-decoration="normal" x="164" y="92" text-anchor="start" dominant-baseline="central">Proyección Futura</text><g><path fill="none" stroke="rgb(255, 67, 67)" paint-order="fill stroke markers" d=" M 139 92 L 159 92" stroke-miterlimit="10" stroke-width="3" stroke-dasharray="2,4"/></g></g></g><g><g fill="#444444"><path fill="none" stroke="black" paint-order="fill stroke markers" d=" M 119 451 L 870 451" stroke-miterlimit="10"/><path fill="none" stroke="rgb(255, 67, 67)" paint-order="fill stroke markers" d=" M 119 457 L 119 449" stroke-miterlimit="10" stroke-width="3"/><path fill="none" stroke="rgb(255, 67, 67)" paint-order="fill stroke markers" d=" M 298 457 L 298 449" stroke-miterlimit="10" stroke-width="3"/><path fill="none" stroke="rgb(255, 67, 67)" paint-order="fill stroke markers" d=" M 477 457 L 477 449" stroke-miterlimit="10" stroke-width="3"/><path fill="none" stroke="rgb(255, 67, 67)" paint-order="fill stroke markers" d=" M 655 457 L 655 449" stroke-miterlimit="10" stroke-width="3"/><path fill="none" stroke="rgb(255, 67, 67)" paint-order="fill stroke markers" d=" M 834 457 L 834 449" stroke-miterlimit="10" stroke-width="3"/><path fill="none" stroke="rgb(255, 67, 67)" paint-order="fill stroke markers" d=" M 119 455 L 119 451" stroke-miterlimit="10"/><path fill="none" stroke="rgb(255, 67, 67)" paint-order="fill stroke markers" d=" M 155 455 L 155 451" stroke-miterlimit="10"/><path fill="none" stroke="rgb(255, 67, 67)" paint-order="fill stroke markers" d=" M 191 455 L 191 451" stroke-miterlimit="10"/><path fill="none" stroke="rgb(255, 67, 67)" paint-order="fill stroke markers" d=" M 226 455 L 226 451" stroke-miterlimit="10"/><path fill="none" stroke="rgb(255, 67, 67)" paint-order="fill stroke markers" d=" M 262 455 L 262 451" stroke-miterlimit="10"/><path fill="none" stroke="rgb(255, 67, 67)" paint-order="fill stroke markers" d=" M 298 455 L 298 451" stroke-miterlimit="10"/><path fill="none" stroke="rgb(255, 67, 67)" paint-order="fill stroke markers" d=" M 334 455 L 334 451" stroke-miterlimit="10"/><path fill="none" stroke="rgb(255, 67, 67)" paint-order="fill stroke markers" d=" M 369 455 L 369 451" stroke-miterlimit="10"/><path fill="none" stroke="rgb(255, 67, 67)" paint-order="fill stroke markers" d=" M 405 455 L 405 451" stroke-miterlimit="10"/><path fill="none" stroke="rgb(255, 67, 67)" paint-order="fill stroke markers" d=" M 441 455 L 441 451" stroke-miterlimit="10"/><path fill="none" stroke="rgb(255, 67, 67)" paint-order="fill stroke markers" d=" M 477 455 L 477 451" stroke-miterlimit="10"/><path fill="none" stroke="rgb(255, 67, 67)" paint-order="fill stroke markers" d=" M 512 455 L 512 451" stroke-miterlimit="10"/><path fill="none" stroke="rgb(255, 67, 67)" paint-order="fill stroke markers" d=" M 548 455 L 548 451" stroke-miterlimit="10"/><path fill="none" stroke="rgb(255, 67, 67)" paint-order="fill stroke markers" d=" M 584 455 L 584 451" stroke-miterlimit="10"/><path fill="none" stroke="rgb(255, 67, 67)" paint-order="fill stroke markers" d=" M 620 455 L 620 451" stroke-miterlimit="10"/><path fill="none" stroke="rgb(255, 67, 67)" paint-order="fill stroke markers" d=" M 655 455 L 655 451" stroke-miterlimit="10"/><path fill="none" stroke="rgb(255, 67, 67)" paint-order="fill stroke markers" d=" M 691 455 L 691 451" stroke-miterlimit="10"/><path fill="none" stroke="rgb(255, 67, 67)" paint-order="fill stroke markers" d=" M 727 455 L 727 451" stroke-miterlimit="10"/><path fill="none" stroke="rgb(255, 67, 67)" paint-order="fill stroke markers" d=" M 763 455 L 763 451" stroke-miterlimit="10"/><path fill="none" stroke="rgb(255, 67, 67)" paint-order="fill stroke markers" d=" M 798 455 L 798 451" stroke-miterlimit="10"/><path fill="none" stroke="rgb(255, 67, 67)" paint-order="fill stroke markers" d=" M 834 455 L 834 451" stroke-miterlimit="10"/><path fill="" stroke="rgb(255, 67, 67)" paint-order="fill stroke markers" d=" M 870 455 L 870 451" stroke-miterlimit="10"/><g transform="translate(119,462) rotate(0,0,0)"><text fill="" stroke="none" font-family="helvetica" font-size="8pt" font-style="normal" font-weight="normal" text-decoration="normal" x="0" y="0" text-anchor="middle" dominant-baseline="hanging">0</text><g transform="rotate(0,0,0) translate(-119,-462) translate(298,462) rotate(0,0,0)"><text fill="" stroke="none" font-family="helvetica" font-size="8pt" font-style="normal" font-weight="normal" text-decoration="normal" x="0" y="0" text-anchor="middle" dominant-baseline="hanging">500</text><g transform="rotate(0,0,0) translate(-298,-462) translate(477,462) rotate(0,0,0)"><text fill="" stroke="none" font-family="helvetica" font-size="8pt" font-style="normal" font-weight="normal" text-decoration="normal" x="0" y="0" text-anchor="middle" dominant-baseline="hanging">1000</text><g transform="rotate(0,0,0) translate(-477,-462) translate(655,462) rotate(0,0,0)"><text fill="" stroke="none" font-family="helvetica" font-size="8pt" font-style="normal" font-weight="normal" text-decoration="normal" x="0" y="0" text-anchor="middle" dominant-baseline="hanging">1500</text><g transform="rotate(0,0,0) translate(-655,-462) translate(834,462) rotate(0,0,0)"><text fill="" stroke="none" font-family="helvetica" font-size="8pt" font-style="normal" font-weight="normal" text-decoration="normal" x="0" y="0" text-anchor="middle" dominant-baseline="hanging">2000</text><g transform="rotate(0,0,0) translate(-834,-462) translate(495,480) rotate(0,0,0)"><text fill="" stroke="none" font-family="ADAM CG PRO" font-size="12pt" font-style="normal" font-weight="normal" text-decoration="normal" x="0" y="0" text-anchor="middle" dominant-baseline="hanging">Año</text><g transform="rotate(0,0,0) translate(-495,-480)"/></g></g></g></g></g></g></g><g fill="#444444"><path fill="none" stroke="black" paint-order="fill stroke markers" d=" M 119 451 L 119 39" stroke-miterlimit="10"/><path fill="none" stroke="rgb(255, 67, 67)" paint-order="fill stroke markers" d=" M 113 432 L 121 432" stroke-miterlimit="10" stroke-width="3"/><path fill="none" stroke="rgb(255, 67, 67)" paint-order="fill stroke markers" d=" M 113 366 L 121 366" stroke-miterlimit="10" stroke-width="3"/><path fill="none" stroke="rgb(255, 67, 67)" paint-order="fill stroke markers" d=" M 113 299 L 121 299" stroke-miterlimit="10" stroke-width="3"/><path fill="none" stroke="rgb(255, 67, 67)" paint-order="fill stroke markers" d=" M 113 232 L 121 232" stroke-miterlimit="10" stroke-width="3"/><path fill="none" stroke="rgb(255, 67, 67)" paint-order="fill stroke markers" d=" M 113 165 L 121 165" stroke-miterlimit="10" stroke-width="3"/><path fill="none" stroke="rgb(255, 67, 67)" paint-order="fill stroke markers" d=" M 113 98 L 121 98" stroke-miterlimit="10" stroke-width="3"/><path fill="none" stroke="rgb(255, 67, 67)" paint-order="fill stroke markers" d=" M 115 446 L 119 446" stroke-miterlimit="10"/><path fill="none" stroke="rgb(255, 67, 67)" paint-order="fill stroke markers" d=" M 115 432 L 119 432" stroke-miterlimit="10"/><path fill="none" stroke="rgb(255, 67, 67)" paint-order="fill stroke markers" d=" M 115 419 L 119 419" stroke-miterlimit="10"/><path fill="none" stroke="rgb(255, 67, 67)" paint-order="fill stroke markers" d=" M 115 406 L 119 406" stroke-miterlimit="10"/><path fill="none" stroke="rgb(255, 67, 67)" paint-order="fill stroke markers" d=" M 115 392 L 119 392" stroke-miterlimit="10"/><path fill="none" stroke="rgb(255, 67, 67)" paint-order="fill stroke markers" d=" M 115 379 L 119 379" stroke-miterlimit="10"/><path fill="none" stroke="rgb(255, 67, 67)" paint-order="fill stroke markers" d=" M 115 366 L 119 366" stroke-miterlimit="10"/><path fill="none" stroke="rgb(255, 67, 67)" paint-order="fill stroke markers" d=" M 115 352 L 119 352" stroke-miterlimit="10"/><path fill="none" stroke="rgb(255, 67, 67)" paint-order="fill stroke markers" d=" M 115 339 L 119 339" stroke-miterlimit="10"/><path fill="none" stroke="rgb(255, 67, 67)" paint-order="fill stroke markers" d=" M 115 325 L 119 325" stroke-miterlimit="10"/><path fill="none" stroke="rgb(255, 67, 67)" paint-order="fill stroke markers" d=" M 115 312 L 119 312" stroke-miterlimit="10"/><path fill="none" stroke="rgb(255, 67, 67)" paint-order="fill stroke markers" d=" M 115 299 L 119 299" stroke-miterlimit="10"/><path fill="none" stroke="rgb(255, 67, 67)" paint-order="fill stroke markers" d=" M 115 285 L 119 285" stroke-miterlimit="10"/><path fill="none" stroke="rgb(255, 67, 67)" paint-order="fill stroke markers" d=" M 115 272 L 119 272" stroke-miterlimit="10"/><path fill="none" stroke="rgb(255, 67, 67)" paint-order="fill stroke markers" d=" M 115 259 L 119 259" stroke-miterlimit="10"/><path fill="none" stroke="rgb(255, 67, 67)" paint-order="fill stroke markers" d=" M 115 245 L 119 245" stroke-miterlimit="10"/><path fill="none" stroke="rgb(255, 67, 67)" paint-order="fill stroke markers" d=" M 115 232 L 119 232" stroke-miterlimit="10"/><path fill="none" stroke="rgb(255, 67, 67)" paint-order="fill stroke markers" d=" M 115 219 L 119 219" stroke-miterlimit="10"/><path fill="none" stroke="rgb(255, 67, 67)" paint-order="fill stroke markers" d=" M 115 205 L 119 205" stroke-miterlimit="10"/><path fill="none" stroke="rgb(255, 67, 67)" paint-order="fill stroke markers" d=" M 115 192 L 119 192" stroke-miterlimit="10"/><path fill="none" stroke="rgb(255, 67, 67)" paint-order="fill stroke markers" d=" M 115 178 L 119 178" stroke-miterlimit="10"/><path fill="none" stroke="rgb(255, 67, 67)" paint-order="fill stroke markers" d=" M 115 165 L 119 165" stroke-miterlimit="10"/><path fill="none" stroke="rgb(255, 67, 67)" paint-order="fill stroke markers" d=" M 115 152 L 119 152" stroke-miterlimit="10"/><path fill="none" stroke="rgb(255, 67, 67)" paint-order="fill stroke markers" d=" M 115 138 L 119 138" stroke-miterlimit="10"/><path fill="none" stroke="rgb(255, 67, 67)" paint-order="fill stroke markers" d=" M 115 125 L 119 125" stroke-miterlimit="10"/><path fill="none" stroke="rgb(255, 67, 67)" paint-order="fill stroke markers" d=" M 115 112 L 119 112" stroke-miterlimit="10"/><path fill="none" stroke="rgb(255, 67, 67)" paint-order="fill stroke markers" d=" M 115 98 L 119 98" stroke-miterlimit="10"/><path fill="none" stroke="rgb(255, 67, 67)" paint-order="fill stroke markers" d=" M 115 85 L 119 85" stroke-miterlimit="10"/><path fill="none" stroke="rgb(255, 67, 67)" paint-order="fill stroke markers" d=" M 115 72 L 119 72" stroke-miterlimit="10"/><path fill="none" stroke="rgb(255, 67, 67)" paint-order="fill stroke markers" d=" M 115 58 L 119 58" stroke-miterlimit="10"/><path fill="" stroke="rgb(255, 67, 67)" paint-order="fill stroke markers" d=" M 115 45 L 119 45" stroke-miterlimit="10"/><g transform="translate(108,432) rotate(0,0,0)"><text fill="" stroke="none" font-family="helvetica" font-size="8pt" font-style="normal" font-weight="normal" text-decoration="normal" x="0" y="0" text-anchor="end" dominant-baseline="central">0</text><g transform="rotate(0,0,0) translate(-108,-432) translate(108,366) rotate(0,0,0)"><text fill="" stroke="none" font-family="helvetica" font-size="8pt" font-style="normal" font-weight="normal" text-decoration="normal" x="0" y="0" text-anchor="end" dominant-baseline="central">2,000,000,000</text><g transform="rotate(0,0,0) translate(-108,-366) translate(108,299) rotate(0,0,0)"><text fill="" stroke="none" font-family="helvetica" font-size="8pt" font-style="normal" font-weight="normal" text-decoration="normal" x="0" y="0" text-anchor="end" dominant-baseline="central">4,000,000,000</text><g transform="rotate(0,0,0) translate(-108,-299) translate(108,232) rotate(0,0,0)"><text fill="" stroke="none" font-family="helvetica" font-size="8pt" font-style="normal" font-weight="normal" text-decoration="normal" x="0" y="0" text-anchor="end" dominant-baseline="central">6,000,000,000</text><g transform="rotate(0,0,0) translate(-108,-232) translate(108,165) rotate(0,0,0)"><text fill="" stroke="none" font-family="helvetica" font-size="8pt" font-style="normal" font-weight="normal" text-decoration="normal" x="0" y="0" text-anchor="end" dominant-baseline="central">8,000,000,000</text><g transform="rotate(0,0,0) translate(-108,-165) translate(108,98) rotate(0,0,0)"><text fill="" stroke="none" font-family="helvetica" font-size="8pt" font-style="normal" font-weight="normal" text-decoration="normal" x="0" y="0" text-anchor="end" dominant-baseline="central">10,000,000,000</text><g transform="rotate(0,0,0) translate(-108,-98) translate(21,245) rotate(-90,0,0)"><text fill="" stroke="none" font-family="ADAM CG PRO" font-size="12pt" font-style="normal" font-weight="normal" text-decoration="normal" x="0" y="0" text-anchor="middle" dominant-baseline="alphabetic">Población</text><g transform="rotate(90,0,0) translate(-21,-245)"/></g></g></g></g></g></g></g></g><g fill="black"><path fill="" stroke="none" d=""/><g transform="translate(494.5,34)"><path fill="none" stroke="none"/><text fill="" stroke="none" font-family="ADAM CG PRO" font-size="16pt" font-style="normal" font-weight="normal" text-decoration="normal" x="0" y="0" text-anchor="middle" dominant-baseline="text-after-edge">Población Mundial</text></g></g></g></g><g transform="scale(1,1) translate(0.5,0.5)"><rect fill="#FFFFFF" stroke="none" x="0" y="0" width="900" height="500"/><rect fill="#ffffff" stroke="none" x="0" y="0" width="900" height="500"/><rect fill="#FFFFFF" stroke="none" x="119" y="39" width="751" height="412"/><rect fill="white" stroke="none" x="119" y="39" width="751" height="412"/><g><rect fill="none" stroke="rgb(0, 131, 255)" x="119" y="39" width="751" height="412" stroke-miterlimit="10" stroke-width="7" stroke-opacity="0.5"/></g><g><g><path fill="none" stroke="rgb(0, 131, 255)" paint-order="fill stroke markers" d=" M 298 451 L 298 39" stroke-miterlimit="10" stroke-opacity="0"/><path fill="none" stroke="rgb(0, 131, 255)" paint-order="fill stroke markers" d=" M 477 451 L 477 39" stroke-miterlimit="10" stroke-opacity="0"/><path fill="none" stroke="rgb(0, 131, 255)" paint-order="fill stroke markers" d=" M 655 451 L 655 39" stroke-miterlimit="10" stroke-opacity="0"/><path fill="none" stroke="rgb(0, 131, 255)" paint-order="fill stroke markers" d=" M 834 451 L 834 39" stroke-miterlimit="10" stroke-opacity="0"/></g><g><path fill="none" stroke="rgb(0, 131, 255)" paint-order="fill stroke markers" d=" M 119 432 L 870 432" stroke-miterlimit="10" stroke-opacity="0.25"/><path fill="none" stroke="rgb(0, 131, 255)" paint-order="fill stroke markers" d=" M 119 366 L 870 366" stroke-miterlimit="10" stroke-opacity="0.25"/><path fill="none" stroke="rgb(0, 131, 255)" paint-order="fill stroke markers" d=" M 119 299 L 870 299" stroke-miterlimit="10" stroke-opacity="0.25"/><path fill="none" stroke="rgb(0, 131, 255)" paint-order="fill stroke markers" d=" M 119 232 L 870 232" stroke-miterlimit="10" stroke-opacity="0.25"/><path fill="none" stroke="rgb(0, 131, 255)" paint-order="fill stroke markers" d=" M 119 165 L 870 165" stroke-miterlimit="10" stroke-opacity="0.25"/><path fill="none" stroke="rgb(0, 131, 255)" paint-order="fill stroke markers" d=" M 119 98 L 870 98" stroke-miterlimit="10" stroke-opacity="0.25"/></g><g><path fill="none" stroke="none"/><path fill="none" stroke="rgb(0, 28, 100)" paint-order="fill stroke markers" d=" M -3457.190476190476 432.27272727272725 L -3099.5714285714284 432.2348683312371 L -2741.9523809523807 432.18234744520504 L -2384.3333333333335 432.1013225958582 L -2026.7142857142858 431.9710502826477 L -1669.095238095238 431.7552553551765 L -1311.4761904761904 431.40612182865465 L -953.8571428571429 430.8565603177196 L -596.2380952380952 429.944885182479 L -238.6190476190476 428.5097133023073 L 119.35761904761905 426.065056111778 L 154.76190476190476 425.8371025157011 L 190.52380952380952 425.5949748479535 L 226.28571428571428 425.4945136619254 L 262.04761904761904 425.3744654976509 L 297.8095238095238 425.3236835879128 L 333.57142857142856 425.249751520764 L 369.33333333333337 424.80901078374774 L 405.0952380952381 424.31947985301696 L 440.85714285714283 423.3753455530915 L 476.6190476190476 422.4969288948994 L 512.3809523809523 420.5736773412491 L 548.1428571428571 419.2214739507742 L 583.9047619047619 419.2441088732729 L 619.6666666666667 419.3319315025954 L 655.4285714285714 416.9400805450949 L 691.1904761904761 413.8467848294115 L 726.952380952381 412.20267603832485 L 744.8333333333334 405.2404031241784 L 762.7142857142857 399.28502781969513 L 780.5952380952381 390.1688989119559 L 798.4761904761905 377.2289613209957 L 798.8338095238095 376.89662204046994 L 799.1914285714286 376.560892940523 L 799.5490476190477 376.2228501611983 L 799.9066666666666 375.88359760548934 L 800.2642857142857 375.5442674404754 L 800.6219047619047 375.20602026436745 L 800.9795238095238 374.87004487264437 L 801.3371428571428 374.5375580241892 L 801.6947619047619 374.2098038065169 L 802.052380952381 373.8880528005468 L 802.41 373.57256970646097 L 802.7676190476191 373.2594735244676 L 803.125238095238 372.9437508538318 L 803.4828571428571 372.62027527088344 L 803.8404761904761 372.28380245129074 L 804.1980952380952 371.9289606150618 L 804.5557142857143 371.5502362942744 L 804.9133333333333 371.1419543878522 L 805.2709523809524 370.6982532049778 L 805.6285714285714 370.21305342805294 L 805.9861904761905 369.6815431131265 L 806.3438095238096 369.1048192141021 L 806.7014285714286 368.48551216189423 L 807.0590476190476 367.826313024907 L 807.4166666666666 367.12999616039406 L 807.7742857142857 366.39944029559103 L 808.1319047619047 365.6376488738487 L 808.4895238095238 364.84776842962987 L 808.8471428571429 364.033106161688 L 809.2047619047619 363.1971455351101 L 809.562380952381 362.34440128662527 L 809.92 361.48304170370244 L 810.277619047619 360.6225293083622 L 810.635238095238 359.772806878225 L 810.9928571428571 358.944289528558 L 811.3504761904762 358.1478415931879 L 811.7080952380952 357.39473713496227 L 812.0657142857143 356.6966033841686 L 812.4233333333333 356.0653460692285 L 812.7809523809524 355.5130559380775 L 813.1385714285714 355.04348917416513 L 813.4961904761905 354.62636094288973 L 813.8538095238096 354.2219995592072 L 814.2114285714285 353.7898121493668 L 814.5690476190476 353.28824225478263 L 814.9266666666666 352.6745011895789 L 815.2842857142857 351.90406069022254 L 815.6419047619047 350.9298881147443 L 815.9995238095238 349.7013954931458 L 816.3571428571429 347.9910233897373 L 816.7147619047619 346.4302109651096 L 817.072380952381 344.89095805793704 L 817.43 343.3511797260815 L 817.787619047619 341.79268722833046 L 818.1452380952381 340.2011869218973 L 818.5028571428571 338.56642615989637 L 818.8604761904762 336.8820482625039 L 819.2180952380952 335.14516050407747 L 819.5757142857143 333.3556143144152 L 819.9333333333333 331.51384578230625 L 820.2909523809524 329.61857026160635 L 820.6485714285715 327.66476723544554 L 821.0061904761905 325.6428164909209 L 821.3638095238096 323.5409455684517 L 821.7214285714285 321.3524293194136 L 822.0790476190476 319.0742503688672 L 822.4366666666666 316.7136429530773 L 822.7942857142857 314.2873506030485 L 823.1519047619048 311.818465578247 L 823.5095238095238 309.3254068753004 L 823.8671428571429 306.8114742093271 L 824.2247619047619 304.2770534552613 L 824.582380952381 301.7337124754458 L 824.9399999999999 299.1942326170166 L 825.297619047619 296.6663190507033 L 825.6552380952381 294.1558654398178 L 826.0128571428571 291.65752212118264 L 826.3704761904762 289.1531764260724 L 826.7280952380952 286.61719018909207 L 827.0857142857143 284.02989260860033 L 827.4433333333333 281.3915912820449 L 827.8009523809524 278.7054563307024 L 828.1585714285715 275.9589911864795 L 828.5161904761904 273.1376923641254 L 828.8738095238095 270.23501058044013 L 829.2314285714285 267.24437797677245 L 829.5890476190476 264.17913363152655 L 829.9466666666666 261.07784342243554 L 830.3042857142857 257.9926705912742 L 830.6619047619048 254.96281134498633 L 831.0195238095238 252.00072663758047 L 831.3771428571429 249.10126829607208 L 831.7347619047619 246.26383121510992 L 832.092380952381 243.48183955127135 L 832.45 240.7487361368124 L 832.807619047619 238.0670148931254 L 833.1652380952381 235.43562179698122 L 833.5228571428571 232.8388097767505 L 833.8804761904762 230.25553986193475 L 834.2380952380952 227.66911145220377 L 834.5957142857143 225.0736057940227 L 834.9533333333334 222.46799689438498 L 835.3109523809524 219.8466226149392 L 835.6685714285715 217.20470819604608 L 836.0261904761904 214.53888229350858 L 836.3838095238095 211.84663130798316 L 836.7414285714285 209.12756365158214 L 837.0990476190476 206.3838238534848 L 837.4566666666667 203.61933424052143 L 837.8142857142857 200.8381775031312 L 838.1719047619048 198.04176995266323 L 838.5295238095238 195.23295453522303 L 838.8871428571429 192.41941891517968 L 839.2447619047618 189.61069016090647 L 839.6023809523809 186.81481234489354" stroke-miterlimit="10" stroke-width="3" stroke-opacity="0.7"/></g><g><path fill="none" stroke="none"/><path fill="none" stroke="rgb(255, 67, 67)" paint-order="fill stroke markers" d=" M 839.6023809523809 186.81481234489354 L 839.96 184.03547125764783 L 840.317619047619 181.2751833048761 L 840.6752380952381 178.53926717953377 L 841.0328571428571 175.83316061114692 L 841.3904761904762 173.16103061468584 L 841.7480952380952 170.52599669666336 L 842.1057142857143 167.92894008851988 L 842.4633333333334 165.36868993545528 L 842.8209523809523 162.84258086065205 L 843.1785714285714 160.34850561946996 L 843.5361904761904 157.88666135892078 L 843.8938095238095 155.45761723618006 L 844.2514285714285 153.05988708150159 L 844.6090476190476 150.6915617661204 L 844.9666666666667 148.3511345737029 L 845.3242857142857 146.0380959822906 L 845.6819047619048 143.7523538496265 L 846.0395238095238 141.4933774389831 L 846.3971428571429 139.2607174983916 L 846.754761904762 137.0541255310763 L 847.1123809523809 134.87352837114048 L 847.47 132.71914254286554 L 847.827619047619 130.591463937303 L 848.1852380952381 128.49121131751207 L 848.5428571428571 126.4191417667725 L 848.9004761904762 124.37562004547652 L 849.2580952380953 122.36127340919893 L 849.6157142857143 120.37749190974785 L 849.9733333333334 118.42595699297243 L 850.3309523809523 116.5080759163597 L 850.6885714285714 114.62460800159823 L 851.0461904761904 112.77599341338549 L 851.4038095238095 110.9629113918329 L 851.7614285714286 109.1859613627471 L 852.1190476190476 107.4456539505864 L 852.4766666666667 105.74212198987362 L 852.8342857142857 104.07562607147321 L 853.1919047619048 102.44685365413159 L 853.5495238095237 100.8565824679431 L 853.9071428571428 99.30516390966602 L 854.2647619047619 97.79254362271865 L 854.6223809523809 96.31792176019218 L 854.98 94.8798795718742 L 855.337619047619 93.47652272922465 L 855.6952380952381 92.10613981844483 L 856.0528571428571 90.76808587714481 L 856.4104761904762 89.46159286386484 L 856.7680952380953 88.18466007553752 L 857.1257142857143 86.93495709483335 L 857.4833333333333 85.71067425183423 L 857.8409523809523 84.5107346714966 L 858.1985714285714 83.33491334363174 L 858.5561904761905 82.18336405025877 L 858.9138095238095 81.05668257559421 L 859.2714285714286 79.9552886379754 L 859.6290476190476 78.87891022063064 L 859.9866666666667 77.82714036749309 L 860.3442857142857 76.80015046716977 L 860.7019047619048 75.79821998665852 L 861.0595238095239 74.82151957956648 L 861.4171428571428 73.86981929116018 L 861.7747619047619 72.9428829192073 L 862.1323809523809 72.04083123755083 L 862.49 71.1638455907052 L 862.847619047619 70.31188749140432 L 863.2052380952381 69.48493732851517 L 863.5628571428572 68.68240265872976 L 863.9204761904762 67.90294290909526 L 864.2780952380953 67.14482478286209 L 864.6357142857142 66.40670820821367 L 864.9933333333333 65.68815342136145 L 865.3509523809523 64.98917669252995 L 865.7085714285714 64.30949240744968 L 866.0661904761905 63.64894113796606 L 866.4238095238095 63.00749057749374 L 866.7814285714286 62.38523540738015 L 867.1390476190476 61.78240037054155 L 867.4966666666667 61.19933338919111 L 867.8542857142857 60.63651161188386 L 868.2119047619047 60.0945372707896 L 868.5695238095238 59.57413888442039 L 868.9271428571428 59.076170756493866 L 869.2847619047619 58.601611606161214 L 869.6423809523809 58.15156877755146 L 870 57.72727272727275" stroke-miterlimit="10" stroke-width="3" stroke-dasharray="2,4"/></g></g><g><g/><g><path fill="#ffffff" stroke="#e5e5e5" paint-order="fill stroke markers" d=" M 129 49 L 315 49 L 315 112 L 129 112 L 129 49 Z" fill-opacity="0.95" stroke-miterlimit="10" stroke-opacity="0.5"/><text fill="#444444" stroke="none" font-family="ADAM CG PRO" font-size="10pt" font-style="normal" font-weight="normal" text-decoration="normal" x="164" y="69" text-anchor="start" dominant-baseline="central">Población Mundial</text><g><path fill="none" stroke="rgb(0, 28, 100)" paint-order="fill stroke markers" d=" M 139 69 L 159 69" stroke-miterlimit="10" stroke-width="3" stroke-opacity="0.7"/></g><text fill="#444444" stroke="none" font-family="ADAM CG PRO" font-size="10pt" font-style="normal" font-weight="normal" text-decoration="normal" x="164" y="92" text-anchor="start" dominant-baseline="central">Proyección Futura</text><g><path fill="none" stroke="rgb(255, 67, 67)" paint-order="fill stroke markers" d=" M 139 92 L 159 92" stroke-miterlimit="10" stroke-width="3" stroke-dasharray="2,4"/></g></g></g><g><g fill="#444444"><path fill="none" stroke="black" paint-order="fill stroke markers" d=" M 119 451 L 870 451" stroke-miterlimit="10"/><path fill="none" stroke="rgb(255, 67, 67)" paint-order="fill stroke markers" d=" M 119 457 L 119 449" stroke-miterlimit="10" stroke-width="3"/><path fill="none" stroke="rgb(255, 67, 67)" paint-order="fill stroke markers" d=" M 298 457 L 298 449" stroke-miterlimit="10" stroke-width="3"/><path fill="none" stroke="rgb(255, 67, 67)" paint-order="fill stroke markers" d=" M 477 457 L 477 449" stroke-miterlimit="10" stroke-width="3"/><path fill="none" stroke="rgb(255, 67, 67)" paint-order="fill stroke markers" d=" M 655 457 L 655 449" stroke-miterlimit="10" stroke-width="3"/><path fill="none" stroke="rgb(255, 67, 67)" paint-order="fill stroke markers" d=" M 834 457 L 834 449" stroke-miterlimit="10" stroke-width="3"/><path fill="none" stroke="rgb(255, 67, 67)" paint-order="fill stroke markers" d=" M 119 455 L 119 451" stroke-miterlimit="10"/><path fill="none" stroke="rgb(255, 67, 67)" paint-order="fill stroke markers" d=" M 155 455 L 155 451" stroke-miterlimit="10"/><path fill="none" stroke="rgb(255, 67, 67)" paint-order="fill stroke markers" d=" M 191 455 L 191 451" stroke-miterlimit="10"/><path fill="none" stroke="rgb(255, 67, 67)" paint-order="fill stroke markers" d=" M 226 455 L 226 451" stroke-miterlimit="10"/><path fill="none" stroke="rgb(255, 67, 67)" paint-order="fill stroke markers" d=" M 262 455 L 262 451" stroke-miterlimit="10"/><path fill="none" stroke="rgb(255, 67, 67)" paint-order="fill stroke markers" d=" M 298 455 L 298 451" stroke-miterlimit="10"/><path fill="none" stroke="rgb(255, 67, 67)" paint-order="fill stroke markers" d=" M 334 455 L 334 451" stroke-miterlimit="10"/><path fill="none" stroke="rgb(255, 67, 67)" paint-order="fill stroke markers" d=" M 369 455 L 369 451" stroke-miterlimit="10"/><path fill="none" stroke="rgb(255, 67, 67)" paint-order="fill stroke markers" d=" M 405 455 L 405 451" stroke-miterlimit="10"/><path fill="none" stroke="rgb(255, 67, 67)" paint-order="fill stroke markers" d=" M 441 455 L 441 451" stroke-miterlimit="10"/><path fill="none" stroke="rgb(255, 67, 67)" paint-order="fill stroke markers" d=" M 477 455 L 477 451" stroke-miterlimit="10"/><path fill="none" stroke="rgb(255, 67, 67)" paint-order="fill stroke markers" d=" M 512 455 L 512 451" stroke-miterlimit="10"/><path fill="none" stroke="rgb(255, 67, 67)" paint-order="fill stroke markers" d=" M 548 455 L 548 451" stroke-miterlimit="10"/><path fill="none" stroke="rgb(255, 67, 67)" paint-order="fill stroke markers" d=" M 584 455 L 584 451" stroke-miterlimit="10"/><path fill="none" stroke="rgb(255, 67, 67)" paint-order="fill stroke markers" d=" M 620 455 L 620 451" stroke-miterlimit="10"/><path fill="none" stroke="rgb(255, 67, 67)" paint-order="fill stroke markers" d=" M 655 455 L 655 451" stroke-miterlimit="10"/><path fill="none" stroke="rgb(255, 67, 67)" paint-order="fill stroke markers" d=" M 691 455 L 691 451" stroke-miterlimit="10"/><path fill="none" stroke="rgb(255, 67, 67)" paint-order="fill stroke markers" d=" M 727 455 L 727 451" stroke-miterlimit="10"/><path fill="none" stroke="rgb(255, 67, 67)" paint-order="fill stroke markers" d=" M 763 455 L 763 451" stroke-miterlimit="10"/><path fill="none" stroke="rgb(255, 67, 67)" paint-order="fill stroke markers" d=" M 798 455 L 798 451" stroke-miterlimit="10"/><path fill="none" stroke="rgb(255, 67, 67)" paint-order="fill stroke markers" d=" M 834 455 L 834 451" stroke-miterlimit="10"/><path fill="" stroke="rgb(255, 67, 67)" paint-order="fill stroke markers" d=" M 870 455 L 870 451" stroke-miterlimit="10"/><g transform="translate(119,462) rotate(0,0,0)"><text fill="" stroke="none" font-family="helvetica" font-size="8pt" font-style="normal" font-weight="normal" text-decoration="normal" x="0" y="0" text-anchor="middle" dominant-baseline="hanging">0</text><g transform="rotate(0,0,0) translate(-119,-462) translate(298,462) rotate(0,0,0)"><text fill="" stroke="none" font-family="helvetica" font-size="8pt" font-style="normal" font-weight="normal" text-decoration="normal" x="0" y="0" text-anchor="middle" dominant-baseline="hanging">500</text><g transform="rotate(0,0,0) translate(-298,-462) translate(477,462) rotate(0,0,0)"><text fill="" stroke="none" font-family="helvetica" font-size="8pt" font-style="normal" font-weight="normal" text-decoration="normal" x="0" y="0" text-anchor="middle" dominant-baseline="hanging">1000</text><g transform="rotate(0,0,0) translate(-477,-462) translate(655,462) rotate(0,0,0)"><text fill="" stroke="none" font-family="helvetica" font-size="8pt" font-style="normal" font-weight="normal" text-decoration="normal" x="0" y="0" text-anchor="middle" dominant-baseline="hanging">1500</text><g transform="rotate(0,0,0) translate(-655,-462) translate(834,462) rotate(0,0,0)"><text fill="" stroke="none" font-family="helvetica" font-size="8pt" font-style="normal" font-weight="normal" text-decoration="normal" x="0" y="0" text-anchor="middle" dominant-baseline="hanging">2000</text><g transform="rotate(0,0,0) translate(-834,-462) translate(495,480) rotate(0,0,0)"><text fill="" stroke="none" font-family="ADAM CG PRO" font-size="12pt" font-style="normal" font-weight="normal" text-decoration="normal" x="0" y="0" text-anchor="middle" dominant-baseline="hanging">Año</text><g transform="rotate(0,0,0) translate(-495,-480)"/></g></g></g></g></g></g></g><g fill="#444444"><path fill="none" stroke="black" paint-order="fill stroke markers" d=" M 119 451 L 119 39" stroke-miterlimit="10"/><path fill="none" stroke="rgb(255, 67, 67)" paint-order="fill stroke markers" d=" M 113 432 L 121 432" stroke-miterlimit="10" stroke-width="3"/><path fill="none" stroke="rgb(255, 67, 67)" paint-order="fill stroke markers" d=" M 113 366 L 121 366" stroke-miterlimit="10" stroke-width="3"/><path fill="none" stroke="rgb(255, 67, 67)" paint-order="fill stroke markers" d=" M 113 299 L 121 299" stroke-miterlimit="10" stroke-width="3"/><path fill="none" stroke="rgb(255, 67, 67)" paint-order="fill stroke markers" d=" M 113 232 L 121 232" stroke-miterlimit="10" stroke-width="3"/><path fill="none" stroke="rgb(255, 67, 67)" paint-order="fill stroke markers" d=" M 113 165 L 121 165" stroke-miterlimit="10" stroke-width="3"/><path fill="none" stroke="rgb(255, 67, 67)" paint-order="fill stroke markers" d=" M 113 98 L 121 98" stroke-miterlimit="10" stroke-width="3"/><path fill="none" stroke="rgb(255, 67, 67)" paint-order="fill stroke markers" d=" M 115 446 L 119 446" stroke-miterlimit="10"/><path fill="none" stroke="rgb(255, 67, 67)" paint-order="fill stroke markers" d=" M 115 432 L 119 432" stroke-miterlimit="10"/><path fill="none" stroke="rgb(255, 67, 67)" paint-order="fill stroke markers" d=" M 115 419 L 119 419" stroke-miterlimit="10"/><path fill="none" stroke="rgb(255, 67, 67)" paint-order="fill stroke markers" d=" M 115 406 L 119 406" stroke-miterlimit="10"/><path fill="none" stroke="rgb(255, 67, 67)" paint-order="fill stroke markers" d=" M 115 392 L 119 392" stroke-miterlimit="10"/><path fill="none" stroke="rgb(255, 67, 67)" paint-order="fill stroke markers" d=" M 115 379 L 119 379" stroke-miterlimit="10"/><path fill="none" stroke="rgb(255, 67, 67)" paint-order="fill stroke markers" d=" M 115 366 L 119 366" stroke-miterlimit="10"/><path fill="none" stroke="rgb(255, 67, 67)" paint-order="fill stroke markers" d=" M 115 352 L 119 352" stroke-miterlimit="10"/><path fill="none" stroke="rgb(255, 67, 67)" paint-order="fill stroke markers" d=" M 115 339 L 119 339" stroke-miterlimit="10"/><path fill="none" stroke="rgb(255, 67, 67)" paint-order="fill stroke markers" d=" M 115 325 L 119 325" stroke-miterlimit="10"/><path fill="none" stroke="rgb(255, 67, 67)" paint-order="fill stroke markers" d=" M 115 312 L 119 312" stroke-miterlimit="10"/><path fill="none" stroke="rgb(255, 67, 67)" paint-order="fill stroke markers" d=" M 115 299 L 119 299" stroke-miterlimit="10"/><path fill="none" stroke="rgb(255, 67, 67)" paint-order="fill stroke markers" d=" M 115 285 L 119 285" stroke-miterlimit="10"/><path fill="none" stroke="rgb(255, 67, 67)" paint-order="fill stroke markers" d=" M 115 272 L 119 272" stroke-miterlimit="10"/><path fill="none" stroke="rgb(255, 67, 67)" paint-order="fill stroke markers" d=" M 115 259 L 119 259" stroke-miterlimit="10"/><path fill="none" stroke="rgb(255, 67, 67)" paint-order="fill stroke markers" d=" M 115 245 L 119 245" stroke-miterlimit="10"/><path fill="none" stroke="rgb(255, 67, 67)" paint-order="fill stroke markers" d=" M 115 232 L 119 232" stroke-miterlimit="10"/><path fill="none" stroke="rgb(255, 67, 67)" paint-order="fill stroke markers" d=" M 115 219 L 119 219" stroke-miterlimit="10"/><path fill="none" stroke="rgb(255, 67, 67)" paint-order="fill stroke markers" d=" M 115 205 L 119 205" stroke-miterlimit="10"/><path fill="none" stroke="rgb(255, 67, 67)" paint-order="fill stroke markers" d=" M 115 192 L 119 192" stroke-miterlimit="10"/><path fill="none" stroke="rgb(255, 67, 67)" paint-order="fill stroke markers" d=" M 115 178 L 119 178" stroke-miterlimit="10"/><path fill="none" stroke="rgb(255, 67, 67)" paint-order="fill stroke markers" d=" M 115 165 L 119 165" stroke-miterlimit="10"/><path fill="none" stroke="rgb(255, 67, 67)" paint-order="fill stroke markers" d=" M 115 152 L 119 152" stroke-miterlimit="10"/><path fill="none" stroke="rgb(255, 67, 67)" paint-order="fill stroke markers" d=" M 115 138 L 119 138" stroke-miterlimit="10"/><path fill="none" stroke="rgb(255, 67, 67)" paint-order="fill stroke markers" d=" M 115 125 L 119 125" stroke-miterlimit="10"/><path fill="none" stroke="rgb(255, 67, 67)" paint-order="fill stroke markers" d=" M 115 112 L 119 112" stroke-miterlimit="10"/><path fill="none" stroke="rgb(255, 67, 67)" paint-order="fill stroke markers" d=" M 115 98 L 119 98" stroke-miterlimit="10"/><path fill="none" stroke="rgb(255, 67, 67)" paint-order="fill stroke markers" d=" M 115 85 L 119 85" stroke-miterlimit="10"/><path fill="none" stroke="rgb(255, 67, 67)" paint-order="fill stroke markers" d=" M 115 72 L 119 72" stroke-miterlimit="10"/><path fill="none" stroke="rgb(255, 67, 67)" paint-order="fill stroke markers" d=" M 115 58 L 119 58" stroke-miterlimit="10"/><path fill="" stroke="rgb(255, 67, 67)" paint-order="fill stroke markers" d=" M 115 45 L 119 45" stroke-miterlimit="10"/><g transform="translate(108,432) rotate(0,0,0)"><text fill="" stroke="none" font-family="helvetica" font-size="8pt" font-style="normal" font-weight="normal" text-decoration="normal" x="0" y="0" text-anchor="end" dominant-baseline="central">0</text><g transform="rotate(0,0,0) translate(-108,-432) translate(108,366) rotate(0,0,0)"><text fill="" stroke="none" font-family="helvetica" font-size="8pt" font-style="normal" font-weight="normal" text-decoration="normal" x="0" y="0" text-anchor="end" dominant-baseline="central">2,000,000,000</text><g transform="rotate(0,0,0) translate(-108,-366) translate(108,299) rotate(0,0,0)"><text fill="" stroke="none" font-family="helvetica" font-size="8pt" font-style="normal" font-weight="normal" text-decoration="normal" x="0" y="0" text-anchor="end" dominant-baseline="central">4,000,000,000</text><g transform="rotate(0,0,0) translate(-108,-299) translate(108,232) rotate(0,0,0)"><text fill="" stroke="none" font-family="helvetica" font-size="8pt" font-style="normal" font-weight="normal" text-decoration="normal" x="0" y="0" text-anchor="end" dominant-baseline="central">6,000,000,000</text><g transform="rotate(0,0,0) translate(-108,-232) translate(108,165) rotate(0,0,0)"><text fill="" stroke="none" font-family="helvetica" font-size="8pt" font-style="normal" font-weight="normal" text-decoration="normal" x="0" y="0" text-anchor="end" dominant-baseline="central">8,000,000,000</text><g transform="rotate(0,0,0) translate(-108,-165) translate(108,98) rotate(0,0,0)"><text fill="" stroke="none" font-family="helvetica" font-size="8pt" font-style="normal" font-weight="normal" text-decoration="normal" x="0" y="0" text-anchor="end" dominant-baseline="central">10,000,000,000</text><g transform="rotate(0,0,0) translate(-108,-98) translate(21,245) rotate(-90,0,0)"><text fill="" stroke="none" font-family="ADAM CG PRO" font-size="12pt" font-style="normal" font-weight="normal" text-decoration="normal" x="0" y="0" text-anchor="middle" dominant-baseline="alphabetic">Población</text><g transform="rotate(90,0,0) translate(-21,-245)"/></g></g></g></g></g></g></g></g><g fill="black"><path fill="" stroke="none" d=""/><g transform="translate(494.5,34)"><path fill="none" stroke="none"/><text fill="" stroke="none" font-family="ADAM CG PRO" font-size="16pt" font-style="normal" font-weight="normal" text-decoration="normal" x="0" y="0" text-anchor="middle" dominant-baseline="text-after-edge">Población Mundial</text></g></g></g></g><g/><g/><g/><g/><g/><g/><g/><g/><g/><g/><g/><g/><g/><g/><g/><g/><g/><g/><g/><g/><g/><g/><g/><g/><g/><g/><g/><g/><g/><g/><g/><g/><g/><g/><g/><g/><g/><g/><g/><g/><g/><g/><g/><g/><g/><g/><g/><g/><g/><g/><g/><g/><g/><g/><g/><g/><g/><g/><g/></g></svg>