<svg version="1.1" xmlns="http://www.w3.org/2000/svg" xmlns:xlink="http://www.w3.org/1999/xlink" width="900" height="250" style="width: 900px; height: 250px;"><defs/><g><g transform="scale(1,1) translate(0.5,0.5)"><rect fill="#FFFFFF" stroke="none" x="0" y="0" width="900" height="250"/><rect fill="#ffffff" stroke="none" x="0" y="0" width="900" height="250"/><rect fill="#FFFFFF" stroke="none" x="53" y="5" width="842" height="221"/><rect fill="white" stroke="none" x="53" y="5" width="842" height="221"/><g><rect fill="none" stroke="rgb(0, 131, 255)" x="53" y="5" width="842" height="221" stroke-miterlimit="10" stroke-width="7" stroke-opacity="0.5"/></g><g><g><path fill="none" stroke="rgb(0, 131, 255)" paint-order="fill stroke markers" d=" M 790 226 L 790 5" stroke-miterlimit="10" stroke-opacity="0"/><path fill="none" stroke="rgb(0, 131, 255)" paint-order="fill stroke markers" d=" M 685 226 L 685 5" stroke-miterlimit="10" stroke-opacity="0"/><path fill="none" stroke="rgb(0, 131, 255)" paint-order="fill stroke markers" d=" M 579 226 L 579 5" stroke-miterlimit="10" stroke-opacity="0"/><path fill="none" stroke="rgb(0, 131, 255)" paint-order="fill stroke markers" d=" M 474 226 L 474 5" stroke-miterlimit="10" stroke-opacity="0"/><path fill="none" stroke="rgb(0, 131, 255)" paint-order="fill stroke markers" d=" M 369 226 L 369 5" stroke-miterlimit="10" stroke-opacity="0"/><path fill="none" stroke="rgb(0, 131, 255)" paint-order="fill stroke markers" d=" M 264 226 L 264 5" stroke-miterlimit="10" stroke-opacity="0"/><path fill="none" stroke="rgb(0, 131, 255)" paint-order="fill stroke markers" d=" M 158 226 L 158 5" stroke-miterlimit="10" stroke-opacity="0"/></g><g><path fill="none" stroke="rgb(0, 131, 255)" paint-order="fill stroke markers" d=" M 895 224 L 53 224" stroke-miterlimit="10" stroke-opacity="0.25"/><path fill="none" stroke="rgb(0, 131, 255)" paint-order="fill stroke markers" d=" M 895 180 L 53 180" stroke-miterlimit="10" stroke-opacity="0.25"/><path fill="none" stroke="rgb(0, 131, 255)" paint-order="fill stroke markers" d=" M 895 136 L 53 136" stroke-miterlimit="10" stroke-opacity="0.25"/><path fill="none" stroke="rgb(0, 131, 255)" paint-order="fill stroke markers" d=" M 895 91 L 53 91" stroke-miterlimit="10" stroke-opacity="0.25"/><path fill="none" stroke="rgb(0, 131, 255)" paint-order="fill stroke markers" d=" M 895 47 L 53 47" stroke-miterlimit="10" stroke-opacity="0.25"/></g><g><path fill="none" stroke="none"/><path fill="none" stroke="rgb(0, 28, 100)" paint-order="fill stroke markers" d=" M 890.059565 61.409090909090935 L 887.35043 75.53896103896102 L 886.931535 93.64285714285717 L 881.896375 96.73376623376623 L 881.07753 102.91558441558442 L 877.922135 84.37012987012986 L 873.552155 61.85064935064935 L 871.817635 82.16233766233768 L 871.543985 130.73376623376623 L 871.152455 145.74675324675326 L 870.331505 135.14935064935065 L 868.42227 64.05844155844159 L 866.76774 87.01948051948051 L 866.673015 72.88961038961037 L 865.022695 159.87662337662337 L 860.442215 181.95454545454544 L 857.752025 196.08441558441558 L 855.11025 202.26623376623377 L 852.89158 189.0194805194805 L 849.45622 202.7077922077922 L 846.633415 177.0974025974026 L 846.460805 206.6818181818182 L 845.7598399999999 192.55194805194805 L 845.08203 189.9025974025974 L 844.17267 178.42207792207793 L 843.791665 178.42207792207793 L 843.126485 206.24025974025975 L 843.10333 197.4090909090909 L 843.08649 188.13636363636363 L 842.638125 198.2922077922078 L 842.221335 183.27922077922076 L 841.484585 189.9025974025974 L 841.4488 188.13636363636363 L 841.4488 189.0194805194805 L 840.93518 197.4090909090909 L 840.272105 196.08441558441558 L 840.061605 187.69480519480518 L 840.061605 185.92857142857142 L 839.56272 185.48701298701297 L 839.278545 174.44805194805195 L 838.85544 168.26623376623377 L 838.40918 171.7987012987013 L 838.03028 158.55194805194805 L 837.44509 151.48701298701297 L 836.68729 164.2922077922078 L 836.163145 172.6818181818182 L 836.0263199999999 178.42207792207793 L 835.649525 187.69480519480518 L 834.900145 181.512987012987 L 834.495985 168.7077922077922 L 834.074985 164.2922077922078 L 833.68135 163.85064935064935 L 833.09195 170.47402597402598 L 832.917235 172.6818181818182 L 832.81409 166.94155844155844 L 831.481625 143.9805194805195 L 831.039575 140.44805194805195 L 830.605945 143.53896103896105 L 829.55976 182.39610389610388 L 828.736705 166.94155844155844 L 827.26952 149.27922077922076 L 826.83168 133.38311688311688 L 826.134925 114.39610389610388 L 825.63604 121.46103896103895 L 825.196095 126.75974025974025 L 824.53723 122.34415584415584 L 823.802585 131.61688311688312 L 823.20266 135.5909090909091 L 823.20266 143.0974025974026 L 822.830075 142.65584415584416 L 822.07438 171.7987012987013 L 821.77968 178.42207792207793 L 821.24501 153.69480519480518 L 820.981885 173.56493506493507 L 820.510365 190.78571428571428 L 820.118835 169.5909090909091 L 819.967275 160.75974025974025 L 819.466285 166.05844155844156 L 817.870695 142.65584415584416 L 814.780555 126.75974025974025 L 814.586895 138.6818181818182 L 812.08826 169.14935064935065 L 811.16206 158.55194805194805 L 809.48227 119.25324675324674 L 807.94141 125.87662337662337 L 806.314245 161.64285714285714 L 803.3356699999999 171.35714285714286 L 800.72126 178.86363636363635 L 796.01448 150.6038961038961 L 791.01721 133.82467532467533 L 787.27873 144.42207792207793 L 783.70865 129.4090909090909 L 778.03778 123.22727272727272 L 773.463615 161.2012987012987 L 769.53358 174.8896103896104 L 765.3698899999999 173.56493506493507 L 760.92413 173.12337662337663 L 756.699395 164.73376623376623 L 750.818025 169.14935064935065 L 745.51553 154.13636363636363 L 741.652855 166.5 L 736.3524649999999 152.37012987012986 L 733.178125 178.86363636363635 L 728.715525 162.96753246753246 L 724.23819 136.91558441558442 L 720.615485 115.7207792207792 L 716.224455 94.08441558441558 L 713.290085 122.78571428571428 L 709.652645 168.7077922077922 L 706.890885 172.24025974025975 L 701.990445 155.9025974025974 L 697.8457 160.75974025974025 L 694.290355 177.0974025974026 L 691.0255 176.65584415584416 L 686.463965 146.1883116883117 L 684.851535 144.42207792207793 L 682.72759 126.31818181818181 L 680.649955 138.6818181818182 L 677.40194 109.53896103896105 L 673.54558 95.40909090909093 L 672.554125 107.33116883116884 L 671.442685 163.4090909090909 L 669.750265 157.22727272727272 L 665.56763 149.7207792207792 L 660.41459 158.55194805194805 L 658.063305 160.75974025974025 L 657.570735 151.92857142857142 L 656.126705 133.38311688311688 L 655.92673 143.0974025974026 L 654.964745 136.91558441558442 L 653.96066 130.73376623376623 L 652.7987 142.21428571428572 L 652.080895 134.26623376623377 L 651.30836 126.75974025974025 L 650.742115 113.51298701298703 L 650.399 121.9025974025974 L 650.076935 114.39610389610388 L 649.546475 102.47402597402598 L 648.60554 117.48701298701297 L 647.99509 111.30519480519482 L 647.77617 103.7987012987013 L 647.475155 95.85064935064935 L 646.68578 109.0974025974026 L 646.58895 103.35714285714286 L 646.1784749999999 102.47402597402598 L 645.281745 107.77272727272728 L 644.814435 109.53896103896105 L 644.15978 96.29220779220782 L 643.930335 103.35714285714286 L 643.454605 98.5 L 643.0230799999999 95.40909090909093 L 641.7264 90.11038961038963 L 641.198045 90.99350649350652 L 641.02754 101.14935064935065 L 640.789675 88.78571428571428 L 640.10555 94.96753246753246 L 639.114095 92.31818181818181 L 638.71204 94.08441558441558 L 638.1478999999999 83.48701298701297 L 637.417465 94.96753246753246 L 637.0785599999999 94.08441558441558 L 636.91437 91.43506493506493 L 636.15236 92.31818181818181 L 635.497705 89.66883116883116 L 635.148275 90.99350649350652 L 634.659915 81.7207792207792 L 634.369425 90.55194805194805 L 634.34627 78.18831168831167 L 633.817915 83.48701298701297 L 633.4663800000001 83.04545454545456 L 632.723315 87.01948051948051 L 631.50452 69.7987012987013 L 631.12983 71.56493506493507 L 630.98248 81.2792207792208 L 630.88986 57.43506493506493 L 630.445705 59.64285714285717 L 629.574235 76.86363636363637 L 629.3489999999999 72.00649350649348 L 629.0479849999999 72.00649350649348 L 628.9701 75.53896103896102 L 628.3975399999999 77.30519480519479 L 627.64816 74.65584415584414 L 627.21453 67.14935064935065 L 626.7388 62.29220779220782 L 626.55777 54.78571428571428 L 626.15782 68.03246753246754 L 625.7915499999999 53.01948051948051 L 625.3915999999999 43.74675324675326 L 624.79378 42.863636363636374 L 624.720105 47.72077922077921 L 624.34752 47.27922077922079 L 624.22964 45.512987012987026 L 623.85074 57.8766233766234 L 623.32449 112.62987012987014 L 623.191875 106.8896103896104 L 622.72246 117.92857142857142 L 622.0341249999999 109.0974025974026 L 621.56471 124.99350649350649 L 620.98794 117.04545454545453 L 620.194355 139.12337662337663 L 618.93767 145.74675324675326 L 618.834525 139.56493506493507 L 617.5715250000001 156.34415584415584 L 614.3193 166.05844155844156 L 612.4858449999999 180.18831168831167 L 610.818685 200.94155844155844 L 609.387285 198.73376623376623 L 607.947465 191.22727272727272 L 607.332805 189.9025974025974 L 605.787735 202.7077922077922 L 605.17097 206.6818181818182 L 603.65116 215.95454545454544 L 600.1484399999999 215.512987012987 L 597.30669 204.03246753246754 L 591.9221 199.61688311688312 L 586.01968 199.17532467532467 L 582.26857 179.74675324675323 L 580.50037 171.7987012987013 L 578.612185 175.33116883116884 L 577.917535 190.34415584415584 L 576.216695 181.95454545454544 L 573.85699 159.87662337662337 L 572.570835 173.56493506493507 L 570.558455 187.69480519480518 L 568.095605 189.9025974025974 L 567.2388699999999 177.0974025974026 L 563.8856049999999 178.42207792207793 L 562.81837 188.13636363636363 L 558.639945 190.34415584415584 L 551.89342 177.53896103896105 L 547.0898099999999 170.91558441558442 L 538.69507 145.30519480519482 L 531.68542 155.0194805194805 L 528.3321550000001 178.86363636363635 L 525.6988 149.7207792207792 L 519.15225 134.26623376623377 L 514.460205 125.87662337662337 L 512.48361 151.48701298701297 L 509.03772499999997 148.83766233766232 L 505.442385 131.17532467532467 L 500.946105 159.87662337662337 L 496.449825 162.08441558441558 L 492.825015 173.56493506493507 L 483.20937499999997 153.25324675324674 L 475.49034 109.98051948051949 L 469.34373999999997 86.13636363636363 L 464.984285 143.53896103896105 L 463.16346 168.7077922077922 L 462.550905 170.47402597402598 L 461.969925 174.0064935064935 L 461.11319 163.85064935064935 L 459.949125 150.6038961038961 L 459.195535 151.92857142857142 L 458.38511 155.46103896103895 L 457.178945 137.35714285714286 L 456.77478499999995 146.6298701298701 L 455.48442 146.1883116883117 L 454.89081 142.21428571428572 L 454.18352999999996 128.96753246753246 L 453.00262499999997 147.512987012987 L 452.45111499999996 136.47402597402598 L 451.20284999999996 106.00649350649351 L 450.834475 134.26623376623377 L 449.832495 131.61688311688312 L 448.889455 97.61688311688312 L 448.14849499999997 113.07142857142858 L 447.34648999999996 111.74675324675326 L 446.61395 115.7207792207792 L 445.824575 105.12337662337663 L 444.20793499999996 99.8246753246753 L 442.43341999999996 109.98051948051949 L 441.36408 105.56493506493507 L 440.574705 97.61688311688312 L 439.66745 116.16233766233765 L 438.37708499999997 110.42207792207793 L 437.682435 117.48701298701297 L 437.000415 143.0974025974026 L 435.39009 162.08441558441558 L 434.49546499999997 163.85064935064935 L 432.5736 146.1883116883117 L 431.801065 147.512987012987 L 430.30019999999996 136.47402597402598 L 429.801315 144.42207792207793 L 428.50674 143.53896103896105 L 425.67341 138.24025974025975 L 424.64617 121.46103896103895 L 422.15385 121.46103896103895 L 421.08871999999997 130.2922077922078 L 420.24882499999995 132.94155844155844 L 419.50575999999995 136.91558441558442 L 418.82163499999996 143.0974025974026 L 417.74177 142.65584415584416 L 416.69347999999997 146.1883116883117 L 415.3968 159.87662337662337 L 409.44386 162.52597402597402 L 407.938785 153.25324675324674 L 406.66105 137.7987012987013 L 405.345425 134.7077922077922 L 404.24240499999996 129.4090909090909 L 403.17517 117.48701298701297 L 402.16477 117.92857142857142 L 401.44064999999995 113.51298701298703 L 400.78599499999996 117.92857142857142 L 399.85769 111.74675324675326 L 397.72742999999997 99.38311688311688 L 395.13406999999995 83.04545454545456 L 394.35943 77.74675324675326 L 393.59110499999997 69.35714285714283 L 392.698585 135.5909090909091 L 392.02498499999996 111.74675324675326 L 391.380855 118.8116883116883 L 390.757775 125.87662337662337 L 389.368475 136.47402597402598 L 388.58752 142.65584415584416 L 387.76657 148.83766233766232 L 385.448965 131.61688311688312 L 382.10201499999994 178.86363636363635 L 380.96321 163.4090909090909 L 379.567595 179.3051948051948 L 378.26249499999994 188.57792207792207 L 375.677555 177.53896103896105 L 374.14721999999995 180.18831168831167 L 372.78528499999993 169.14935064935065 L 370.903415 158.9935064935065 L 369.274145 151.04545454545453 L 367.7817 150.16233766233765 L 365.552505 170.47402597402598 L 364.15478499999995 175.33116883116884 L 362.5255149999999 130.73376623376623 L 360.5636549999999 141.77272727272728 L 357.74085 180.6298701298701 L 356.04000999999994 176.21428571428572 L 355.09065499999997 186.37012987012986 L 353.499275 178.86363636363635 L 350.868025 154.57792207792207 L 349.32926999999995 159.87662337662337 L 347.79261999999994 168.26623376623377 L 346.102305 158.55194805194805 L 344.34042 155.9025974025974 L 342.67326 158.55194805194805 L 340.95557999999994 161.64285714285714 L 339.19159 161.2012987012987 L 337.530745 160.75974025974025 L 334.049075 172.24025974025975 L 332.03248499999995 156.34415584415584 L 330.2853349999999 166.94155844155844 L 329.43491499999993 161.64285714285714 L 325.224915 142.65584415584416 L 320.31395 147.95454545454544 L 317.29748499999994 132.05844155844156 L 315.6850549999999 128.52597402597402 L 312.194965 125.87662337662337 L 309.96997999999996 166.5 L 306.566195 166.5 L 300.705875 132.5 L 298.251445 151.48701298701297 L 292.5195299999999 143.53896103896105 L 289.07154 125.87662337662337 L 287.72434 155.9025974025974 L 285.72038 165.17532467532467 L 283.35435999999993 162.96753246753246 L 279.3464399999999 146.6298701298701 L 276.76149999999996 166.94155844155844 L 274.843845 149.7207792207792 L 272.94303 151.48701298701297 L 269.433995 153.25324675324674 L 267.58790999999997 141.33116883116884 L 265.57132 141.77272727272728 L 263.76312499999995 130.73376623376623 L 262.154905 115.7207792207792 L 260.36565499999995 118.37012987012986 L 258.33853999999997 90.11038961038963 L 256.49456 105.56493506493507 L 255.18314499999997 96.73376623376623 L 253.85068 164.2922077922078 L 252.33718499999998 160.75974025974025 L 250.68475999999998 154.57792207792207 L 248.50397999999996 145.30519480519482 L 246.45581499999992 145.30519480519482 L 242.37632499999995 140.8896103896104 L 240.38709999999992 125.87662337662337 L 238.72625499999992 104.68181818181819 L 236.83807000000002 108.65584415584416 L 235.06144999999992 96.29220779220782 L 233.25956999999994 80.83766233766232 L 231.63240499999995 82.60389610389609 L 229.95261499999992 82.16233766233768 L 228.40122999999994 74.21428571428572 L 226.78458999999998 79.51298701298703 L 225.06059499999992 75.0974025974026 L 223.55130999999994 74.21428571428572 L 221.67154499999992 75.53896103896102 L 220.58326 89.66883116883116 L 218.488785 89.66883116883116 L 216.960555 70.68181818181819 L 215.88910999999996 62.73376623376623 L 215.43653499999994 33.590909090909065 L 214.05775999999992 15.045454545454561 L 212.58846999999992 102.47402597402598 L 210.89394499999992 99.8246753246753 L 209.76987499999996 96.73376623376623 L 208.27321999999992 109.98051948051949 L 206.41029500000002 119.25324675324674 L 204.38317999999992 128.08441558441558 L 201.96242999999993 148.39610389610388 L 199.92057999999997 157.22727272727272 L 195.531655 154.13636363636363 L 192.77199999999993 192.55194805194805 L 188.97457999999995 187.25324675324674 L 185.68446499999993 205.35714285714286 L 182.935335 193.43506493506493 L 178.95688499999994 170.03246753246754 L 175.9909399999999 181.07142857142856 L 172.999735 161.2012987012987 L 169.34545500000002 177.0974025974026 L 166.47002499999996 186.8116883116883 L 163.29358000000002 180.6298701298701 L 160.01819999999998 183.7207792207792 L 156.65230499999996 185.92857142857142 L 153.18536999999992 183.27922077922076 L 149.14377000000002 186.8116883116883 L 145.19479 180.18831168831167 L 143.85600999999997 180.18831168831167 L 141.98255999999992 181.512987012987 L 137.86938999999995 155.9025974025974 L 134.74346500000001 170.03246753246754 L 131.27652999999998 185.92857142857142 L 127.788545 181.07142857142856 L 124.16794499999992 165.61688311688312 L 120.13897499999996 151.92857142857142 L 117.09303999999997 128.08441558441558 L 114.21550500000001 177.53896103896105 L 109.82026499999995 165.61688311688312 L 106.53646499999991 143.53896103896105 L 98.92478499999993 126.31818181818181 L 95.88937499999997 159.87662337662337 L 91.70673999999997 128.52597402597402 L 87.67566499999998 117.04545454545453 L 84.76445000000001 101.14935064935065 L 81.32698499999992 106.00649350649351 L 76.88753999999994 116.16233766233765 L 72.85646499999996 162.52597402597402 L 68.94116499999996 158.55194805194805 L 64.32489999999996 145.30519480519482 L 59.95070999999996 113.51298701298703 L 55.999624999999924 102.91558441558442 L 52.23798999999997 106.44805194805195 L 49.0847 92.31818181818181 L 44.23478 91.43506493506493 L 40.74258499999996 59.64285714285717 L 37.334589999999935 76.4220779220779 L 34.06552499999998 72.00649350649348 L 30.280734999999936 81.2792207792208 L 27.356889999999908 79.95454545454544 L 23.361599999999953 68.03246753246754 L 20.473539999999957 56.993506493506516 L 16.85083499999996 49.487012987012974" stroke-miterlimit="10" stroke-width="3" stroke-opacity="0.7"/></g></g><g><g/><g><path fill="#ffffff" stroke="#e5e5e5" paint-order="fill stroke markers" d=" M 63 15 L 133 15 L 133 55 L 63 55 L 63 15 Z" fill-opacity="0.95" stroke-miterlimit="10" stroke-opacity="0.5"/><text fill="#444444" stroke="none" font-family="ADAM CG PRO" font-size="10pt" font-style="normal" font-weight="normal" text-decoration="normal" x="98" y="35" text-anchor="start" dominant-baseline="central">CH4</text><g><path fill="none" stroke="rgb(0, 28, 100)" paint-order="fill stroke markers" d=" M 73 35 L 93 35" stroke-miterlimit="10" stroke-width="3" stroke-opacity="0.7"/></g></g></g><g><g fill="#444444"><path fill="none" stroke="black" paint-order="fill stroke markers" d=" M 895 226 L 53 226" stroke-miterlimit="10"/><path fill="none" stroke="rgb(255, 67, 67)" paint-order="fill stroke markers" d=" M 895 232 L 895 224" stroke-miterlimit="10" stroke-width="3"/><path fill="none" stroke="rgb(255, 67, 67)" paint-order="fill stroke markers" d=" M 790 232 L 790 224" stroke-miterlimit="10" stroke-width="3"/><path fill="none" stroke="rgb(255, 67, 67)" paint-order="fill stroke markers" d=" M 685 232 L 685 224" stroke-miterlimit="10" stroke-width="3"/><path fill="none" stroke="rgb(255, 67, 67)" paint-order="fill stroke markers" d=" M 579 232 L 579 224" stroke-miterlimit="10" stroke-width="3"/><path fill="none" stroke="rgb(255, 67, 67)" paint-order="fill stroke markers" d=" M 474 232 L 474 224" stroke-miterlimit="10" stroke-width="3"/><path fill="none" stroke="rgb(255, 67, 67)" paint-order="fill stroke markers" d=" M 369 232 L 369 224" stroke-miterlimit="10" stroke-width="3"/><path fill="none" stroke="rgb(255, 67, 67)" paint-order="fill stroke markers" d=" M 264 232 L 264 224" stroke-miterlimit="10" stroke-width="3"/><path fill="none" stroke="rgb(255, 67, 67)" paint-order="fill stroke markers" d=" M 158 232 L 158 224" stroke-miterlimit="10" stroke-width="3"/><path fill="none" stroke="rgb(255, 67, 67)" paint-order="fill stroke markers" d=" M 53 232 L 53 224" stroke-miterlimit="10" stroke-width="3"/><path fill="none" stroke="rgb(255, 67, 67)" paint-order="fill stroke markers" d=" M 895 230 L 895 226" stroke-miterlimit="10"/><path fill="none" stroke="rgb(255, 67, 67)" paint-order="fill stroke markers" d=" M 874 230 L 874 226" stroke-miterlimit="10"/><path fill="none" stroke="rgb(255, 67, 67)" paint-order="fill stroke markers" d=" M 853 230 L 853 226" stroke-miterlimit="10"/><path fill="none" stroke="rgb(255, 67, 67)" paint-order="fill stroke markers" d=" M 832 230 L 832 226" stroke-miterlimit="10"/><path fill="none" stroke="rgb(255, 67, 67)" paint-order="fill stroke markers" d=" M 811 230 L 811 226" stroke-miterlimit="10"/><path fill="none" stroke="rgb(255, 67, 67)" paint-order="fill stroke markers" d=" M 790 230 L 790 226" stroke-miterlimit="10"/><path fill="none" stroke="rgb(255, 67, 67)" paint-order="fill stroke markers" d=" M 769 230 L 769 226" stroke-miterlimit="10"/><path fill="none" stroke="rgb(255, 67, 67)" paint-order="fill stroke markers" d=" M 748 230 L 748 226" stroke-miterlimit="10"/><path fill="none" stroke="rgb(255, 67, 67)" paint-order="fill stroke markers" d=" M 727 230 L 727 226" stroke-miterlimit="10"/><path fill="none" stroke="rgb(255, 67, 67)" paint-order="fill stroke markers" d=" M 706 230 L 706 226" stroke-miterlimit="10"/><path fill="none" stroke="rgb(255, 67, 67)" paint-order="fill stroke markers" d=" M 685 230 L 685 226" stroke-miterlimit="10"/><path fill="none" stroke="rgb(255, 67, 67)" paint-order="fill stroke markers" d=" M 663 230 L 663 226" stroke-miterlimit="10"/><path fill="none" stroke="rgb(255, 67, 67)" paint-order="fill stroke markers" d=" M 642 230 L 642 226" stroke-miterlimit="10"/><path fill="none" stroke="rgb(255, 67, 67)" paint-order="fill stroke markers" d=" M 621 230 L 621 226" stroke-miterlimit="10"/><path fill="none" stroke="rgb(255, 67, 67)" paint-order="fill stroke markers" d=" M 600 230 L 600 226" stroke-miterlimit="10"/><path fill="none" stroke="rgb(255, 67, 67)" paint-order="fill stroke markers" d=" M 579 230 L 579 226" stroke-miterlimit="10"/><path fill="none" stroke="rgb(255, 67, 67)" paint-order="fill stroke markers" d=" M 558 230 L 558 226" stroke-miterlimit="10"/><path fill="none" stroke="rgb(255, 67, 67)" paint-order="fill stroke markers" d=" M 537 230 L 537 226" stroke-miterlimit="10"/><path fill="none" stroke="rgb(255, 67, 67)" paint-order="fill stroke markers" d=" M 516 230 L 516 226" stroke-miterlimit="10"/><path fill="none" stroke="rgb(255, 67, 67)" paint-order="fill stroke markers" d=" M 495 230 L 495 226" stroke-miterlimit="10"/><path fill="none" stroke="rgb(255, 67, 67)" paint-order="fill stroke markers" d=" M 474 230 L 474 226" stroke-miterlimit="10"/><path fill="none" stroke="rgb(255, 67, 67)" paint-order="fill stroke markers" d=" M 453 230 L 453 226" stroke-miterlimit="10"/><path fill="none" stroke="rgb(255, 67, 67)" paint-order="fill stroke markers" d=" M 432 230 L 432 226" stroke-miterlimit="10"/><path fill="none" stroke="rgb(255, 67, 67)" paint-order="fill stroke markers" d=" M 411 230 L 411 226" stroke-miterlimit="10"/><path fill="none" stroke="rgb(255, 67, 67)" paint-order="fill stroke markers" d=" M 390 230 L 390 226" stroke-miterlimit="10"/><path fill="none" stroke="rgb(255, 67, 67)" paint-order="fill stroke markers" d=" M 369 230 L 369 226" stroke-miterlimit="10"/><path fill="none" stroke="rgb(255, 67, 67)" paint-order="fill stroke markers" d=" M 348 230 L 348 226" stroke-miterlimit="10"/><path fill="none" stroke="rgb(255, 67, 67)" paint-order="fill stroke markers" d=" M 327 230 L 327 226" stroke-miterlimit="10"/><path fill="none" stroke="rgb(255, 67, 67)" paint-order="fill stroke markers" d=" M 306 230 L 306 226" stroke-miterlimit="10"/><path fill="none" stroke="rgb(255, 67, 67)" paint-order="fill stroke markers" d=" M 285 230 L 285 226" stroke-miterlimit="10"/><path fill="none" stroke="rgb(255, 67, 67)" paint-order="fill stroke markers" d=" M 264 230 L 264 226" stroke-miterlimit="10"/><path fill="none" stroke="rgb(255, 67, 67)" paint-order="fill stroke markers" d=" M 242 230 L 242 226" stroke-miterlimit="10"/><path fill="none" stroke="rgb(255, 67, 67)" paint-order="fill stroke markers" d=" M 221 230 L 221 226" stroke-miterlimit="10"/><path fill="none" stroke="rgb(255, 67, 67)" paint-order="fill stroke markers" d=" M 200 230 L 200 226" stroke-miterlimit="10"/><path fill="none" stroke="rgb(255, 67, 67)" paint-order="fill stroke markers" d=" M 179 230 L 179 226" stroke-miterlimit="10"/><path fill="none" stroke="rgb(255, 67, 67)" paint-order="fill stroke markers" d=" M 158 230 L 158 226" stroke-miterlimit="10"/><path fill="none" stroke="rgb(255, 67, 67)" paint-order="fill stroke markers" d=" M 137 230 L 137 226" stroke-miterlimit="10"/><path fill="none" stroke="rgb(255, 67, 67)" paint-order="fill stroke markers" d=" M 116 230 L 116 226" stroke-miterlimit="10"/><path fill="none" stroke="rgb(255, 67, 67)" paint-order="fill stroke markers" d=" M 95 230 L 95 226" stroke-miterlimit="10"/><path fill="none" stroke="rgb(255, 67, 67)" paint-order="fill stroke markers" d=" M 74 230 L 74 226" stroke-miterlimit="10"/><path fill="" stroke="rgb(255, 67, 67)" paint-order="fill stroke markers" d=" M 53 230 L 53 226" stroke-miterlimit="10"/><g transform="translate(895,237) rotate(0,0,0)"><text fill="" stroke="none" font-family="helvetica" font-size="8pt" font-style="normal" font-weight="normal" text-decoration="normal" x="0" y="0" text-anchor="middle" dominant-baseline="hanging">0</text><g transform="rotate(0,0,0) translate(-895,-237) translate(790,237) rotate(0,0,0)"><text fill="" stroke="none" font-family="helvetica" font-size="8pt" font-style="normal" font-weight="normal" text-decoration="normal" x="0" y="0" text-anchor="middle" dominant-baseline="hanging">50,000</text><g transform="rotate(0,0,0) translate(-790,-237) translate(685,237) rotate(0,0,0)"><text fill="" stroke="none" font-family="helvetica" font-size="8pt" font-style="normal" font-weight="normal" text-decoration="normal" x="0" y="0" text-anchor="middle" dominant-baseline="hanging">100,000</text><g transform="rotate(0,0,0) translate(-685,-237) translate(579,237) rotate(0,0,0)"><text fill="" stroke="none" font-family="helvetica" font-size="8pt" font-style="normal" font-weight="normal" text-decoration="normal" x="0" y="0" text-anchor="middle" dominant-baseline="hanging">150,000</text><g transform="rotate(0,0,0) translate(-579,-237) translate(474,237) rotate(0,0,0)"><text fill="" stroke="none" font-family="helvetica" font-size="8pt" font-style="normal" font-weight="normal" text-decoration="normal" x="0" y="0" text-anchor="middle" dominant-baseline="hanging">200,000</text><g transform="rotate(0,0,0) translate(-474,-237) translate(369,237) rotate(0,0,0)"><text fill="" stroke="none" font-family="helvetica" font-size="8pt" font-style="normal" font-weight="normal" text-decoration="normal" x="0" y="0" text-anchor="middle" dominant-baseline="hanging">250,000</text><g transform="rotate(0,0,0) translate(-369,-237) translate(264,237) rotate(0,0,0)"><text fill="" stroke="none" font-family="helvetica" font-size="8pt" font-style="normal" font-weight="normal" text-decoration="normal" x="0" y="0" text-anchor="middle" dominant-baseline="hanging">300,000</text><g transform="rotate(0,0,0) translate(-264,-237) translate(158,237) rotate(0,0,0)"><text fill="" stroke="none" font-family="helvetica" font-size="8pt" font-style="normal" font-weight="normal" text-decoration="normal" x="0" y="0" text-anchor="middle" dominant-baseline="hanging">350,000</text><g transform="rotate(0,0,0) translate(-158,-237) translate(53,237) rotate(0,0,0)"><text fill="" stroke="none" font-family="helvetica" font-size="8pt" font-style="normal" font-weight="normal" text-decoration="normal" x="0" y="0" text-anchor="middle" dominant-baseline="hanging">400,000</text><g transform="rotate(0,0,0) translate(-53,-237)"/></g></g></g></g></g></g></g></g></g></g><g fill="#444444"><path fill="none" stroke="black" paint-order="fill stroke markers" d=" M 53 226 L 53 5" stroke-miterlimit="10"/><path fill="none" stroke="rgb(255, 67, 67)" paint-order="fill stroke markers" d=" M 47 224 L 55 224" stroke-miterlimit="10" stroke-width="3"/><path fill="none" stroke="rgb(255, 67, 67)" paint-order="fill stroke markers" d=" M 47 180 L 55 180" stroke-miterlimit="10" stroke-width="3"/><path fill="none" stroke="rgb(255, 67, 67)" paint-order="fill stroke markers" d=" M 47 136 L 55 136" stroke-miterlimit="10" stroke-width="3"/><path fill="none" stroke="rgb(255, 67, 67)" paint-order="fill stroke markers" d=" M 47 91 L 55 91" stroke-miterlimit="10" stroke-width="3"/><path fill="none" stroke="rgb(255, 67, 67)" paint-order="fill stroke markers" d=" M 47 47 L 55 47" stroke-miterlimit="10" stroke-width="3"/><path fill="none" stroke="rgb(255, 67, 67)" paint-order="fill stroke markers" d=" M 49 224 L 53 224" stroke-miterlimit="10"/><path fill="none" stroke="rgb(255, 67, 67)" paint-order="fill stroke markers" d=" M 49 215 L 53 215" stroke-miterlimit="10"/><path fill="none" stroke="rgb(255, 67, 67)" paint-order="fill stroke markers" d=" M 49 206 L 53 206" stroke-miterlimit="10"/><path fill="none" stroke="rgb(255, 67, 67)" paint-order="fill stroke markers" d=" M 49 197 L 53 197" stroke-miterlimit="10"/><path fill="none" stroke="rgb(255, 67, 67)" paint-order="fill stroke markers" d=" M 49 189 L 53 189" stroke-miterlimit="10"/><path fill="none" stroke="rgb(255, 67, 67)" paint-order="fill stroke markers" d=" M 49 180 L 53 180" stroke-miterlimit="10"/><path fill="none" stroke="rgb(255, 67, 67)" paint-order="fill stroke markers" d=" M 49 171 L 53 171" stroke-miterlimit="10"/><path fill="none" stroke="rgb(255, 67, 67)" paint-order="fill stroke markers" d=" M 49 162 L 53 162" stroke-miterlimit="10"/><path fill="none" stroke="rgb(255, 67, 67)" paint-order="fill stroke markers" d=" M 49 153 L 53 153" stroke-miterlimit="10"/><path fill="none" stroke="rgb(255, 67, 67)" paint-order="fill stroke markers" d=" M 49 144 L 53 144" stroke-miterlimit="10"/><path fill="none" stroke="rgb(255, 67, 67)" paint-order="fill stroke markers" d=" M 49 136 L 53 136" stroke-miterlimit="10"/><path fill="none" stroke="rgb(255, 67, 67)" paint-order="fill stroke markers" d=" M 49 127 L 53 127" stroke-miterlimit="10"/><path fill="none" stroke="rgb(255, 67, 67)" paint-order="fill stroke markers" d=" M 49 118 L 53 118" stroke-miterlimit="10"/><path fill="none" stroke="rgb(255, 67, 67)" paint-order="fill stroke markers" d=" M 49 109 L 53 109" stroke-miterlimit="10"/><path fill="none" stroke="rgb(255, 67, 67)" paint-order="fill stroke markers" d=" M 49 100 L 53 100" stroke-miterlimit="10"/><path fill="none" stroke="rgb(255, 67, 67)" paint-order="fill stroke markers" d=" M 49 91 L 53 91" stroke-miterlimit="10"/><path fill="none" stroke="rgb(255, 67, 67)" paint-order="fill stroke markers" d=" M 49 83 L 53 83" stroke-miterlimit="10"/><path fill="none" stroke="rgb(255, 67, 67)" paint-order="fill stroke markers" d=" M 49 74 L 53 74" stroke-miterlimit="10"/><path fill="none" stroke="rgb(255, 67, 67)" paint-order="fill stroke markers" d=" M 49 65 L 53 65" stroke-miterlimit="10"/><path fill="none" stroke="rgb(255, 67, 67)" paint-order="fill stroke markers" d=" M 49 56 L 53 56" stroke-miterlimit="10"/><path fill="none" stroke="rgb(255, 67, 67)" paint-order="fill stroke markers" d=" M 49 47 L 53 47" stroke-miterlimit="10"/><path fill="none" stroke="rgb(255, 67, 67)" paint-order="fill stroke markers" d=" M 49 38 L 53 38" stroke-miterlimit="10"/><path fill="none" stroke="rgb(255, 67, 67)" paint-order="fill stroke markers" d=" M 49 30 L 53 30" stroke-miterlimit="10"/><path fill="none" stroke="rgb(255, 67, 67)" paint-order="fill stroke markers" d=" M 49 21 L 53 21" stroke-miterlimit="10"/><path fill="" stroke="rgb(255, 67, 67)" paint-order="fill stroke markers" d=" M 49 12 L 53 12" stroke-miterlimit="10"/><g transform="translate(42,224) rotate(0,0,0)"><text fill="" stroke="none" font-family="helvetica" font-size="8pt" font-style="normal" font-weight="normal" text-decoration="normal" x="0" y="0" text-anchor="end" dominant-baseline="central">300</text><g transform="rotate(0,0,0) translate(-42,-224) translate(42,180) rotate(0,0,0)"><text fill="" stroke="none" font-family="helvetica" font-size="8pt" font-style="normal" font-weight="normal" text-decoration="normal" x="0" y="0" text-anchor="end" dominant-baseline="central">400</text><g transform="rotate(0,0,0) translate(-42,-180) translate(42,136) rotate(0,0,0)"><text fill="" stroke="none" font-family="helvetica" font-size="8pt" font-style="normal" font-weight="normal" text-decoration="normal" x="0" y="0" text-anchor="end" dominant-baseline="central">500</text><g transform="rotate(0,0,0) translate(-42,-136) translate(42,91) rotate(0,0,0)"><text fill="" stroke="none" font-family="helvetica" font-size="8pt" font-style="normal" font-weight="normal" text-decoration="normal" x="0" y="0" text-anchor="end" dominant-baseline="central">600</text><g transform="rotate(0,0,0) translate(-42,-91) translate(42,47) rotate(0,0,0)"><text fill="" stroke="none" font-family="helvetica" font-size="8pt" font-style="normal" font-weight="normal" text-decoration="normal" x="0" y="0" text-anchor="end" dominant-baseline="central">700</text><g transform="rotate(0,0,0) translate(-42,-47) translate(17,116) rotate(-90,0,0)"><text fill="" stroke="none" font-family="ADAM CG PRO" font-size="12pt" font-style="normal" font-weight="normal" text-decoration="normal" x="0" y="0" text-anchor="middle" dominant-baseline="alphabetic">1000·ppm</text><g transform="rotate(90,0,0) translate(-17,-116)"/></g></g></g></g></g></g></g></g></g></g></svg>