<svg version="1.1" xmlns="http://www.w3.org/2000/svg" xmlns:xlink="http://www.w3.org/1999/xlink" width="900" height="250" style="width: 900px; height: 250px;"><defs/><g><g transform="scale(1,1) translate(0.5,0.5)"><rect fill="#FFFFFF" stroke="none" x="0" y="0" width="900" height="250"/><rect fill="#ffffff" stroke="none" x="0" y="0" width="900" height="250"/><rect fill="#FFFFFF" stroke="none" x="53" y="5" width="842" height="199"/><rect fill="white" stroke="none" x="53" y="5" width="842" height="199"/><g><rect fill="none" stroke="rgb(0, 131, 255)" x="53" y="5" width="842" height="199" stroke-miterlimit="10" stroke-width="7" stroke-opacity="0.5"/></g><g><g><path fill="none" stroke="rgb(0, 131, 255)" paint-order="fill stroke markers" d=" M 790 204 L 790 5" stroke-miterlimit="10" stroke-opacity="0"/><path fill="none" stroke="rgb(0, 131, 255)" paint-order="fill stroke markers" d=" M 685 204 L 685 5" stroke-miterlimit="10" stroke-opacity="0"/><path fill="none" stroke="rgb(0, 131, 255)" paint-order="fill stroke markers" d=" M 579 204 L 579 5" stroke-miterlimit="10" stroke-opacity="0"/><path fill="none" stroke="rgb(0, 131, 255)" paint-order="fill stroke markers" d=" M 474 204 L 474 5" stroke-miterlimit="10" stroke-opacity="0"/><path fill="none" stroke="rgb(0, 131, 255)" paint-order="fill stroke markers" d=" M 369 204 L 369 5" stroke-miterlimit="10" stroke-opacity="0"/><path fill="none" stroke="rgb(0, 131, 255)" paint-order="fill stroke markers" d=" M 264 204 L 264 5" stroke-miterlimit="10" stroke-opacity="0"/><path fill="none" stroke="rgb(0, 131, 255)" paint-order="fill stroke markers" d=" M 158 204 L 158 5" stroke-miterlimit="10" stroke-opacity="0"/></g><g><path fill="none" stroke="rgb(0, 131, 255)" paint-order="fill stroke markers" d=" M 895 200 L 53 200" stroke-miterlimit="10" stroke-opacity="0.25"/><path fill="none" stroke="rgb(0, 131, 255)" paint-order="fill stroke markers" d=" M 895 171 L 53 171" stroke-miterlimit="10" stroke-opacity="0.25"/><path fill="none" stroke="rgb(0, 131, 255)" paint-order="fill stroke markers" d=" M 895 143 L 53 143" stroke-miterlimit="10" stroke-opacity="0.25"/><path fill="none" stroke="rgb(0, 131, 255)" paint-order="fill stroke markers" d=" M 895 114 L 53 114" stroke-miterlimit="10" stroke-opacity="0.25"/><path fill="none" stroke="rgb(0, 131, 255)" paint-order="fill stroke markers" d=" M 895 85 L 53 85" stroke-miterlimit="10" stroke-opacity="0.25"/><path fill="none" stroke="rgb(0, 131, 255)" paint-order="fill stroke markers" d=" M 895 56 L 53 56" stroke-miterlimit="10" stroke-opacity="0.25"/><path fill="none" stroke="rgb(0, 131, 255)" paint-order="fill stroke markers" d=" M 895 27 L 53 27" stroke-miterlimit="10" stroke-opacity="0.25"/></g><g><path fill="none" stroke="none"/><path fill="none" stroke="rgb(0, 28, 100)" paint-order="fill stroke markers" d=" M 53 135.4318049147795 L 55.104999999999905 139.884034758869 L 57.20999999999992 141.8419763992399 L 59.31499999999994 141.10286787567486 L 61.41999999999996 138.20321171027012 L 63.52499999999998 133.35233678186967 L 65.63 127.25490949522577 L 67.73500000000001 120.55805959898021 L 69.83999999999992 113.98519301614613 L 71.94499999999994 108.03899140995418 L 74.04999999999995 103.33202499505069 L 76.15499999999997 100.06403016720094 L 78.25999999999999 98.2557266437426 L 80.36500000000001 97.84003910439253 L 82.46999999999991 98.40692624247708 L 84.57499999999993 99.4642104004513 L 86.67999999999995 100.58624683799201 L 88.78499999999997 101.1796161911717 L 90.88999999999999 100.84268200010774 L 92.995 99.37310314756132 L 95.09999999999991 96.57247591779867 L 97.20499999999993 92.5955663622317 L 99.30999999999995 87.66800335685764 L 101.41499999999996 82.24494983309728 L 103.51999999999998 76.7488798105785 L 105.625 71.87533771060964 L 107.73000000000002 68.00525455022785 L 109.83499999999992 65.6767071967796 L 111.93999999999994 65.10806897567511 L 114.04499999999996 66.4736622995265 L 116.14999999999998 69.52781753187833 L 118.255 74.18307327796867 L 120.36000000000001 79.73041551967265 L 122.46499999999992 85.85928090980156 L 124.56999999999994 91.79615657195063 L 126.67499999999995 97.1170788559433 L 128.77999999999997 101.27854859713966 L 130.885 104.08511770038012 L 132.99 105.35474564421781 L 135.0949999999999 105.22441178135068 L 137.19999999999993 104.01130995023266 L 139.30499999999995 102.1762966925628 L 141.40999999999997 100.25555303067438 L 143.515 98.9780942819475 L 145.62 98.80838642989715 L 147.7249999999999 100.28499615315434 L 149.82999999999993 103.59322314360998 L 151.93499999999995 108.76762872716404 L 154.03999999999996 115.42357449862914 L 156.14499999999998 123.16123343066181 L 158.25 131.07684199901553 L 160.35500000000002 138.46539869195476 L 162.45999999999992 144.31162273307893 L 164.56499999999994 147.97331777501108 L 166.66999999999996 148.63368732578 L 168.77499999999998 146.04099233986085 L 170.88 139.89792219161836 L 172.985 130.4312287433545 L 175.08999999999992 118.03228905509081 L 177.19499999999994 103.41423746021576 L 179.29999999999995 87.53625710248673 L 181.40499999999997 71.44389857639283 L 183.51 56.47117248832649 L 185.615 43.60251069483661 L 187.7199999999999 34.02050418071224 L 189.82499999999993 28.48252859217166 L 191.92999999999995 27.425835252118986 L 194.03499999999997 30.940951040817936 L 196.14 38.869254125219186 L 198.245 50.29866556444915 L 200.35000000000002 64.56843835377686 L 202.45499999999993 80.36627833405726 L 204.55999999999995 96.46290463386049 L 206.66499999999996 111.75046587183976 L 208.76999999999998 125.05026123767925 L 210.875 135.43353140604177 L 212.98000000000002 142.32638588848477 L 215.08499999999992 145.3023670227418 L 217.18999999999994 144.24438692465662 L 219.29499999999996 139.52447318740406 L 221.39999999999998 131.59193224754563 L 223.505 121.1966301879147 L 225.61 109.55595686978927 L 227.71499999999992 97.63318905825179 L 229.81999999999994 86.69311491475264 L 231.92499999999995 77.9074850939428 L 234.02999999999997 72.09354056746918 L 236.135 69.83274215241738 L 238.24 71.4951966888932 L 240.3449999999999 76.68776392263624 L 242.44999999999993 84.98237520688951 L 244.55499999999995 95.49155660627173 L 246.65999999999997 107.11565842220284 L 248.765 118.65056683524563 L 250.87 129.1152727400996 L 252.97500000000002 137.35065860380075 L 255.07999999999993 142.5981841930767 L 257.18499999999995 144.4330822666078 L 259.28999999999996 142.41784089551504 L 261.395 136.6879403177037 L 263.5 127.64361448609839 L 265.605 115.69403381659265 L 267.7099999999999 101.8142469667215 L 269.81499999999994 86.98396138841576 L 271.91999999999996 72.25707559144041 L 274.025 58.73800830315986 L 276.13 47.62096481838239 L 278.235 39.541673540919305 L 280.3399999999999 35.23974218683486 L 282.44499999999994 35.03317458538629 L 284.54999999999995 38.73235424460495 L 286.655 46.02174290535004 L 288.76 56.40747569580208 L 290.865 68.73951209193262 L 292.97 82.32219345255328 L 295.07499999999993 96.20711361612678 L 297.17999999999995 109.25260910970655 L 299.28499999999997 120.98672192010974 L 301.39 130.7216478519356 L 303.495 137.94963620056728 L 305.6 142.6829268906107 L 307.7049999999999 144.8566113959895 L 309.80999999999995 144.51234191666913 L 311.91499999999996 142.10308904557235 L 314.02 138.024522349447 L 316.125 132.4560151695905 L 318.23 126.19093603963654 L 320.3349999999999 119.42132188015466 L 322.43999999999994 112.51898233139138 L 324.54499999999996 105.93433973468109 L 326.65 99.85074992505008 L 328.755 94.29265712759752 L 330.86 89.71823513379411 L 332.9649999999999 85.97785094225696 L 335.06999999999994 83.16494483404347 L 337.17499999999995 81.53924779612782 L 339.28 80.97373003473695 L 341.385 81.48577971491568 L 343.49 83.19238320553507 L 345.595 85.94384266397867 L 347.69999999999993 89.39901532830538 L 349.80499999999995 93.71292742243054 L 351.90999999999997 98.14011444857806 L 354.015 102.4585723100497 L 356.12 106.27668534850989 L 358.225 108.99686697927416 L 360.3299999999999 110.13864765910819 L 362.43499999999995 109.59284374952904 L 364.53999999999996 106.78041104235683 L 366.645 101.81708481566318 L 368.75 94.83339316164506 L 370.855 86.03146727019009 L 372.9599999999999 75.99295366054946 L 375.06499999999994 65.6547498373402 L 377.16999999999996 55.711782296796514 L 379.275 47.31892026378023 L 381.38 41.62621735402672 L 383.48499999999996 39.4227309849706 L 385.59 41.42462896810764 L 387.695 48.28881300347814 L 389.79999999999995 59.55734891462157 L 391.905 75.0663732645038 L 394.01 93.81847025547745 L 396.11499999999995 114.41071897022994 L 398.21999999999997 135.37931350942824 L 400.325 155.3052048129382 L 402.42999999999995 172.26984814894968 L 404.53499999999997 185.22627194557583 L 406.64 193.0810737846432 L 408.745 194.9545454545455 L 410.84999999999997 190.728067927972 L 412.955 180.6265044125687 L 415.06 164.8781414572918 L 417.16499999999996 144.8625287081628 L 419.27 121.79900958303858 L 421.375 97.18965763071697 L 423.47999999999996 73.13828781375912 L 425.585 51.367059561366204 L 427.69 33.3868926450109 L 429.79499999999996 20.812350664400697 L 431.9 14.305695870762065 L 434.005 14.045454545454618 L 436.10999999999996 19.99860125013538 L 438.215 31.147594134931637 L 440.32 46.20902792078857 L 442.42499999999995 63.871830203223794 L 444.53 82.4442053391432 L 446.635 100.17656698771009 L 448.73999999999995 116.06064613811361 L 450.84499999999997 128.57117121192198 L 452.95 137.04857324441866 L 455.055 141.02103894537026 L 457.15999999999997 140.29844054328635 L 459.265 134.9639609822292 L 461.37 125.8652901051662 L 463.47499999999997 113.51606523070961 L 465.58 99.22597253011543 L 467.685 84.28964326064761 L 469.78999999999996 70.12035890549157 L 471.895 58.00078418442786 L 474 49.42928419939733 L 476.10499999999996 45.12973962968647 L 478.21 45.7183604893994 L 480.315 51.466984375383845 L 482.41999999999996 61.78114778102224 L 484.525 75.8917650160264 L 486.63 92.83156348278749 L 488.73499999999996 110.9602956825787 L 490.84 128.9921101722582 L 492.945 145.55347996542378 L 495.04999999999995 159.35934052734854 L 497.155 169.37792894933546 L 499.26 175.2022278769531 L 501.365 176.09090453911188 L 503.46999999999997 172.27885578264113 L 505.575 163.98702326843545 L 507.68 151.67600844160802 L 509.78499999999997 136.19156833041689 L 511.89 118.75563464641391 L 513.995 100.18130708608908 L 516.0999999999999 82.02081800691849 L 518.2049999999999 65.39061200833237 L 520.31 51.19132661562435 L 522.415 40.518727085142814 L 524.52 33.78883654436936 L 526.625 31.204505079699516 L 528.73 32.709147536428645 L 530.835 37.97192420759029 L 532.94 46.11009926565316 L 535.045 56.58714929026746 L 537.15 68.35202651914244 L 539.255 80.52319250644928 L 541.3599999999999 92.35315955928115 L 543.4649999999999 103.16031624441939 L 545.5699999999999 112.23976127725871 L 547.675 119.45188286992754 L 549.78 124.42909104216142 L 551.885 127.11326485005111 L 553.99 127.69314053177106 L 556.095 126.28018110466508 L 558.2 123.14707547579098 L 560.3050000000001 118.73601291327441 L 562.41 113.37230441857764 L 564.515 107.47538158760187 L 566.62 101.53714548535106 L 568.7249999999999 95.96577123867121 L 570.8299999999999 91.05815785881134 L 572.935 87.36226919103501 L 575.04 85.01730942713573 L 577.145 84.32027710340196 L 579.25 85.43248551488648 L 581.355 88.34891200450136 L 583.46 92.94137121538358 L 585.565 99.07727547230627 L 587.67 106.29092672531692 L 589.775 114.14499797851806 L 591.88 122.06444909950221 L 593.985 129.43002188524883 L 596.0899999999999 135.49348985058396 L 598.1949999999999 139.75843464725926 L 600.3 141.5830421112638 L 602.405 140.52740739017565 L 604.51 136.40057341490285 L 606.615 129.05249189782307 L 608.72 118.61998615638356 L 610.825 105.62276983116385 L 612.9300000000001 90.50549999570683 L 615.035 74.29381761737727 L 617.14 57.979661532551404 L 619.245 42.77677696708554 L 621.3499999999999 29.88819107009408 L 623.4549999999999 20.566860538010246 L 625.56 15.682090305453244 L 627.665 15.968009749323642 L 629.77 21.727172997422258 L 631.875 32.67235362075803 L 633.98 48.25046883562038 L 636.085 67.38580434495645 L 638.19 88.67714127842237 L 640.295 110.6196727059438 L 642.4 131.61710475289613 L 644.505 150.14639055037537 L 646.61 164.9947135239604 L 648.7149999999999 175.13602941771876 L 650.8199999999999 179.96349232401644 L 652.925 179.2807918920132 L 655.03 173.17701012401585 L 657.135 162.3295941648015 L 659.24 147.5232253856567 L 661.345 130.13732279788894 L 663.45 111.5306635781501 L 665.555 93.3453281089071 L 667.66 77.02318212302873 L 669.765 63.99484851807779 L 671.87 55.10753899472786 L 673.975 50.97214376331942 L 676.0799999999999 51.64331350502914 L 678.185 56.578295024787394 L 680.29 65.08112031710425 L 682.395 76.01048565247265 L 684.5 88.04349666885832 L 686.605 100.0236468182834 L 688.71 110.80627767217072 L 690.815 119.25055031929617 L 692.92 124.9247725538794 L 695.025 127.13103215679212 L 697.13 125.87918761396486 L 699.235 121.25753872457062 L 701.34 113.6880952705501 L 703.4449999999999 103.72657627066224 L 705.55 92.33068796866019 L 707.655 80.30454274241629 L 709.76 68.72831081872619 L 711.865 58.57367798289192 L 713.97 50.727509609326376 L 716.075 45.811509528902434 L 718.18 44.44131875012158 L 720.285 46.63276505601402 L 722.39 52.362158857994814 L 724.495 61.24887855906127 L 726.6 72.66981591322815 L 728.7049999999999 85.77752022384345 L 730.81 99.84569998498193 L 732.915 113.80234758361757 L 735.02 126.91336784494138 L 737.125 138.36332950257713 L 739.23 147.60262451846438 L 741.335 154.0561621000869 L 743.44 157.70255593080583 L 745.545 158.2278541329639 L 747.65 155.88788633611136 L 749.755 150.96910851263317 L 751.86 143.82624614532529 L 753.965 134.96885372761164 L 756.0699999999999 125.17292298879966 L 758.175 114.80071952010348 L 760.28 104.67576145702321 L 762.385 95.27782822140159 L 764.49 87.00568867271318 L 766.595 80.18120149026333 L 768.7 75.11518989591832 L 770.805 71.63513748526566 L 772.91 69.76286913750687 L 775.015 69.41917170123713 L 777.12 70.08820649032884 L 779.225 71.71078783823612 L 781.33 73.95792621349756 L 783.435 76.41026296327311 L 785.54 78.96961278920321 L 787.645 81.53673179911868 L 789.75 83.64178622497866 L 791.855 85.62438982882509 L 793.96 87.17473746598273 L 796.065 88.34815458793105 L 798.17 89.1792376971481 L 800.275 89.81654112789363 L 802.38 90.02243176061654 L 804.485 90.18997857326474 L 806.59 90.19807237512043 L 808.6949999999999 90.10383214852345 L 810.8 90.13264911440388 L 812.905 90.36333601434171 L 815.01 90.76489890963308 L 817.115 91.7624113786087 L 819.22 93.29015130402149 L 821.325 95.4880112017629 L 823.43 98.60385681881189 L 825.535 102.56803522471728 L 827.64 107.28092116843379 L 829.745 112.86185779528068 L 831.85 118.86827195630372 L 833.955 125.05057522935533 L 836.06 131.07988678317804 L 838.165 136.50103123248834 L 840.27 140.6385846003376 L 842.375 143.44191544537296 L 844.48 144.12778476690096 L 846.585 142.6140958392299 L 848.69 138.7817521820715 L 850.795 132.5343780455422 L 852.9 124.03960754500315 L 855.005 113.87435532583777 L 857.11 102.30183408123753 L 859.215 90.10761517268998 L 861.32 78.1448365735937 L 863.425 67.0095064773376 L 865.53 57.556907558599505 L 867.635 50.513055231552926 L 869.74 46.22352095542601 L 871.845 44.92012003752234 L 873.95 46.907143573649705 L 876.055 51.520183597069035 L 878.16 58.57546467558586 L 880.265 67.44836215605426 L 882.37 77.17975859941316 L 884.475 87.11744067102029 L 886.58 96.63113619206399 L 888.685 104.76622519003706 L 890.79 111.31072686174105 L 892.895 115.92758435997064 L 895 118.33338696376893 L 897.105 118.82806981906629 L 899.21 117.72143040675417 L 901.315 115.18567031900568 L 903.42 112.02700763839084 L 905.525 108.7357585289883 L 907.63 105.65050519997044 L 909.735 103.47553441418393 L 911.84 102.41728523286065 L 913.945 102.42487033310329 L 916.05 103.73088626503818 L 918.155 105.92515317601965 L 920.26 108.62264490296388 L 922.365 111.52787179255893 L 924.47 114.12716084520798 L 926.575 115.88213666114677 L 928.68 116.69388836593726 L 930.785 116.21427820368581 L 932.89 114.32248201172479 L 934.995 111.29520062757297 L 937.1 107.26176598430175 L 939.205 102.37179486869798 L 941.31 97.3748340433948 L 943.415 92.38985287243452 L 945.52 87.85055558872557 L 947.625 84.24312353309153 L 949.73 81.62490745973764 L 951.835 80.06613601625054 L 953.94 79.79098468682196 L 956.045 80.38399803585594 L 958.15 81.72521808175907 L 960.255 83.64680995142078" stroke-miterlimit="10" stroke-width="3" stroke-opacity="0.7"/></g></g><g><g/><g><path fill="#ffffff" stroke="#e5e5e5" paint-order="fill stroke markers" d=" M 63 15 L 165 15 L 165 55 L 63 55 L 63 15 Z" fill-opacity="0.95" stroke-miterlimit="10" stroke-opacity="0.5"/><text fill="#444444" stroke="none" font-family="ADAM CG PRO" font-size="10pt" font-style="normal" font-weight="normal" text-decoration="normal" x="98" y="35" text-anchor="start" dominant-baseline="central">Insolación</text><g><path fill="none" stroke="rgb(0, 28, 100)" paint-order="fill stroke markers" d=" M 73 35 L 93 35" stroke-miterlimit="10" stroke-width="3" stroke-opacity="0.7"/></g></g></g><g><g fill="#444444"><path fill="none" stroke="black" paint-order="fill stroke markers" d=" M 895 204 L 53 204" stroke-miterlimit="10"/><path fill="none" stroke="rgb(255, 67, 67)" paint-order="fill stroke markers" d=" M 895 210 L 895 202" stroke-miterlimit="10" stroke-width="3"/><path fill="none" stroke="rgb(255, 67, 67)" paint-order="fill stroke markers" d=" M 790 210 L 790 202" stroke-miterlimit="10" stroke-width="3"/><path fill="none" stroke="rgb(255, 67, 67)" paint-order="fill stroke markers" d=" M 685 210 L 685 202" stroke-miterlimit="10" stroke-width="3"/><path fill="none" stroke="rgb(255, 67, 67)" paint-order="fill stroke markers" d=" M 579 210 L 579 202" stroke-miterlimit="10" stroke-width="3"/><path fill="none" stroke="rgb(255, 67, 67)" paint-order="fill stroke markers" d=" M 474 210 L 474 202" stroke-miterlimit="10" stroke-width="3"/><path fill="none" stroke="rgb(255, 67, 67)" paint-order="fill stroke markers" d=" M 369 210 L 369 202" stroke-miterlimit="10" stroke-width="3"/><path fill="none" stroke="rgb(255, 67, 67)" paint-order="fill stroke markers" d=" M 264 210 L 264 202" stroke-miterlimit="10" stroke-width="3"/><path fill="none" stroke="rgb(255, 67, 67)" paint-order="fill stroke markers" d=" M 158 210 L 158 202" stroke-miterlimit="10" stroke-width="3"/><path fill="none" stroke="rgb(255, 67, 67)" paint-order="fill stroke markers" d=" M 53 210 L 53 202" stroke-miterlimit="10" stroke-width="3"/><path fill="none" stroke="rgb(255, 67, 67)" paint-order="fill stroke markers" d=" M 895 208 L 895 204" stroke-miterlimit="10"/><path fill="none" stroke="rgb(255, 67, 67)" paint-order="fill stroke markers" d=" M 874 208 L 874 204" stroke-miterlimit="10"/><path fill="none" stroke="rgb(255, 67, 67)" paint-order="fill stroke markers" d=" M 853 208 L 853 204" stroke-miterlimit="10"/><path fill="none" stroke="rgb(255, 67, 67)" paint-order="fill stroke markers" d=" M 832 208 L 832 204" stroke-miterlimit="10"/><path fill="none" stroke="rgb(255, 67, 67)" paint-order="fill stroke markers" d=" M 811 208 L 811 204" stroke-miterlimit="10"/><path fill="none" stroke="rgb(255, 67, 67)" paint-order="fill stroke markers" d=" M 790 208 L 790 204" stroke-miterlimit="10"/><path fill="none" stroke="rgb(255, 67, 67)" paint-order="fill stroke markers" d=" M 769 208 L 769 204" stroke-miterlimit="10"/><path fill="none" stroke="rgb(255, 67, 67)" paint-order="fill stroke markers" d=" M 748 208 L 748 204" stroke-miterlimit="10"/><path fill="none" stroke="rgb(255, 67, 67)" paint-order="fill stroke markers" d=" M 727 208 L 727 204" stroke-miterlimit="10"/><path fill="none" stroke="rgb(255, 67, 67)" paint-order="fill stroke markers" d=" M 706 208 L 706 204" stroke-miterlimit="10"/><path fill="none" stroke="rgb(255, 67, 67)" paint-order="fill stroke markers" d=" M 685 208 L 685 204" stroke-miterlimit="10"/><path fill="none" stroke="rgb(255, 67, 67)" paint-order="fill stroke markers" d=" M 663 208 L 663 204" stroke-miterlimit="10"/><path fill="none" stroke="rgb(255, 67, 67)" paint-order="fill stroke markers" d=" M 642 208 L 642 204" stroke-miterlimit="10"/><path fill="none" stroke="rgb(255, 67, 67)" paint-order="fill stroke markers" d=" M 621 208 L 621 204" stroke-miterlimit="10"/><path fill="none" stroke="rgb(255, 67, 67)" paint-order="fill stroke markers" d=" M 600 208 L 600 204" stroke-miterlimit="10"/><path fill="none" stroke="rgb(255, 67, 67)" paint-order="fill stroke markers" d=" M 579 208 L 579 204" stroke-miterlimit="10"/><path fill="none" stroke="rgb(255, 67, 67)" paint-order="fill stroke markers" d=" M 558 208 L 558 204" stroke-miterlimit="10"/><path fill="none" stroke="rgb(255, 67, 67)" paint-order="fill stroke markers" d=" M 537 208 L 537 204" stroke-miterlimit="10"/><path fill="none" stroke="rgb(255, 67, 67)" paint-order="fill stroke markers" d=" M 516 208 L 516 204" stroke-miterlimit="10"/><path fill="none" stroke="rgb(255, 67, 67)" paint-order="fill stroke markers" d=" M 495 208 L 495 204" stroke-miterlimit="10"/><path fill="none" stroke="rgb(255, 67, 67)" paint-order="fill stroke markers" d=" M 474 208 L 474 204" stroke-miterlimit="10"/><path fill="none" stroke="rgb(255, 67, 67)" paint-order="fill stroke markers" d=" M 453 208 L 453 204" stroke-miterlimit="10"/><path fill="none" stroke="rgb(255, 67, 67)" paint-order="fill stroke markers" d=" M 432 208 L 432 204" stroke-miterlimit="10"/><path fill="none" stroke="rgb(255, 67, 67)" paint-order="fill stroke markers" d=" M 411 208 L 411 204" stroke-miterlimit="10"/><path fill="none" stroke="rgb(255, 67, 67)" paint-order="fill stroke markers" d=" M 390 208 L 390 204" stroke-miterlimit="10"/><path fill="none" stroke="rgb(255, 67, 67)" paint-order="fill stroke markers" d=" M 369 208 L 369 204" stroke-miterlimit="10"/><path fill="none" stroke="rgb(255, 67, 67)" paint-order="fill stroke markers" d=" M 348 208 L 348 204" stroke-miterlimit="10"/><path fill="none" stroke="rgb(255, 67, 67)" paint-order="fill stroke markers" d=" M 327 208 L 327 204" stroke-miterlimit="10"/><path fill="none" stroke="rgb(255, 67, 67)" paint-order="fill stroke markers" d=" M 306 208 L 306 204" stroke-miterlimit="10"/><path fill="none" stroke="rgb(255, 67, 67)" paint-order="fill stroke markers" d=" M 285 208 L 285 204" stroke-miterlimit="10"/><path fill="none" stroke="rgb(255, 67, 67)" paint-order="fill stroke markers" d=" M 264 208 L 264 204" stroke-miterlimit="10"/><path fill="none" stroke="rgb(255, 67, 67)" paint-order="fill stroke markers" d=" M 242 208 L 242 204" stroke-miterlimit="10"/><path fill="none" stroke="rgb(255, 67, 67)" paint-order="fill stroke markers" d=" M 221 208 L 221 204" stroke-miterlimit="10"/><path fill="none" stroke="rgb(255, 67, 67)" paint-order="fill stroke markers" d=" M 200 208 L 200 204" stroke-miterlimit="10"/><path fill="none" stroke="rgb(255, 67, 67)" paint-order="fill stroke markers" d=" M 179 208 L 179 204" stroke-miterlimit="10"/><path fill="none" stroke="rgb(255, 67, 67)" paint-order="fill stroke markers" d=" M 158 208 L 158 204" stroke-miterlimit="10"/><path fill="none" stroke="rgb(255, 67, 67)" paint-order="fill stroke markers" d=" M 137 208 L 137 204" stroke-miterlimit="10"/><path fill="none" stroke="rgb(255, 67, 67)" paint-order="fill stroke markers" d=" M 116 208 L 116 204" stroke-miterlimit="10"/><path fill="none" stroke="rgb(255, 67, 67)" paint-order="fill stroke markers" d=" M 95 208 L 95 204" stroke-miterlimit="10"/><path fill="none" stroke="rgb(255, 67, 67)" paint-order="fill stroke markers" d=" M 74 208 L 74 204" stroke-miterlimit="10"/><path fill="" stroke="rgb(255, 67, 67)" paint-order="fill stroke markers" d=" M 53 208 L 53 204" stroke-miterlimit="10"/><g transform="translate(895,215) rotate(0,0,0)"><text fill="" stroke="none" font-family="helvetica" font-size="8pt" font-style="normal" font-weight="normal" text-decoration="normal" x="0" y="0" text-anchor="middle" dominant-baseline="hanging">0</text><g transform="rotate(0,0,0) translate(-895,-215) translate(790,215) rotate(0,0,0)"><text fill="" stroke="none" font-family="helvetica" font-size="8pt" font-style="normal" font-weight="normal" text-decoration="normal" x="0" y="0" text-anchor="middle" dominant-baseline="hanging">50,000</text><g transform="rotate(0,0,0) translate(-790,-215) translate(685,215) rotate(0,0,0)"><text fill="" stroke="none" font-family="helvetica" font-size="8pt" font-style="normal" font-weight="normal" text-decoration="normal" x="0" y="0" text-anchor="middle" dominant-baseline="hanging">100,000</text><g transform="rotate(0,0,0) translate(-685,-215) translate(579,215) rotate(0,0,0)"><text fill="" stroke="none" font-family="helvetica" font-size="8pt" font-style="normal" font-weight="normal" text-decoration="normal" x="0" y="0" text-anchor="middle" dominant-baseline="hanging">150,000</text><g transform="rotate(0,0,0) translate(-579,-215) translate(474,215) rotate(0,0,0)"><text fill="" stroke="none" font-family="helvetica" font-size="8pt" font-style="normal" font-weight="normal" text-decoration="normal" x="0" y="0" text-anchor="middle" dominant-baseline="hanging">200,000</text><g transform="rotate(0,0,0) translate(-474,-215) translate(369,215) rotate(0,0,0)"><text fill="" stroke="none" font-family="helvetica" font-size="8pt" font-style="normal" font-weight="normal" text-decoration="normal" x="0" y="0" text-anchor="middle" dominant-baseline="hanging">250,000</text><g transform="rotate(0,0,0) translate(-369,-215) translate(264,215) rotate(0,0,0)"><text fill="" stroke="none" font-family="helvetica" font-size="8pt" font-style="normal" font-weight="normal" text-decoration="normal" x="0" y="0" text-anchor="middle" dominant-baseline="hanging">300,000</text><g transform="rotate(0,0,0) translate(-264,-215) translate(158,215) rotate(0,0,0)"><text fill="" stroke="none" font-family="helvetica" font-size="8pt" font-style="normal" font-weight="normal" text-decoration="normal" x="0" y="0" text-anchor="middle" dominant-baseline="hanging">350,000</text><g transform="rotate(0,0,0) translate(-158,-215) translate(53,215) rotate(0,0,0)"><text fill="" stroke="none" font-family="helvetica" font-size="8pt" font-style="normal" font-weight="normal" text-decoration="normal" x="0" y="0" text-anchor="middle" dominant-baseline="hanging">400,000</text><g transform="rotate(0,0,0) translate(-53,-215) translate(474,233) rotate(0,0,0)"><text fill="" stroke="none" font-family="ADAM CG PRO" font-size="12pt" font-style="normal" font-weight="normal" text-decoration="normal" x="0" y="0" text-anchor="middle" dominant-baseline="hanging">Años antes de la actualidad</text><g transform="rotate(0,0,0) translate(-474,-233)"/></g></g></g></g></g></g></g></g></g></g></g><g fill="#444444"><path fill="none" stroke="black" paint-order="fill stroke markers" d=" M 53 204 L 53 5" stroke-miterlimit="10"/><path fill="none" stroke="rgb(255, 67, 67)" paint-order="fill stroke markers" d=" M 47 200 L 55 200" stroke-miterlimit="10" stroke-width="3"/><path fill="none" stroke="rgb(255, 67, 67)" paint-order="fill stroke markers" d=" M 47 171 L 55 171" stroke-miterlimit="10" stroke-width="3"/><path fill="none" stroke="rgb(255, 67, 67)" paint-order="fill stroke markers" d=" M 47 143 L 55 143" stroke-miterlimit="10" stroke-width="3"/><path fill="none" stroke="rgb(255, 67, 67)" paint-order="fill stroke markers" d=" M 47 114 L 55 114" stroke-miterlimit="10" stroke-width="3"/><path fill="none" stroke="rgb(255, 67, 67)" paint-order="fill stroke markers" d=" M 47 85 L 55 85" stroke-miterlimit="10" stroke-width="3"/><path fill="none" stroke="rgb(255, 67, 67)" paint-order="fill stroke markers" d=" M 47 56 L 55 56" stroke-miterlimit="10" stroke-width="3"/><path fill="none" stroke="rgb(255, 67, 67)" paint-order="fill stroke markers" d=" M 47 27 L 55 27" stroke-miterlimit="10" stroke-width="3"/><path fill="none" stroke="rgb(255, 67, 67)" paint-order="fill stroke markers" d=" M 49 200 L 53 200" stroke-miterlimit="10"/><path fill="none" stroke="rgb(255, 67, 67)" paint-order="fill stroke markers" d=" M 49 195 L 53 195" stroke-miterlimit="10"/><path fill="none" stroke="rgb(255, 67, 67)" paint-order="fill stroke markers" d=" M 49 189 L 53 189" stroke-miterlimit="10"/><path fill="none" stroke="rgb(255, 67, 67)" paint-order="fill stroke markers" d=" M 49 183 L 53 183" stroke-miterlimit="10"/><path fill="none" stroke="rgb(255, 67, 67)" paint-order="fill stroke markers" d=" M 49 177 L 53 177" stroke-miterlimit="10"/><path fill="none" stroke="rgb(255, 67, 67)" paint-order="fill stroke markers" d=" M 49 171 L 53 171" stroke-miterlimit="10"/><path fill="none" stroke="rgb(255, 67, 67)" paint-order="fill stroke markers" d=" M 49 166 L 53 166" stroke-miterlimit="10"/><path fill="none" stroke="rgb(255, 67, 67)" paint-order="fill stroke markers" d=" M 49 160 L 53 160" stroke-miterlimit="10"/><path fill="none" stroke="rgb(255, 67, 67)" paint-order="fill stroke markers" d=" M 49 154 L 53 154" stroke-miterlimit="10"/><path fill="none" stroke="rgb(255, 67, 67)" paint-order="fill stroke markers" d=" M 49 148 L 53 148" stroke-miterlimit="10"/><path fill="none" stroke="rgb(255, 67, 67)" paint-order="fill stroke markers" d=" M 49 143 L 53 143" stroke-miterlimit="10"/><path fill="none" stroke="rgb(255, 67, 67)" paint-order="fill stroke markers" d=" M 49 137 L 53 137" stroke-miterlimit="10"/><path fill="none" stroke="rgb(255, 67, 67)" paint-order="fill stroke markers" d=" M 49 131 L 53 131" stroke-miterlimit="10"/><path fill="none" stroke="rgb(255, 67, 67)" paint-order="fill stroke markers" d=" M 49 125 L 53 125" stroke-miterlimit="10"/><path fill="none" stroke="rgb(255, 67, 67)" paint-order="fill stroke markers" d=" M 49 120 L 53 120" stroke-miterlimit="10"/><path fill="none" stroke="rgb(255, 67, 67)" paint-order="fill stroke markers" d=" M 49 114 L 53 114" stroke-miterlimit="10"/><path fill="none" stroke="rgb(255, 67, 67)" paint-order="fill stroke markers" d=" M 49 108 L 53 108" stroke-miterlimit="10"/><path fill="none" stroke="rgb(255, 67, 67)" paint-order="fill stroke markers" d=" M 49 102 L 53 102" stroke-miterlimit="10"/><path fill="none" stroke="rgb(255, 67, 67)" paint-order="fill stroke markers" d=" M 49 97 L 53 97" stroke-miterlimit="10"/><path fill="none" stroke="rgb(255, 67, 67)" paint-order="fill stroke markers" d=" M 49 91 L 53 91" stroke-miterlimit="10"/><path fill="none" stroke="rgb(255, 67, 67)" paint-order="fill stroke markers" d=" M 49 85 L 53 85" stroke-miterlimit="10"/><path fill="none" stroke="rgb(255, 67, 67)" paint-order="fill stroke markers" d=" M 49 79 L 53 79" stroke-miterlimit="10"/><path fill="none" stroke="rgb(255, 67, 67)" paint-order="fill stroke markers" d=" M 49 74 L 53 74" stroke-miterlimit="10"/><path fill="none" stroke="rgb(255, 67, 67)" paint-order="fill stroke markers" d=" M 49 68 L 53 68" stroke-miterlimit="10"/><path fill="none" stroke="rgb(255, 67, 67)" paint-order="fill stroke markers" d=" M 49 62 L 53 62" stroke-miterlimit="10"/><path fill="none" stroke="rgb(255, 67, 67)" paint-order="fill stroke markers" d=" M 49 56 L 53 56" stroke-miterlimit="10"/><path fill="none" stroke="rgb(255, 67, 67)" paint-order="fill stroke markers" d=" M 49 50 L 53 50" stroke-miterlimit="10"/><path fill="none" stroke="rgb(255, 67, 67)" paint-order="fill stroke markers" d=" M 49 45 L 53 45" stroke-miterlimit="10"/><path fill="none" stroke="rgb(255, 67, 67)" paint-order="fill stroke markers" d=" M 49 39 L 53 39" stroke-miterlimit="10"/><path fill="none" stroke="rgb(255, 67, 67)" paint-order="fill stroke markers" d=" M 49 33 L 53 33" stroke-miterlimit="10"/><path fill="none" stroke="rgb(255, 67, 67)" paint-order="fill stroke markers" d=" M 49 27 L 53 27" stroke-miterlimit="10"/><path fill="none" stroke="rgb(255, 67, 67)" paint-order="fill stroke markers" d=" M 49 22 L 53 22" stroke-miterlimit="10"/><path fill="none" stroke="rgb(255, 67, 67)" paint-order="fill stroke markers" d=" M 49 16 L 53 16" stroke-miterlimit="10"/><path fill="" stroke="rgb(255, 67, 67)" paint-order="fill stroke markers" d=" M 49 10 L 53 10" stroke-miterlimit="10"/><g transform="translate(42,200) rotate(0,0,0)"><text fill="" stroke="none" font-family="helvetica" font-size="8pt" font-style="normal" font-weight="normal" text-decoration="normal" x="0" y="0" text-anchor="end" dominant-baseline="central">420</text><g transform="rotate(0,0,0) translate(-42,-200) translate(42,171) rotate(0,0,0)"><text fill="" stroke="none" font-family="helvetica" font-size="8pt" font-style="normal" font-weight="normal" text-decoration="normal" x="0" y="0" text-anchor="end" dominant-baseline="central">440</text><g transform="rotate(0,0,0) translate(-42,-171) translate(42,143) rotate(0,0,0)"><text fill="" stroke="none" font-family="helvetica" font-size="8pt" font-style="normal" font-weight="normal" text-decoration="normal" x="0" y="0" text-anchor="end" dominant-baseline="central">460</text><g transform="rotate(0,0,0) translate(-42,-143) translate(42,114) rotate(0,0,0)"><text fill="" stroke="none" font-family="helvetica" font-size="8pt" font-style="normal" font-weight="normal" text-decoration="normal" x="0" y="0" text-anchor="end" dominant-baseline="central">480</text><g transform="rotate(0,0,0) translate(-42,-114) translate(42,85) rotate(0,0,0)"><text fill="" stroke="none" font-family="helvetica" font-size="8pt" font-style="normal" font-weight="normal" text-decoration="normal" x="0" y="0" text-anchor="end" dominant-baseline="central">500</text><g transform="rotate(0,0,0) translate(-42,-85) translate(42,56) rotate(0,0,0)"><text fill="" stroke="none" font-family="helvetica" font-size="8pt" font-style="normal" font-weight="normal" text-decoration="normal" x="0" y="0" text-anchor="end" dominant-baseline="central">520</text><g transform="rotate(0,0,0) translate(-42,-56) translate(42,27) rotate(0,0,0)"><text fill="" stroke="none" font-family="helvetica" font-size="8pt" font-style="normal" font-weight="normal" text-decoration="normal" x="0" y="0" text-anchor="end" dominant-baseline="central">540</text><g transform="rotate(0,0,0) translate(-42,-27) translate(17,105) rotate(-90,0,0)"><text fill="" stroke="none" font-family="ADAM CG PRO" font-size="12pt" font-style="normal" font-weight="normal" text-decoration="normal" x="0" y="0" text-anchor="middle" dominant-baseline="alphabetic">Watt/m^2</text><g transform="rotate(90,0,0) translate(-17,-105)"/></g></g></g></g></g></g></g></g></g></g></g></g></svg>