<svg version="1.1" xmlns="http://www.w3.org/2000/svg" xmlns:xlink="http://www.w3.org/1999/xlink" width="900" height="250" style="width: 900px; height: 250px;"><defs/><g><g transform="scale(1,1) translate(0.5,0.5)"><rect fill="#FFFFFF" stroke="none" x="0" y="0" width="900" height="250"/><rect fill="#ffffff" stroke="none" x="0" y="0" width="900" height="250"/><rect fill="#FFFFFF" stroke="none" x="53" y="5" width="842" height="221"/><rect fill="white" stroke="none" x="53" y="5" width="842" height="221"/><g><rect fill="none" stroke="rgb(0, 131, 255)" x="53" y="5" width="842" height="221" stroke-miterlimit="10" stroke-width="7" stroke-opacity="0.5"/></g><g><g><path fill="none" stroke="rgb(0, 131, 255)" paint-order="fill stroke markers" d=" M 790 226 L 790 5" stroke-miterlimit="10" stroke-opacity="0"/><path fill="none" stroke="rgb(0, 131, 255)" paint-order="fill stroke markers" d=" M 685 226 L 685 5" stroke-miterlimit="10" stroke-opacity="0"/><path fill="none" stroke="rgb(0, 131, 255)" paint-order="fill stroke markers" d=" M 579 226 L 579 5" stroke-miterlimit="10" stroke-opacity="0"/><path fill="none" stroke="rgb(0, 131, 255)" paint-order="fill stroke markers" d=" M 474 226 L 474 5" stroke-miterlimit="10" stroke-opacity="0"/><path fill="none" stroke="rgb(0, 131, 255)" paint-order="fill stroke markers" d=" M 369 226 L 369 5" stroke-miterlimit="10" stroke-opacity="0"/><path fill="none" stroke="rgb(0, 131, 255)" paint-order="fill stroke markers" d=" M 264 226 L 264 5" stroke-miterlimit="10" stroke-opacity="0"/><path fill="none" stroke="rgb(0, 131, 255)" paint-order="fill stroke markers" d=" M 158 226 L 158 5" stroke-miterlimit="10" stroke-opacity="0"/></g><g><path fill="none" stroke="rgb(0, 131, 255)" paint-order="fill stroke markers" d=" M 895 220 L 53 220" stroke-miterlimit="10" stroke-opacity="0.25"/><path fill="none" stroke="rgb(0, 131, 255)" paint-order="fill stroke markers" d=" M 895 185 L 53 185" stroke-miterlimit="10" stroke-opacity="0.25"/><path fill="none" stroke="rgb(0, 131, 255)" paint-order="fill stroke markers" d=" M 895 151 L 53 151" stroke-miterlimit="10" stroke-opacity="0.25"/><path fill="none" stroke="rgb(0, 131, 255)" paint-order="fill stroke markers" d=" M 895 116 L 53 116" stroke-miterlimit="10" stroke-opacity="0.25"/><path fill="none" stroke="rgb(0, 131, 255)" paint-order="fill stroke markers" d=" M 895 82 L 53 82" stroke-miterlimit="10" stroke-opacity="0.25"/><path fill="none" stroke="rgb(0, 131, 255)" paint-order="fill stroke markers" d=" M 895 47 L 53 47" stroke-miterlimit="10" stroke-opacity="0.25"/><path fill="none" stroke="rgb(0, 131, 255)" paint-order="fill stroke markers" d=" M 895 13 L 53 13" stroke-miterlimit="10" stroke-opacity="0.25"/></g><g><path fill="none" stroke="none"/><path fill="none" stroke="rgb(0, 28, 100)" paint-order="fill stroke markers" d=" M 890.07009 39.18903628560281 L 887.35043 59.71108076472882 L 886.931535 67.81642606320713 L 881.9069 77.99122122512682 L 879.576665 91.0977370269216 L 877.922135 82.47502926258284 L 873.691085 79.0259461568474 L 871.817635 75.40440889582521 L 871.15877 107.99824424502532 L 870.331505 119.20776433866558 L 866.782475 122.82930159968788 L 865.553155 141.6268045259461 L 857.752025 215.9545454545455 L 852.92526 203.88275458447134 L 846.633415 199.74385485758881 L 839.632185 205.08993367147878 L 838.03449 199.57140070230201 L 828.804065 175.94518142801405 L 823.67418 169.56437768240346 L 811.0526 169.56437768240346 L 800.76757 203.71030042918454 L 796.01448 205.26238782676552 L 793.477955 167.83983612953574 L 790.98353 158.1824034334764 L 787.27873 201.81330472103002 L 774.87186 147.66269996098322 L 773.3331049999999 167.3224736636754 L 760.938865 193.19059695669137 L 756.699395 200.0887631681623 L 754.211285 193.8804135778385 L 741.652855 138.00526726492393 L 736.3672 134.90109246976203 L 728.715525 155.7680452594616 L 726.475805 147.66269996098322 L 720.5839100000001 131.79691767460008 L 716.224455 114.37904799063597 L 714.544665 122.48439328911428 L 713.290085 136.7980881779165 L 711.4861 160.769215762778 L 709.652645 155.94049941474833 L 706.890885 171.46137339055792 L 701.990445 143.3513460788139 L 700.3717 136.28072571205615 L 694.290355 129.89992196644556 L 684.83259 140.59207959422548 L 682.746535 131.96937182988682 L 680.649955 121.62212251268045 L 677.40194 136.62563402262975 L 673.5266349999999 121.62212251268045 L 671.442685 132.31428014046043 L 667.01166 119.38021849395244 L 665.56763 106.4461568474444 L 662.917435 96.78872415138505 L 660.38512 87.30374561061251 L 658.025415 70.92060085836908 L 656.14144 79.370854467421 L 654.85739 56.60690596956687 L 653.47651 58.84880998829493 L 650.4516249999999 77.47385875926648 L 647.622505 68.67869683964102 L 645.77642 57.98653921186104 L 643.930335 61.090714007022996 L 642.39579 72.8175965665236 L 641.02754 51.260827155676964 L 638.272095 60.74580569644945 L 636.91437 53.33027701911823 L 634.369425 66.78170113148656 L 634.27891 70.40323839250874 L 633.33587 70.92060085836908 L 632.778045 47.63928989465467 L 632.1360199999999 52.123097932110795 L 630.30467 57.98653921186104 L 629.721585 69.54096761607485 L 628.770125 77.47385875926648 L 628.067055 77.30140460397968 L 626.7282749999999 55.22727272727275 L 624.9285 57.4691767460007 L 624.720105 35.05013655872017 L 624.18754 35.56749902458051 L 623.440265 42.63811939133825 L 622.589845 74.71459227467807 L 621.865725 75.92177136168556 L 620.998465 83.50975419430353 L 617.584155 115.5862270776434 L 614.33193 143.86870854467423 L 612.498475 169.909285992977 L 610.818685 177.32481467030823 L 609.387285 188.5343347639485 L 608.77052 182.1535310183379 L 607.964305 180.94635193133047 L 607.332805 192.32832618025753 L 605.808785 194.91513850955914 L 605.15413 196.63968006242686 L 604.03427 202.15821303160362 L 601.468275 198.53667577058133 L 597.53824 191.2936012485369 L 595.3385149999999 201.81330472103002 L 588.859325 190.431330472103 L 578.612185 199.22649239172847 L 569.8385450000001 204.2276628950449 L 568.095605 210.26355833008193 L 557.16013 177.66972298088177 L 551.89342 199.74385485758881 L 547.0898099999999 213.1952789699571 L 537.42365 188.87924307452204 L 531.68542 189.05169722980884 L 525.6988 201.98575887631682 L 523.949545 202.33066718689037 L 519.15225 171.97873585641827 L 514.460205 162.49375731564578 L 512.6962149999999 154.73332032774096 L 509.03772499999997 185.60261412407334 L 505.442385 179.22181037846275 L 500.946105 166.8051111978151 L 496.449825 131.107101053453 L 492.825015 130.9346468981662 L 489.50964 154.2159578618806 L 483.20937499999997 150.59442060085837 L 476.052375 111.79223566133436 L 469.34373999999997 97.3060866172454 L 467.282945 117.82813109637146 L 464.984285 102.99707374170896 L 463.16346 108.68806086617246 L 461.969925 129.72746781115882 L 461.119505 135.76336324619587 L 457.178945 119.38021849395244 L 454.18352999999996 112.4820522824815 L 452.90369 108.34315255559892 L 451.20284999999996 103.68689036285599 L 450.834475 95.58154506437768 L 448.14849499999997 86.26902067889193 L 444.20793499999996 96.96117830667185 L 442.338695 113.86168552477562 L 441.17673499999995 115.75868123293014 L 440.574705 111.61978150604762 L 439.35380499999997 103.3419820522825 L 438.196055 96.09890753023802 L 437.644545 96.96117830667185 L 436.79202 106.96351931330469 L 435.39009 115.4137729223566 L 432.5736 164.2182988685135 L 431.51689 157.32013265704256 L 430.30019999999996 172.84100663285216 L 429.68133 169.909285992977 L 428.50674 175.42781896215376 L 425.67341 179.3942645337495 L 424.64617 158.1824034334764 L 422.15385 121.62212251268045 L 420.74560499999995 125.76102223956303 L 420.30355499999996 128.17538041357784 L 419.50575999999995 143.00643776824035 L 417.77545 129.38255950058522 L 416.35668 126.79574717128367 L 415.3968 113.34432305891534 L 409.370185 107.30842762387829 L 407.94088999999997 95.23663675380413 L 406.66105 113.86168552477562 L 405.44014999999996 103.51443620756925 L 404.32029 110.92996488490053 L 403.17517 117.65567694108466 L 402.16477 106.4461568474444 L 401.44064999999995 106.10124853687086 L 400.78599499999996 103.51443620756925 L 399.87663499999996 94.0294576667967 L 397.72321999999997 82.13012095200935 L 394.365745 49.0189231369489 L 392.04182499999996 75.23195474053841 L 391.37874999999997 94.89172844323059 L 390.757775 99.20308232539992 L 389.376895 132.8316426063207 L 388.58541499999995 151.8015996878658 L 385.44685999999996 159.90694498634417 L 382.11043499999994 184.9127975029263 L 380.92742499999997 161.2865782286383 L 379.5633849999999 193.19059695669137 L 378.258285 190.94869293796336 L 374.124065 186.98224736636757 L 372.77686499999993 181.9810768630511 L 370.8971 178.35953960202886 L 367.779595 178.53199375731566 L 365.54829499999994 168.52965275068283 L 362.521305 169.909285992977 L 360.58259999999996 159.90694498634417 L 357.73453499999994 136.62563402262975 L 356.00843499999996 185.4301599687866 L 355.06539499999997 165.08056964494733 L 353.49506499999995 204.74502536090523 L 350.90591499999994 195.2600468201327 L 349.32506 187.15470152165432 L 347.78841 211.64319157237617 L 346.1128299999999 201.81330472103002 L 344.342525 195.77740928599297 L 342.62484499999994 195.2600468201327 L 340.94926499999997 188.0169722980882 L 339.18317 196.9845883730004 L 337.52442999999994 181.4637143971908 L 334.03433999999993 166.28774873195476 L 332.05143 158.69976589933674 L 329.430705 144.38607101053458 L 325.2185999999999 131.107101053453 L 320.3097399999999 139.72980881779165 L 317.293275 132.8316426063207 L 315.66611 131.79691767460008 L 309.96787499999994 150.07705813499803 L 308.54278999999997 155.59559110417484 L 306.56198499999994 171.97873585641827 L 300.756395 163.3560280920796 L 298.24933999999996 162.49375731564578 L 292.51321499999995 143.1788919235271 L 289.08417 122.82930159968788 L 283.34804499999996 115.93113538821694 L 280.82625499999995 115.06886461178306 L 279.34223 98.68571985953963 L 276.81201999999996 107.82579008973858 L 274.835425 140.59207959422548 L 272.23785499999997 137.14299648849004 L 269.53924499999994 128.0029262582911 L 267.60264499999994 119.89758095981273 L 265.5629 118.00058525165821 L 263.758915 112.99941474834179 L 262.14017 96.09890753023802 L 260.35092 87.30374561061251 L 258.33011999999997 86.61392898946548 L 256.4819299999999 104.37670698400308 L 255.17893500000002 59.88353492001562 L 253.83804999999995 96.09890753023802 L 252.33087 108.17069840031218 L 248.48924499999998 88.85583300819349 L 246.44739499999991 100.41026141240735 L 242.36790499999995 88.1660163870464 L 240.49235 81.09539602028877 L 238.71573 81.26785017557546 L 235.09723499999996 70.92060085836908 L 231.62398499999995 71.09305501365588 L 229.94629999999995 64.19488880218495 L 228.38649499999997 61.263168162309796 L 226.778275 55.57218103784629 L 223.5471 73.16250487709715 L 221.91782999999998 61.43562231759654 L 220.60430999999994 59.88353492001562 L 218.48246999999992 59.02126414358173 L 216.95634499999994 43.155481857198595 L 215.96488999999997 31.428599297697986 L 215.449165 32.80823253999222 L 214.064075 15.045454545454504 L 212.58215499999994 50.398556379243075 L 210.89394499999992 37.29204057744829 L 209.765665 49.53628560280919 L 208.26690499999995 63.677526336324604 L 206.42503 89.20074131876709 L 204.355815 112.99941474834179 L 201.892965 116.79340616465083 L 199.91215999999997 126.27838470542338 L 195.523235 98.68571985953963 L 192.71516499999996 184.05052672649242 L 189.21454999999992 176.2900897385876 L 185.67394000000002 176.80745220444794 L 178.952675 150.07705813499803 L 172.98920999999996 148.6974248927039 L 169.33282499999996 157.32013265704256 L 163.28094999999996 169.39192352711666 L 156.639675 197.32949668357395 L 153.17273999999998 209.05637924307456 L 143.85600999999997 183.18825595005853 L 137.85676 174.22063987514633 L 131.37757 181.9810768630511 L 124.10479499999997 159.90694498634417 L 117.069885 134.03882169332815 L 109.80552999999998 138.69508388607102 L 106.54909499999997 116.27604369879049 L 98.90162999999995 104.37670698400308 L 95.87253499999997 106.10124853687086 L 84.76655499999993 73.6798673429575 L 81.25120499999991 82.99239172844318 L 72.81015500000001 90.06301209520097 L 68.89064499999995 98.68571985953963 L 64.30805999999995 70.92060085836908 L 59.91913499999998 56.43445181428012 L 52.17904999999996 50.74346468981662 L 40.69837999999993 47.81174404994147 L 34.00869 40.91357783847053 L 30.200744999999984 53.675185329691715 L 23.351074999999923 37.80940304330858" stroke-miterlimit="10" stroke-width="3" stroke-opacity="0.7"/></g></g><g><g/><g><path fill="#ffffff" stroke="#e5e5e5" paint-order="fill stroke markers" d=" M 63 15 L 133 15 L 133 55 L 63 55 L 63 15 Z" fill-opacity="0.95" stroke-miterlimit="10" stroke-opacity="0.5"/><text fill="#444444" stroke="none" font-family="ADAM CG PRO" font-size="10pt" font-style="normal" font-weight="normal" text-decoration="normal" x="98" y="35" text-anchor="start" dominant-baseline="central">CO2</text><g><path fill="none" stroke="rgb(0, 28, 100)" paint-order="fill stroke markers" d=" M 73 35 L 93 35" stroke-miterlimit="10" stroke-width="3" stroke-opacity="0.7"/></g></g></g><g><g fill="#444444"><path fill="none" stroke="black" paint-order="fill stroke markers" d=" M 895 226 L 53 226" stroke-miterlimit="10"/><path fill="none" stroke="rgb(255, 67, 67)" paint-order="fill stroke markers" d=" M 895 232 L 895 224" stroke-miterlimit="10" stroke-width="3"/><path fill="none" stroke="rgb(255, 67, 67)" paint-order="fill stroke markers" d=" M 790 232 L 790 224" stroke-miterlimit="10" stroke-width="3"/><path fill="none" stroke="rgb(255, 67, 67)" paint-order="fill stroke markers" d=" M 685 232 L 685 224" stroke-miterlimit="10" stroke-width="3"/><path fill="none" stroke="rgb(255, 67, 67)" paint-order="fill stroke markers" d=" M 579 232 L 579 224" stroke-miterlimit="10" stroke-width="3"/><path fill="none" stroke="rgb(255, 67, 67)" paint-order="fill stroke markers" d=" M 474 232 L 474 224" stroke-miterlimit="10" stroke-width="3"/><path fill="none" stroke="rgb(255, 67, 67)" paint-order="fill stroke markers" d=" M 369 232 L 369 224" stroke-miterlimit="10" stroke-width="3"/><path fill="none" stroke="rgb(255, 67, 67)" paint-order="fill stroke markers" d=" M 264 232 L 264 224" stroke-miterlimit="10" stroke-width="3"/><path fill="none" stroke="rgb(255, 67, 67)" paint-order="fill stroke markers" d=" M 158 232 L 158 224" stroke-miterlimit="10" stroke-width="3"/><path fill="none" stroke="rgb(255, 67, 67)" paint-order="fill stroke markers" d=" M 53 232 L 53 224" stroke-miterlimit="10" stroke-width="3"/><path fill="none" stroke="rgb(255, 67, 67)" paint-order="fill stroke markers" d=" M 895 230 L 895 226" stroke-miterlimit="10"/><path fill="none" stroke="rgb(255, 67, 67)" paint-order="fill stroke markers" d=" M 874 230 L 874 226" stroke-miterlimit="10"/><path fill="none" stroke="rgb(255, 67, 67)" paint-order="fill stroke markers" d=" M 853 230 L 853 226" stroke-miterlimit="10"/><path fill="none" stroke="rgb(255, 67, 67)" paint-order="fill stroke markers" d=" M 832 230 L 832 226" stroke-miterlimit="10"/><path fill="none" stroke="rgb(255, 67, 67)" paint-order="fill stroke markers" d=" M 811 230 L 811 226" stroke-miterlimit="10"/><path fill="none" stroke="rgb(255, 67, 67)" paint-order="fill stroke markers" d=" M 790 230 L 790 226" stroke-miterlimit="10"/><path fill="none" stroke="rgb(255, 67, 67)" paint-order="fill stroke markers" d=" M 769 230 L 769 226" stroke-miterlimit="10"/><path fill="none" stroke="rgb(255, 67, 67)" paint-order="fill stroke markers" d=" M 748 230 L 748 226" stroke-miterlimit="10"/><path fill="none" stroke="rgb(255, 67, 67)" paint-order="fill stroke markers" d=" M 727 230 L 727 226" stroke-miterlimit="10"/><path fill="none" stroke="rgb(255, 67, 67)" paint-order="fill stroke markers" d=" M 706 230 L 706 226" stroke-miterlimit="10"/><path fill="none" stroke="rgb(255, 67, 67)" paint-order="fill stroke markers" d=" M 685 230 L 685 226" stroke-miterlimit="10"/><path fill="none" stroke="rgb(255, 67, 67)" paint-order="fill stroke markers" d=" M 663 230 L 663 226" stroke-miterlimit="10"/><path fill="none" stroke="rgb(255, 67, 67)" paint-order="fill stroke markers" d=" M 642 230 L 642 226" stroke-miterlimit="10"/><path fill="none" stroke="rgb(255, 67, 67)" paint-order="fill stroke markers" d=" M 621 230 L 621 226" stroke-miterlimit="10"/><path fill="none" stroke="rgb(255, 67, 67)" paint-order="fill stroke markers" d=" M 600 230 L 600 226" stroke-miterlimit="10"/><path fill="none" stroke="rgb(255, 67, 67)" paint-order="fill stroke markers" d=" M 579 230 L 579 226" stroke-miterlimit="10"/><path fill="none" stroke="rgb(255, 67, 67)" paint-order="fill stroke markers" d=" M 558 230 L 558 226" stroke-miterlimit="10"/><path fill="none" stroke="rgb(255, 67, 67)" paint-order="fill stroke markers" d=" M 537 230 L 537 226" stroke-miterlimit="10"/><path fill="none" stroke="rgb(255, 67, 67)" paint-order="fill stroke markers" d=" M 516 230 L 516 226" stroke-miterlimit="10"/><path fill="none" stroke="rgb(255, 67, 67)" paint-order="fill stroke markers" d=" M 495 230 L 495 226" stroke-miterlimit="10"/><path fill="none" stroke="rgb(255, 67, 67)" paint-order="fill stroke markers" d=" M 474 230 L 474 226" stroke-miterlimit="10"/><path fill="none" stroke="rgb(255, 67, 67)" paint-order="fill stroke markers" d=" M 453 230 L 453 226" stroke-miterlimit="10"/><path fill="none" stroke="rgb(255, 67, 67)" paint-order="fill stroke markers" d=" M 432 230 L 432 226" stroke-miterlimit="10"/><path fill="none" stroke="rgb(255, 67, 67)" paint-order="fill stroke markers" d=" M 411 230 L 411 226" stroke-miterlimit="10"/><path fill="none" stroke="rgb(255, 67, 67)" paint-order="fill stroke markers" d=" M 390 230 L 390 226" stroke-miterlimit="10"/><path fill="none" stroke="rgb(255, 67, 67)" paint-order="fill stroke markers" d=" M 369 230 L 369 226" stroke-miterlimit="10"/><path fill="none" stroke="rgb(255, 67, 67)" paint-order="fill stroke markers" d=" M 348 230 L 348 226" stroke-miterlimit="10"/><path fill="none" stroke="rgb(255, 67, 67)" paint-order="fill stroke markers" d=" M 327 230 L 327 226" stroke-miterlimit="10"/><path fill="none" stroke="rgb(255, 67, 67)" paint-order="fill stroke markers" d=" M 306 230 L 306 226" stroke-miterlimit="10"/><path fill="none" stroke="rgb(255, 67, 67)" paint-order="fill stroke markers" d=" M 285 230 L 285 226" stroke-miterlimit="10"/><path fill="none" stroke="rgb(255, 67, 67)" paint-order="fill stroke markers" d=" M 264 230 L 264 226" stroke-miterlimit="10"/><path fill="none" stroke="rgb(255, 67, 67)" paint-order="fill stroke markers" d=" M 242 230 L 242 226" stroke-miterlimit="10"/><path fill="none" stroke="rgb(255, 67, 67)" paint-order="fill stroke markers" d=" M 221 230 L 221 226" stroke-miterlimit="10"/><path fill="none" stroke="rgb(255, 67, 67)" paint-order="fill stroke markers" d=" M 200 230 L 200 226" stroke-miterlimit="10"/><path fill="none" stroke="rgb(255, 67, 67)" paint-order="fill stroke markers" d=" M 179 230 L 179 226" stroke-miterlimit="10"/><path fill="none" stroke="rgb(255, 67, 67)" paint-order="fill stroke markers" d=" M 158 230 L 158 226" stroke-miterlimit="10"/><path fill="none" stroke="rgb(255, 67, 67)" paint-order="fill stroke markers" d=" M 137 230 L 137 226" stroke-miterlimit="10"/><path fill="none" stroke="rgb(255, 67, 67)" paint-order="fill stroke markers" d=" M 116 230 L 116 226" stroke-miterlimit="10"/><path fill="none" stroke="rgb(255, 67, 67)" paint-order="fill stroke markers" d=" M 95 230 L 95 226" stroke-miterlimit="10"/><path fill="none" stroke="rgb(255, 67, 67)" paint-order="fill stroke markers" d=" M 74 230 L 74 226" stroke-miterlimit="10"/><path fill="" stroke="rgb(255, 67, 67)" paint-order="fill stroke markers" d=" M 53 230 L 53 226" stroke-miterlimit="10"/><g transform="translate(895,237) rotate(0,0,0)"><text fill="" stroke="none" font-family="helvetica" font-size="8pt" font-style="normal" font-weight="normal" text-decoration="normal" x="0" y="0" text-anchor="middle" dominant-baseline="hanging">0</text><g transform="rotate(0,0,0) translate(-895,-237) translate(790,237) rotate(0,0,0)"><text fill="" stroke="none" font-family="helvetica" font-size="8pt" font-style="normal" font-weight="normal" text-decoration="normal" x="0" y="0" text-anchor="middle" dominant-baseline="hanging">50,000</text><g transform="rotate(0,0,0) translate(-790,-237) translate(685,237) rotate(0,0,0)"><text fill="" stroke="none" font-family="helvetica" font-size="8pt" font-style="normal" font-weight="normal" text-decoration="normal" x="0" y="0" text-anchor="middle" dominant-baseline="hanging">100,000</text><g transform="rotate(0,0,0) translate(-685,-237) translate(579,237) rotate(0,0,0)"><text fill="" stroke="none" font-family="helvetica" font-size="8pt" font-style="normal" font-weight="normal" text-decoration="normal" x="0" y="0" text-anchor="middle" dominant-baseline="hanging">150,000</text><g transform="rotate(0,0,0) translate(-579,-237) translate(474,237) rotate(0,0,0)"><text fill="" stroke="none" font-family="helvetica" font-size="8pt" font-style="normal" font-weight="normal" text-decoration="normal" x="0" y="0" text-anchor="middle" dominant-baseline="hanging">200,000</text><g transform="rotate(0,0,0) translate(-474,-237) translate(369,237) rotate(0,0,0)"><text fill="" stroke="none" font-family="helvetica" font-size="8pt" font-style="normal" font-weight="normal" text-decoration="normal" x="0" y="0" text-anchor="middle" dominant-baseline="hanging">250,000</text><g transform="rotate(0,0,0) translate(-369,-237) translate(264,237) rotate(0,0,0)"><text fill="" stroke="none" font-family="helvetica" font-size="8pt" font-style="normal" font-weight="normal" text-decoration="normal" x="0" y="0" text-anchor="middle" dominant-baseline="hanging">300,000</text><g transform="rotate(0,0,0) translate(-264,-237) translate(158,237) rotate(0,0,0)"><text fill="" stroke="none" font-family="helvetica" font-size="8pt" font-style="normal" font-weight="normal" text-decoration="normal" x="0" y="0" text-anchor="middle" dominant-baseline="hanging">350,000</text><g transform="rotate(0,0,0) translate(-158,-237) translate(53,237) rotate(0,0,0)"><text fill="" stroke="none" font-family="helvetica" font-size="8pt" font-style="normal" font-weight="normal" text-decoration="normal" x="0" y="0" text-anchor="middle" dominant-baseline="hanging">400,000</text><g transform="rotate(0,0,0) translate(-53,-237)"/></g></g></g></g></g></g></g></g></g></g><g fill="#444444"><path fill="none" stroke="black" paint-order="fill stroke markers" d=" M 53 226 L 53 5" stroke-miterlimit="10"/><path fill="none" stroke="rgb(255, 67, 67)" paint-order="fill stroke markers" d=" M 47 220 L 55 220" stroke-miterlimit="10" stroke-width="3"/><path fill="none" stroke="rgb(255, 67, 67)" paint-order="fill stroke markers" d=" M 47 185 L 55 185" stroke-miterlimit="10" stroke-width="3"/><path fill="none" stroke="rgb(255, 67, 67)" paint-order="fill stroke markers" d=" M 47 151 L 55 151" stroke-miterlimit="10" stroke-width="3"/><path fill="none" stroke="rgb(255, 67, 67)" paint-order="fill stroke markers" d=" M 47 116 L 55 116" stroke-miterlimit="10" stroke-width="3"/><path fill="none" stroke="rgb(255, 67, 67)" paint-order="fill stroke markers" d=" M 47 82 L 55 82" stroke-miterlimit="10" stroke-width="3"/><path fill="none" stroke="rgb(255, 67, 67)" paint-order="fill stroke markers" d=" M 47 47 L 55 47" stroke-miterlimit="10" stroke-width="3"/><path fill="none" stroke="rgb(255, 67, 67)" paint-order="fill stroke markers" d=" M 47 13 L 55 13" stroke-miterlimit="10" stroke-width="3"/><path fill="none" stroke="rgb(255, 67, 67)" paint-order="fill stroke markers" d=" M 49 220 L 53 220" stroke-miterlimit="10"/><path fill="none" stroke="rgb(255, 67, 67)" paint-order="fill stroke markers" d=" M 49 213 L 53 213" stroke-miterlimit="10"/><path fill="none" stroke="rgb(255, 67, 67)" paint-order="fill stroke markers" d=" M 49 206 L 53 206" stroke-miterlimit="10"/><path fill="none" stroke="rgb(255, 67, 67)" paint-order="fill stroke markers" d=" M 49 199 L 53 199" stroke-miterlimit="10"/><path fill="none" stroke="rgb(255, 67, 67)" paint-order="fill stroke markers" d=" M 49 192 L 53 192" stroke-miterlimit="10"/><path fill="none" stroke="rgb(255, 67, 67)" paint-order="fill stroke markers" d=" M 49 185 L 53 185" stroke-miterlimit="10"/><path fill="none" stroke="rgb(255, 67, 67)" paint-order="fill stroke markers" d=" M 49 178 L 53 178" stroke-miterlimit="10"/><path fill="none" stroke="rgb(255, 67, 67)" paint-order="fill stroke markers" d=" M 49 171 L 53 171" stroke-miterlimit="10"/><path fill="none" stroke="rgb(255, 67, 67)" paint-order="fill stroke markers" d=" M 49 165 L 53 165" stroke-miterlimit="10"/><path fill="none" stroke="rgb(255, 67, 67)" paint-order="fill stroke markers" d=" M 49 158 L 53 158" stroke-miterlimit="10"/><path fill="none" stroke="rgb(255, 67, 67)" paint-order="fill stroke markers" d=" M 49 151 L 53 151" stroke-miterlimit="10"/><path fill="none" stroke="rgb(255, 67, 67)" paint-order="fill stroke markers" d=" M 49 144 L 53 144" stroke-miterlimit="10"/><path fill="none" stroke="rgb(255, 67, 67)" paint-order="fill stroke markers" d=" M 49 137 L 53 137" stroke-miterlimit="10"/><path fill="none" stroke="rgb(255, 67, 67)" paint-order="fill stroke markers" d=" M 49 130 L 53 130" stroke-miterlimit="10"/><path fill="none" stroke="rgb(255, 67, 67)" paint-order="fill stroke markers" d=" M 49 123 L 53 123" stroke-miterlimit="10"/><path fill="none" stroke="rgb(255, 67, 67)" paint-order="fill stroke markers" d=" M 49 116 L 53 116" stroke-miterlimit="10"/><path fill="none" stroke="rgb(255, 67, 67)" paint-order="fill stroke markers" d=" M 49 109 L 53 109" stroke-miterlimit="10"/><path fill="none" stroke="rgb(255, 67, 67)" paint-order="fill stroke markers" d=" M 49 102 L 53 102" stroke-miterlimit="10"/><path fill="none" stroke="rgb(255, 67, 67)" paint-order="fill stroke markers" d=" M 49 96 L 53 96" stroke-miterlimit="10"/><path fill="none" stroke="rgb(255, 67, 67)" paint-order="fill stroke markers" d=" M 49 89 L 53 89" stroke-miterlimit="10"/><path fill="none" stroke="rgb(255, 67, 67)" paint-order="fill stroke markers" d=" M 49 82 L 53 82" stroke-miterlimit="10"/><path fill="none" stroke="rgb(255, 67, 67)" paint-order="fill stroke markers" d=" M 49 75 L 53 75" stroke-miterlimit="10"/><path fill="none" stroke="rgb(255, 67, 67)" paint-order="fill stroke markers" d=" M 49 68 L 53 68" stroke-miterlimit="10"/><path fill="none" stroke="rgb(255, 67, 67)" paint-order="fill stroke markers" d=" M 49 61 L 53 61" stroke-miterlimit="10"/><path fill="none" stroke="rgb(255, 67, 67)" paint-order="fill stroke markers" d=" M 49 54 L 53 54" stroke-miterlimit="10"/><path fill="none" stroke="rgb(255, 67, 67)" paint-order="fill stroke markers" d=" M 49 47 L 53 47" stroke-miterlimit="10"/><path fill="none" stroke="rgb(255, 67, 67)" paint-order="fill stroke markers" d=" M 49 40 L 53 40" stroke-miterlimit="10"/><path fill="none" stroke="rgb(255, 67, 67)" paint-order="fill stroke markers" d=" M 49 33 L 53 33" stroke-miterlimit="10"/><path fill="none" stroke="rgb(255, 67, 67)" paint-order="fill stroke markers" d=" M 49 27 L 53 27" stroke-miterlimit="10"/><path fill="none" stroke="rgb(255, 67, 67)" paint-order="fill stroke markers" d=" M 49 20 L 53 20" stroke-miterlimit="10"/><path fill="none" stroke="rgb(255, 67, 67)" paint-order="fill stroke markers" d=" M 49 13 L 53 13" stroke-miterlimit="10"/><path fill="" stroke="rgb(255, 67, 67)" paint-order="fill stroke markers" d=" M 49 6 L 53 6" stroke-miterlimit="10"/><g transform="translate(42,220) rotate(0,0,0)"><text fill="" stroke="none" font-family="helvetica" font-size="8pt" font-style="normal" font-weight="normal" text-decoration="normal" x="0" y="0" text-anchor="end" dominant-baseline="central">180</text><g transform="rotate(0,0,0) translate(-42,-220) translate(42,185) rotate(0,0,0)"><text fill="" stroke="none" font-family="helvetica" font-size="8pt" font-style="normal" font-weight="normal" text-decoration="normal" x="0" y="0" text-anchor="end" dominant-baseline="central">200</text><g transform="rotate(0,0,0) translate(-42,-185) translate(42,151) rotate(0,0,0)"><text fill="" stroke="none" font-family="helvetica" font-size="8pt" font-style="normal" font-weight="normal" text-decoration="normal" x="0" y="0" text-anchor="end" dominant-baseline="central">220</text><g transform="rotate(0,0,0) translate(-42,-151) translate(42,116) rotate(0,0,0)"><text fill="" stroke="none" font-family="helvetica" font-size="8pt" font-style="normal" font-weight="normal" text-decoration="normal" x="0" y="0" text-anchor="end" dominant-baseline="central">240</text><g transform="rotate(0,0,0) translate(-42,-116) translate(42,82) rotate(0,0,0)"><text fill="" stroke="none" font-family="helvetica" font-size="8pt" font-style="normal" font-weight="normal" text-decoration="normal" x="0" y="0" text-anchor="end" dominant-baseline="central">260</text><g transform="rotate(0,0,0) translate(-42,-82) translate(42,47) rotate(0,0,0)"><text fill="" stroke="none" font-family="helvetica" font-size="8pt" font-style="normal" font-weight="normal" text-decoration="normal" x="0" y="0" text-anchor="end" dominant-baseline="central">280</text><g transform="rotate(0,0,0) translate(-42,-47) translate(42,13) rotate(0,0,0)"><text fill="" stroke="none" font-family="helvetica" font-size="8pt" font-style="normal" font-weight="normal" text-decoration="normal" x="0" y="0" text-anchor="end" dominant-baseline="central">300</text><g transform="rotate(0,0,0) translate(-42,-13) translate(17,116) rotate(-90,0,0)"><text fill="" stroke="none" font-family="ADAM CG PRO" font-size="12pt" font-style="normal" font-weight="normal" text-decoration="normal" x="0" y="0" text-anchor="middle" dominant-baseline="alphabetic">ppm</text><g transform="rotate(90,0,0) translate(-17,-116)"/></g></g></g></g></g></g></g></g></g></g></g></g></svg>