<svg version="1.1" xmlns="http://www.w3.org/2000/svg" xmlns:xlink="http://www.w3.org/1999/xlink" width="900" height="250" style="width: 900px; height: 250px;"><defs/><g><g transform="scale(1,1) translate(0.5,0.5)"><rect fill="#FFFFFF" stroke="none" x="0" y="0" width="900" height="250"/><rect fill="#ffffff" stroke="none" x="0" y="0" width="900" height="250"/><rect fill="#FFFFFF" stroke="none" x="53" y="5" width="842" height="221"/><rect fill="white" stroke="none" x="53" y="5" width="842" height="221"/><g><rect fill="none" stroke="rgb(0, 131, 255)" x="53" y="5" width="842" height="221" stroke-miterlimit="10" stroke-width="7" stroke-opacity="0.5"/></g><g><g><path fill="none" stroke="rgb(0, 131, 255)" paint-order="fill stroke markers" d=" M 790 226 L 790 5" stroke-miterlimit="10" stroke-opacity="0"/><path fill="none" stroke="rgb(0, 131, 255)" paint-order="fill stroke markers" d=" M 685 226 L 685 5" stroke-miterlimit="10" stroke-opacity="0"/><path fill="none" stroke="rgb(0, 131, 255)" paint-order="fill stroke markers" d=" M 579 226 L 579 5" stroke-miterlimit="10" stroke-opacity="0"/><path fill="none" stroke="rgb(0, 131, 255)" paint-order="fill stroke markers" d=" M 474 226 L 474 5" stroke-miterlimit="10" stroke-opacity="0"/><path fill="none" stroke="rgb(0, 131, 255)" paint-order="fill stroke markers" d=" M 369 226 L 369 5" stroke-miterlimit="10" stroke-opacity="0"/><path fill="none" stroke="rgb(0, 131, 255)" paint-order="fill stroke markers" d=" M 264 226 L 264 5" stroke-miterlimit="10" stroke-opacity="0"/><path fill="none" stroke="rgb(0, 131, 255)" paint-order="fill stroke markers" d=" M 158 226 L 158 5" stroke-miterlimit="10" stroke-opacity="0"/></g><g><path fill="none" stroke="rgb(0, 131, 255)" paint-order="fill stroke markers" d=" M 895 171 L 53 171" stroke-miterlimit="10" stroke-opacity="0.25"/><path fill="none" stroke="rgb(0, 131, 255)" paint-order="fill stroke markers" d=" M 895 113 L 53 113" stroke-miterlimit="10" stroke-opacity="0.25"/><path fill="none" stroke="rgb(0, 131, 255)" paint-order="fill stroke markers" d=" M 895 54 L 53 54" stroke-miterlimit="10" stroke-opacity="0.25"/></g><g><path fill="none" stroke="none"/><path fill="none" stroke="rgb(0, 28, 100)" paint-order="fill stroke markers" d=" M 893.47598 178.3575225943647 L 893.288635 167.78335991493887 L 892.922365 178.3575225943647 L 892.50768 173.6578947368421 L 892.01511 161.9088250930356 L 891.474125 166.60845295055822 L 890.93314 177.18261562998404 L 890.926825 154.8593833067517 L 890.56266 181.88224348750663 L 890.01115 177.18261562998404 L 889.651195 181.88224348750663 L 889.221775 180.707336523126 L 888.598695 184.23205741626793 L 888.23453 186.58187134502924 L 888.04087 177.18261562998404 L 887.731435 188.93168527379052 L 887.255705 164.2586390217969 L 887.222025 187.7567783094099 L 886.97153 166.60845295055822 L 886.02849 153.68447634237108 L 885.950605 193.63131313131314 L 884.039265 192.45640616693248 L 883.361455 186.58187134502924 L 883.298305 194.8062200956938 L 882.351055 199.50584795321637 L 881.78481 177.18261562998404 L 881.753235 184.23205741626793 L 879.606135 159.55901116427432 L 879.265125 195.9811270600744 L 877.560075 166.60845295055822 L 877.49061 164.2586390217969 L 876.45916 166.60845295055822 L 876.35812 184.23205741626793 L 876.309705 215.95454545454544 L 875.122485 143.11031366294523 L 874.996185 132.5361509835194 L 874.676225 141.93540669856458 L 874.16471 137.235778841042 L 874.0510400000001 143.11031366294523 L 872.80488 103.1634768740032 L 872.75015 133.71105794790003 L 871.70607 67.91626794258373 L 871.691335 62.041733120680476 L 871.23876 65.56645401382242 L 870.794605 86.7147793726741 L 869.931555 69.09117490696437 L 868.458055 40.8934077618288 L 867.005605 51.46757044125465 L 865.84575 29.14433811802232 L 865.839435 57.34210526315789 L 864.89429 46.76794258373205 L 863.578665 26.79452418926104 L 863.166085 64.39154704944178 L 862.130425 63.21664008506113 L 860.930575 35.018872939925586 L 860.922155 15.045454545454533 L 859.806505 57.34210526315789 L 857.242615 56.16719829877724 L 855.432315 66.74136097820308 L 853.613595 84.36496544391281 L 851.984325 56.16719829877724 L 850.18876 74.96570972886762 L 848.692105 92.58931419457734 L 848.53002 82.01515151515152 L 847.44805 65.56645401382242 L 845.404095 113.73763955342902 L 844.63156 51.46757044125465 L 842.255015 119.61217437533227 L 840.66574 119.61217437533227 L 839.265915 123.1368952684742 L 836.26208 127.8365231259968 L 834.40968 132.5361509835194 L 833.83712 116.08745348219031 L 833.82449 110.21291866028707 L 829.86709 130.1863370547581 L 826.0823 96.11403508771929 L 823.150035 103.1634768740032 L 822.388025 103.1634768740032 L 821.550235 104.33838383838383 L 821.436565 137.235778841042 L 820.379855 113.73763955342902 L 818.721115 117.26236044657097 L 816.607695 113.73763955342902 L 815.53204 104.33838383838383 L 813.749105 110.21291866028707 L 811.67989 120.78708133971291 L 808.671845 104.33838383838383 L 806.7415599999999 94.93912812333865 L 805.093345 117.26236044657097 L 803.413555 112.56273258904838 L 801.67272 120.78708133971291 L 799.687705 120.78708133971291 L 796.7912249999999 137.235778841042 L 794.32627 150.15975544922912 L 791.52662 134.8859649122807 L 789.35426 105.51329080276447 L 787.32504 127.8365231259968 L 785.790495 132.5361509835194 L 783.933885 145.46012759170654 L 781.609965 136.06087187666134 L 778.29459 140.76049973418395 L 776.579015 100.81366294524189 L 775.619135 134.8859649122807 L 773.9014549999999 80.84024455077086 L 772.124835 87.88968633705475 L 770.07667 77.31552365762892 L 768.217955 86.7147793726741 L 765.81615 80.84024455077086 L 763.856395 92.58931419457734 L 761.300925 73.79080276448697 L 754.846995 80.84024455077086 L 752.17575 79.66533758639021 L 749.125605 87.88968633705475 L 746.372265 94.93912812333865 L 744.401985 105.51329080276447 L 742.583265 103.1634768740032 L 739.884655 121.96198830409357 L 737.1797300000001 130.1863370547581 L 735.152615 134.8859649122807 L 733.68543 127.8365231259968 L 731.851975 154.8593833067517 L 729.55542 163.08373205741626 L 727.1199349999999 168.9582668793195 L 724.829695 177.18261562998404 L 722.75627 174.83280170122273 L 720.649165 200.68075491759703 L 718.851495 195.9811270600744 L 716.77386 146.6350345560872 L 716.637035 156.03429027113236 L 715.163535 127.8365231259968 L 715.02671 165.43354598617756 L 713.60373 134.8859649122807 L 710.275725 140.76049973418395 L 708.5033149999999 127.8365231259968 L 706.907725 144.28522062732588 L 704.64485 132.5361509835194 L 702.445125 120.78708133971291 L 700.5990400000001 116.08745348219031 L 698.8539949999999 105.51329080276447 L 694.74714 114.91254651780967 L 691.58964 123.1368952684742 L 687.941675 168.9582668793195 L 686.07033 184.23205741626793 L 683.52749 179.53242955874535 L 681.0562199999999 184.23205741626793 L 679.6290300000001 172.48298777246146 L 678.460755 187.7567783094099 L 677.0314599999999 187.7567783094099 L 676.044215 164.2586390217969 L 674.63597 154.8593833067517 L 673.04038 132.5361509835194 L 671.6552899999999 117.26236044657097 L 670.42597 119.61217437533227 L 668.77565 101.98856990962254 L 663.82048 85.53987240829346 L 656.35615 85.53987240829346 L 652.44927 125.48670919723551 L 648.152965 138.41068580542264 L 646.839445 179.53242955874535 L 643.833505 195.9811270600744 L 641.50748 193.63131313131314 L 638.39208 200.68075491759703 L 634.988295 211.25491759702285 L 630.5656899999999 197.15603402445507 L 629.42899 195.9811270600744 L 627.60185 151.33466241360978 L 626.08204 139.5855927698033 L 624.875875 94.93912812333865 L 623.4655250000001 53.817384370015944 L 623.309755 65.56645401382242 L 620.552205 38.54359383306752 L 617.2263049999999 26.79452418926104 L 614.3193 29.14433811802232 L 614.1551099999999 39.718500797448144 L 613.0541949999999 35.018872939925586 L 610.3997899999999 50.292663476874 L 608.73263 70.26608187134502 L 603.65116 64.39154704944178 L 593.22299 101.98856990962254 L 585.133475 100.81366294524189 L 581.8496749999999 84.36496544391281 L 579.63732 74.96570972886762 L 575.079995 56.16719829877724 L 572.789755 66.74136097820308 L 568.94813 67.91626794258373 L 566.4052899999999 77.31552365762892 L 559.73665 69.09117490696437 L 557.608495 78.49043062200955 L 552.28495 93.764221158958 L 549.93156 126.66161616161617 L 544.919555 160.73391812865498 L 537.173155 158.38410419989367 L 534.293515 186.58187134502924 L 532.0727400000001 183.05715045188728 L 528.3489950000001 166.60845295055822 L 524.21688 172.48298777246146 L 521.5098499999999 143.11031366294523 L 516.9293700000001 116.08745348219031 L 512.675165 67.91626794258373 L 507.52002 69.09117490696437 L 503.93730999999997 86.7147793726741 L 500.50615999999997 109.03801169590642 L 496.19933 116.08745348219031 L 493.02499 126.66161616161617 L 491.13890999999995 157.20919723551302 L 488.290845 184.23205741626793 L 485.343845 174.83280170122273 L 483.85139999999996 184.23205741626793 L 477.81215499999996 187.7567783094099 L 475.058815 178.3575225943647 L 473.22114999999997 188.93168527379052 L 472.40230499999996 166.60845295055822 L 471.67607999999996 173.6578947368421 L 470.406765 147.80994152046782 L 470.314145 167.78335991493887 L 467.859715 125.48670919723551 L 467.58185499999996 153.68447634237108 L 466.453575 125.48670919723551 L 464.19912 93.764221158958 L 463.61393 110.21291866028707 L 462.57827 111.38782562466773 L 457.667305 116.08745348219031 L 453.600445 130.1863370547581 L 451.06813 140.76049973418395 L 447.858005 164.2586390217969 L 445.500405 178.3575225943647 L 443.24384499999996 185.4069643806486 L 441.11569 187.7567783094099 L 438.120275 171.3080808080808 L 436.93937 156.03429027113236 L 434.76279999999997 165.43354598617756 L 432.45782499999996 161.9088250930356 L 429.729745 154.8593833067517 L 427.47108 119.61217437533227 L 425.20399499999996 111.38782562466773 L 421.59812999999997 80.84024455077086 L 419.28263 72.61589580010633 L 417.630205 91.41440723019669 L 415.21155999999996 94.93912812333865 L 408.61659499999996 127.8365231259968 L 407.73881 139.5855927698033 L 406.456865 143.11031366294523 L 404.852855 160.73391812865498 L 404.116105 172.48298777246146 L 398.24105 167.78335991493887 L 394.55519499999997 114.91254651780967 L 392.97855 82.01515151515152 L 390.88196999999997 83.19005847953215 L 388.758025 98.4638490164806 L 387.06139499999995 97.28894205209994 L 383.21556 72.61589580010633 L 379.85177 83.19005847953215 L 376.3658899999999 97.28894205209994 L 373.07787999999994 111.38782562466773 L 368.040615 118.43726741095162 L 364.43895999999995 127.8365231259968 L 360.9804449999999 116.08745348219031 L 356.261035 101.98856990962254 L 352.65517 90.23950026581606 L 348.61146499999995 93.764221158958 L 345.29608999999994 93.764221158958 L 340.199885 85.53987240829346 L 334.84686999999997 105.51329080276447 L 329.66436 124.31180223285486 L 326.13006499999995 147.80994152046782 L 321.1349 171.3080808080808 L 316.57967999999994 188.93168527379052 L 313.37166 181.88224348750663 L 309.28374999999994 171.3080808080808 L 305.913645 174.83280170122273 L 302.11411999999996 160.73391812865498 L 297.70204 109.03801169590642 L 291.64595499999996 100.81366294524189 L 288.47793 101.98856990962254 L 282.257655 118.43726741095162 L 277.6603349999999 141.93540669856458 L 273.91553999999996 173.6578947368421 L 268.6193599999999 168.9582668793195 L 263.047425 148.98484848484847 L 259.4626099999999 140.76049973418395 L 254.568485 104.33838383838383 L 249.63015499999995 101.98856990962254 L 245.50014499999997 105.51329080276447 L 239.62087999999994 126.66161616161617 L 234.32048999999995 150.15975544922912 L 230.80303500000002 174.83280170122273 L 225.9531149999999 195.9811270600744 L 221.49262 190.10659223817117 L 217.80886999999996 167.78335991493887 L 213.39679 80.84024455077086 L 210.41611 51.46757044125465 L 203.42329999999993 39.718500797448144 L 199.60272499999996 31.494152046783626 L 194.36969499999998 29.14433811802232 L 187.625275 47.94284954811269 L 184.57512999999994 63.21664008506113 L 174.58900999999992 89.06459330143541 L 168.18980999999997 92.58931419457734 L 161.67483499999992 91.41440723019669 L 155.03987499999994 92.58931419457734 L 147.63238 97.28894205209994 L 144.01177999999993 123.1368952684742 L 133.05946499999993 163.08373205741626 L 129.76092999999992 158.38410419989367 L 118.51180999999997 144.28522062732588 L 112.55044999999996 132.5361509835194 L 104.49040500000001 153.68447634237108 L 97.560745 125.48670919723551 L 89.57016499999997 130.1863370547581 L 83.33304999999996 94.93912812333865 L 70.93880999999999 110.21291866028707 L 58.148829999999975 106.68819776714513 L 50.80237999999997 126.66161616161617 L 47.38806999999997 143.11031366294523 L 39.092265 168.9582668793195 L 32.244699999999966 180.707336523126 L 25.76550999999995 168.9582668793195 L 22.260684999999967 178.3575225943647" stroke-miterlimit="10" stroke-width="3" stroke-opacity="0.7"/></g></g><g><g/><g><path fill="#ffffff" stroke="#e5e5e5" paint-order="fill stroke markers" d=" M 63 15 L 131 15 L 131 55 L 63 55 L 63 15 Z" fill-opacity="0.95" stroke-miterlimit="10" stroke-opacity="0.5"/><text fill="#444444" stroke="none" font-family="ADAM CG PRO" font-size="10pt" font-style="normal" font-weight="normal" text-decoration="normal" x="98" y="35" text-anchor="start" dominant-baseline="central">18O</text><g><path fill="none" stroke="rgb(0, 28, 100)" paint-order="fill stroke markers" d=" M 73 35 L 93 35" stroke-miterlimit="10" stroke-width="3" stroke-opacity="0.7"/></g></g></g><g><g fill="#444444"><path fill="none" stroke="black" paint-order="fill stroke markers" d=" M 895 226 L 53 226" stroke-miterlimit="10"/><path fill="none" stroke="rgb(255, 67, 67)" paint-order="fill stroke markers" d=" M 895 232 L 895 224" stroke-miterlimit="10" stroke-width="3"/><path fill="none" stroke="rgb(255, 67, 67)" paint-order="fill stroke markers" d=" M 790 232 L 790 224" stroke-miterlimit="10" stroke-width="3"/><path fill="none" stroke="rgb(255, 67, 67)" paint-order="fill stroke markers" d=" M 685 232 L 685 224" stroke-miterlimit="10" stroke-width="3"/><path fill="none" stroke="rgb(255, 67, 67)" paint-order="fill stroke markers" d=" M 579 232 L 579 224" stroke-miterlimit="10" stroke-width="3"/><path fill="none" stroke="rgb(255, 67, 67)" paint-order="fill stroke markers" d=" M 474 232 L 474 224" stroke-miterlimit="10" stroke-width="3"/><path fill="none" stroke="rgb(255, 67, 67)" paint-order="fill stroke markers" d=" M 369 232 L 369 224" stroke-miterlimit="10" stroke-width="3"/><path fill="none" stroke="rgb(255, 67, 67)" paint-order="fill stroke markers" d=" M 264 232 L 264 224" stroke-miterlimit="10" stroke-width="3"/><path fill="none" stroke="rgb(255, 67, 67)" paint-order="fill stroke markers" d=" M 158 232 L 158 224" stroke-miterlimit="10" stroke-width="3"/><path fill="none" stroke="rgb(255, 67, 67)" paint-order="fill stroke markers" d=" M 53 232 L 53 224" stroke-miterlimit="10" stroke-width="3"/><path fill="none" stroke="rgb(255, 67, 67)" paint-order="fill stroke markers" d=" M 895 230 L 895 226" stroke-miterlimit="10"/><path fill="none" stroke="rgb(255, 67, 67)" paint-order="fill stroke markers" d=" M 874 230 L 874 226" stroke-miterlimit="10"/><path fill="none" stroke="rgb(255, 67, 67)" paint-order="fill stroke markers" d=" M 853 230 L 853 226" stroke-miterlimit="10"/><path fill="none" stroke="rgb(255, 67, 67)" paint-order="fill stroke markers" d=" M 832 230 L 832 226" stroke-miterlimit="10"/><path fill="none" stroke="rgb(255, 67, 67)" paint-order="fill stroke markers" d=" M 811 230 L 811 226" stroke-miterlimit="10"/><path fill="none" stroke="rgb(255, 67, 67)" paint-order="fill stroke markers" d=" M 790 230 L 790 226" stroke-miterlimit="10"/><path fill="none" stroke="rgb(255, 67, 67)" paint-order="fill stroke markers" d=" M 769 230 L 769 226" stroke-miterlimit="10"/><path fill="none" stroke="rgb(255, 67, 67)" paint-order="fill stroke markers" d=" M 748 230 L 748 226" stroke-miterlimit="10"/><path fill="none" stroke="rgb(255, 67, 67)" paint-order="fill stroke markers" d=" M 727 230 L 727 226" stroke-miterlimit="10"/><path fill="none" stroke="rgb(255, 67, 67)" paint-order="fill stroke markers" d=" M 706 230 L 706 226" stroke-miterlimit="10"/><path fill="none" stroke="rgb(255, 67, 67)" paint-order="fill stroke markers" d=" M 685 230 L 685 226" stroke-miterlimit="10"/><path fill="none" stroke="rgb(255, 67, 67)" paint-order="fill stroke markers" d=" M 663 230 L 663 226" stroke-miterlimit="10"/><path fill="none" stroke="rgb(255, 67, 67)" paint-order="fill stroke markers" d=" M 642 230 L 642 226" stroke-miterlimit="10"/><path fill="none" stroke="rgb(255, 67, 67)" paint-order="fill stroke markers" d=" M 621 230 L 621 226" stroke-miterlimit="10"/><path fill="none" stroke="rgb(255, 67, 67)" paint-order="fill stroke markers" d=" M 600 230 L 600 226" stroke-miterlimit="10"/><path fill="none" stroke="rgb(255, 67, 67)" paint-order="fill stroke markers" d=" M 579 230 L 579 226" stroke-miterlimit="10"/><path fill="none" stroke="rgb(255, 67, 67)" paint-order="fill stroke markers" d=" M 558 230 L 558 226" stroke-miterlimit="10"/><path fill="none" stroke="rgb(255, 67, 67)" paint-order="fill stroke markers" d=" M 537 230 L 537 226" stroke-miterlimit="10"/><path fill="none" stroke="rgb(255, 67, 67)" paint-order="fill stroke markers" d=" M 516 230 L 516 226" stroke-miterlimit="10"/><path fill="none" stroke="rgb(255, 67, 67)" paint-order="fill stroke markers" d=" M 495 230 L 495 226" stroke-miterlimit="10"/><path fill="none" stroke="rgb(255, 67, 67)" paint-order="fill stroke markers" d=" M 474 230 L 474 226" stroke-miterlimit="10"/><path fill="none" stroke="rgb(255, 67, 67)" paint-order="fill stroke markers" d=" M 453 230 L 453 226" stroke-miterlimit="10"/><path fill="none" stroke="rgb(255, 67, 67)" paint-order="fill stroke markers" d=" M 432 230 L 432 226" stroke-miterlimit="10"/><path fill="none" stroke="rgb(255, 67, 67)" paint-order="fill stroke markers" d=" M 411 230 L 411 226" stroke-miterlimit="10"/><path fill="none" stroke="rgb(255, 67, 67)" paint-order="fill stroke markers" d=" M 390 230 L 390 226" stroke-miterlimit="10"/><path fill="none" stroke="rgb(255, 67, 67)" paint-order="fill stroke markers" d=" M 369 230 L 369 226" stroke-miterlimit="10"/><path fill="none" stroke="rgb(255, 67, 67)" paint-order="fill stroke markers" d=" M 348 230 L 348 226" stroke-miterlimit="10"/><path fill="none" stroke="rgb(255, 67, 67)" paint-order="fill stroke markers" d=" M 327 230 L 327 226" stroke-miterlimit="10"/><path fill="none" stroke="rgb(255, 67, 67)" paint-order="fill stroke markers" d=" M 306 230 L 306 226" stroke-miterlimit="10"/><path fill="none" stroke="rgb(255, 67, 67)" paint-order="fill stroke markers" d=" M 285 230 L 285 226" stroke-miterlimit="10"/><path fill="none" stroke="rgb(255, 67, 67)" paint-order="fill stroke markers" d=" M 264 230 L 264 226" stroke-miterlimit="10"/><path fill="none" stroke="rgb(255, 67, 67)" paint-order="fill stroke markers" d=" M 242 230 L 242 226" stroke-miterlimit="10"/><path fill="none" stroke="rgb(255, 67, 67)" paint-order="fill stroke markers" d=" M 221 230 L 221 226" stroke-miterlimit="10"/><path fill="none" stroke="rgb(255, 67, 67)" paint-order="fill stroke markers" d=" M 200 230 L 200 226" stroke-miterlimit="10"/><path fill="none" stroke="rgb(255, 67, 67)" paint-order="fill stroke markers" d=" M 179 230 L 179 226" stroke-miterlimit="10"/><path fill="none" stroke="rgb(255, 67, 67)" paint-order="fill stroke markers" d=" M 158 230 L 158 226" stroke-miterlimit="10"/><path fill="none" stroke="rgb(255, 67, 67)" paint-order="fill stroke markers" d=" M 137 230 L 137 226" stroke-miterlimit="10"/><path fill="none" stroke="rgb(255, 67, 67)" paint-order="fill stroke markers" d=" M 116 230 L 116 226" stroke-miterlimit="10"/><path fill="none" stroke="rgb(255, 67, 67)" paint-order="fill stroke markers" d=" M 95 230 L 95 226" stroke-miterlimit="10"/><path fill="none" stroke="rgb(255, 67, 67)" paint-order="fill stroke markers" d=" M 74 230 L 74 226" stroke-miterlimit="10"/><path fill="" stroke="rgb(255, 67, 67)" paint-order="fill stroke markers" d=" M 53 230 L 53 226" stroke-miterlimit="10"/><g transform="translate(895,237) rotate(0,0,0)"><text fill="" stroke="none" font-family="helvetica" font-size="8pt" font-style="normal" font-weight="normal" text-decoration="normal" x="0" y="0" text-anchor="middle" dominant-baseline="hanging">0</text><g transform="rotate(0,0,0) translate(-895,-237) translate(790,237) rotate(0,0,0)"><text fill="" stroke="none" font-family="helvetica" font-size="8pt" font-style="normal" font-weight="normal" text-decoration="normal" x="0" y="0" text-anchor="middle" dominant-baseline="hanging">50,000</text><g transform="rotate(0,0,0) translate(-790,-237) translate(685,237) rotate(0,0,0)"><text fill="" stroke="none" font-family="helvetica" font-size="8pt" font-style="normal" font-weight="normal" text-decoration="normal" x="0" y="0" text-anchor="middle" dominant-baseline="hanging">100,000</text><g transform="rotate(0,0,0) translate(-685,-237) translate(579,237) rotate(0,0,0)"><text fill="" stroke="none" font-family="helvetica" font-size="8pt" font-style="normal" font-weight="normal" text-decoration="normal" x="0" y="0" text-anchor="middle" dominant-baseline="hanging">150,000</text><g transform="rotate(0,0,0) translate(-579,-237) translate(474,237) rotate(0,0,0)"><text fill="" stroke="none" font-family="helvetica" font-size="8pt" font-style="normal" font-weight="normal" text-decoration="normal" x="0" y="0" text-anchor="middle" dominant-baseline="hanging">200,000</text><g transform="rotate(0,0,0) translate(-474,-237) translate(369,237) rotate(0,0,0)"><text fill="" stroke="none" font-family="helvetica" font-size="8pt" font-style="normal" font-weight="normal" text-decoration="normal" x="0" y="0" text-anchor="middle" dominant-baseline="hanging">250,000</text><g transform="rotate(0,0,0) translate(-369,-237) translate(264,237) rotate(0,0,0)"><text fill="" stroke="none" font-family="helvetica" font-size="8pt" font-style="normal" font-weight="normal" text-decoration="normal" x="0" y="0" text-anchor="middle" dominant-baseline="hanging">300,000</text><g transform="rotate(0,0,0) translate(-264,-237) translate(158,237) rotate(0,0,0)"><text fill="" stroke="none" font-family="helvetica" font-size="8pt" font-style="normal" font-weight="normal" text-decoration="normal" x="0" y="0" text-anchor="middle" dominant-baseline="hanging">350,000</text><g transform="rotate(0,0,0) translate(-158,-237) translate(53,237) rotate(0,0,0)"><text fill="" stroke="none" font-family="helvetica" font-size="8pt" font-style="normal" font-weight="normal" text-decoration="normal" x="0" y="0" text-anchor="middle" dominant-baseline="hanging">400,000</text><g transform="rotate(0,0,0) translate(-53,-237)"/></g></g></g></g></g></g></g></g></g></g><g fill="#444444"><path fill="none" stroke="black" paint-order="fill stroke markers" d=" M 53 226 L 53 5" stroke-miterlimit="10"/><path fill="none" stroke="rgb(255, 67, 67)" paint-order="fill stroke markers" d=" M 47 171 L 55 171" stroke-miterlimit="10" stroke-width="3"/><path fill="none" stroke="rgb(255, 67, 67)" paint-order="fill stroke markers" d=" M 47 113 L 55 113" stroke-miterlimit="10" stroke-width="3"/><path fill="none" stroke="rgb(255, 67, 67)" paint-order="fill stroke markers" d=" M 47 54 L 55 54" stroke-miterlimit="10" stroke-width="3"/><path fill="none" stroke="rgb(255, 67, 67)" paint-order="fill stroke markers" d=" M 49 183 L 53 183" stroke-miterlimit="10"/><path fill="none" stroke="rgb(255, 67, 67)" paint-order="fill stroke markers" d=" M 49 195 L 53 195" stroke-miterlimit="10"/><path fill="none" stroke="rgb(255, 67, 67)" paint-order="fill stroke markers" d=" M 49 207 L 53 207" stroke-miterlimit="10"/><path fill="none" stroke="rgb(255, 67, 67)" paint-order="fill stroke markers" d=" M 49 218 L 53 218" stroke-miterlimit="10"/><path fill="none" stroke="rgb(255, 67, 67)" paint-order="fill stroke markers" d=" M 49 171 L 53 171" stroke-miterlimit="10"/><path fill="none" stroke="rgb(255, 67, 67)" paint-order="fill stroke markers" d=" M 49 160 L 53 160" stroke-miterlimit="10"/><path fill="none" stroke="rgb(255, 67, 67)" paint-order="fill stroke markers" d=" M 49 148 L 53 148" stroke-miterlimit="10"/><path fill="none" stroke="rgb(255, 67, 67)" paint-order="fill stroke markers" d=" M 49 136 L 53 136" stroke-miterlimit="10"/><path fill="none" stroke="rgb(255, 67, 67)" paint-order="fill stroke markers" d=" M 49 124 L 53 124" stroke-miterlimit="10"/><path fill="none" stroke="rgb(255, 67, 67)" paint-order="fill stroke markers" d=" M 49 113 L 53 113" stroke-miterlimit="10"/><path fill="none" stroke="rgb(255, 67, 67)" paint-order="fill stroke markers" d=" M 49 101 L 53 101" stroke-miterlimit="10"/><path fill="none" stroke="rgb(255, 67, 67)" paint-order="fill stroke markers" d=" M 49 89 L 53 89" stroke-miterlimit="10"/><path fill="none" stroke="rgb(255, 67, 67)" paint-order="fill stroke markers" d=" M 49 77 L 53 77" stroke-miterlimit="10"/><path fill="none" stroke="rgb(255, 67, 67)" paint-order="fill stroke markers" d=" M 49 66 L 53 66" stroke-miterlimit="10"/><path fill="none" stroke="rgb(255, 67, 67)" paint-order="fill stroke markers" d=" M 49 54 L 53 54" stroke-miterlimit="10"/><path fill="none" stroke="rgb(255, 67, 67)" paint-order="fill stroke markers" d=" M 49 42 L 53 42" stroke-miterlimit="10"/><path fill="none" stroke="rgb(255, 67, 67)" paint-order="fill stroke markers" d=" M 49 30 L 53 30" stroke-miterlimit="10"/><path fill="none" stroke="rgb(255, 67, 67)" paint-order="fill stroke markers" d=" M 49 19 L 53 19" stroke-miterlimit="10"/><path fill="" stroke="rgb(255, 67, 67)" paint-order="fill stroke markers" d=" M 49 7 L 53 7" stroke-miterlimit="10"/><g transform="translate(42,171) rotate(0,0,0)"><text fill="" stroke="none" font-family="helvetica" font-size="8pt" font-style="normal" font-weight="normal" text-decoration="normal" x="0" y="0" text-anchor="end" dominant-baseline="central">0</text><g transform="rotate(0,0,0) translate(-42,-171) translate(42,113) rotate(0,0,0)"><text fill="" stroke="none" font-family="helvetica" font-size="8pt" font-style="normal" font-weight="normal" text-decoration="normal" x="0" y="0" text-anchor="end" dominant-baseline="central">0.5</text><g transform="rotate(0,0,0) translate(-42,-113) translate(42,54) rotate(0,0,0)"><text fill="" stroke="none" font-family="helvetica" font-size="8pt" font-style="normal" font-weight="normal" text-decoration="normal" x="0" y="0" text-anchor="end" dominant-baseline="central">1</text><g transform="rotate(0,0,0) translate(-42,-54) translate(21,116) rotate(-90,0,0)"><text fill="" stroke="none" font-family="ADAM CG PRO" font-size="12pt" font-style="normal" font-weight="normal" text-decoration="normal" x="0" y="0" text-anchor="middle" dominant-baseline="alphabetic">δ O18</text><g transform="rotate(90,0,0) translate(-21,-116)"/></g></g></g></g></g></g></g></g></svg>