<svg version="1.1" xmlns="http://www.w3.org/2000/svg" xmlns:xlink="http://www.w3.org/1999/xlink" width="600" height="500" style="width: 600px; height: 500px;"><defs/><g><g transform="scale(1,1) translate(0.5,0.5)"><rect fill="#FFFFFF" stroke="none" x="0" y="0" width="600" height="500"/><rect fill="#ffffff" stroke="none" x="0" y="0" width="600" height="500"/><rect fill="#FFFFFF" stroke="none" x="56" y="5" width="539" height="446"/><rect fill="white" stroke="none" x="56" y="5" width="539" height="446"/><g><rect fill="none" stroke="rgb(0, 131, 255)" x="56" y="5" width="539" height="446" stroke-miterlimit="10" stroke-width="7" stroke-opacity="0.5"/></g><g><g><path fill="none" stroke="rgb(0, 131, 255)" paint-order="fill stroke markers" d=" M 94 451 L 94 5" stroke-miterlimit="10" stroke-opacity="0"/><path fill="none" stroke="rgb(0, 131, 255)" paint-order="fill stroke markers" d=" M 225 451 L 225 5" stroke-miterlimit="10" stroke-opacity="0"/><path fill="none" stroke="rgb(0, 131, 255)" paint-order="fill stroke markers" d=" M 356 451 L 356 5" stroke-miterlimit="10" stroke-opacity="0"/><path fill="none" stroke="rgb(0, 131, 255)" paint-order="fill stroke markers" d=" M 487 451 L 487 5" stroke-miterlimit="10" stroke-opacity="0"/></g><g><path fill="none" stroke="rgb(0, 131, 255)" paint-order="fill stroke markers" d=" M 56 386 L 595 386" stroke-miterlimit="10" stroke-opacity="0.25"/><path fill="none" stroke="rgb(0, 131, 255)" paint-order="fill stroke markers" d=" M 56 307 L 595 307" stroke-miterlimit="10" stroke-opacity="0.25"/><path fill="none" stroke="rgb(0, 131, 255)" paint-order="fill stroke markers" d=" M 56 229 L 595 229" stroke-miterlimit="10" stroke-opacity="0.25"/><path fill="none" stroke="rgb(0, 131, 255)" paint-order="fill stroke markers" d=" M 56 150 L 595 150" stroke-miterlimit="10" stroke-opacity="0.25"/><path fill="none" stroke="rgb(0, 131, 255)" paint-order="fill stroke markers" d=" M 56 71 L 595 71" stroke-miterlimit="10" stroke-opacity="0.25"/></g><g><path fill="none" stroke="none"/><path fill="none" stroke="black" paint-order="fill stroke markers" d=" M 41.259753593429195 NaN" stroke-miterlimit="10" stroke-width="3"/><path fill="none" stroke="none"/><path fill="none" stroke="black" paint-order="fill stroke markers" d=" M 45.5 NaN" stroke-miterlimit="10" stroke-width="3"/><path fill="none" stroke="none"/><path fill="none" stroke="black" paint-order="fill stroke markers" d=" M 49.88398357289532 NaN" stroke-miterlimit="10" stroke-width="3"/><path fill="none" stroke="none"/><path fill="none" stroke="black" paint-order="fill stroke markers" d=" M 54.26796714579052 NaN" stroke-miterlimit="10" stroke-width="3"/><path fill="none" stroke="none"/><path fill="none" stroke="black" paint-order="fill stroke markers" d=" M 58.72381930184804 NaN" stroke-miterlimit="10" stroke-width="3"/><path fill="none" stroke="none"/><path fill="none" stroke="black" paint-order="fill stroke markers" d=" M 63.107802874743356 NaN" stroke-miterlimit="10" stroke-width="3"/><path fill="none" stroke="none"/><path fill="none" stroke="black" paint-order="fill stroke markers" d=" M 67.49178644763867 NaN" stroke-miterlimit="10" stroke-width="3"/><path fill="none" stroke="none"/><path fill="none" stroke="black" paint-order="fill stroke markers" d=" M 71.73203285420948 NaN" stroke-miterlimit="10" stroke-width="3"/><path fill="none" stroke="none"/><path fill="none" stroke="black" paint-order="fill stroke markers" d=" M 76.11601642710468 NaN" stroke-miterlimit="10" stroke-width="3"/><path fill="none" stroke="none"/><path fill="none" stroke="black" paint-order="fill stroke markers" d=" M 80.5 430.72727272727263 L 82.72792607802876 429.863266528125 L 84.95585215605752 424.83632136944794 L 87.11190965092408 424.60068331513503 L 89.33983572895283 422.24430277200514 L 91.49589322381928 419.1810080659363" stroke-miterlimit="10" stroke-width="3"/><path fill="none" stroke="none"/><path fill="none" stroke="black" paint-order="fill stroke markers" d=" M 95.9517453798768 419.8093762107709 L 98.03593429158116 418.70973195731034 L 100.26386036960992 415.0966151245112 L 102.41991786447636 416.6675354865977 L 104.64784394250512 412.34750449085965 L 106.80390143737168 411.954774400338 L 109.03182751540044 410.46240005635576 L 111.2597535934292 406.84928322355665 L 113.41581108829575 406.29946109682635 L 115.6437371663244 412.89732661758995 L 117.79979466119096 405.2783628614701 L 120.02772073921972 402.84343630023585 L 122.25564681724848 400.72269381141905 L 124.26796714579052 400.01577964848 L 126.49589322381928 397.5023070691415 L 128.65195071868584 396.9524849424112 L 130.8798767967146 398.28776725018486 L 133.03593429158116 395.224472544116 L 135.26386036960992 396.4812088337853 L 137.49178644763856 392.94663801909047 L 139.64784394250512 390.5117114578563 L 141.87577002053388 388.78369905956106 L 144.03182751540044 390.2760734035433 L 146.2597535934292 387.9982388785178 L 148.48767967145795 389.1764291500827 L 150.5 381.3218273396498 L 152.72792607802876 379.4367229051459 L 154.88398357289532 387.8411468423091" stroke-miterlimit="10" stroke-width="3"/><path fill="none" stroke="none"/><path fill="none" stroke="black" paint-order="fill stroke markers" d=" M 159.26796714579052 NaN" stroke-miterlimit="10" stroke-width="3"/><path fill="none" stroke="none"/><path fill="none" stroke="black" paint-order="fill stroke markers" d=" M 163.72381930184804 375.9806981085555 L 165.8798767967146 374.64541580078185 L 168.10780287474336 372.6817653481736 L 170.26386036960992 372.28903525765196 L 172.49178644763856 371.18939100419135 L 174.71971252566732 372.52467331196493 L 176.73203285420948 369.5399246240005 L 178.95995893223824 366.0053538093057 L 181.11601642710468 366.86936000845327 L 183.34394250513344 364.1987953929061 L 185.5 364.1987953929061 L 187.72792607802876 363.57042724807144 L 189.95585215605752 359.56458032475064 L 192.11190965092408 359.0933042161248 L 194.33983572895283 356.8154696910991 L 196.49589322381928 356.03000951005583 L 198.72381930184804 358.2292980169771 L 200.9517453798768 356.03000951005583 L 203.03593429158116 354.77327322038667 L 205.26386036960992 350.76742629706587 L 207.41991786447636 348.9608678806663 L 209.64784394250512 346.99721742805804 L 211.80390143737168 343.93392272198923 L 214.03182751540044 346.44739530132784 L 216.2597535934292 341.8917262512767 L 218.41581108829575 341.5775421788594 L 220.6437371663244 338.3571554365819 L 222.79979466119096 339.0640695995209 L 225.02772073921972 338.0429713641646 L 227.25564681724848 335.5294987848261 L 229.26796714579052 332.1520200063399 L 231.49589322381928 332.54475009686155 L 233.65195071868584 331.60219787960966 L 235.8798767967146 328.85308724595814 L 238.03593429158116 329.63854742700147 L 240.26386036960992 328.61744919164516 L 242.49178644763856 326.41816068472394 L 244.64784394250512 324.84724032263733 L 246.87577002053388 324.2188721778027 L 249.03182751540044 320.3701172906906 L 251.2597535934292 318.4064668380824 L 253.48767967145795 316.91409249410015 L 255.5 316.0500862949525 L 257.72792607802876 310.2376809552322 L 259.8839835728953 309.9234968828149 L 262.1119096509241 309.4522207741889 L 264.2679671457905 309.76640484660624 L 266.4958932238193 309.21658271987593 L 268.72381930184804 305.76055792328543 L 270.8798767967146 304.1110915430946 L 273.10780287474336 302.85435525342535 L 275.2638603696099 298.1415941671656 L 277.49178644763856 297.27758796801794 L 279.7197125256673 295.4710295516184 L 281.7320328542095 298.6128702757916" stroke-miterlimit="10" stroke-width="3"/><path fill="none" stroke="none"/><path fill="none" stroke="black" paint-order="fill stroke markers" d=" M 286.1160164271047 293.27174104469714 L 288.34394250513344 290.8368144834629 L 290.5 289.97280828431536 L 292.72792607802876 285.49568525236856 L 294.9558521560575 285.26004719805564 L 297.1119096509241 280.6258321299002 L 299.33983572895283 280.70437814800454 L 301.4958932238193 279.36909584023095 L 303.72381930184804 276.3058011341621 L 305.9517453798768 280.3116480574829 L 308.03593429158116 277.0912613152054 L 310.2638603696099 273.870874572928 L 312.41991786447636 269.6293895952942 L 314.6478439425051 268.2941072875206 L 316.8039014373717 267.8228311788946 L 319.03182751540044 266.4090028530167 L 321.2597535934292 265.7806347081821 L 323.41581108829564 259.73259131414875 L 325.6437371663244 259.33986122362717 L 327.79979466119096 258.632947060688 L 330.0277207392197 256.2765665175583 L 332.25564681724836 255.0198302278891 L 334.26796714579064 250.85689126835962 L 336.4958932238194 249.91433905110762 L 338.65195071868584 248.97178683385573 L 340.8798767967146 246.92959036314312 L 343.03593429158104 248.18632665281245 L 345.2638603696098 247.5579585079779 L 347.49178644763856 242.92374343982237 L 349.64784394250523 240.33172484237957 L 351.875770020534 237.58261420872805 L 354.03182751540044 240.56736289669243 L 356.2597535934292 230.9847486879645 L 358.48767967145795 230.90620266986014 L 360.5 228.1570920362086 L 362.72792607802876 228.31418407241733 L 364.8839835728952 223.83706104047053 L 367.11190965092396 218.73156986368906 L 369.26796714579064 216.4537353386636 L 371.4958932238194 216.53228135676795 L 373.72381930184815 211.42679017998648 L 375.8798767967146 207.89221936529168 L 378.10780287474336 206.9496671480398 L 380.2638603696098 209.46313972737835 L 382.49178644763856 206.32129900320524 L 384.7197125256673 205.0645627135359 L 386.73203285420936 205.53583882216196 L 388.9599589322381 203.25800429713627 L 391.1160164271048 198.46669719277236 L 393.34394250513355 196.97432284879005 L 395.5 195.1677644323904 L 397.72792607802876 195.1677644323904 L 399.9558521560575 190.76918741854809 L 402.11190965092396 186.2920643866014 L 404.3398357289527 187.15607058574892 L 406.4958932238194 185.97788031418395 L 408.72381930184815 183.54295375294987 L 410.9517453798769 183.0716776443238 L 413.03593429158104 180.71529710119398 L 415.2638603696098 177.8876404494381 L 417.4199178644765 176.63090415976876 L 419.64784394250523 176.78799619597748 L 421.8039014373717 177.80909443133373 L 424.03182751540044 175.688351942517 L 426.2597535934292 171.52541298298752 L 428.41581108829564 170.58286076573552 L 430.6437371663244 164.22063329928494 L 432.7997946611911 164.77045542601513 L 435.0277207392196 164.37772533549355 L 437.25564681724836 158.95805008629486 L 439.26796714579064 159.35078017681644 L 441.4958932238194 155.1878412172871 L 443.65195071868584 147.25469338874984 L 445.8798767967146 149.2183438413581 L 448.03593429158104 146.7834172801239 L 450.2638603696098 142.38484026628134 L 452.49178644763856 138.14335528864774 L 454.64784394250523 139.00736148779527 L 456.875770020534 139.08590750589974 L 459.03182751540044 134.60878447395294 L 461.2597535934292 135.15860660068324 L 463.48767967145795 135.6298827093092 L 465.5 129.34620126096286 L 467.72792607802876 124.86907822901617 L 469.8839835728952 125.34035433764211 L 472.11190965092396 121.64869148673858 L 474.26796714579064 122.98397379451228 L 476.4958932238194 119.60649501602609 L 478.72381930184815 114.02972773061879 L 480.8798767967146 113.24426754957551 L 483.10780287474336 111.98753125990618 L 485.2638603696098 110.96643302454993 L 487.49178644763856 111.2020710788629 L 489.7197125256673 111.7518932055932 L 491.73203285420936 108.76714451762871 L 493.9599589322381 102.16927899686516 L 496.1160164271048 99.42016836321363 L 498.34394250513355 100.5983586347786 L 500.5 100.36272058046552 L 502.72792607802876 102.6405551054911 L 504.9558521560575 89.13063999154645 L 507.11190965092396 87.40262759325128 L 509.3398357289527 83.78951076045212 L 511.4958932238194 81.5902222535309 L 513.7238193018482 84.0251488147652 L 515.9517453798769 80.4905780000704 L 518.035934291581 79.94075587333998 L 520.2638603696098 71.77196999048977 L 522.4199178644765 70.98650980944649 L 524.6478439425052 69.17995139304696 L 526.8039014373717 71.69342397238552 L 529.0318275154004 71.14360184565521 L 531.2597535934292 66.74502483181277 L 533.4158110882956 61.71807967313566 L 535.6437371663244 56.21985840583284 L 537.7997946611911 61.08971152830111 L 540.0277207392196 56.455496460145696 L 542.2556468172484 57.319502659293335 L 544.2679671457906 57.24095664118897 L 546.4958932238194 50.09326899369512 L 548.6519507186858 47.42270437814784 L 550.8798767967146 45.459053925539706 L 553.035934291581 43.80958754534879 L 555.2638603696098 40.27501673065399 L 557.4917864476386 33.91278926420341 L 559.6478439425052 31.949138811595162 L 561.875770020534 30.221126413299885 L 564.0318275154004 28.96439012363055 L 566.2597535934292 27.55056179775272 L 568.487679671458 28.493114015004608 L 570.5 25.272727272727252" stroke-miterlimit="10" stroke-width="3"/></g></g><g><g/><g><path fill="#ffffff" stroke="#e5e5e5" paint-order="fill stroke markers" d=" M 66 15 L 134 15 L 134 55 L 66 55 L 66 15 Z" fill-opacity="0.95" stroke-miterlimit="10" stroke-opacity="0.5"/><text fill="#444444" stroke="none" font-family="ADAM" font-size="10pt" font-style="normal" font-weight="normal" text-decoration="normal" x="101" y="35" text-anchor="start" dominant-baseline="central">SF6</text><g><path fill="none" stroke="black" paint-order="fill stroke markers" d=" M 76 35 L 96 35" stroke-miterlimit="10" stroke-width="3"/></g></g></g><g><g fill="#444444"><path fill="none" stroke="black" paint-order="fill stroke markers" d=" M 56 451 L 595 451" stroke-miterlimit="10"/><path fill="none" stroke="rgb(255, 67, 67)" paint-order="fill stroke markers" d=" M 94 457 L 94 449" stroke-miterlimit="10" stroke-width="3"/><path fill="none" stroke="rgb(255, 67, 67)" paint-order="fill stroke markers" d=" M 225 457 L 225 449" stroke-miterlimit="10" stroke-width="3"/><path fill="none" stroke="rgb(255, 67, 67)" paint-order="fill stroke markers" d=" M 356 457 L 356 449" stroke-miterlimit="10" stroke-width="3"/><path fill="" stroke="rgb(255, 67, 67)" paint-order="fill stroke markers" d=" M 487 457 L 487 449" stroke-miterlimit="10" stroke-width="3"/><g transform="translate(94,462) rotate(0,0,0)"><text fill="" stroke="none" font-family="helvetica" font-size="8pt" font-style="normal" font-weight="normal" text-decoration="normal" x="0" y="0" text-anchor="middle" dominant-baseline="hanging">2000</text><g transform="rotate(0,0,0) translate(-94,-462) translate(225,462) rotate(0,0,0)"><text fill="" stroke="none" font-family="helvetica" font-size="8pt" font-style="normal" font-weight="normal" text-decoration="normal" x="0" y="0" text-anchor="middle" dominant-baseline="hanging">2005</text><g transform="rotate(0,0,0) translate(-225,-462) translate(356,462) rotate(0,0,0)"><text fill="" stroke="none" font-family="helvetica" font-size="8pt" font-style="normal" font-weight="normal" text-decoration="normal" x="0" y="0" text-anchor="middle" dominant-baseline="hanging">2010</text><g transform="rotate(0,0,0) translate(-356,-462) translate(487,462) rotate(0,0,0)"><text fill="" stroke="none" font-family="helvetica" font-size="8pt" font-style="normal" font-weight="normal" text-decoration="normal" x="0" y="0" text-anchor="middle" dominant-baseline="hanging">2015</text><g transform="rotate(0,0,0) translate(-487,-462) translate(326,480) rotate(0,0,0)"><text fill="" stroke="none" font-family="ADAM" font-size="12pt" font-style="normal" font-weight="normal" text-decoration="normal" x="0" y="0" text-anchor="middle" dominant-baseline="hanging">Año</text><g transform="rotate(0,0,0) translate(-326,-480)"/></g></g></g></g></g></g><g fill="#444444"><path fill="none" stroke="black" paint-order="fill stroke markers" d=" M 56 451 L 56 5" stroke-miterlimit="10"/><path fill="none" stroke="rgb(255, 67, 67)" paint-order="fill stroke markers" d=" M 50 386 L 58 386" stroke-miterlimit="10" stroke-width="3"/><path fill="none" stroke="rgb(255, 67, 67)" paint-order="fill stroke markers" d=" M 50 307 L 58 307" stroke-miterlimit="10" stroke-width="3"/><path fill="none" stroke="rgb(255, 67, 67)" paint-order="fill stroke markers" d=" M 50 229 L 58 229" stroke-miterlimit="10" stroke-width="3"/><path fill="none" stroke="rgb(255, 67, 67)" paint-order="fill stroke markers" d=" M 50 150 L 58 150" stroke-miterlimit="10" stroke-width="3"/><path fill="none" stroke="rgb(255, 67, 67)" paint-order="fill stroke markers" d=" M 50 71 L 58 71" stroke-miterlimit="10" stroke-width="3"/><path fill="none" stroke="rgb(255, 67, 67)" paint-order="fill stroke markers" d=" M 52 401 L 56 401" stroke-miterlimit="10"/><path fill="none" stroke="rgb(255, 67, 67)" paint-order="fill stroke markers" d=" M 52 417 L 56 417" stroke-miterlimit="10"/><path fill="none" stroke="rgb(255, 67, 67)" paint-order="fill stroke markers" d=" M 52 433 L 56 433" stroke-miterlimit="10"/><path fill="none" stroke="rgb(255, 67, 67)" paint-order="fill stroke markers" d=" M 52 448 L 56 448" stroke-miterlimit="10"/><path fill="none" stroke="rgb(255, 67, 67)" paint-order="fill stroke markers" d=" M 52 386 L 56 386" stroke-miterlimit="10"/><path fill="none" stroke="rgb(255, 67, 67)" paint-order="fill stroke markers" d=" M 52 370 L 56 370" stroke-miterlimit="10"/><path fill="none" stroke="rgb(255, 67, 67)" paint-order="fill stroke markers" d=" M 52 354 L 56 354" stroke-miterlimit="10"/><path fill="none" stroke="rgb(255, 67, 67)" paint-order="fill stroke markers" d=" M 52 339 L 56 339" stroke-miterlimit="10"/><path fill="none" stroke="rgb(255, 67, 67)" paint-order="fill stroke markers" d=" M 52 323 L 56 323" stroke-miterlimit="10"/><path fill="none" stroke="rgb(255, 67, 67)" paint-order="fill stroke markers" d=" M 52 307 L 56 307" stroke-miterlimit="10"/><path fill="none" stroke="rgb(255, 67, 67)" paint-order="fill stroke markers" d=" M 52 291 L 56 291" stroke-miterlimit="10"/><path fill="none" stroke="rgb(255, 67, 67)" paint-order="fill stroke markers" d=" M 52 276 L 56 276" stroke-miterlimit="10"/><path fill="none" stroke="rgb(255, 67, 67)" paint-order="fill stroke markers" d=" M 52 260 L 56 260" stroke-miterlimit="10"/><path fill="none" stroke="rgb(255, 67, 67)" paint-order="fill stroke markers" d=" M 52 244 L 56 244" stroke-miterlimit="10"/><path fill="none" stroke="rgb(255, 67, 67)" paint-order="fill stroke markers" d=" M 52 229 L 56 229" stroke-miterlimit="10"/><path fill="none" stroke="rgb(255, 67, 67)" paint-order="fill stroke markers" d=" M 52 213 L 56 213" stroke-miterlimit="10"/><path fill="none" stroke="rgb(255, 67, 67)" paint-order="fill stroke markers" d=" M 52 197 L 56 197" stroke-miterlimit="10"/><path fill="none" stroke="rgb(255, 67, 67)" paint-order="fill stroke markers" d=" M 52 181 L 56 181" stroke-miterlimit="10"/><path fill="none" stroke="rgb(255, 67, 67)" paint-order="fill stroke markers" d=" M 52 166 L 56 166" stroke-miterlimit="10"/><path fill="none" stroke="rgb(255, 67, 67)" paint-order="fill stroke markers" d=" M 52 150 L 56 150" stroke-miterlimit="10"/><path fill="none" stroke="rgb(255, 67, 67)" paint-order="fill stroke markers" d=" M 52 134 L 56 134" stroke-miterlimit="10"/><path fill="none" stroke="rgb(255, 67, 67)" paint-order="fill stroke markers" d=" M 52 119 L 56 119" stroke-miterlimit="10"/><path fill="none" stroke="rgb(255, 67, 67)" paint-order="fill stroke markers" d=" M 52 103 L 56 103" stroke-miterlimit="10"/><path fill="none" stroke="rgb(255, 67, 67)" paint-order="fill stroke markers" d=" M 52 87 L 56 87" stroke-miterlimit="10"/><path fill="none" stroke="rgb(255, 67, 67)" paint-order="fill stroke markers" d=" M 52 71 L 56 71" stroke-miterlimit="10"/><path fill="none" stroke="rgb(255, 67, 67)" paint-order="fill stroke markers" d=" M 52 56 L 56 56" stroke-miterlimit="10"/><path fill="none" stroke="rgb(255, 67, 67)" paint-order="fill stroke markers" d=" M 52 40 L 56 40" stroke-miterlimit="10"/><path fill="none" stroke="rgb(255, 67, 67)" paint-order="fill stroke markers" d=" M 52 24 L 56 24" stroke-miterlimit="10"/><path fill="" stroke="rgb(255, 67, 67)" paint-order="fill stroke markers" d=" M 52 9 L 56 9" stroke-miterlimit="10"/><g transform="translate(45,386) rotate(0,0,0)"><text fill="" stroke="none" font-family="helvetica" font-size="8pt" font-style="normal" font-weight="normal" text-decoration="normal" x="0" y="0" text-anchor="end" dominant-baseline="central">5</text><g transform="rotate(0,0,0) translate(-45,-386) translate(45,307) rotate(0,0,0)"><text fill="" stroke="none" font-family="helvetica" font-size="8pt" font-style="normal" font-weight="normal" text-decoration="normal" x="0" y="0" text-anchor="end" dominant-baseline="central">6</text><g transform="rotate(0,0,0) translate(-45,-307) translate(45,229) rotate(0,0,0)"><text fill="" stroke="none" font-family="helvetica" font-size="8pt" font-style="normal" font-weight="normal" text-decoration="normal" x="0" y="0" text-anchor="end" dominant-baseline="central">7</text><g transform="rotate(0,0,0) translate(-45,-229) translate(45,150) rotate(0,0,0)"><text fill="" stroke="none" font-family="helvetica" font-size="8pt" font-style="normal" font-weight="normal" text-decoration="normal" x="0" y="0" text-anchor="end" dominant-baseline="central">8</text><g transform="rotate(0,0,0) translate(-45,-150) translate(45,71) rotate(0,0,0)"><text fill="" stroke="none" font-family="helvetica" font-size="8pt" font-style="normal" font-weight="normal" text-decoration="normal" x="0" y="0" text-anchor="end" dominant-baseline="central">9</text><g transform="rotate(0,0,0) translate(-45,-71) translate(33,228) rotate(-90,0,0)"><text fill="" stroke="none" font-family="ADAM" font-size="12pt" font-style="normal" font-weight="normal" text-decoration="normal" x="0" y="0" text-anchor="middle" dominant-baseline="alphabetic">SF6 (partes por billón)</text><g transform="rotate(90,0,0) translate(-33,-228)"/></g></g></g></g></g></g></g></g></g></g></svg>