<svg version="1.1" xmlns="http://www.w3.org/2000/svg" xmlns:xlink="http://www.w3.org/1999/xlink" width="600" height="500" style="width: 600px; height: 500px;"><defs/><g><g transform="scale(1,1) translate(0.5,0.5)"><rect fill="#FFFFFF" stroke="none" x="0" y="0" width="600" height="500"/><rect fill="#ffffff" stroke="none" x="0" y="0" width="600" height="500"/><rect fill="#FFFFFF" stroke="none" x="56" y="5" width="539" height="446"/><rect fill="white" stroke="none" x="56" y="5" width="539" height="446"/><g><rect fill="none" stroke="rgb(0, 131, 255)" x="56" y="5" width="539" height="446" stroke-miterlimit="10" stroke-width="7" stroke-opacity="0.5"/></g><g><g><path fill="none" stroke="rgb(0, 131, 255)" paint-order="fill stroke markers" d=" M 94 451 L 94 5" stroke-miterlimit="10" stroke-opacity="0"/><path fill="none" stroke="rgb(0, 131, 255)" paint-order="fill stroke markers" d=" M 225 451 L 225 5" stroke-miterlimit="10" stroke-opacity="0"/><path fill="none" stroke="rgb(0, 131, 255)" paint-order="fill stroke markers" d=" M 356 451 L 356 5" stroke-miterlimit="10" stroke-opacity="0"/><path fill="none" stroke="rgb(0, 131, 255)" paint-order="fill stroke markers" d=" M 487 451 L 487 5" stroke-miterlimit="10" stroke-opacity="0"/></g><g><path fill="none" stroke="rgb(0, 131, 255)" paint-order="fill stroke markers" d=" M 56 406 L 595 406" stroke-miterlimit="10" stroke-opacity="0.25"/><path fill="none" stroke="rgb(0, 131, 255)" paint-order="fill stroke markers" d=" M 56 352 L 595 352" stroke-miterlimit="10" stroke-opacity="0.25"/><path fill="none" stroke="rgb(0, 131, 255)" paint-order="fill stroke markers" d=" M 56 298 L 595 298" stroke-miterlimit="10" stroke-opacity="0.25"/><path fill="none" stroke="rgb(0, 131, 255)" paint-order="fill stroke markers" d=" M 56 244 L 595 244" stroke-miterlimit="10" stroke-opacity="0.25"/><path fill="none" stroke="rgb(0, 131, 255)" paint-order="fill stroke markers" d=" M 56 190 L 595 190" stroke-miterlimit="10" stroke-opacity="0.25"/><path fill="none" stroke="rgb(0, 131, 255)" paint-order="fill stroke markers" d=" M 56 136 L 595 136" stroke-miterlimit="10" stroke-opacity="0.25"/><path fill="none" stroke="rgb(0, 131, 255)" paint-order="fill stroke markers" d=" M 56 82 L 595 82" stroke-miterlimit="10" stroke-opacity="0.25"/><path fill="none" stroke="rgb(0, 131, 255)" paint-order="fill stroke markers" d=" M 56 28 L 595 28" stroke-miterlimit="10" stroke-opacity="0.25"/></g><g><path fill="none" stroke="none"/><path fill="none" stroke="rgb(172, 255, 165)" paint-order="fill stroke markers" d=" M 41.259753593429195 NaN" stroke-miterlimit="10" stroke-width="3"/><path fill="none" stroke="none"/><path fill="none" stroke="rgb(172, 255, 165)" paint-order="fill stroke markers" d=" M 45.5 NaN" stroke-miterlimit="10" stroke-width="3"/><path fill="none" stroke="none"/><path fill="none" stroke="rgb(172, 255, 165)" paint-order="fill stroke markers" d=" M 49.88398357289532 NaN" stroke-miterlimit="10" stroke-width="3"/><path fill="none" stroke="none"/><path fill="none" stroke="rgb(172, 255, 165)" paint-order="fill stroke markers" d=" M 54.26796714579052 NaN" stroke-miterlimit="10" stroke-width="3"/><path fill="none" stroke="none"/><path fill="none" stroke="rgb(172, 255, 165)" paint-order="fill stroke markers" d=" M 58.72381930184804 NaN" stroke-miterlimit="10" stroke-width="3"/><path fill="none" stroke="none"/><path fill="none" stroke="rgb(172, 255, 165)" paint-order="fill stroke markers" d=" M 63.107802874743356 NaN" stroke-miterlimit="10" stroke-width="3"/><path fill="none" stroke="none"/><path fill="none" stroke="rgb(172, 255, 165)" paint-order="fill stroke markers" d=" M 67.49178644763867 NaN" stroke-miterlimit="10" stroke-width="3"/><path fill="none" stroke="none"/><path fill="none" stroke="rgb(172, 255, 165)" paint-order="fill stroke markers" d=" M 71.73203285420948 NaN" stroke-miterlimit="10" stroke-width="3"/><path fill="none" stroke="none"/><path fill="none" stroke="rgb(172, 255, 165)" paint-order="fill stroke markers" d=" M 76.11601642710468 NaN" stroke-miterlimit="10" stroke-width="3"/><path fill="none" stroke="none"/><path fill="none" stroke="rgb(172, 255, 165)" paint-order="fill stroke markers" d=" M 80.5 428.5691647009007 L 82.72792607802876 430.7272727272739 L 84.95585215605752 430.7272727272739 L 87.11190965092408 428.5691647009007 L 89.33983572895283 420.4762596020082 L 91.49589322381928 421.8250771184903 L 93.72381930184804 418.04838807234046 L 95.9517453798768 411.84382749652286 L 98.03593429158116 414.0019355228942 L 100.26386036960992 411.84382749652286 L 102.41991786447636 412.6531180064121 L 104.64784394250512 405.09973991411243 L 106.80390143737168 401.05328736466436 L 109.03182751540044 410.22524647674436 L 111.2597535934292 381.3605516240241 L 113.41581108829575 387.5651121998435 L 115.6437371663244 379.7419706042456 L 117.79979466119096 384.0581866569901 L 120.02772073921972 384.5977136635811 L 122.25564681724848 377.58386257787424 L 124.26796714579052 378.66291659106173 L 126.49589322381928 386.2162946833596 L 128.65195071868584 383.78842315369366 L 130.8798767967146 382.70936914050617 L 133.03593429158116 384.3279501602847 L 135.26386036960992 381.6303151273223 L 137.49178644763856 379.7419706042456 L 139.64784394250512 373.537410028428 L 141.87577002053388 372.1885925119459 L 144.03182751540044 370.300247988871 L 146.2597535934292 365.44450492953547 L 148.48767967145795 377.0443355712814 L 150.5 367.8723764592032 L 152.72792607802876 368.6816669690925 L 154.88398357289532 354.6539647976788" stroke-miterlimit="10" stroke-width="3"/><path fill="none" stroke="none"/><path fill="none" stroke="rgb(172, 255, 165)" paint-order="fill stroke markers" d=" M 159.26796714579052 NaN" stroke-miterlimit="10" stroke-width="3"/><path fill="none" stroke="none"/><path fill="none" stroke="rgb(172, 255, 165)" paint-order="fill stroke markers" d=" M 163.72381930184804 364.0956874130534 L 165.8798767967146 359.5097078570125 L 168.10780287474336 357.0818363273447 L 170.26386036960992 358.4306538438286 L 172.49178644763856 354.38420129438055 L 174.71971252566732 357.62136333393755 L 176.73203285420948 350.8772757515271 L 178.95995893223824 350.3377487449343 L 181.11601642710468 347.3703502086737 L 183.34394250513344 347.3703502086737 L 185.5 344.4029516724131 L 187.72792607802876 343.054134155931 L 189.95585215605752 337.6588640900027 L 192.11190965092408 335.5007560636295 L 194.33983572895283 335.5007560636295 L 196.49589322381928 334.9612290570385 L 198.72381930184804 331.18454001088867 L 200.9517453798768 333.34264803726 L 203.03593429158116 334.6914655537421 L 205.26386036960992 331.9938305207761 L 207.41991786447636 329.0264319845155 L 209.64784394250512 327.67761446803524 L 211.80390143737168 326.59856045484776 L 214.03182751540044 324.4404524284764 L 216.2597535934292 322.2823444021051 L 218.41581108829575 319.5847093691409 L 220.6437371663244 316.0777838262875 L 222.79979466119096 316.0777838262875 L 225.02772073921972 312.57085828343406 L 227.25564681724848 310.68251376035914 L 229.26796714579052 309.8732232504699 L 231.49589322381928 310.1429867537645 L 233.65195071868584 307.98487872739497 L 235.8798767967146 307.1755882175039 L 238.03593429158116 302.3198451581702 L 240.26386036960992 298.27339260872213 L 242.49178644763856 303.6686626746505 L 244.64784394250512 300.9710276416863 L 246.87577002053388 300.43150063509347 L 249.03182751540044 293.4176495493866 L 251.2597535934292 292.33859553620096 L 253.48767967145795 294.2269400592759 L 255.5 296.65481158894363 L 257.72792607802876 290.1804875098296 L 259.8839835728953 290.72001451642245 L 262.1119096509241 286.9433254702708 L 264.2679671457905 286.6735619669744 L 266.4958932238193 286.13403496038336 L 268.72381930184804 284.51545394060486 L 270.8798767967146 278.31089336478544 L 273.10780287474336 277.7713663581926 L 275.2638603696099 272.10633278896785 L 277.49178644763856 272.10633278896785 L 279.7197125256673 269.4086977560037 L 281.7320328542095 272.10633278896785 L 283.95995893223824 264.28319119337175 L 286.1160164271047 265.90177221315025 L 288.34394250513344 263.20413718018426 L 290.5 262.66461017359325 L 292.72792607802876 259.69721163733084 L 294.9558521560575 260.5065021472219 L 297.1119096509241 257.2693401076649 L 299.33983572895283 252.14383354503116 L 301.4958932238193 249.7159620153634 L 303.72381930184804 243.78116494284222 L 305.9517453798768 247.01832698239923 L 308.03593429158116 247.28809048569565 L 310.2638603696099 242.16258392306372 L 312.41991786447636 243.78116494284222 L 314.6478439425051 241.35329341317265 L 316.8039014373717 236.76731385713538 L 319.03182751540044 236.49755035383896 L 321.2597535934292 234.0696788241694 L 323.41581108829564 227.8651182483518 L 325.6437371663244 227.8651182483518 L 327.79979466119096 227.05582773846254 L 330.0277207392197 224.08842920220195 L 332.25564681724836 225.43724671868404 L 334.26796714579064 224.62795620879479 L 336.4958932238194 224.08842920220195 L 338.65195071868584 220.85126716264494 L 340.8798767967146 219.23268614286644 L 343.03593429158104 221.12103066594136 L 345.2638603696098 218.15363212968077 L 347.49178644763856 214.64670658682735 L 349.64784394250523 214.3769430835291 L 351.875770020534 211.40954454727034 L 354.03182751540044 207.63285550111868 L 356.2597535934292 204.6654569648599 L 358.48767967145795 212.4885985604542" stroke-miterlimit="10" stroke-width="3"/><path fill="none" stroke="none"/><path fill="none" stroke="rgb(172, 255, 165)" paint-order="fill stroke markers" d=" M 362.72792607802876 201.6980584285975 L 364.8839835728952 198.4608963890405 L 367.11190965092396 198.73065989233692 L 369.26796714579064 198.73065989233692 L 371.4958932238194 194.68420734289066 L 373.72381930184815 193.8749168330014 L 375.8798767967146 185.51224823081066 L 378.10780287474336 182.00532268795723 L 380.2638603696098 178.4983971451038 L 382.49178644763856 180.1169781648823 L 384.7197125256673 178.2286336418074 L 386.73203285420936 177.41934313191814 L 388.9599589322381 176.8798161253253 L 391.1160164271048 178.2286336418074 L 393.34394250513355 176.34028911873247 L 395.5 172.56360007258263 L 397.72792607802876 168.24738401983996 L 399.9558521560575 165.54974898687396 L 402.11190965092396 161.50329643742953 L 404.3398357289527 159.3451884110582 L 406.4958932238194 156.10802637149936 L 408.72381930184815 150.71275630557102 L 410.9517453798769 150.4429928022746 L 413.03593429158104 153.94991834512984 L 415.2638603696098 150.4429928022746 L 417.4199178644765 152.33133732535134 L 419.64784394250523 153.14062783523877 L 421.8039014373717 151.7918103187567 L 424.03182751540044 148.28488477590327 L 426.2597535934292 145.04772273634626 L 428.41581108829564 138.0338716506394 L 430.6437371663244 137.49434464404658 L 432.7997946611911 134.7967096110806 L 435.0277207392196 133.71765559789674 L 437.25564681724836 132.09907457811823 L 439.26796714579064 131.82931107482 L 441.4958932238194 129.13167604185583 L 443.65195071868584 124.54569648581673 L 445.8798767967146 126.43404100889165 L 448.03593429158104 125.89451400229882 L 450.2638603696098 118.61089941329556 L 452.49178644763856 117.8016089034063 L 454.64784394250523 117.26208189681347 L 456.875770020534 112.67610234077438 L 459.03182751540044 111.05752132099406 L 461.2597535934292 108.3598862880317 L 463.48767967145795 105.66225125506571 L 465.5 104.58319724188004 L 467.72792607802876 104.85296074517646 L 469.8839835728952 95.68100163309828 L 472.11190965092396 95.41123812980186 L 474.26796714579064 92.17407609024485 L 476.4958932238194 88.93691405068785 L 478.72381930184815 76.25802939575442 L 480.8798767967146 69.24417831004757 L 483.10780287474336 72.21157684630816 L 485.2638603696098 72.48134034960458 L 487.49178644763856 70.86275932982608 L 489.7197125256673 71.40228633641891 L 491.73203285420936 70.86275932982608 L 493.9599589322381 66.00701627048875 L 496.1160164271048 64.65819875400848 L 498.34394250513355 69.51394181334217 L 500.5 65.46748926389773 L 502.72792607802876 58.18387467489447 L 504.9558521560575 52.51884110566789 L 507.11190965092396 48.47238855622163 L 509.3398357289527 47.66309804633238 L 511.4958932238194 47.123571039739545 L 513.7238193018482 44.42593600677537 L 515.9517453798769 46.58404403314671 L 518.035934291581 46.85380753644313 L 520.2638603696098 45.235226516664625 L 522.4199178644765 45.235226516664625 L 524.6478439425052 47.123571039739545 L 526.8039014373717 44.96546301336821 L 529.0318275154004 40.91901046392195 L 531.2597535934292 35.52374039799179 L 533.4158110882956 31.747051351841947 L 535.6437371663244 31.207524345249112 L 537.7997946611911 35.25397689469537 L 540.0277207392196 31.207524345249112 L 542.2556468172484 32.826105365029434 L 544.2679671457906 31.207524345249112 L 546.4958932238194 34.98421339139895 L 548.6519507186858 33.09586886832403 L 550.8798767967146 32.28657835843478 L 553.035934291581 32.55634186173302 L 555.2638603696098 28.779652815581358 L 557.4917864476386 30.39823383535986 L 559.6478439425052 27.70059880239569 L 561.875770020534 27.970362305692106 L 564.0318275154004 25.272727272727934 L 566.2597535934292 27.970362305692106 L 568.487679671458 25.272727272727934 L 570.5 29.858706828767026" stroke-miterlimit="10" stroke-width="3"/></g></g><g><g/><g><path fill="#ffffff" stroke="#e5e5e5" paint-order="fill stroke markers" d=" M 66 15 L 140 15 L 140 55 L 66 55 L 66 15 Z" fill-opacity="0.95" stroke-miterlimit="10" stroke-opacity="0.5"/><text fill="#444444" stroke="none" font-family="ADAM" font-size="10pt" font-style="normal" font-weight="normal" text-decoration="normal" x="101" y="35" text-anchor="start" dominant-baseline="central">N2O</text><g><path fill="none" stroke="rgb(172, 255, 165)" paint-order="fill stroke markers" d=" M 76 35 L 96 35" stroke-miterlimit="10" stroke-width="3"/></g></g></g><g><g fill="#444444"><path fill="none" stroke="black" paint-order="fill stroke markers" d=" M 56 451 L 595 451" stroke-miterlimit="10"/><path fill="none" stroke="rgb(255, 67, 67)" paint-order="fill stroke markers" d=" M 94 457 L 94 449" stroke-miterlimit="10" stroke-width="3"/><path fill="none" stroke="rgb(255, 67, 67)" paint-order="fill stroke markers" d=" M 225 457 L 225 449" stroke-miterlimit="10" stroke-width="3"/><path fill="none" stroke="rgb(255, 67, 67)" paint-order="fill stroke markers" d=" M 356 457 L 356 449" stroke-miterlimit="10" stroke-width="3"/><path fill="" stroke="rgb(255, 67, 67)" paint-order="fill stroke markers" d=" M 487 457 L 487 449" stroke-miterlimit="10" stroke-width="3"/><g transform="translate(94,462) rotate(0,0,0)"><text fill="" stroke="none" font-family="helvetica" font-size="8pt" font-style="normal" font-weight="normal" text-decoration="normal" x="0" y="0" text-anchor="middle" dominant-baseline="hanging">2000</text><g transform="rotate(0,0,0) translate(-94,-462) translate(225,462) rotate(0,0,0)"><text fill="" stroke="none" font-family="helvetica" font-size="8pt" font-style="normal" font-weight="normal" text-decoration="normal" x="0" y="0" text-anchor="middle" dominant-baseline="hanging">2005</text><g transform="rotate(0,0,0) translate(-225,-462) translate(356,462) rotate(0,0,0)"><text fill="" stroke="none" font-family="helvetica" font-size="8pt" font-style="normal" font-weight="normal" text-decoration="normal" x="0" y="0" text-anchor="middle" dominant-baseline="hanging">2010</text><g transform="rotate(0,0,0) translate(-356,-462) translate(487,462) rotate(0,0,0)"><text fill="" stroke="none" font-family="helvetica" font-size="8pt" font-style="normal" font-weight="normal" text-decoration="normal" x="0" y="0" text-anchor="middle" dominant-baseline="hanging">2015</text><g transform="rotate(0,0,0) translate(-487,-462) translate(326,480) rotate(0,0,0)"><text fill="" stroke="none" font-family="ADAM" font-size="12pt" font-style="normal" font-weight="normal" text-decoration="normal" x="0" y="0" text-anchor="middle" dominant-baseline="hanging">Año</text><g transform="rotate(0,0,0) translate(-326,-480)"/></g></g></g></g></g></g><g fill="#444444"><path fill="none" stroke="black" paint-order="fill stroke markers" d=" M 56 451 L 56 5" stroke-miterlimit="10"/><path fill="none" stroke="rgb(255, 67, 67)" paint-order="fill stroke markers" d=" M 50 406 L 58 406" stroke-miterlimit="10" stroke-width="3"/><path fill="none" stroke="rgb(255, 67, 67)" paint-order="fill stroke markers" d=" M 50 352 L 58 352" stroke-miterlimit="10" stroke-width="3"/><path fill="none" stroke="rgb(255, 67, 67)" paint-order="fill stroke markers" d=" M 50 298 L 58 298" stroke-miterlimit="10" stroke-width="3"/><path fill="none" stroke="rgb(255, 67, 67)" paint-order="fill stroke markers" d=" M 50 244 L 58 244" stroke-miterlimit="10" stroke-width="3"/><path fill="none" stroke="rgb(255, 67, 67)" paint-order="fill stroke markers" d=" M 50 190 L 58 190" stroke-miterlimit="10" stroke-width="3"/><path fill="none" stroke="rgb(255, 67, 67)" paint-order="fill stroke markers" d=" M 50 136 L 58 136" stroke-miterlimit="10" stroke-width="3"/><path fill="none" stroke="rgb(255, 67, 67)" paint-order="fill stroke markers" d=" M 50 82 L 58 82" stroke-miterlimit="10" stroke-width="3"/><path fill="none" stroke="rgb(255, 67, 67)" paint-order="fill stroke markers" d=" M 50 28 L 58 28" stroke-miterlimit="10" stroke-width="3"/><path fill="none" stroke="rgb(255, 67, 67)" paint-order="fill stroke markers" d=" M 52 417 L 56 417" stroke-miterlimit="10"/><path fill="none" stroke="rgb(255, 67, 67)" paint-order="fill stroke markers" d=" M 52 427 L 56 427" stroke-miterlimit="10"/><path fill="none" stroke="rgb(255, 67, 67)" paint-order="fill stroke markers" d=" M 52 438 L 56 438" stroke-miterlimit="10"/><path fill="none" stroke="rgb(255, 67, 67)" paint-order="fill stroke markers" d=" M 52 449 L 56 449" stroke-miterlimit="10"/><path fill="none" stroke="rgb(255, 67, 67)" paint-order="fill stroke markers" d=" M 52 406 L 56 406" stroke-miterlimit="10"/><path fill="none" stroke="rgb(255, 67, 67)" paint-order="fill stroke markers" d=" M 52 395 L 56 395" stroke-miterlimit="10"/><path fill="none" stroke="rgb(255, 67, 67)" paint-order="fill stroke markers" d=" M 52 384 L 56 384" stroke-miterlimit="10"/><path fill="none" stroke="rgb(255, 67, 67)" paint-order="fill stroke markers" d=" M 52 374 L 56 374" stroke-miterlimit="10"/><path fill="none" stroke="rgb(255, 67, 67)" paint-order="fill stroke markers" d=" M 52 363 L 56 363" stroke-miterlimit="10"/><path fill="none" stroke="rgb(255, 67, 67)" paint-order="fill stroke markers" d=" M 52 352 L 56 352" stroke-miterlimit="10"/><path fill="none" stroke="rgb(255, 67, 67)" paint-order="fill stroke markers" d=" M 52 341 L 56 341" stroke-miterlimit="10"/><path fill="none" stroke="rgb(255, 67, 67)" paint-order="fill stroke markers" d=" M 52 330 L 56 330" stroke-miterlimit="10"/><path fill="none" stroke="rgb(255, 67, 67)" paint-order="fill stroke markers" d=" M 52 320 L 56 320" stroke-miterlimit="10"/><path fill="none" stroke="rgb(255, 67, 67)" paint-order="fill stroke markers" d=" M 52 309 L 56 309" stroke-miterlimit="10"/><path fill="none" stroke="rgb(255, 67, 67)" paint-order="fill stroke markers" d=" M 52 298 L 56 298" stroke-miterlimit="10"/><path fill="none" stroke="rgb(255, 67, 67)" paint-order="fill stroke markers" d=" M 52 287 L 56 287" stroke-miterlimit="10"/><path fill="none" stroke="rgb(255, 67, 67)" paint-order="fill stroke markers" d=" M 52 276 L 56 276" stroke-miterlimit="10"/><path fill="none" stroke="rgb(255, 67, 67)" paint-order="fill stroke markers" d=" M 52 266 L 56 266" stroke-miterlimit="10"/><path fill="none" stroke="rgb(255, 67, 67)" paint-order="fill stroke markers" d=" M 52 255 L 56 255" stroke-miterlimit="10"/><path fill="none" stroke="rgb(255, 67, 67)" paint-order="fill stroke markers" d=" M 52 244 L 56 244" stroke-miterlimit="10"/><path fill="none" stroke="rgb(255, 67, 67)" paint-order="fill stroke markers" d=" M 52 233 L 56 233" stroke-miterlimit="10"/><path fill="none" stroke="rgb(255, 67, 67)" paint-order="fill stroke markers" d=" M 52 222 L 56 222" stroke-miterlimit="10"/><path fill="none" stroke="rgb(255, 67, 67)" paint-order="fill stroke markers" d=" M 52 212 L 56 212" stroke-miterlimit="10"/><path fill="none" stroke="rgb(255, 67, 67)" paint-order="fill stroke markers" d=" M 52 201 L 56 201" stroke-miterlimit="10"/><path fill="none" stroke="rgb(255, 67, 67)" paint-order="fill stroke markers" d=" M 52 190 L 56 190" stroke-miterlimit="10"/><path fill="none" stroke="rgb(255, 67, 67)" paint-order="fill stroke markers" d=" M 52 179 L 56 179" stroke-miterlimit="10"/><path fill="none" stroke="rgb(255, 67, 67)" paint-order="fill stroke markers" d=" M 52 169 L 56 169" stroke-miterlimit="10"/><path fill="none" stroke="rgb(255, 67, 67)" paint-order="fill stroke markers" d=" M 52 158 L 56 158" stroke-miterlimit="10"/><path fill="none" stroke="rgb(255, 67, 67)" paint-order="fill stroke markers" d=" M 52 147 L 56 147" stroke-miterlimit="10"/><path fill="none" stroke="rgb(255, 67, 67)" paint-order="fill stroke markers" d=" M 52 136 L 56 136" stroke-miterlimit="10"/><path fill="none" stroke="rgb(255, 67, 67)" paint-order="fill stroke markers" d=" M 52 125 L 56 125" stroke-miterlimit="10"/><path fill="none" stroke="rgb(255, 67, 67)" paint-order="fill stroke markers" d=" M 52 115 L 56 115" stroke-miterlimit="10"/><path fill="none" stroke="rgb(255, 67, 67)" paint-order="fill stroke markers" d=" M 52 104 L 56 104" stroke-miterlimit="10"/><path fill="none" stroke="rgb(255, 67, 67)" paint-order="fill stroke markers" d=" M 52 93 L 56 93" stroke-miterlimit="10"/><path fill="none" stroke="rgb(255, 67, 67)" paint-order="fill stroke markers" d=" M 52 82 L 56 82" stroke-miterlimit="10"/><path fill="none" stroke="rgb(255, 67, 67)" paint-order="fill stroke markers" d=" M 52 71 L 56 71" stroke-miterlimit="10"/><path fill="none" stroke="rgb(255, 67, 67)" paint-order="fill stroke markers" d=" M 52 61 L 56 61" stroke-miterlimit="10"/><path fill="none" stroke="rgb(255, 67, 67)" paint-order="fill stroke markers" d=" M 52 50 L 56 50" stroke-miterlimit="10"/><path fill="none" stroke="rgb(255, 67, 67)" paint-order="fill stroke markers" d=" M 52 39 L 56 39" stroke-miterlimit="10"/><path fill="none" stroke="rgb(255, 67, 67)" paint-order="fill stroke markers" d=" M 52 28 L 56 28" stroke-miterlimit="10"/><path fill="none" stroke="rgb(255, 67, 67)" paint-order="fill stroke markers" d=" M 52 17 L 56 17" stroke-miterlimit="10"/><path fill="" stroke="rgb(255, 67, 67)" paint-order="fill stroke markers" d=" M 52 7 L 56 7" stroke-miterlimit="10"/><g transform="translate(45,406) rotate(0,0,0)"><text fill="" stroke="none" font-family="helvetica" font-size="8pt" font-style="normal" font-weight="normal" text-decoration="normal" x="0" y="0" text-anchor="end" dominant-baseline="central">316</text><g transform="rotate(0,0,0) translate(-45,-406) translate(45,352) rotate(0,0,0)"><text fill="" stroke="none" font-family="helvetica" font-size="8pt" font-style="normal" font-weight="normal" text-decoration="normal" x="0" y="0" text-anchor="end" dominant-baseline="central">318</text><g transform="rotate(0,0,0) translate(-45,-352) translate(45,298) rotate(0,0,0)"><text fill="" stroke="none" font-family="helvetica" font-size="8pt" font-style="normal" font-weight="normal" text-decoration="normal" x="0" y="0" text-anchor="end" dominant-baseline="central">320</text><g transform="rotate(0,0,0) translate(-45,-298) translate(45,244) rotate(0,0,0)"><text fill="" stroke="none" font-family="helvetica" font-size="8pt" font-style="normal" font-weight="normal" text-decoration="normal" x="0" y="0" text-anchor="end" dominant-baseline="central">322</text><g transform="rotate(0,0,0) translate(-45,-244) translate(45,190) rotate(0,0,0)"><text fill="" stroke="none" font-family="helvetica" font-size="8pt" font-style="normal" font-weight="normal" text-decoration="normal" x="0" y="0" text-anchor="end" dominant-baseline="central">324</text><g transform="rotate(0,0,0) translate(-45,-190) translate(45,136) rotate(0,0,0)"><text fill="" stroke="none" font-family="helvetica" font-size="8pt" font-style="normal" font-weight="normal" text-decoration="normal" x="0" y="0" text-anchor="end" dominant-baseline="central">326</text><g transform="rotate(0,0,0) translate(-45,-136) translate(45,82) rotate(0,0,0)"><text fill="" stroke="none" font-family="helvetica" font-size="8pt" font-style="normal" font-weight="normal" text-decoration="normal" x="0" y="0" text-anchor="end" dominant-baseline="central">328</text><g transform="rotate(0,0,0) translate(-45,-82) translate(45,28) rotate(0,0,0)"><text fill="" stroke="none" font-family="helvetica" font-size="8pt" font-style="normal" font-weight="normal" text-decoration="normal" x="0" y="0" text-anchor="end" dominant-baseline="central">330</text><g transform="rotate(0,0,0) translate(-45,-28) translate(20,228) rotate(-90,0,0)"><text fill="" stroke="none" font-family="ADAM" font-size="12pt" font-style="normal" font-weight="normal" text-decoration="normal" x="0" y="0" text-anchor="middle" dominant-baseline="alphabetic">N2O (partes por mil millones)</text><g transform="rotate(90,0,0) translate(-20,-228)"/></g></g></g></g></g></g></g></g></g></g></g></g><g/><g/><g/><g/><g/><g/><g/><g/><g/><g/><g/><g/><g/><g/><g/><g/><g/><g/><g/><g/><g/><g/><g/><g/><g/><g/><g/><g/><g/><g/><g/><g/><g/><g/><g/><g/><g/><g/><g/><g/><g/></g></svg>