<svg version="1.1" xmlns="http://www.w3.org/2000/svg" xmlns:xlink="http://www.w3.org/1999/xlink" width="900" height="500" style="width: 900px; height: 500px;"><defs/><g><g transform="scale(1,1) translate(0.5,0.5)"><rect fill="#FFFFFF" stroke="none" x="0" y="0" width="900" height="500"/><rect fill="#ffffff" stroke="none" x="0" y="0" width="900" height="500"/><rect fill="#FFFFFF" stroke="none" x="63" y="5" width="832" height="446"/><rect fill="white" stroke="none" x="63" y="5" width="832" height="446"/><g><rect fill="none" stroke="rgb(0, 131, 255)" x="63" y="5" width="832" height="446" stroke-miterlimit="10" stroke-width="7" stroke-opacity="0.5"/></g><g><g><path fill="none" stroke="rgb(0, 131, 255)" paint-order="fill stroke markers" d=" M 179 451 L 179 5" stroke-miterlimit="10" stroke-opacity="0"/><path fill="none" stroke="rgb(0, 131, 255)" paint-order="fill stroke markers" d=" M 371 451 L 371 5" stroke-miterlimit="10" stroke-opacity="0"/><path fill="none" stroke="rgb(0, 131, 255)" paint-order="fill stroke markers" d=" M 564 451 L 564 5" stroke-miterlimit="10" stroke-opacity="0"/><path fill="none" stroke="rgb(0, 131, 255)" paint-order="fill stroke markers" d=" M 757 451 L 757 5" stroke-miterlimit="10" stroke-opacity="0"/></g><g><path fill="none" stroke="rgb(0, 131, 255)" paint-order="fill stroke markers" d=" M 63 383 L 895 383" stroke-miterlimit="10" stroke-opacity="0.25"/><path fill="none" stroke="rgb(0, 131, 255)" paint-order="fill stroke markers" d=" M 63 288 L 895 288" stroke-miterlimit="10" stroke-opacity="0.25"/><path fill="none" stroke="rgb(0, 131, 255)" paint-order="fill stroke markers" d=" M 63 192 L 895 192" stroke-miterlimit="10" stroke-opacity="0.25"/><path fill="none" stroke="rgb(0, 131, 255)" paint-order="fill stroke markers" d=" M 63 97 L 895 97" stroke-miterlimit="10" stroke-opacity="0.25"/></g><g><path fill="none" stroke="none"/><path fill="none" stroke="rgb(255, 67, 67)" paint-order="fill stroke markers" d=" M 313.57633999365686 NaN" stroke-miterlimit="10" stroke-width="3"/><path fill="none" stroke="none"/><path fill="none" stroke="rgb(255, 67, 67)" paint-order="fill stroke markers" d=" M 316.6900729464003 NaN L 318.32610212496036 388.4010670040957 L 319.9093561687282 383.99685370587304 L 321.5453853472883 395.6270273505297 L 323.12863939105614 424.874054188077 L 324.7646685696162 430.727272727273 L 326.40069774817636 405.4840761608375 L 327.9839517919442 378.8872036455973 L 329.6199809705043 366.51346152201995 L 331.20323501427214 381.8996092781481 L 332.8392641928322 385.7699785402224 L 334.47529337139235 370.6126210853008 L 336.0057722803679 367.7336764617876 L 337.641801458928 371.7184408744647 L 339.22505550269585 382.7766387661054 L 340.86108468125593 393.96829766678366 L 342.4443387250238 406.49456665783237 L 344.0803679035839 408.38208664278454 L 345.716397082144 388.7823841727727 L 347.29965112591185 362.8528167027184 L 348.93568030447193 347.7526568230983 L 350.5189343482398 338.50571548267453 L 352.15496352679986 333.4341971392664 L 353.79099270536 345.90326855501326 L 355.2686964795433 351.0319844737228 L 356.9047256581034 340.0119182989497 L 358.4879797018712 346.6468370339344 L 360.12400888043135 371.2227285551844 L 361.7072629241992 382.79570462453967 L 363.3432921027593 369.25894513649655 L 364.97932128131936 346.4180467327278 L 366.5625753250872 338.86796679291774 L 368.19860450364735 331.31788685310767 L 369.78185854741514 324.96895599463096 L 371.4178877259753 328.64866667236674 L 373.05391690453536 324.4160461000488 L 374.5316206787187 325.7697220488535 L 376.1676498572788 326.7802125458479 L 377.7509039010466 324.45417781691685 L 379.3869330796067 341.2893308140183 L 380.97018712337456 358.01008866051643 L 382.6062163019347 351.7374212357754 L 384.2422454804948 323.1767653018478 L 385.8254995242626 302.14712344929603 L 387.4615287028227 300.0308131631373 L 389.04478274659056 301.4035549703758 L 390.68081192515064 317.60953463915985 L 392.3168411037108 311.3749989312864 L 393.79454487789405 288.6103639612529 L 395.4305740564542 290.2881595034328 L 397.01382810022204 299.0965860998781 L 398.6498572787821 313.3959799252757 L 400.23311132255 328.68679838923435 L 401.86914050111005 334.3112266272242 L 403.5051696796702 306.8182587655929 L 405.088423723438 277.64749536178124 L 406.7244529019981 280.16418867505126 L 408.307706945766 283.08126501543256 L 409.94373612432605 280.58363756059634 L 411.57976530288613 283.99642622025794 L 413.11024421186175 280.12605695818365 L 414.74627339042183 279.43968605456485 L 416.3295274341897 293.85347503056573 L 417.96555661274977 300.6981182083223 L 419.5488106565176 306.60853432282056 L 421.1848398350777 319.7449107837524 L 422.82086901363783 313.9870215367255 L 424.4041230574056 302.90975778665097 L 426.04015223596576 294.13946290707327 L 427.6234062797336 279.5731470636015 L 429.2594354582937 276.293819412977 L 430.8954646368538 276.67513658165444 L 432.3731684110371 275.56931679249055 L 434.0091975895972 286.74190983473454 L 435.59245163336504 289.86871061788815 L 437.2284808119252 289.315800723306 L 438.811734855693 303.1576139462909 L 440.4477640342531 308.9917666270535 L 442.0837932128132 293.5484212956235 L 443.66704725658104 265.4453459641086 L 445.3030764351411 248.66739054230857 L 446.886330478909 250.61210810256262 L 448.5223596574691 260.06877388575913 L 450.1583888360292 269.0106614912411 L 451.63609261021253 260.43102519600234 L 453.2721217887726 262.71892820806625 L 454.85537583254046 280.6980327111992 L 456.49140501110054 296.3701683438353 L 458.0746590548684 316.9994271692758 L 459.71068823342847 318.9441447295303 L 461.3467174119886 282.3758282533795 L 462.92997145575646 239.22979061754586 L 464.56600063431654 226.37940203312155 L 466.1492546780844 243.36708189769433 L 467.78528385664447 267.9811051358124 L 469.4213130352046 268.8200029069021 L 470.8990168093879 256.82757795200223 L 472.535045987948 256.84664381043603 L 474.1183000317158 258.58163692791777 L 475.75432921027596 273.98685054247926 L 477.3375832540438 290.00217162692525 L 478.9736124326039 280.45017655155925 L 480.60964161116397 266.37957302736777 L 482.1928956549318 251.85138890076405 L 483.8289248334919 245.14020673204368 L 485.41217887725975 248.00008549712356 L 487.0482080558199 254.7684652411449 L 488.68423723437996 244.5491651205939 L 490.21471614335553 243.65306977420232 L 491.85074532191567 270.26900814787587 L 493.43399936568346 286.83723912690357 L 495.0700285442436 287.44734659678716 L 496.65328258801145 293.81534331369767 L 498.28931176657153 296.0460487504597 L 499.9253409451316 269.73516411172795 L 501.50859498889946 248.2479416567635 L 503.14462416745954 243.7865307832394 L 504.7278782112274 241.93714251515485 L 506.36390738978747 251.3938082983509 L 507.99993656834766 256.9801048194731 L 509.47764034253095 248.03821721399117 L 511.113669521091 236.86562417174673 L 512.6969235648589 241.80368150611775 L 514.332952743419 257.3042244128487 L 515.9162067871869 284.6446654070096 L 517.552235965747 282.0517086600039 L 519.188265144307 239.15352718381064 L 520.7715191880749 222.07051802706837 L 522.4075483666351 220.92656652103688 L 523.9908024104028 212.40412780109955 L 525.626831588963 232.6902011747311 L 527.2628607675231 248.7817856929114 L 528.7405645417064 230.97427391568317 L 530.3765937202664 223.9199062951534 L 531.9598477640343 234.3107991416091 L 533.5958769425944 239.03913203320735 L 535.1791309863622 260.06877388575913 L 536.8151601649224 268.495883313527 L 538.4511893434825 234.57772115968328 L 540.0344433872503 211.22204457820044 L 541.6704725658104 206.7225019878083 L 543.2537266095783 193.81491582808258 L 544.8897557881384 191.83206655096092 L 546.5257849666984 208.15244137034824 L 548.0034887408817 203.3097133281467 L 549.6395179194419 201.23153475885556 L 551.2227719632098 232.51860844882594 L 552.8588011417698 244.16784795191688 L 554.4420551855377 254.1774236296951 L 556.0780843640978 253.39572343390682 L 557.7141135426579 222.39463762044443 L 559.2973675864257 201.97510323777624 L 560.9333967649858 195.34018450279154 L 562.5166508087536 193.8911792618178 L 564.1526799873137 200.44983456306727 L 565.7887091658738 211.60336174687745 L 567.3191880748494 205.44508947273926 L 568.9552172534095 210.93605670169245 L 570.5384712971774 234.59678701811708 L 572.1745004757374 242.22313039166283 L 573.7577545195053 251.3366107230495 L 575.3937836980654 258.3147149098436 L 577.0298128766256 237.15161204825472 L 578.6130669203934 203.17625231911006 L 580.2490960989535 195.77869924677043 L 581.8323501427213 207.94271692757593 L 583.4683793212814 210.23061993963893 L 585.1044084998415 200.94554688234757 L 586.5821122740248 202.71867171669692 L 588.2181414525849 211.37457144567134 L 589.8013954963527 228.64823918675165 L 591.4374246749129 246.9895950001287 L 593.0206787186806 253.12880141583219 L 594.6567078972408 263.8056821387963 L 596.2927370758009 240.16401768080505 L 597.8759911195688 199.0770927558292 L 599.5120202981288 198.58138043654844 L 601.0952743418967 206.77969956310972 L 602.7313035204568 209.77303933722624 L 604.3673326990169 209.75397347879243 L 605.8450364732003 210.97418841856006 L 607.4810656517603 222.24211075297353 L 609.0643196955282 229.42993938253994 L 610.7003488740883 242.1087352410591 L 612.2836029178561 258.1812539008065 L 613.9196320964162 257.64740986465813 L 615.5556612749763 233.43376965365132 L 617.1389153187441 198.79110487932076 L 618.7749444973042 189.23910980395522 L 620.358198541072 195.9884236895432 L 621.9942277196321 200.0303856775222 L 623.6302568981923 206.226789668528 L 625.1079606723756 212.55665466857045 L 626.7439898509357 214.23445021075077 L 628.3272438947035 215.45466515051794 L 629.9632730732636 218.96278310234902 L 631.5465271170315 232.25168643075222 L 633.1825562955916 235.87419953318567 L 634.8185854741516 213.01423527098314 L 636.4018395179195 186.01697972863258 L 638.0378686964797 177.13228969845204 L 639.6211227402474 194.0246402708549 L 641.2571519188076 204.70152099381903 L 642.8931810973677 206.32211896069703 L 644.4236600063432 197.2658362046118 L 646.0596891849034 188.70526576780685 L 647.6429432286711 214.59670152099443 L 649.2789724072313 234.7874456024556 L 650.8622264509992 239.47764677718624 L 652.4982556295593 241.80368150611775 L 654.1342848081193 221.89892530116367 L 655.7175388518872 205.29256260526836 L 657.3535680304473 194.00557441242108 L 658.9368220742151 198.48605114437942 L 660.5728512527752 216.06477262040153 L 662.2088804313353 206.15052623479232 L 663.6865842055187 196.6175970178606 L 665.3226133840787 207.06568743961816 L 666.9058674278466 219.21063926198894 L 668.5418966064067 230.72641775604234 L 670.1251506501745 249.14403700315506 L 671.7611798287346 251.73699375016076 L 673.3972090072947 221.99425459333315 L 674.9804630510625 190.72624676179703 L 676.6164922296226 184.91115993946823 L 678.1997462733905 188.78152920154253 L 679.8357754519506 193.30013765036847 L 681.4718046305107 207.42793874986137 L 682.949508404694 213.8912647589409 L 684.5855375832541 194.71101117447415 L 686.168791627022 201.42219334319407 L 687.804820805582 236.99908518078428 L 689.3880748493499 253.73890888571623 L 691.02410402791 254.53967493993832 L 692.6601332064702 237.7617195181383 L 694.2433872502379 213.357420722793 L 695.8794164287981 202.26109111428423 L 697.462670472566 194.44408915639997 L 699.098699651126 191.08849807203978 L 700.7347288296861 192.4040423039769 L 702.2124326038694 191.08849807203978 L 703.8484617824295 188.47647546660073 L 705.4317158261973 200.88834930704616 L 707.0677450047575 222.45183519574584 L 708.6509990485253 234.69211631028656 L 710.2870282270854 233.92948197293163 L 711.9230574056455 215.70252131015832 L 713.5063114494134 182.5660593521029 L 715.1423406279735 175.43542829783792 L 716.7255946717413 180.41161734907655 L 718.3616238503014 171.01214914118145 L 719.9976530288615 185.7691235689922 L 721.5281319378371 204.4155331173106 L 723.1641611163972 201.65098364440018 L 724.747415160165 194.25343057206146 L 726.3834443387251 205.5976163402106 L 727.966698382493 223.88177457828579 L 729.602727561053 220.7359079366979 L 731.2387567396131 200.14478082812502 L 732.822010783381 170.97401742431384 L 734.458039961941 165.8453015056043 L 736.0412940057089 165.3305233278902 L 737.6773231842691 159.51543650556187 L 739.3133523628292 158.790933885075 L 740.7910561370124 159.49637064712806 L 742.4270853155725 170.59270025563637 L 744.0103393593404 177.03696040628256 L 745.6463685379005 180.65947350871647 L 747.2296225816683 201.61285192753257 L 748.8656517602284 207.12288501491958 L 750.5016809387886 178.9626121081028 L 752.0849349825564 161.6126809332868 L 753.7209641611165 156.44583329771012 L 755.3042182048844 154.88243290613264 L 756.9402473834444 158.6765387344717 L 758.5762765620045 150.05877072236535 L 760.0539803361878 147.08449680668264 L 761.690009514748 153.6431521079321 L 763.2732635585157 167.04645058693814 L 764.9092927370759 184.52984277079122 L 766.4925467808438 195.5499089455643 L 768.1285759594039 194.0437061292887 L 769.7646051379639 168.93397057189077 L 771.3478591817318 136.54107709275604 L 772.9838883602919 130.02055350837463 L 774.5671424040597 151.03112950249215 L 776.2031715826198 159.1341193368844 L 777.8392007611799 160.81191487906472 L 779.3169045353633 160.41153185195344 L 780.9529337139234 164.32003283089534 L 782.5361877576912 172.9949984183031 L 784.1722169362513 174.88251840325574 L 785.7554709800191 184.12945974367994 L 787.3915001585792 187.2181288099655 L 789.0275293371393 156.40770158084206 L 790.6107833809072 128.55248240896708 L 792.2468125594672 135.47338902045976 L 793.8300666032351 128.19023109872342 L 795.4660957817952 122.64206629446971 L 797.1021249603554 138.5048605114439 L 798.6326038693309 140.06826090302093 L 800.268633047891 127.67545292100931 L 801.8518870916588 140.23985362892563 L 803.4879162702189 163.38580576763616 L 805.0711703139867 180.12562947256856 L 806.7071994925469 186.45549447261146 L 808.343228671107 161.2504296230436 L 809.9264827148749 129.27698502945395 L 811.5625118934349 117.17016492395032 L 813.1457659372028 119.41993621914662 L 814.7817951157629 118.27598471311467 L 816.4178242943229 111.069090225114 L 817.8955280685062 117.47521865889257 L 819.5315572470664 123.0996468968824 L 821.1148112908343 129.18165573728447 L 822.7508404693943 159.57263408086328 L 824.3340945131622 177.01789454784875 L 825.9701236917223 156.8462163248205 L 827.6061528702824 125.13969374930548 L 829.1894069140502 124.66304728845898 L 830.8254360926103 127.88517736378208 L 832.4086901363781 106.09290117387582 L 834.0447193149382 112.57529304138961 L 835.6807484934983 129.39138018005724 L 837.1584522676817 103.34741755939922 L 838.7944814462418 92.28921966775852 L 840.3777354900096 117.83746996913578 L 842.0137646685697 135.49245487889357 L 843.5970187123376 150.00157314706394 L 845.2330478908976 140.9834221078463 L 846.8690770694577 115.39704008960098 L 848.4523311132256 96.6171695322455 L 850.0883602917856 78.63806502911166 L 851.6716143355535 76.35016201704866 L 853.3076435141136 92.47987825209702 L 854.9436726926738 99.6867727400977 L 856.421376466857 89.4865384779805 L 858.0574056454171 79.05751391465674 L 859.640659689185 88.30445525508094 L 861.2766888677451 110.03953386968533 L 862.8599429115129 124.8918375896651 L 864.495972090073 133.20455186683012 L 866.1320012686332 105.29213511965327 L 867.7152553124009 69.71524328206397 L 869.3512844909611 58.25666236331199 L 870.934538534729 58.733308824158485 L 872.570567713289 71.52649983328047 L 874.2065968918491 77.36065251404307 L 875.7370758008248 66.95069380915356 L 877.3731049793848 55.759034908475314 L 878.9563590231527 61.47879243863463 L 880.5923882017128 81.59327308636102 L 882.1756422454806 111.79359284560087 L 883.8116714240407 117.91373340287146 L 885.4477006026008 86.30254011952502 L 887.0309546463686 47.446320631310755 L 888.6669838249287 40.10596513427345 L 890.2502378686966 63.480707574190546 L 891.8862670472566 55.68277147474009 L 893.5222962258168 63.00406111334405 L 895.0000000000001 70.23002145977807 L 896.6360291785602 61.97450475791493 L 898.219283222328 56.00689106811569 L 899.8553124008881 70.05842873387292 L 901.438566444656 99.91556304130381 L 903.074595623216 103.99565674615087 L 904.7106248017761 71.50743397484666 L 906.293878845544 44.14792712225244 L 907.9299080241042 25.27272727272748 L 909.5131620678719 26.817061805870708" stroke-miterlimit="10" stroke-width="3"/></g></g><g><g/><g><path fill="#ffffff" stroke="#e5e5e5" paint-order="fill stroke markers" d=" M 73 15 L 144 15 L 144 55 L 73 55 L 73 15 Z" fill-opacity="0.95" stroke-miterlimit="10" stroke-opacity="0.5"/><text fill="#444444" stroke="none" font-family="ADAM" font-size="10pt" font-style="normal" font-weight="normal" text-decoration="normal" x="108" y="35" text-anchor="start" dominant-baseline="central">CH4</text><g><path fill="none" stroke="rgb(255, 67, 67)" paint-order="fill stroke markers" d=" M 83 35 L 103 35" stroke-miterlimit="10" stroke-width="3"/></g></g></g><g><g fill="#444444"><path fill="none" stroke="black" paint-order="fill stroke markers" d=" M 63 451 L 895 451" stroke-miterlimit="10"/><path fill="none" stroke="rgb(255, 67, 67)" paint-order="fill stroke markers" d=" M 179 457 L 179 449" stroke-miterlimit="10" stroke-width="3"/><path fill="none" stroke="rgb(255, 67, 67)" paint-order="fill stroke markers" d=" M 371 457 L 371 449" stroke-miterlimit="10" stroke-width="3"/><path fill="none" stroke="rgb(255, 67, 67)" paint-order="fill stroke markers" d=" M 564 457 L 564 449" stroke-miterlimit="10" stroke-width="3"/><path fill="" stroke="rgb(255, 67, 67)" paint-order="fill stroke markers" d=" M 757 457 L 757 449" stroke-miterlimit="10" stroke-width="3"/><g transform="translate(179,462) rotate(0,0,0)"><text fill="" stroke="none" font-family="helvetica" font-size="8pt" font-style="normal" font-weight="normal" text-decoration="normal" x="0" y="0" text-anchor="middle" dominant-baseline="hanging">1980</text><g transform="rotate(0,0,0) translate(-179,-462) translate(371,462) rotate(0,0,0)"><text fill="" stroke="none" font-family="helvetica" font-size="8pt" font-style="normal" font-weight="normal" text-decoration="normal" x="0" y="0" text-anchor="middle" dominant-baseline="hanging">1990</text><g transform="rotate(0,0,0) translate(-371,-462) translate(564,462) rotate(0,0,0)"><text fill="" stroke="none" font-family="helvetica" font-size="8pt" font-style="normal" font-weight="normal" text-decoration="normal" x="0" y="0" text-anchor="middle" dominant-baseline="hanging">2000</text><g transform="rotate(0,0,0) translate(-564,-462) translate(757,462) rotate(0,0,0)"><text fill="" stroke="none" font-family="helvetica" font-size="8pt" font-style="normal" font-weight="normal" text-decoration="normal" x="0" y="0" text-anchor="middle" dominant-baseline="hanging">2010</text><g transform="rotate(0,0,0) translate(-757,-462) translate(479,480) rotate(0,0,0)"><text fill="" stroke="none" font-family="ADAM" font-size="12pt" font-style="normal" font-weight="normal" text-decoration="normal" x="0" y="0" text-anchor="middle" dominant-baseline="hanging">Año</text><g transform="rotate(0,0,0) translate(-479,-480)"/></g></g></g></g></g></g><g fill="#444444"><path fill="none" stroke="black" paint-order="fill stroke markers" d=" M 63 451 L 63 5" stroke-miterlimit="10"/><path fill="none" stroke="rgb(255, 67, 67)" paint-order="fill stroke markers" d=" M 57 383 L 65 383" stroke-miterlimit="10" stroke-width="3"/><path fill="none" stroke="rgb(255, 67, 67)" paint-order="fill stroke markers" d=" M 57 288 L 65 288" stroke-miterlimit="10" stroke-width="3"/><path fill="none" stroke="rgb(255, 67, 67)" paint-order="fill stroke markers" d=" M 57 192 L 65 192" stroke-miterlimit="10" stroke-width="3"/><path fill="none" stroke="rgb(255, 67, 67)" paint-order="fill stroke markers" d=" M 57 97 L 65 97" stroke-miterlimit="10" stroke-width="3"/><path fill="none" stroke="rgb(255, 67, 67)" paint-order="fill stroke markers" d=" M 59 402 L 63 402" stroke-miterlimit="10"/><path fill="none" stroke="rgb(255, 67, 67)" paint-order="fill stroke markers" d=" M 59 421 L 63 421" stroke-miterlimit="10"/><path fill="none" stroke="rgb(255, 67, 67)" paint-order="fill stroke markers" d=" M 59 440 L 63 440" stroke-miterlimit="10"/><path fill="none" stroke="rgb(255, 67, 67)" paint-order="fill stroke markers" d=" M 59 383 L 63 383" stroke-miterlimit="10"/><path fill="none" stroke="rgb(255, 67, 67)" paint-order="fill stroke markers" d=" M 59 364 L 63 364" stroke-miterlimit="10"/><path fill="none" stroke="rgb(255, 67, 67)" paint-order="fill stroke markers" d=" M 59 345 L 63 345" stroke-miterlimit="10"/><path fill="none" stroke="rgb(255, 67, 67)" paint-order="fill stroke markers" d=" M 59 326 L 63 326" stroke-miterlimit="10"/><path fill="none" stroke="rgb(255, 67, 67)" paint-order="fill stroke markers" d=" M 59 307 L 63 307" stroke-miterlimit="10"/><path fill="none" stroke="rgb(255, 67, 67)" paint-order="fill stroke markers" d=" M 59 288 L 63 288" stroke-miterlimit="10"/><path fill="none" stroke="rgb(255, 67, 67)" paint-order="fill stroke markers" d=" M 59 269 L 63 269" stroke-miterlimit="10"/><path fill="none" stroke="rgb(255, 67, 67)" paint-order="fill stroke markers" d=" M 59 250 L 63 250" stroke-miterlimit="10"/><path fill="none" stroke="rgb(255, 67, 67)" paint-order="fill stroke markers" d=" M 59 231 L 63 231" stroke-miterlimit="10"/><path fill="none" stroke="rgb(255, 67, 67)" paint-order="fill stroke markers" d=" M 59 211 L 63 211" stroke-miterlimit="10"/><path fill="none" stroke="rgb(255, 67, 67)" paint-order="fill stroke markers" d=" M 59 192 L 63 192" stroke-miterlimit="10"/><path fill="none" stroke="rgb(255, 67, 67)" paint-order="fill stroke markers" d=" M 59 173 L 63 173" stroke-miterlimit="10"/><path fill="none" stroke="rgb(255, 67, 67)" paint-order="fill stroke markers" d=" M 59 154 L 63 154" stroke-miterlimit="10"/><path fill="none" stroke="rgb(255, 67, 67)" paint-order="fill stroke markers" d=" M 59 135 L 63 135" stroke-miterlimit="10"/><path fill="none" stroke="rgb(255, 67, 67)" paint-order="fill stroke markers" d=" M 59 116 L 63 116" stroke-miterlimit="10"/><path fill="none" stroke="rgb(255, 67, 67)" paint-order="fill stroke markers" d=" M 59 97 L 63 97" stroke-miterlimit="10"/><path fill="none" stroke="rgb(255, 67, 67)" paint-order="fill stroke markers" d=" M 59 78 L 63 78" stroke-miterlimit="10"/><path fill="none" stroke="rgb(255, 67, 67)" paint-order="fill stroke markers" d=" M 59 59 L 63 59" stroke-miterlimit="10"/><path fill="none" stroke="rgb(255, 67, 67)" paint-order="fill stroke markers" d=" M 59 40 L 63 40" stroke-miterlimit="10"/><path fill="" stroke="rgb(255, 67, 67)" paint-order="fill stroke markers" d=" M 59 21 L 63 21" stroke-miterlimit="10"/><g transform="translate(52,383) rotate(0,0,0)"><text fill="" stroke="none" font-family="helvetica" font-size="8pt" font-style="normal" font-weight="normal" text-decoration="normal" x="0" y="0" text-anchor="end" dominant-baseline="central">1700</text><g transform="rotate(0,0,0) translate(-52,-383) translate(52,288) rotate(0,0,0)"><text fill="" stroke="none" font-family="helvetica" font-size="8pt" font-style="normal" font-weight="normal" text-decoration="normal" x="0" y="0" text-anchor="end" dominant-baseline="central">1750</text><g transform="rotate(0,0,0) translate(-52,-288) translate(52,192) rotate(0,0,0)"><text fill="" stroke="none" font-family="helvetica" font-size="8pt" font-style="normal" font-weight="normal" text-decoration="normal" x="0" y="0" text-anchor="end" dominant-baseline="central">1800</text><g transform="rotate(0,0,0) translate(-52,-192) translate(52,97) rotate(0,0,0)"><text fill="" stroke="none" font-family="helvetica" font-size="8pt" font-style="normal" font-weight="normal" text-decoration="normal" x="0" y="0" text-anchor="end" dominant-baseline="central">1850</text><g transform="rotate(0,0,0) translate(-52,-97) translate(21,228) rotate(-90,0,0)"><text fill="" stroke="none" font-family="ADAM" font-size="12pt" font-style="normal" font-weight="normal" text-decoration="normal" x="0" y="0" text-anchor="middle" dominant-baseline="alphabetic">CH4 (partes por mil millones)</text><g transform="rotate(90,0,0) translate(-21,-228)"/></g></g></g></g></g></g></g></g></g></svg>