<svg version="1.1" xmlns="http://www.w3.org/2000/svg" xmlns:xlink="http://www.w3.org/1999/xlink" width="900" height="500" style="width: 900px; height: 500px;"><defs/><g><g transform="scale(1,1) translate(0.5,0.5)"><rect fill="#FFFFFF" stroke="none" x="0" y="0" width="900" height="500"/><rect fill="#ffffff" stroke="none" x="0" y="0" width="900" height="500"/><rect fill="#FFFFFF" stroke="none" x="63" y="5" width="832" height="446"/><rect fill="white" stroke="none" x="63" y="5" width="832" height="446"/><g><rect fill="none" stroke="rgb(0, 131, 255)" x="63" y="5" width="832" height="446" stroke-miterlimit="10" stroke-width="7" stroke-opacity="0.5"/></g><g><g><path fill="none" stroke="rgb(0, 131, 255)" paint-order="fill stroke markers" d=" M 179 451 L 179 5" stroke-miterlimit="10" stroke-opacity="0"/><path fill="none" stroke="rgb(0, 131, 255)" paint-order="fill stroke markers" d=" M 371 451 L 371 5" stroke-miterlimit="10" stroke-opacity="0"/><path fill="none" stroke="rgb(0, 131, 255)" paint-order="fill stroke markers" d=" M 564 451 L 564 5" stroke-miterlimit="10" stroke-opacity="0"/><path fill="none" stroke="rgb(0, 131, 255)" paint-order="fill stroke markers" d=" M 757 451 L 757 5" stroke-miterlimit="10" stroke-opacity="0"/></g><g><path fill="none" stroke="rgb(0, 131, 255)" paint-order="fill stroke markers" d=" M 63 367 L 895 367" stroke-miterlimit="10" stroke-opacity="0.25"/><path fill="none" stroke="rgb(0, 131, 255)" paint-order="fill stroke markers" d=" M 63 266 L 895 266" stroke-miterlimit="10" stroke-opacity="0.25"/><path fill="none" stroke="rgb(0, 131, 255)" paint-order="fill stroke markers" d=" M 63 165 L 895 165" stroke-miterlimit="10" stroke-opacity="0.25"/><path fill="none" stroke="rgb(0, 131, 255)" paint-order="fill stroke markers" d=" M 63 64 L 895 64" stroke-miterlimit="10" stroke-opacity="0.25"/></g><g><path fill="none" stroke="none"/><path fill="none" stroke="rgb(0, 28, 100)" paint-order="fill stroke markers" d=" M 43.73707580082461 NaN" stroke-miterlimit="10" stroke-width="3" stroke-opacity="0.7"/><path fill="none" stroke="none"/><path fill="none" stroke="rgb(0, 28, 100)" paint-order="fill stroke markers" d=" M 46.85080875356803 NaN" stroke-miterlimit="10" stroke-width="3" stroke-opacity="0.7"/><path fill="none" stroke="none"/><path fill="none" stroke="rgb(0, 28, 100)" paint-order="fill stroke markers" d=" M 50.07009197589598 NaN" stroke-miterlimit="10" stroke-width="3" stroke-opacity="0.7"/><path fill="none" stroke="none"/><path fill="none" stroke="rgb(0, 28, 100)" paint-order="fill stroke markers" d=" M 53.28937519822391 NaN" stroke-miterlimit="10" stroke-width="3" stroke-opacity="0.7"/><path fill="none" stroke="none"/><path fill="none" stroke="rgb(0, 28, 100)" paint-order="fill stroke markers" d=" M 56.561433555344124 NaN" stroke-miterlimit="10" stroke-width="3" stroke-opacity="0.7"/><path fill="none" stroke="none"/><path fill="none" stroke="rgb(0, 28, 100)" paint-order="fill stroke markers" d=" M 59.780716777672055 NaN" stroke-miterlimit="10" stroke-width="3" stroke-opacity="0.7"/><path fill="none" stroke="none"/><path fill="none" stroke="rgb(0, 28, 100)" paint-order="fill stroke markers" d=" M 63 NaN" stroke-miterlimit="10" stroke-width="3" stroke-opacity="0.7"/><path fill="none" stroke="none"/><path fill="none" stroke="rgb(0, 28, 100)" paint-order="fill stroke markers" d=" M 66.11373295274342 NaN" stroke-miterlimit="10" stroke-width="3" stroke-opacity="0.7"/><path fill="none" stroke="none"/><path fill="none" stroke="rgb(0, 28, 100)" paint-order="fill stroke markers" d=" M 69.33301617507136 401.0389674969483 L 70.96904535363146 406.33144975362757 L 72.55229939739931 411.371909045703 L 74.1883285759594 421.5536368156954 L 75.82435775451951 430.7272727272725 L 77.40761179828735 430.5760589485103 L 79.04364097684744 425.68681343519734 L 80.6268950206153 418.8317887979747 L 82.26292419917539 413.1864743908502 L 83.8989533777355 409.6077482934768 L 85.3766571519188 407.4907553908049 L 87.01268633047891 400.9381583111069 L 88.59594037424675 397.05700465620885 L 90.23196955280686 399.4260205234841 L 91.8152235965747 406.6842819040728 L 93.45125277513479 417.3700556032727 L 95.0872819536949 424.62831698386117 L 96.67053599746274 424.7795307626236 L 98.30656517602284 420.7975679218839" stroke-miterlimit="10" stroke-width="3" stroke-opacity="0.7"/><path fill="none" stroke="none"/><path fill="none" stroke="rgb(0, 28, 100)" paint-order="fill stroke markers" d=" M 101.52584839835077 408.6500610279825 L 103.16187757691088 403.0551512137786 L 104.69235648588646 399.1235929659597 L 106.32838566444656 393.4782785588352 L 107.91163970821441 392.92382803670716 L 109.5476688867745 395.7464852402693 L 111.13092293054234 402.6015098774917 L 112.76695210910245 413.3376881696122 L 114.40298128766254 422.61213326703114 L 115.9862353314304 423.46901134668406 L 117.6222645099905 415.8075132227293 L 119.20551855375832 408.49884724922003 L 120.84154773231843 403.559197142986 L 122.47757691087854 400.9381583111069 L 123.95528068506185 391.9157361782918 L 125.59130986362196 385.76637584195987 L 127.17456390738978 382.0868405587448 L 128.8105930859499 386.0183988065637 L 130.39384712971776 392.92382803670716 L 132.02987630827784 403.76081551466905 L 133.66590548683791 410.5654355589711 L 135.24915953060577 410.5150309660503 L 136.8851887091659 404.7689073730842 L 138.4684427529337 398.66995162967305 L 140.10447193149383 391.865331585371 L 141.7405011100539 390.45400298359004 L 143.21820488423725 383.4477645676054 L 144.85423406279733 378.0040685321637 L 146.43748810656518 376.54233533746196 L 148.07351728512526 376.8951674879072 L 149.65677132889311 385.1615207269108 L 151.29280050745325 393.52868315175624 L 152.92882968601333 405.1217395235294 L 154.51208372978118 404.9705257447672 L 156.14811290834126 398.065096514624 L 157.7313669521091 392.01654536413344 L 159.3673961306692 386.1696125853259 L 161.00342530922933 383.14533701008077 L 162.4811290834126 375.1310067356808 L 164.11715826197275 371.3002576737035 L 165.7004123057406 370.4433795940506 L 167.33644148430068 369.8889290719226 L 168.91969552806853 379.06256498349967 L 170.5557247066286 388.03458252339374 L 172.1917538851887 397.3090276208127 L 173.77500792895654 395.7464852402693 L 175.41103710751668 390.0507662402242 L 176.99429115128447 382.99412323131855 L 178.6303203298446 377.14719045251104 L 180.2663495084047 374.77817458523555 L 181.79682841738025 366.3606075674695 L 183.4328575959404 361.7737896116812 L 185.01611163970824 359.15275077980164 L 186.65214081826832 359.7072013019301 L 188.23539486203617 370.2921658152886 L 189.87142404059625 377.8528547534015 L 191.5074532191564 385.76637584195987 L 193.09070726292418 385.8671850278015 L 194.72673644148432 380.221870620677 L 196.30999048525217 374.3245332489489 L 197.94601966381225 370.191356629447 L 199.58204884237233 363.7899733285112 L 201.05975261655567 358.2958727001492 L 202.69578179511575 353.759459337281 L 204.2790358388836 351.2896342841643 L 205.91506501744374 353.86026852312284 L 207.49831906121153 362.42904931965086 L 209.13434823977167 373.92129650558263 L 210.77037741833175 381.885222187062 L 212.3536314620996 381.38117625785435 L 213.98966064065968 374.02210569142426 L 215.57291468442753 367.31829483296383 L 217.20894386298767 361.62257583291876 L 218.84497304154775 357.8422313638621 L 220.32267681573109 353.20500881515295 L 221.95870599429117 346.60200714253415 L 223.54196003805902 343.2248994168435 L 225.1779892166191 347.5092898151079 L 226.76124326038695 354.5659328240133 L 228.39727243894703 365.70534785949985 L 230.03330161750716 375.3830297002846 L 231.61655566127502 375.1814113286016 L 233.2525848398351 368.4776004701414 L 234.83583888360295 362.0762171692056 L 236.47186806216303 357.9934451426245 L 238.1078972407231 351.7936802133718 L 239.58560101490644 349.92871027530373 L 241.22163019346652 339.8477916911529 L 242.80488423723438 336.1682564079381 L 244.44091341579445 338.1844401247681 L 246.0241674595623 345.14027394783216 L 247.66019663812244 355.1203833461416 L 249.29622581668252 364.7980651869261 L 250.87947986045037 365.05008815152996 L 252.51550903901045 358.6487048505944 L 254.0987630827783 350.78558835495664 L 255.73479226133838 345.89634284164345 L 257.3708214398985 342.31761674427 L 258.9013003488741 339.09172279734184 L 260.53732952743417 329.6660639211607 L 262.120583571202 328.1035215406173 L 263.75661274976216 331.5814384521493 L 265.33986679352995 338.2852493106095 L 266.9758959720901 348.6181908593642 L 268.61192515065017 359.6567967090093 L 270.195179194418 358.34627729306976 L 271.8312083729781 351.54165724876793 L 273.41446241674595 342.62004430179445 L 275.0504915953061 340.20062384159814 L 276.68652077386616 335.51299669996797 L 278.1642245480495 327.59947561140984 L 279.8002537266096 324.9280321866099 L 281.38350777037743 320.84526016002883 L 283.0195369489375 324.5247954432439 L 284.60279099270537 332.2366981601192 L 286.23882017126544 341.9647845938248 L 287.8748493498256 350.130328646987 L 289.4581033935934 350.6343745761942 L 291.0941325721535 343.7289453460512 L 292.67738661592136 336.67230233714554 L 294.31341579448144 333.39600379729654 L 295.9494449730415 329.86768229284394 L 297.42714874722486 326.4401699742325 L 299.06317792578494 317.21612946973437 L 300.6464319695528 314.24225848741 L 302.28246114811293 316.4600605759233 L 303.8657151918807 325.18005515121376 L 305.50174437044086 335.8154242574926 L 307.13777354900094 340.75507436372664 L 308.7210275927688 344.0313729035754 L 310.35705677132887 336.4202793725417 L 311.9403108150967 330.5733465937344 L 313.57633999365686 323.7183219565118 L 315.21236917221694 322.609420912255 L 316.6900729464003 317.5689616201796 L 318.32610212496036 309.40341756701764 L 319.9093561687282 305.6230730979612 L 321.5453853472883 308.09289815107786 L 323.12863939105614 314.7463044166177 L 324.7646685696162 326.2385516025495 L 326.40069774817636 333.9504543194248 L 327.9839517919442 333.0935762397721 L 329.6199809705043 326.28895619547006 L 331.20323501427214 320.39161882374196 L 332.8392641928322 314.49428145201387 L 334.47529337139235 307.7400660006326 L 336.0057722803679 304.2621490891006 L 337.641801458928 297.6087428235612 L 339.22505550269585 294.9372993987613 L 340.86108468125593 297.6591474164818 L 342.4443387250238 302.750011301478 L 344.0803679035839 314.39347226617224 L 345.716397082144 321.6013290538401 L 347.29965112591185 320.4924280095836 L 348.93568030447193 314.9479227883005 L 350.5189343482398 309.1009900094932 L 352.15496352679986 301.4394918855385 L 353.79099270536 299.72573572623287 L 355.2686964795433 296.19741422178026 L 356.9047256581034 287.7294426110934 L 358.4879797018712 286.62054156683666 L 360.12400888043135 289.1911758057952 L 361.7072629241992 296.19741422178026 L 363.3432921027593 306.6815695492969 L 364.97932128131936 315.8048008679534 L 366.5625753250872 314.69589982369666 L 368.19860450364735 308.54653948736495 L 369.78185854741514 301.99394240766674 L 371.4178877259753 296.9534831155913 L 373.05391690453536 290.7537181863386 L 374.5316206787187 287.22539668188574 L 376.1676498572788 284.3523348854028 L 377.7509039010466 279.2614710004068 L 379.3869330796067 284.10031192079896 L 380.97018712337456 291.6610008589121 L 382.6062163019347 301.1370643280138 L 384.2422454804948 309.60503593870067 L 385.8254995242626 307.9416843723159 L 387.4615287028227 300.935445956331 L 389.04478274659056 294.2316350978706 L 390.68081192515064 291.76181004475393 L 392.3168411037108 287.32620586772714 L 393.79454487789405 279.6647077437726 L 395.4305740564542 272.50725554902556 L 397.01382810022204 270.1382396817503 L 398.6498572787821 275.1282943809049 L 400.23311132255 284.65476244292745 L 401.86914050111005 297.3567198589574 L 403.5051696796702 304.8670042041497 L 405.088423723438 304.41336286786304 L 406.7244529019981 297.00388770851214 L 408.307706945766 290.2496722571311 L 409.94373612432605 284.65476244292745 L 411.57976530288613 280.3199674517425 L 413.11024421186175 276.6404321685277 L 414.74627339042183 270.2894534605125 L 416.3295274341897 267.8196284073956 L 417.96555661274977 269.13014782333516 L 419.5488106565176 280.8744179738708 L 421.1848398350777 290.9553365580216 L 422.82086901363783 301.38908729261766 L 424.4041230574056 299.272094389946 L 426.04015223596576 294.48365806247443 L 427.6234062797336 288.08227476153866 L 429.2594354582937 280.8240133809502 L 430.8954646368538 279.3118755933274 L 432.3731684110371 273.3641336286785 L 434.0091975895972 269.382170787939 L 435.59245163336504 264.79535283215023 L 437.2284808119252 268.17246055784085 L 438.811734855693 279.00944803580296 L 440.4477640342531 287.6286334252518 L 442.0837932128132 295.9453912571764 L 443.66704725658104 295.1893223633649 L 445.3030764351411 288.88874824827053 L 446.886330478909 281.3280593101574 L 448.5223596574691 274.87627141630105 L 450.1583888360292 271.0959269472446 L 451.63609261021253 265.90425387640676 L 453.2721217887726 259.4020613896296 L 454.85537583254046 257.43628226572037 L 456.49140501110054 261.56945888522205 L 458.0746590548684 268.8781248587313 L 459.71068823342847 278.35418832783307 L 461.3467174119886 287.22539668188574 L 462.92997145575646 285.7636634871842 L 464.56600063431654 278.15256995615005 L 466.1492546780844 271.0455223543238 L 467.78528385664447 266.1058722480898 L 469.4213130352046 261.41824510645984 L 470.8990168093879 256.62980877898826 L 472.535045987948 249.22033361963736 L 474.1183000317158 247.15374530988652 L 475.75432921027596 249.6235703630034 L 477.3375832540438 257.8395190090864 L 478.9736124326039 270.3398580534333 L 480.60964161116397 275.1282943809049 L 482.1928956549318 275.8843632747162 L 483.8289248334919 268.42448352244446 L 485.41217887725975 262.22471859319194 L 487.0482080558199 255.3696939559693 L 488.68423723437996 249.32114280547898 L 490.21471614335553 244.7343248496902 L 491.85074532191567 242.61733194701878 L 493.43399936568346 239.94588852221864 L 495.0700285442436 240.95398038063354 L 496.65328258801145 247.859409610777 L 498.28931176657153 258.6963970887391 L 499.9253409451316 267.8700330003164 L 501.50859498889946 267.7692238144748 L 503.14462416745954 261.2166267347768 L 504.7278782112274 254.31119750463358 L 506.36390738978747 250.17802088513167 L 507.99993656834766 245.49039374350173 L 509.47764034253095 243.0205686903846 L 511.113669521091 233.59490981420367 L 512.6969235648589 232.28439039826412 L 514.332952743419 237.8793002124678 L 515.9162067871869 243.82704217711648 L 517.552235965747 254.26079291171277 L 519.188265144307 264.19049771710115 L 520.7715191880749 261.51905429230146 L 522.4075483666351 253.20229646037683 L 523.9908024104028 243.6758283983545 L 525.626831588963 239.24022422132816 L 527.2628607675231 235.6110935310337 L 528.7405645417064 229.26011482301874 L 530.3765937202664 222.10266262827145 L 531.9598477640343 218.2719135662942 L 533.5958769425944 220.54012024772805 L 535.1791309863622 226.23583924777358 L 536.8151601649224 235.6110935310337 L 538.4511893434825 245.4399891505809 L 540.0344433872503 243.5750192125131 L 541.6704725658104 238.0809185841506 L 543.2537266095783 229.51213778762258 L 544.8897557881384 224.6732968672302 L 546.5257849666984 220.13688350436223 L 548.0034887408817 216.86058496451324 L 549.6395179194419 210.30798788481525 L 551.2227719632098 210.50960625649827 L 552.8588011417698 213.68509561050587 L 554.4420551855377 218.42312734505663 L 556.0780843640978 230.97387098232457 L 557.7141135426579 241.55883549568262 L 559.2973675864257 238.68577369919967 L 560.9333967649858 231.93155824781888 L 562.5166508087536 224.874915238913 L 564.1526799873137 219.0279824601057 L 565.7887091658738 217.3646308937207 L 567.3191880748494 212.37457619456632 L 568.9552172534095 206.27562045115496 L 570.5384712971774 207.3341169024909 L 572.1745004757374 206.7796663803624 L 573.7577545195053 215.8020885131773 L 575.3937836980654 224.2700601238639 L 577.0298128766256 230.41942046019608 L 578.6130669203934 230.31861127435468 L 580.2490960989535 223.56439582297344 L 581.8323501427213 216.91098955743405 L 583.4683793212814 212.37457619456632 L 585.1044084998415 207.68694905293614 L 586.5821122740248 203.15053569006818 L 588.2181414525849 198.462908548438 L 589.8013954963527 195.9426789024003 L 591.4374246749129 199.3701912210115 L 593.0206787186806 207.58613986709452 L 594.6567078972408 217.91908141584895 L 596.2927370758009 224.47167849554717 L 597.8759911195688 223.16115907960761 L 599.5120202981288 216.40694362822637 L 601.0952743418967 209.1486822476379 L 602.7313035204568 202.74729894670213 L 604.3673326990169 199.2189774422493 L 605.8450364732003 194.83377785814378 L 607.4810656517603 190.0453415306722 L 609.0643196955282 186.31540165453634 L 610.7003488740883 187.42430269879287 L 612.2836029178561 194.73296867230238 L 613.9196320964162 206.02359748655113 L 615.5556612749763 211.6689118936756 L 617.1389153187441 212.57619456624911 L 618.7749444973042 204.05781836264168 L 620.358198541072 196.24510645992473 L 621.9942277196321 190.75100583156268 L 623.6302568981923 186.97066136250623 L 625.1079606723756 182.88788933592514 L 626.7439898509357 176.38569684914773 L 628.3272438947035 172.05090185796303 L 629.9632730732636 173.81506261018922 L 631.5465271170315 181.67817910582698 L 633.1825562955916 192.41435739794747 L 634.8185854741516 199.52140499977395 L 636.4018395179195 199.52140499977395 L 638.0378686964797 191.35586094661176 L 639.6211227402474 185.45852357488343 L 641.2571519188076 180.1156367252836 L 642.8931810973677 175.62962795533645 L 644.4236600063432 170.48835947741964 L 646.0596891849034 163.12928891098932 L 647.6429432286711 161.81876949504976 L 649.2789724072313 166.1031598933141 L 650.8622264509992 177.94823922969113 L 652.4982556295593 183.89598119434004 L 654.1342848081193 193.62406762804562 L 655.7175388518872 192.7671895483927 L 657.3535680304473 184.24881334478528 L 658.9368220742151 177.54500248632507 L 660.5728512527752 172.70616156593292 L 662.2088804313353 166.2039690791555 L 663.6865842055187 160.81067763663486 L 665.3226133840787 153.40120247728396 L 666.9058674278466 152.59472899055186 L 668.5418966064067 153.70363003480838 L 670.1251506501745 161.36512815876313 L 671.7611798287346 171.0932145924687 L 673.3972090072947 181.67817910582698 L 674.9804630510625 180.9725148049365 L 676.6164922296226 173.10939830929874 L 678.1997462733905 164.4902129198499 L 679.8357754519506 157.78640206138948 L 681.4718046305107 153.80443922065 L 682.949508404694 151.43542335337452 L 684.5855375832541 141.3545047692237 L 686.168791627022 139.5903440169975 L 687.804820805582 144.5299941232313 L 689.3880748493499 152.59472899055186 L 691.02410402791 163.02847972514792 L 692.6601332064702 170.8915962207857 L 694.2433872502379 169.37945843316288 L 695.8794164287981 164.28859454816688 L 697.462670472566 155.97183671624248 L 699.098699651126 150.326522309118 L 700.7347288296861 145.4372767958048 L 702.2124326038694 142.06016907011417 L 703.8484617824295 132.1808688576466 L 705.4317158261973 131.87844130012195 L 707.0677450047575 133.99543420279383 L 708.6509990485253 141.90895529135196 L 710.2870282270854 154.61091270738189 L 711.9230574056455 160.3066317074272 L 713.5063114494134 159.24813525609147 L 715.1423406279735 152.59472899055186 L 716.7255946717413 144.88282627367653 L 718.3616238503014 137.1205189638804 L 719.9976530288615 135.7091903620992 L 721.5281319378371 134.44907553908047 L 723.1641611163972 128.80376113195598 L 724.747415160165 121.89833190181253 L 726.3834443387251 125.22503503458256 L 727.966698382493 136.51566384883154 L 729.602727561053 144.22756656570664 L 731.2387567396131 148.864789114416 L 732.822010783381 150.17530853035555 L 734.458039961941 143.77392522942 L 736.0412940057089 137.0701143709598 L 737.6773231842691 130.01347136205413 L 739.3133523628292 127.19081415849178 L 740.7910561370124 120.48700330003157 L 742.4270853155725 116.85787260973711 L 744.0103393593404 113.83359703449219 L 745.6463685379005 117.05949098142037 L 747.2296225816683 124.46896614077127 L 748.8656517602284 134.04583879571442 L 750.5016809387886 141.10248180461986 L 752.0849349825564 142.56421499932185 L 753.7209641611165 134.6002893178429 L 755.3042182048844 127.74526468062027 L 756.9402473834444 121.04145382216007 L 758.5762765620045 113.58157406988835 L 760.0539803361878 108.59151937073352 L 761.690009514748 102.13973147687716 L 763.2732635585157 99.41788345915643 L 764.9092927370759 103.60146467157892 L 766.4925467808438 113.48076488404695 L 768.1285759594039 122.80561457438625 L 769.7646051379639 130.467112698341 L 771.3478591817318 128.45092898151074 L 772.9838883602919 121.34388137968449 L 774.5671424040597 115.59775778671838 L 776.2031715826198 107.83545047692246 L 777.8392007611799 105.16400705212232 L 779.3169045353633 101.53487636182808 L 780.9529337139234 98.25857782197886 L 782.5361877576912 93.4197369015867 L 784.1722169362513 95.8895619547036 L 785.7554709800191 101.83730391935273 L 787.3915001585792 113.58157406988835 L 789.0275293371393 119.37810225577482 L 790.6107833809072 119.57972062745807 L 792.2468125594672 113.07752814068067 L 793.8300666032351 105.26481623796394 L 795.4660957817952 98.81302834410735 L 797.1021249603554 95.03268387505068 L 798.6326038693309 92.41164504317157 L 800.268633047891 83.33881831743588 L 801.8518870916588 80.56656570679434 L 803.4879162702189 85.65742959179056 L 805.0711703139867 92.46204963609239 L 806.7071994925469 102.64377740608461 L 808.343228671107 108.94435152117876 L 809.9264827148749 109.24677907870341 L 811.5625118934349 99.41788345915643 L 813.1457659372028 92.66366800777541 L 814.7817951157629 86.46390307852266 L 816.4178242943229 80.26413814926991 L 817.8955280685062 77.03824420234173 L 819.5315572470664 72.30021246779074 L 821.1148112908343 65.2435694588853 L 822.7508404693943 70.9392884589306 L 824.3340945131622 77.94552687491523 L 825.9701236917223 88.32887301659048 L 827.6061528702824 97.04886759188093 L 829.1894069140502 95.8895619547036 L 830.8254360926103 88.5304913882735 L 832.4086901363781 80.1129243705077 L 834.0447193149382 74.97165589259066 L 835.6807484934983 74.21558699877937 L 837.1584522676817 65.39478323764752 L 838.7944814462418 57.27964377740591 L 840.3777354900096 55.213055467655295 L 842.0137646685697 57.783689706613586 L 843.5970187123376 68.16703584828906 L 845.2330478908976 79.2056416979342 L 846.8690770694577 87.6232087157 L 848.4523311132256 84.2965055829302 L 850.0883602917856 77.99593146783604 L 851.6716143355535 69.5279598571492 L 853.3076435141136 64.23547760046995 L 854.9436726926738 62.7233398128476 L 856.421376466857 56.221147326070195 L 858.0574056454171 47.450748157858925 L 859.640659689185 44.224854210930744 L 861.2766888677451 50.021382396817444 L 862.8599429115129 57.733285113693 L 864.495972090073 69.72957822883245 L 866.1320012686332 76.08055693684742 L 867.7152553124009 72.7034492111568 L 869.3512844909611 63.22738574205505 L 870.934538534729 54.7594141313682 L 872.570567713289 51.28149721983618 L 874.2065968918491 43.61999909588167 L 875.7370758008248 39.78925003390441 L 877.3731049793848 26.63365128158739 L 878.9563590231527 25.27272727272748 L 880.5923882017128 29.758736042674172 L 882.1756422454806 42.35988427286293 L 883.8116714240407 52.69282582161759 L 885.4477006026008 58.942995343791154 L 887.0309546463686 56.221147326070195 L 888.6669838249287 46.291442520681585 L 890.2502378686966 41.75502915781385" stroke-miterlimit="10" stroke-width="3" stroke-opacity="0.7"/></g></g><g><g/><g><path fill="#ffffff" stroke="#e5e5e5" paint-order="fill stroke markers" d=" M 73 15 L 146 15 L 146 55 L 73 55 L 73 15 Z" fill-opacity="0.95" stroke-miterlimit="10" stroke-opacity="0.5"/><text fill="#444444" stroke="none" font-family="ADAM" font-size="10pt" font-style="normal" font-weight="normal" text-decoration="normal" x="108" y="35" text-anchor="start" dominant-baseline="central">CO2</text><g><path fill="none" stroke="rgb(0, 28, 100)" paint-order="fill stroke markers" d=" M 83 35 L 103 35" stroke-miterlimit="10" stroke-width="3" stroke-opacity="0.7"/></g></g></g><g><g fill="#444444"><path fill="none" stroke="black" paint-order="fill stroke markers" d=" M 63 451 L 895 451" stroke-miterlimit="10"/><path fill="none" stroke="rgb(255, 67, 67)" paint-order="fill stroke markers" d=" M 179 457 L 179 449" stroke-miterlimit="10" stroke-width="3"/><path fill="none" stroke="rgb(255, 67, 67)" paint-order="fill stroke markers" d=" M 371 457 L 371 449" stroke-miterlimit="10" stroke-width="3"/><path fill="none" stroke="rgb(255, 67, 67)" paint-order="fill stroke markers" d=" M 564 457 L 564 449" stroke-miterlimit="10" stroke-width="3"/><path fill="" stroke="rgb(255, 67, 67)" paint-order="fill stroke markers" d=" M 757 457 L 757 449" stroke-miterlimit="10" stroke-width="3"/><g transform="translate(179,462) rotate(0,0,0)"><text fill="" stroke="none" font-family="helvetica" font-size="8pt" font-style="normal" font-weight="normal" text-decoration="normal" x="0" y="0" text-anchor="middle" dominant-baseline="hanging">1980</text><g transform="rotate(0,0,0) translate(-179,-462) translate(371,462) rotate(0,0,0)"><text fill="" stroke="none" font-family="helvetica" font-size="8pt" font-style="normal" font-weight="normal" text-decoration="normal" x="0" y="0" text-anchor="middle" dominant-baseline="hanging">1990</text><g transform="rotate(0,0,0) translate(-371,-462) translate(564,462) rotate(0,0,0)"><text fill="" stroke="none" font-family="helvetica" font-size="8pt" font-style="normal" font-weight="normal" text-decoration="normal" x="0" y="0" text-anchor="middle" dominant-baseline="hanging">2000</text><g transform="rotate(0,0,0) translate(-564,-462) translate(757,462) rotate(0,0,0)"><text fill="" stroke="none" font-family="helvetica" font-size="8pt" font-style="normal" font-weight="normal" text-decoration="normal" x="0" y="0" text-anchor="middle" dominant-baseline="hanging">2010</text><g transform="rotate(0,0,0) translate(-757,-462) translate(479,480) rotate(0,0,0)"><text fill="" stroke="none" font-family="ADAM" font-size="12pt" font-style="normal" font-weight="normal" text-decoration="normal" x="0" y="0" text-anchor="middle" dominant-baseline="hanging">Año</text><g transform="rotate(0,0,0) translate(-479,-480)"/></g></g></g></g></g></g><g fill="#444444"><path fill="none" stroke="black" paint-order="fill stroke markers" d=" M 63 451 L 63 5" stroke-miterlimit="10"/><path fill="none" stroke="rgb(255, 67, 67)" paint-order="fill stroke markers" d=" M 57 367 L 65 367" stroke-miterlimit="10" stroke-width="3"/><path fill="none" stroke="rgb(255, 67, 67)" paint-order="fill stroke markers" d=" M 57 266 L 65 266" stroke-miterlimit="10" stroke-width="3"/><path fill="none" stroke="rgb(255, 67, 67)" paint-order="fill stroke markers" d=" M 57 165 L 65 165" stroke-miterlimit="10" stroke-width="3"/><path fill="none" stroke="rgb(255, 67, 67)" paint-order="fill stroke markers" d=" M 57 64 L 65 64" stroke-miterlimit="10" stroke-width="3"/><path fill="none" stroke="rgb(255, 67, 67)" paint-order="fill stroke markers" d=" M 59 387 L 63 387" stroke-miterlimit="10"/><path fill="none" stroke="rgb(255, 67, 67)" paint-order="fill stroke markers" d=" M 59 407 L 63 407" stroke-miterlimit="10"/><path fill="none" stroke="rgb(255, 67, 67)" paint-order="fill stroke markers" d=" M 59 427 L 63 427" stroke-miterlimit="10"/><path fill="none" stroke="rgb(255, 67, 67)" paint-order="fill stroke markers" d=" M 59 447 L 63 447" stroke-miterlimit="10"/><path fill="none" stroke="rgb(255, 67, 67)" paint-order="fill stroke markers" d=" M 59 367 L 63 367" stroke-miterlimit="10"/><path fill="none" stroke="rgb(255, 67, 67)" paint-order="fill stroke markers" d=" M 59 346 L 63 346" stroke-miterlimit="10"/><path fill="none" stroke="rgb(255, 67, 67)" paint-order="fill stroke markers" d=" M 59 326 L 63 326" stroke-miterlimit="10"/><path fill="none" stroke="rgb(255, 67, 67)" paint-order="fill stroke markers" d=" M 59 306 L 63 306" stroke-miterlimit="10"/><path fill="none" stroke="rgb(255, 67, 67)" paint-order="fill stroke markers" d=" M 59 286 L 63 286" stroke-miterlimit="10"/><path fill="none" stroke="rgb(255, 67, 67)" paint-order="fill stroke markers" d=" M 59 266 L 63 266" stroke-miterlimit="10"/><path fill="none" stroke="rgb(255, 67, 67)" paint-order="fill stroke markers" d=" M 59 246 L 63 246" stroke-miterlimit="10"/><path fill="none" stroke="rgb(255, 67, 67)" paint-order="fill stroke markers" d=" M 59 225 L 63 225" stroke-miterlimit="10"/><path fill="none" stroke="rgb(255, 67, 67)" paint-order="fill stroke markers" d=" M 59 205 L 63 205" stroke-miterlimit="10"/><path fill="none" stroke="rgb(255, 67, 67)" paint-order="fill stroke markers" d=" M 59 185 L 63 185" stroke-miterlimit="10"/><path fill="none" stroke="rgb(255, 67, 67)" paint-order="fill stroke markers" d=" M 59 165 L 63 165" stroke-miterlimit="10"/><path fill="none" stroke="rgb(255, 67, 67)" paint-order="fill stroke markers" d=" M 59 145 L 63 145" stroke-miterlimit="10"/><path fill="none" stroke="rgb(255, 67, 67)" paint-order="fill stroke markers" d=" M 59 125 L 63 125" stroke-miterlimit="10"/><path fill="none" stroke="rgb(255, 67, 67)" paint-order="fill stroke markers" d=" M 59 104 L 63 104" stroke-miterlimit="10"/><path fill="none" stroke="rgb(255, 67, 67)" paint-order="fill stroke markers" d=" M 59 84 L 63 84" stroke-miterlimit="10"/><path fill="none" stroke="rgb(255, 67, 67)" paint-order="fill stroke markers" d=" M 59 64 L 63 64" stroke-miterlimit="10"/><path fill="none" stroke="rgb(255, 67, 67)" paint-order="fill stroke markers" d=" M 59 44 L 63 44" stroke-miterlimit="10"/><path fill="" stroke="rgb(255, 67, 67)" paint-order="fill stroke markers" d=" M 59 24 L 63 24" stroke-miterlimit="10"/><g transform="translate(52,367) rotate(0,0,0)"><text fill="" stroke="none" font-family="helvetica" font-size="8pt" font-style="normal" font-weight="normal" text-decoration="normal" x="0" y="0" text-anchor="end" dominant-baseline="central">340</text><g transform="rotate(0,0,0) translate(-52,-367) translate(52,266) rotate(0,0,0)"><text fill="" stroke="none" font-family="helvetica" font-size="8pt" font-style="normal" font-weight="normal" text-decoration="normal" x="0" y="0" text-anchor="end" dominant-baseline="central">360</text><g transform="rotate(0,0,0) translate(-52,-266) translate(52,165) rotate(0,0,0)"><text fill="" stroke="none" font-family="helvetica" font-size="8pt" font-style="normal" font-weight="normal" text-decoration="normal" x="0" y="0" text-anchor="end" dominant-baseline="central">380</text><g transform="rotate(0,0,0) translate(-52,-165) translate(52,64) rotate(0,0,0)"><text fill="" stroke="none" font-family="helvetica" font-size="8pt" font-style="normal" font-weight="normal" text-decoration="normal" x="0" y="0" text-anchor="end" dominant-baseline="central">400</text><g transform="rotate(0,0,0) translate(-52,-64) translate(27,228) rotate(-90,0,0)"><text fill="" stroke="none" font-family="ADAM" font-size="12pt" font-style="normal" font-weight="normal" text-decoration="normal" x="0" y="0" text-anchor="middle" dominant-baseline="alphabetic">CO2 (partes por millón)</text><g transform="rotate(90,0,0) translate(-27,-228)"/></g></g></g></g></g></g></g></g></g></svg>