<svg version="1.1" xmlns="http://www.w3.org/2000/svg" xmlns:xlink="http://www.w3.org/1999/xlink" width="900" height="500" style="width: 900px; height: 500px;"><defs/><g><g transform="scale(1,1) translate(0.5,0.5)"><rect fill="#FFFFFF" stroke="none" x="0" y="0" width="900" height="500"/><rect fill="#ffffff" stroke="none" x="0" y="0" width="900" height="500"/><rect fill="#FFFFFF" stroke="none" x="53" y="39" width="817" height="412"/><rect fill="white" stroke="none" x="53" y="39" width="817" height="412"/><g><rect fill="none" stroke="rgb(0, 131, 255)" x="53" y="39" width="817" height="412" stroke-miterlimit="10" stroke-width="7" stroke-opacity="0.5"/></g><g><g><path fill="none" stroke="rgb(0, 131, 255)" paint-order="fill stroke markers" d=" M 64 451 L 64 39" stroke-miterlimit="10" stroke-opacity="0"/><path fill="none" stroke="rgb(0, 131, 255)" paint-order="fill stroke markers" d=" M 252 451 L 252 39" stroke-miterlimit="10" stroke-opacity="0"/><path fill="none" stroke="rgb(0, 131, 255)" paint-order="fill stroke markers" d=" M 441 451 L 441 39" stroke-miterlimit="10" stroke-opacity="0"/><path fill="none" stroke="rgb(0, 131, 255)" paint-order="fill stroke markers" d=" M 629 451 L 629 39" stroke-miterlimit="10" stroke-opacity="0"/><path fill="none" stroke="rgb(0, 131, 255)" paint-order="fill stroke markers" d=" M 818 451 L 818 39" stroke-miterlimit="10" stroke-opacity="0"/></g><g><path fill="none" stroke="rgb(0, 131, 255)" paint-order="fill stroke markers" d=" M 53 443 L 870 443" stroke-miterlimit="10" stroke-opacity="0.25"/><path fill="none" stroke="rgb(0, 131, 255)" paint-order="fill stroke markers" d=" M 53 390 L 870 390" stroke-miterlimit="10" stroke-opacity="0.25"/><path fill="none" stroke="rgb(0, 131, 255)" paint-order="fill stroke markers" d=" M 53 337 L 870 337" stroke-miterlimit="10" stroke-opacity="0.25"/><path fill="none" stroke="rgb(0, 131, 255)" paint-order="fill stroke markers" d=" M 53 285 L 870 285" stroke-miterlimit="10" stroke-opacity="0.25"/><path fill="none" stroke="rgb(0, 131, 255)" paint-order="fill stroke markers" d=" M 53 232 L 870 232" stroke-miterlimit="10" stroke-opacity="0.25"/><path fill="none" stroke="rgb(0, 131, 255)" paint-order="fill stroke markers" d=" M 53 179 L 870 179" stroke-miterlimit="10" stroke-opacity="0.25"/><path fill="none" stroke="rgb(0, 131, 255)" paint-order="fill stroke markers" d=" M 53 126 L 870 126" stroke-miterlimit="10" stroke-opacity="0.25"/><path fill="none" stroke="rgb(0, 131, 255)" paint-order="fill stroke markers" d=" M 53 74 L 870 74" stroke-miterlimit="10" stroke-opacity="0.25"/></g><g><path fill="none" stroke="none"/><path fill="none" stroke="rgb(0, 28, 100)" paint-order="fill stroke markers" d=" M 90.13636363636306 168.50832266325233 L 108.98730964466995 110.48015364916682 L 127.83825565297593 231.81177976952586 L 146.68920166128282 152.6824583866828 L 165.5401476695888 99.92957746478805 L 184.3910936778957 168.50832266325233 L 203.24203968620168 205.43533930857848 L 222.09298569450857 221.2612035851471 L 240.94393170281455 215.98591549295816 L 259.79487771112144 221.2612035851471 L 278.6458237194274 63.002560819461905 L 297.4967697277343 242.36235595390553 L 316.3477157360403 247.63764404609447 L 335.1986617443472 247.63764404609447 L 354.0496077526532 200.16005121638955 L 372.90055376096007 215.98591549295816 L 391.75149976926605 179.0588988476311 L 410.60244577757294 200.16005121638955 L 429.4533917858789 184.33418693982094 L 448.3043377941858 184.33418693982094 L 467.1552838024918 147.40717029449388 L 486.0062298107987 252.9129321382843 L 504.85717581910467 142.13188220230404 L 523.7081218274116 242.36235595390553 L 542.5590678357175 147.40717029449388 L 561.4100138440244 295.1152368758003 L 580.2609598523304 337.3175416133163 L 591.571527457314 332.0422535211269 L 595.3417166589752 152.6824583866828 L 599.1119058606373 131.58130601792527 L 602.8820950622985 136.8565941101151 L 606.6522842639597 131.58130601792527 L 610.4224734656209 142.13188220230404 L 614.1926626672821 99.92957746478805 L 617.9628518689433 78.82842509603051 L 621.7330410706045 105.2048655569779 L 625.5032302722657 157.95774647887356 L 629.2734194739269 147.40717029449388 L 633.0436086755881 136.8565941101151 L 636.8137978772502 179.0588988476311 L 640.5839870789114 189.60947503200987 L 644.3541762805726 179.0588988476311 L 648.1243654822338 200.16005121638955 L 651.894554683895 215.98591549295816 L 655.6647438855562 194.8847631241997 L 659.4349330872174 168.50832266325233 L 663.2051222888786 210.71062740076832 L 666.9753114905398 173.78361075544126 L 670.745500692201 210.71062740076832 L 674.515689893863 231.81177976952586 L 678.2858790955243 205.43533930857848 L 682.0560682971854 189.60947503200987 L 685.8262574988466 163.2330345710625 L 689.5964467005078 136.8565941101151 L 693.366635902169 168.50832266325233 L 697.1368251038302 147.40717029449388 L 700.9070143054914 152.6824583866828 L 704.6772035071526 173.78361075544126 L 708.4473927088138 173.78361075544126 L 712.2175819104759 152.6824583866828 L 715.9877711121371 200.16005121638955 L 719.7579603137983 157.95774647887356 L 723.5281495154595 157.95774647887356 L 727.2983387171207 189.60947503200987 L 731.0685279187819 215.98591549295816 L 734.8387171204431 184.33418693982094 L 738.6089063221043 179.0588988476311 L 742.3790955237655 268.7387964148529 L 746.1492847254267 194.8847631241997 L 749.9194739270879 189.60947503200987 L 753.68966312875 168.50832266325233 L 757.4598523304112 157.95774647887356 L 761.2300415320724 184.33418693982094 L 765.0002307337336 258.18822023047414 L 768.7704199353948 237.0870678617157 L 772.540609137056 237.0870678617157 L 776.3107983387172 215.98591549295816 L 780.0809875403784 221.2612035851471 L 783.8511767420396 221.2612035851471 L 787.6213659437008 184.33418693982094 L 791.3915551453629 105.2048655569779 L 795.1617443470241 131.58130601792527 L 798.9319335486853 136.8565941101151 L 802.7021227503465 242.36235595390553 L 806.4723119520077 332.0422535211269 L 810.2425011536689 405.89628681177965 L 814.01269035533 300.39052496799013 L 817.7828795569912 279.2893725992317 L 821.5530687586524 305.66581306017906 L 825.3232579603136 157.95774647887356 L 829.0934471619757 163.2330345710625 L 832.8636363636369 358.4186939820743" stroke-miterlimit="10" stroke-width="3"/></g><g><path fill="none" stroke="none"/><path fill="rgb(0, 28, 100)" stroke="none" paint-order="stroke fill markers" d=" M 90.13636363636306 179.0588988476311 L 108.98730964466995 121.03072983354559 L 127.83825565297593 242.36235595390463 L 146.68920166128282 163.23303457106158 L 165.5401476695888 105.2048655569779 L 184.3910936778957 179.0588988476311 L 203.24203968620168 215.98591549295725 L 222.09298569450857 231.81177976952586 L 240.94393170281455 231.81177976952677 L 259.79487771112144 231.81177976952586 L 278.6458237194274 68.27784891165084 L 297.4967697277343 252.9129321382843 L 316.3477157360403 258.18822023047323 L 335.1986617443472 263.4635083226631 L 354.0496077526532 210.71062740076832 L 372.90055376096007 226.53649167733693 L 391.75149976926605 189.60947503200987 L 410.60244577757294 210.71062740076832 L 429.4533917858789 194.8847631241997 L 448.3043377941858 194.8847631241997 L 467.1552838024918 157.95774647887265 L 486.0062298107987 263.4635083226631 L 504.85717581910467 147.40717029449388 L 523.7081218274116 258.18822023047414 L 542.5590678357175 152.6824583866828 L 561.4100138440244 305.6658130601786 L 580.2609598523304 358.4186939820743 L 591.571527457314 347.8681177976955 L 595.3417166589752 163.23303457106158 L 599.1119058606373 142.13188220230404 L 602.8820950622985 147.40717029449388 L 606.6522842639597 147.40717029449388 L 610.4224734656209 157.95774647887265 L 614.1926626672821 110.48015364916682 L 617.9628518689433 84.10371318822035 L 621.7330410706045 110.48015364916682 L 625.5032302722657 168.50832266325233 L 629.2734194739269 157.95774647887265 L 633.0436086755881 147.40717029449388 L 636.8137978772502 189.60947503200987 L 640.5839870789114 200.16005121638864 L 644.3541762805726 189.60947503200987 L 648.1243654822338 210.71062740076832 L 651.894554683895 231.81177976952677 L 655.6647438855562 205.43533930857848 L 659.4349330872174 179.0588988476311 L 663.2051222888786 226.53649167733693 L 666.9753114905398 189.60947503201078 L 670.745500692201 221.2612035851471 L 674.515689893863 242.36235595390463 L 678.2858790955243 215.98591549295725 L 682.0560682971854 200.16005121638864 L 685.8262574988466 168.50832266325233 L 689.5964467005078 142.13188220230404 L 693.366635902169 179.0588988476311 L 697.1368251038302 157.95774647887265 L 700.9070143054914 163.23303457106158 L 704.6772035071526 194.8847631241997 L 708.4473927088138 184.33418693982094 L 712.2175819104759 163.23303457106158 L 715.9877711121371 210.71062740076832 L 719.7579603137983 168.50832266325233 L 723.5281495154595 163.2330345710625 L 727.2983387171207 200.16005121638864 L 731.0685279187819 226.53649167733693 L 734.8387171204431 194.8847631241997 L 738.6089063221043 189.60947503200987 L 742.3790955237655 284.5646606914215 L 746.1492847254267 205.43533930857848 L 749.9194739270879 200.16005121638864 L 753.68966312875 179.0588988476311 L 757.4598523304112 168.50832266325233 L 761.2300415320724 200.16005121638955 L 765.0002307337336 279.2893725992317 L 768.7704199353948 258.18822023047414 L 772.540609137056 252.9129321382843 L 776.3107983387172 226.53649167733693 L 780.0809875403784 237.0870678617157 L 783.8511767420396 231.81177976952586 L 787.6213659437008 189.60947503200987 L 791.3915551453629 115.75544174135666 L 795.1617443470241 142.13188220230404 L 798.9319335486853 142.13188220230404 L 802.7021227503465 252.9129321382843 L 806.4723119520077 347.8681177976955 L 810.2425011536689 432.272727272727 L 814.01269035533 316.21638924455874 L 817.7828795569912 289.83994878361045 L 821.5530687586524 321.4916773367481 L 825.3232579603136 168.50832266325233 L 829.0934471619757 173.78361075544126 L 832.8636363636369 384.79513444302165 L 832.8636363636369 332.0422535211269 L 829.0934471619757 152.68245838668372 L 825.3232579603136 147.4071702944948 L 821.5530687586524 289.83994878361045 L 817.7828795569912 268.7387964148529 L 814.01269035533 284.5646606914215 L 810.2425011536689 379.51984635083227 L 806.4723119520077 316.2163892445583 L 802.7021227503465 231.81177976952677 L 798.9319335486853 131.58130601792527 L 795.1617443470241 121.0307298335465 L 791.3915551453629 94.65428937259912 L 787.6213659437008 179.0588988476311 L 783.8511767420396 210.71062740076832 L 780.0809875403784 205.43533930857848 L 776.3107983387172 205.4353393085794 L 772.540609137056 221.2612035851471 L 768.7704199353948 215.98591549295816 L 765.0002307337336 237.0870678617157 L 761.2300415320724 168.50832266325233 L 757.4598523304112 147.4071702944948 L 753.68966312875 157.95774647887356 L 749.9194739270879 179.0588988476311 L 746.1492847254267 184.33418693982094 L 742.3790955237655 252.9129321382843 L 738.6089063221043 168.50832266325233 L 734.8387171204431 173.78361075544126 L 731.0685279187819 205.4353393085794 L 727.2983387171207 179.0588988476311 L 723.5281495154595 152.68245838668372 L 719.7579603137983 147.4071702944948 L 715.9877711121371 189.60947503201078 L 712.2175819104759 142.13188220230404 L 708.4473927088138 163.2330345710625 L 704.6772035071526 152.68245838668372 L 700.9070143054914 142.13188220230404 L 697.1368251038302 136.8565941101151 L 693.366635902169 157.95774647887356 L 689.5964467005078 131.58130601792527 L 685.8262574988466 157.95774647887356 L 682.0560682971854 179.0588988476311 L 678.2858790955243 194.8847631241997 L 674.515689893863 221.2612035851471 L 670.745500692201 200.16005121638955 L 666.9753114905398 157.95774647887356 L 663.2051222888786 194.8847631241997 L 659.4349330872174 157.95774647887356 L 655.6647438855562 184.33418693982094 L 651.894554683895 200.16005121638955 L 648.1243654822338 189.60947503201078 L 644.3541762805726 168.50832266325233 L 640.5839870789114 179.0588988476311 L 636.8137978772502 168.50832266325233 L 633.0436086755881 126.30601792573634 L 629.2734194739269 136.8565941101151 L 625.5032302722657 147.4071702944948 L 621.7330410706045 99.92957746478805 L 617.9628518689433 73.55313700384158 L 614.1926626672821 89.37900128040928 L 610.4224734656209 126.30601792573634 L 606.6522842639597 115.75544174135757 L 602.8820950622985 126.30601792573634 L 599.1119058606373 121.0307298335465 L 595.3417166589752 142.13188220230404 L 591.571527457314 316.2163892445583 L 580.2609598523304 316.2163892445583 L 561.4100138440244 284.5646606914215 L 542.5590678357175 142.13188220230404 L 523.7081218274116 226.53649167733693 L 504.85717581910467 136.8565941101151 L 486.0062298107987 242.36235595390553 L 467.1552838024918 136.8565941101151 L 448.3043377941858 173.78361075544126 L 429.4533917858789 173.78361075544126 L 410.60244577757294 189.60947503201078 L 391.75149976926605 168.50832266325233 L 372.90055376096007 205.4353393085794 L 354.0496077526532 189.60947503201078 L 335.1986617443472 231.81177976952586 L 316.3477157360403 237.0870678617157 L 297.4967697277343 231.81177976952677 L 278.6458237194274 57.727272727272066 L 259.79487771112144 210.71062740076832 L 240.94393170281455 200.16005121638955 L 222.09298569450857 210.71062740076832 L 203.24203968620168 194.8847631241997 L 184.3910936778957 157.95774647887356 L 165.5401476695888 94.65428937259912 L 146.68920166128282 142.13188220230404 L 127.83825565297593 221.2612035851471 L 108.98730964466995 99.92957746478805 L 90.13636363636306 157.95774647887356 Z" fill-opacity="0.3"/><path fill="none" stroke="rgb(0, 28, 100)" paint-order="fill stroke markers" d=" M 90.13636363636306 179.0588988476311 L 108.98730964466995 121.03072983354559 L 127.83825565297593 242.36235595390463 L 146.68920166128282 163.23303457106158 L 165.5401476695888 105.2048655569779 L 184.3910936778957 179.0588988476311 L 203.24203968620168 215.98591549295725 L 222.09298569450857 231.81177976952586 L 240.94393170281455 231.81177976952677 L 259.79487771112144 231.81177976952586 L 278.6458237194274 68.27784891165084 L 297.4967697277343 252.9129321382843 L 316.3477157360403 258.18822023047323 L 335.1986617443472 263.4635083226631 L 354.0496077526532 210.71062740076832 L 372.90055376096007 226.53649167733693 L 391.75149976926605 189.60947503200987 L 410.60244577757294 210.71062740076832 L 429.4533917858789 194.8847631241997 L 448.3043377941858 194.8847631241997 L 467.1552838024918 157.95774647887265 L 486.0062298107987 263.4635083226631 L 504.85717581910467 147.40717029449388 L 523.7081218274116 258.18822023047414 L 542.5590678357175 152.6824583866828 L 561.4100138440244 305.6658130601786 L 580.2609598523304 358.4186939820743 L 591.571527457314 347.8681177976955 L 595.3417166589752 163.23303457106158 L 599.1119058606373 142.13188220230404 L 602.8820950622985 147.40717029449388 L 606.6522842639597 147.40717029449388 L 610.4224734656209 157.95774647887265 L 614.1926626672821 110.48015364916682 L 617.9628518689433 84.10371318822035 L 621.7330410706045 110.48015364916682 L 625.5032302722657 168.50832266325233 L 629.2734194739269 157.95774647887265 L 633.0436086755881 147.40717029449388 L 636.8137978772502 189.60947503200987 L 640.5839870789114 200.16005121638864 L 644.3541762805726 189.60947503200987 L 648.1243654822338 210.71062740076832 L 651.894554683895 231.81177976952677 L 655.6647438855562 205.43533930857848 L 659.4349330872174 179.0588988476311 L 663.2051222888786 226.53649167733693 L 666.9753114905398 189.60947503201078 L 670.745500692201 221.2612035851471 L 674.515689893863 242.36235595390463 L 678.2858790955243 215.98591549295725 L 682.0560682971854 200.16005121638864 L 685.8262574988466 168.50832266325233 L 689.5964467005078 142.13188220230404 L 693.366635902169 179.0588988476311 L 697.1368251038302 157.95774647887265 L 700.9070143054914 163.23303457106158 L 704.6772035071526 194.8847631241997 L 708.4473927088138 184.33418693982094 L 712.2175819104759 163.23303457106158 L 715.9877711121371 210.71062740076832 L 719.7579603137983 168.50832266325233 L 723.5281495154595 163.2330345710625 L 727.2983387171207 200.16005121638864 L 731.0685279187819 226.53649167733693 L 734.8387171204431 194.8847631241997 L 738.6089063221043 189.60947503200987 L 742.3790955237655 284.5646606914215 L 746.1492847254267 205.43533930857848 L 749.9194739270879 200.16005121638864 L 753.68966312875 179.0588988476311 L 757.4598523304112 168.50832266325233 L 761.2300415320724 200.16005121638955 L 765.0002307337336 279.2893725992317 L 768.7704199353948 258.18822023047414 L 772.540609137056 252.9129321382843 L 776.3107983387172 226.53649167733693 L 780.0809875403784 237.0870678617157 L 783.8511767420396 231.81177976952586 L 787.6213659437008 189.60947503200987 L 791.3915551453629 115.75544174135666 L 795.1617443470241 142.13188220230404 L 798.9319335486853 142.13188220230404 L 802.7021227503465 252.9129321382843 L 806.4723119520077 347.8681177976955 L 810.2425011536689 432.272727272727 L 814.01269035533 316.21638924455874 L 817.7828795569912 289.83994878361045 L 821.5530687586524 321.4916773367481 L 825.3232579603136 168.50832266325233 L 829.0934471619757 173.78361075544126 L 832.8636363636369 384.79513444302165 L 832.8636363636369 332.0422535211269 L 829.0934471619757 152.68245838668372 L 825.3232579603136 147.4071702944948 L 821.5530687586524 289.83994878361045 L 817.7828795569912 268.7387964148529 L 814.01269035533 284.5646606914215 L 810.2425011536689 379.51984635083227 L 806.4723119520077 316.2163892445583 L 802.7021227503465 231.81177976952677 L 798.9319335486853 131.58130601792527 L 795.1617443470241 121.0307298335465 L 791.3915551453629 94.65428937259912 L 787.6213659437008 179.0588988476311 L 783.8511767420396 210.71062740076832 L 780.0809875403784 205.43533930857848 L 776.3107983387172 205.4353393085794 L 772.540609137056 221.2612035851471 L 768.7704199353948 215.98591549295816 L 765.0002307337336 237.0870678617157 L 761.2300415320724 168.50832266325233 L 757.4598523304112 147.4071702944948 L 753.68966312875 157.95774647887356 L 749.9194739270879 179.0588988476311 L 746.1492847254267 184.33418693982094 L 742.3790955237655 252.9129321382843 L 738.6089063221043 168.50832266325233 L 734.8387171204431 173.78361075544126 L 731.0685279187819 205.4353393085794 L 727.2983387171207 179.0588988476311 L 723.5281495154595 152.68245838668372 L 719.7579603137983 147.4071702944948 L 715.9877711121371 189.60947503201078 L 712.2175819104759 142.13188220230404 L 708.4473927088138 163.2330345710625 L 704.6772035071526 152.68245838668372 L 700.9070143054914 142.13188220230404 L 697.1368251038302 136.8565941101151 L 693.366635902169 157.95774647887356 L 689.5964467005078 131.58130601792527 L 685.8262574988466 157.95774647887356 L 682.0560682971854 179.0588988476311 L 678.2858790955243 194.8847631241997 L 674.515689893863 221.2612035851471 L 670.745500692201 200.16005121638955 L 666.9753114905398 157.95774647887356 L 663.2051222888786 194.8847631241997 L 659.4349330872174 157.95774647887356 L 655.6647438855562 184.33418693982094 L 651.894554683895 200.16005121638955 L 648.1243654822338 189.60947503201078 L 644.3541762805726 168.50832266325233 L 640.5839870789114 179.0588988476311 L 636.8137978772502 168.50832266325233 L 633.0436086755881 126.30601792573634 L 629.2734194739269 136.8565941101151 L 625.5032302722657 147.4071702944948 L 621.7330410706045 99.92957746478805 L 617.9628518689433 73.55313700384158 L 614.1926626672821 89.37900128040928 L 610.4224734656209 126.30601792573634 L 606.6522842639597 115.75544174135757 L 602.8820950622985 126.30601792573634 L 599.1119058606373 121.0307298335465 L 595.3417166589752 142.13188220230404 L 591.571527457314 316.2163892445583 L 580.2609598523304 316.2163892445583 L 561.4100138440244 284.5646606914215 L 542.5590678357175 142.13188220230404 L 523.7081218274116 226.53649167733693 L 504.85717581910467 136.8565941101151 L 486.0062298107987 242.36235595390553 L 467.1552838024918 136.8565941101151 L 448.3043377941858 173.78361075544126 L 429.4533917858789 173.78361075544126 L 410.60244577757294 189.60947503201078 L 391.75149976926605 168.50832266325233 L 372.90055376096007 205.4353393085794 L 354.0496077526532 189.60947503201078 L 335.1986617443472 231.81177976952586 L 316.3477157360403 237.0870678617157 L 297.4967697277343 231.81177976952677 L 278.6458237194274 57.727272727272066 L 259.79487771112144 210.71062740076832 L 240.94393170281455 200.16005121638955 L 222.09298569450857 210.71062740076832 L 203.24203968620168 194.8847631241997 L 184.3910936778957 157.95774647887356 L 165.5401476695888 94.65428937259912 L 146.68920166128282 142.13188220230404 L 127.83825565297593 221.2612035851471 L 108.98730964466995 99.92957746478805 L 90.13636363636306 157.95774647887356 Z" stroke-miterlimit="10" stroke-opacity="0.3"/></g></g><g/><g><g fill="#444444"><path fill="none" stroke="black" paint-order="fill stroke markers" d=" M 53 451 L 870 451" stroke-miterlimit="10"/><path fill="none" stroke="rgb(255, 67, 67)" paint-order="fill stroke markers" d=" M 64 457 L 64 449" stroke-miterlimit="10" stroke-width="3"/><path fill="none" stroke="rgb(255, 67, 67)" paint-order="fill stroke markers" d=" M 252 457 L 252 449" stroke-miterlimit="10" stroke-width="3"/><path fill="none" stroke="rgb(255, 67, 67)" paint-order="fill stroke markers" d=" M 441 457 L 441 449" stroke-miterlimit="10" stroke-width="3"/><path fill="none" stroke="rgb(255, 67, 67)" paint-order="fill stroke markers" d=" M 629 457 L 629 449" stroke-miterlimit="10" stroke-width="3"/><path fill="none" stroke="rgb(255, 67, 67)" paint-order="fill stroke markers" d=" M 818 457 L 818 449" stroke-miterlimit="10" stroke-width="3"/><path fill="none" stroke="rgb(255, 67, 67)" paint-order="fill stroke markers" d=" M 64 455 L 64 451" stroke-miterlimit="10"/><path fill="none" stroke="rgb(255, 67, 67)" paint-order="fill stroke markers" d=" M 101 455 L 101 451" stroke-miterlimit="10"/><path fill="none" stroke="rgb(255, 67, 67)" paint-order="fill stroke markers" d=" M 139 455 L 139 451" stroke-miterlimit="10"/><path fill="none" stroke="rgb(255, 67, 67)" paint-order="fill stroke markers" d=" M 177 455 L 177 451" stroke-miterlimit="10"/><path fill="none" stroke="rgb(255, 67, 67)" paint-order="fill stroke markers" d=" M 215 455 L 215 451" stroke-miterlimit="10"/><path fill="none" stroke="rgb(255, 67, 67)" paint-order="fill stroke markers" d=" M 252 455 L 252 451" stroke-miterlimit="10"/><path fill="none" stroke="rgb(255, 67, 67)" paint-order="fill stroke markers" d=" M 290 455 L 290 451" stroke-miterlimit="10"/><path fill="none" stroke="rgb(255, 67, 67)" paint-order="fill stroke markers" d=" M 328 455 L 328 451" stroke-miterlimit="10"/><path fill="none" stroke="rgb(255, 67, 67)" paint-order="fill stroke markers" d=" M 365 455 L 365 451" stroke-miterlimit="10"/><path fill="none" stroke="rgb(255, 67, 67)" paint-order="fill stroke markers" d=" M 403 455 L 403 451" stroke-miterlimit="10"/><path fill="none" stroke="rgb(255, 67, 67)" paint-order="fill stroke markers" d=" M 441 455 L 441 451" stroke-miterlimit="10"/><path fill="none" stroke="rgb(255, 67, 67)" paint-order="fill stroke markers" d=" M 478 455 L 478 451" stroke-miterlimit="10"/><path fill="none" stroke="rgb(255, 67, 67)" paint-order="fill stroke markers" d=" M 516 455 L 516 451" stroke-miterlimit="10"/><path fill="none" stroke="rgb(255, 67, 67)" paint-order="fill stroke markers" d=" M 554 455 L 554 451" stroke-miterlimit="10"/><path fill="none" stroke="rgb(255, 67, 67)" paint-order="fill stroke markers" d=" M 592 455 L 592 451" stroke-miterlimit="10"/><path fill="none" stroke="rgb(255, 67, 67)" paint-order="fill stroke markers" d=" M 629 455 L 629 451" stroke-miterlimit="10"/><path fill="none" stroke="rgb(255, 67, 67)" paint-order="fill stroke markers" d=" M 667 455 L 667 451" stroke-miterlimit="10"/><path fill="none" stroke="rgb(255, 67, 67)" paint-order="fill stroke markers" d=" M 705 455 L 705 451" stroke-miterlimit="10"/><path fill="none" stroke="rgb(255, 67, 67)" paint-order="fill stroke markers" d=" M 742 455 L 742 451" stroke-miterlimit="10"/><path fill="none" stroke="rgb(255, 67, 67)" paint-order="fill stroke markers" d=" M 780 455 L 780 451" stroke-miterlimit="10"/><path fill="none" stroke="rgb(255, 67, 67)" paint-order="fill stroke markers" d=" M 818 455 L 818 451" stroke-miterlimit="10"/><path fill="" stroke="rgb(255, 67, 67)" paint-order="fill stroke markers" d=" M 855 455 L 855 451" stroke-miterlimit="10"/><g transform="translate(64,462) rotate(0,0,0)"><text fill="" stroke="none" font-family="helvetica" font-size="8pt" font-style="normal" font-weight="normal" text-decoration="normal" x="0" y="0" text-anchor="middle" dominant-baseline="hanging">1800</text><g transform="rotate(0,0,0) translate(-64,-462) translate(252,462) rotate(0,0,0)"><text fill="" stroke="none" font-family="helvetica" font-size="8pt" font-style="normal" font-weight="normal" text-decoration="normal" x="0" y="0" text-anchor="middle" dominant-baseline="hanging">1850</text><g transform="rotate(0,0,0) translate(-252,-462) translate(441,462) rotate(0,0,0)"><text fill="" stroke="none" font-family="helvetica" font-size="8pt" font-style="normal" font-weight="normal" text-decoration="normal" x="0" y="0" text-anchor="middle" dominant-baseline="hanging">1900</text><g transform="rotate(0,0,0) translate(-441,-462) translate(629,462) rotate(0,0,0)"><text fill="" stroke="none" font-family="helvetica" font-size="8pt" font-style="normal" font-weight="normal" text-decoration="normal" x="0" y="0" text-anchor="middle" dominant-baseline="hanging">1950</text><g transform="rotate(0,0,0) translate(-629,-462) translate(818,462) rotate(0,0,0)"><text fill="" stroke="none" font-family="helvetica" font-size="8pt" font-style="normal" font-weight="normal" text-decoration="normal" x="0" y="0" text-anchor="middle" dominant-baseline="hanging">2000</text><g transform="rotate(0,0,0) translate(-818,-462) translate(462,480) rotate(0,0,0)"><text fill="" stroke="none" font-family="ADAM" font-size="12pt" font-style="normal" font-weight="normal" text-decoration="normal" x="0" y="0" text-anchor="middle" dominant-baseline="hanging">Año</text><g transform="rotate(0,0,0) translate(-462,-480)"/></g></g></g></g></g></g></g><g fill="#444444"><path fill="none" stroke="black" paint-order="fill stroke markers" d=" M 53 451 L 53 39" stroke-miterlimit="10"/><path fill="none" stroke="rgb(255, 67, 67)" paint-order="fill stroke markers" d=" M 47 443 L 55 443" stroke-miterlimit="10" stroke-width="3"/><path fill="none" stroke="rgb(255, 67, 67)" paint-order="fill stroke markers" d=" M 47 390 L 55 390" stroke-miterlimit="10" stroke-width="3"/><path fill="none" stroke="rgb(255, 67, 67)" paint-order="fill stroke markers" d=" M 47 337 L 55 337" stroke-miterlimit="10" stroke-width="3"/><path fill="none" stroke="rgb(255, 67, 67)" paint-order="fill stroke markers" d=" M 47 285 L 55 285" stroke-miterlimit="10" stroke-width="3"/><path fill="none" stroke="rgb(255, 67, 67)" paint-order="fill stroke markers" d=" M 47 232 L 55 232" stroke-miterlimit="10" stroke-width="3"/><path fill="none" stroke="rgb(255, 67, 67)" paint-order="fill stroke markers" d=" M 47 179 L 55 179" stroke-miterlimit="10" stroke-width="3"/><path fill="none" stroke="rgb(255, 67, 67)" paint-order="fill stroke markers" d=" M 47 126 L 55 126" stroke-miterlimit="10" stroke-width="3"/><path fill="none" stroke="rgb(255, 67, 67)" paint-order="fill stroke markers" d=" M 47 74 L 55 74" stroke-miterlimit="10" stroke-width="3"/><path fill="none" stroke="rgb(255, 67, 67)" paint-order="fill stroke markers" d=" M 49 443 L 53 443" stroke-miterlimit="10"/><path fill="none" stroke="rgb(255, 67, 67)" paint-order="fill stroke markers" d=" M 49 432 L 53 432" stroke-miterlimit="10"/><path fill="none" stroke="rgb(255, 67, 67)" paint-order="fill stroke markers" d=" M 49 422 L 53 422" stroke-miterlimit="10"/><path fill="none" stroke="rgb(255, 67, 67)" paint-order="fill stroke markers" d=" M 49 411 L 53 411" stroke-miterlimit="10"/><path fill="none" stroke="rgb(255, 67, 67)" paint-order="fill stroke markers" d=" M 49 401 L 53 401" stroke-miterlimit="10"/><path fill="none" stroke="rgb(255, 67, 67)" paint-order="fill stroke markers" d=" M 49 390 L 53 390" stroke-miterlimit="10"/><path fill="none" stroke="rgb(255, 67, 67)" paint-order="fill stroke markers" d=" M 49 380 L 53 380" stroke-miterlimit="10"/><path fill="none" stroke="rgb(255, 67, 67)" paint-order="fill stroke markers" d=" M 49 369 L 53 369" stroke-miterlimit="10"/><path fill="none" stroke="rgb(255, 67, 67)" paint-order="fill stroke markers" d=" M 49 358 L 53 358" stroke-miterlimit="10"/><path fill="none" stroke="rgb(255, 67, 67)" paint-order="fill stroke markers" d=" M 49 348 L 53 348" stroke-miterlimit="10"/><path fill="none" stroke="rgb(255, 67, 67)" paint-order="fill stroke markers" d=" M 49 337 L 53 337" stroke-miterlimit="10"/><path fill="none" stroke="rgb(255, 67, 67)" paint-order="fill stroke markers" d=" M 49 327 L 53 327" stroke-miterlimit="10"/><path fill="none" stroke="rgb(255, 67, 67)" paint-order="fill stroke markers" d=" M 49 316 L 53 316" stroke-miterlimit="10"/><path fill="none" stroke="rgb(255, 67, 67)" paint-order="fill stroke markers" d=" M 49 306 L 53 306" stroke-miterlimit="10"/><path fill="none" stroke="rgb(255, 67, 67)" paint-order="fill stroke markers" d=" M 49 295 L 53 295" stroke-miterlimit="10"/><path fill="none" stroke="rgb(255, 67, 67)" paint-order="fill stroke markers" d=" M 49 285 L 53 285" stroke-miterlimit="10"/><path fill="none" stroke="rgb(255, 67, 67)" paint-order="fill stroke markers" d=" M 49 274 L 53 274" stroke-miterlimit="10"/><path fill="none" stroke="rgb(255, 67, 67)" paint-order="fill stroke markers" d=" M 49 263 L 53 263" stroke-miterlimit="10"/><path fill="none" stroke="rgb(255, 67, 67)" paint-order="fill stroke markers" d=" M 49 253 L 53 253" stroke-miterlimit="10"/><path fill="none" stroke="rgb(255, 67, 67)" paint-order="fill stroke markers" d=" M 49 242 L 53 242" stroke-miterlimit="10"/><path fill="none" stroke="rgb(255, 67, 67)" paint-order="fill stroke markers" d=" M 49 232 L 53 232" stroke-miterlimit="10"/><path fill="none" stroke="rgb(255, 67, 67)" paint-order="fill stroke markers" d=" M 49 221 L 53 221" stroke-miterlimit="10"/><path fill="none" stroke="rgb(255, 67, 67)" paint-order="fill stroke markers" d=" M 49 211 L 53 211" stroke-miterlimit="10"/><path fill="none" stroke="rgb(255, 67, 67)" paint-order="fill stroke markers" d=" M 49 200 L 53 200" stroke-miterlimit="10"/><path fill="none" stroke="rgb(255, 67, 67)" paint-order="fill stroke markers" d=" M 49 190 L 53 190" stroke-miterlimit="10"/><path fill="none" stroke="rgb(255, 67, 67)" paint-order="fill stroke markers" d=" M 49 179 L 53 179" stroke-miterlimit="10"/><path fill="none" stroke="rgb(255, 67, 67)" paint-order="fill stroke markers" d=" M 49 169 L 53 169" stroke-miterlimit="10"/><path fill="none" stroke="rgb(255, 67, 67)" paint-order="fill stroke markers" d=" M 49 158 L 53 158" stroke-miterlimit="10"/><path fill="none" stroke="rgb(255, 67, 67)" paint-order="fill stroke markers" d=" M 49 147 L 53 147" stroke-miterlimit="10"/><path fill="none" stroke="rgb(255, 67, 67)" paint-order="fill stroke markers" d=" M 49 137 L 53 137" stroke-miterlimit="10"/><path fill="none" stroke="rgb(255, 67, 67)" paint-order="fill stroke markers" d=" M 49 126 L 53 126" stroke-miterlimit="10"/><path fill="none" stroke="rgb(255, 67, 67)" paint-order="fill stroke markers" d=" M 49 116 L 53 116" stroke-miterlimit="10"/><path fill="none" stroke="rgb(255, 67, 67)" paint-order="fill stroke markers" d=" M 49 105 L 53 105" stroke-miterlimit="10"/><path fill="none" stroke="rgb(255, 67, 67)" paint-order="fill stroke markers" d=" M 49 95 L 53 95" stroke-miterlimit="10"/><path fill="none" stroke="rgb(255, 67, 67)" paint-order="fill stroke markers" d=" M 49 84 L 53 84" stroke-miterlimit="10"/><path fill="none" stroke="rgb(255, 67, 67)" paint-order="fill stroke markers" d=" M 49 74 L 53 74" stroke-miterlimit="10"/><path fill="none" stroke="rgb(255, 67, 67)" paint-order="fill stroke markers" d=" M 49 63 L 53 63" stroke-miterlimit="10"/><path fill="none" stroke="rgb(255, 67, 67)" paint-order="fill stroke markers" d=" M 49 52 L 53 52" stroke-miterlimit="10"/><path fill="" stroke="rgb(255, 67, 67)" paint-order="fill stroke markers" d=" M 49 42 L 53 42" stroke-miterlimit="10"/><g transform="translate(42,443) rotate(0,0,0)"><text fill="" stroke="none" font-family="helvetica" font-size="8pt" font-style="normal" font-weight="normal" text-decoration="normal" x="0" y="0" text-anchor="end" dominant-baseline="central">7.5</text><g transform="rotate(0,0,0) translate(-42,-443) translate(42,390) rotate(0,0,0)"><text fill="" stroke="none" font-family="helvetica" font-size="8pt" font-style="normal" font-weight="normal" text-decoration="normal" x="0" y="0" text-anchor="end" dominant-baseline="central">7.6</text><g transform="rotate(0,0,0) translate(-42,-390) translate(42,337) rotate(0,0,0)"><text fill="" stroke="none" font-family="helvetica" font-size="8pt" font-style="normal" font-weight="normal" text-decoration="normal" x="0" y="0" text-anchor="end" dominant-baseline="central">7.7</text><g transform="rotate(0,0,0) translate(-42,-337) translate(42,285) rotate(0,0,0)"><text fill="" stroke="none" font-family="helvetica" font-size="8pt" font-style="normal" font-weight="normal" text-decoration="normal" x="0" y="0" text-anchor="end" dominant-baseline="central">7.8</text><g transform="rotate(0,0,0) translate(-42,-285) translate(42,232) rotate(0,0,0)"><text fill="" stroke="none" font-family="helvetica" font-size="8pt" font-style="normal" font-weight="normal" text-decoration="normal" x="0" y="0" text-anchor="end" dominant-baseline="central">7.9</text><g transform="rotate(0,0,0) translate(-42,-232) translate(42,179) rotate(0,0,0)"><text fill="" stroke="none" font-family="helvetica" font-size="8pt" font-style="normal" font-weight="normal" text-decoration="normal" x="0" y="0" text-anchor="end" dominant-baseline="central">8</text><g transform="rotate(0,0,0) translate(-42,-179) translate(42,126) rotate(0,0,0)"><text fill="" stroke="none" font-family="helvetica" font-size="8pt" font-style="normal" font-weight="normal" text-decoration="normal" x="0" y="0" text-anchor="end" dominant-baseline="central">8.1</text><g transform="rotate(0,0,0) translate(-42,-126) translate(42,74) rotate(0,0,0)"><text fill="" stroke="none" font-family="helvetica" font-size="8pt" font-style="normal" font-weight="normal" text-decoration="normal" x="0" y="0" text-anchor="end" dominant-baseline="central">8.2</text><g transform="rotate(0,0,0) translate(-42,-74) translate(21,245) rotate(-90,0,0)"><text fill="" stroke="none" font-family="ADAM" font-size="12pt" font-style="normal" font-weight="normal" text-decoration="normal" x="0" y="0" text-anchor="middle" dominant-baseline="alphabetic">pH</text><g transform="rotate(90,0,0) translate(-21,-245)"/></g></g></g></g></g></g></g></g></g></g><g fill="black"><path fill="" stroke="none" d=""/><g transform="translate(461.5,34)"><path fill="none" stroke="none"/><text fill="" stroke="none" font-family="ADAM" font-size="16pt" font-style="normal" font-weight="normal" text-decoration="normal" x="0" y="0" text-anchor="middle" dominant-baseline="text-after-edge">Acidificación del océano en la gran barrera de coral</text></g></g></g></g><g transform="scale(1,1) translate(0.5,0.5)"><rect fill="#FFFFFF" stroke="none" x="0" y="0" width="900" height="500"/><rect fill="#ffffff" stroke="none" x="0" y="0" width="900" height="500"/><rect fill="#FFFFFF" stroke="none" x="53" y="39" width="817" height="412"/><rect fill="white" stroke="none" x="53" y="39" width="817" height="412"/><g><rect fill="none" stroke="rgb(0, 131, 255)" x="53" y="39" width="817" height="412" stroke-miterlimit="10" stroke-width="7" stroke-opacity="0.5"/></g><g><g><path fill="none" stroke="rgb(0, 131, 255)" paint-order="fill stroke markers" d=" M 64 451 L 64 39" stroke-miterlimit="10" stroke-opacity="0"/><path fill="none" stroke="rgb(0, 131, 255)" paint-order="fill stroke markers" d=" M 252 451 L 252 39" stroke-miterlimit="10" stroke-opacity="0"/><path fill="none" stroke="rgb(0, 131, 255)" paint-order="fill stroke markers" d=" M 441 451 L 441 39" stroke-miterlimit="10" stroke-opacity="0"/><path fill="none" stroke="rgb(0, 131, 255)" paint-order="fill stroke markers" d=" M 629 451 L 629 39" stroke-miterlimit="10" stroke-opacity="0"/><path fill="none" stroke="rgb(0, 131, 255)" paint-order="fill stroke markers" d=" M 818 451 L 818 39" stroke-miterlimit="10" stroke-opacity="0"/></g><g><path fill="none" stroke="rgb(0, 131, 255)" paint-order="fill stroke markers" d=" M 53 443 L 870 443" stroke-miterlimit="10" stroke-opacity="0.25"/><path fill="none" stroke="rgb(0, 131, 255)" paint-order="fill stroke markers" d=" M 53 390 L 870 390" stroke-miterlimit="10" stroke-opacity="0.25"/><path fill="none" stroke="rgb(0, 131, 255)" paint-order="fill stroke markers" d=" M 53 337 L 870 337" stroke-miterlimit="10" stroke-opacity="0.25"/><path fill="none" stroke="rgb(0, 131, 255)" paint-order="fill stroke markers" d=" M 53 285 L 870 285" stroke-miterlimit="10" stroke-opacity="0.25"/><path fill="none" stroke="rgb(0, 131, 255)" paint-order="fill stroke markers" d=" M 53 232 L 870 232" stroke-miterlimit="10" stroke-opacity="0.25"/><path fill="none" stroke="rgb(0, 131, 255)" paint-order="fill stroke markers" d=" M 53 179 L 870 179" stroke-miterlimit="10" stroke-opacity="0.25"/><path fill="none" stroke="rgb(0, 131, 255)" paint-order="fill stroke markers" d=" M 53 126 L 870 126" stroke-miterlimit="10" stroke-opacity="0.25"/><path fill="none" stroke="rgb(0, 131, 255)" paint-order="fill stroke markers" d=" M 53 74 L 870 74" stroke-miterlimit="10" stroke-opacity="0.25"/></g><g><path fill="none" stroke="none"/><path fill="none" stroke="rgb(0, 28, 100)" paint-order="fill stroke markers" d=" M 90.13636363636306 168.50832266325233 L 108.98730964466995 110.48015364916682 L 127.83825565297593 231.81177976952586 L 146.68920166128282 152.6824583866828 L 165.5401476695888 99.92957746478805 L 184.3910936778957 168.50832266325233 L 203.24203968620168 205.43533930857848 L 222.09298569450857 221.2612035851471 L 240.94393170281455 215.98591549295816 L 259.79487771112144 221.2612035851471 L 278.6458237194274 63.002560819461905 L 297.4967697277343 242.36235595390553 L 316.3477157360403 247.63764404609447 L 335.1986617443472 247.63764404609447 L 354.0496077526532 200.16005121638955 L 372.90055376096007 215.98591549295816 L 391.75149976926605 179.0588988476311 L 410.60244577757294 200.16005121638955 L 429.4533917858789 184.33418693982094 L 448.3043377941858 184.33418693982094 L 467.1552838024918 147.40717029449388 L 486.0062298107987 252.9129321382843 L 504.85717581910467 142.13188220230404 L 523.7081218274116 242.36235595390553 L 542.5590678357175 147.40717029449388 L 561.4100138440244 295.1152368758003 L 580.2609598523304 337.3175416133163 L 591.571527457314 332.0422535211269 L 595.3417166589752 152.6824583866828 L 599.1119058606373 131.58130601792527 L 602.8820950622985 136.8565941101151 L 606.6522842639597 131.58130601792527 L 610.4224734656209 142.13188220230404 L 614.1926626672821 99.92957746478805 L 617.9628518689433 78.82842509603051 L 621.7330410706045 105.2048655569779 L 625.5032302722657 157.95774647887356 L 629.2734194739269 147.40717029449388 L 633.0436086755881 136.8565941101151 L 636.8137978772502 179.0588988476311 L 640.5839870789114 189.60947503200987 L 644.3541762805726 179.0588988476311 L 648.1243654822338 200.16005121638955 L 651.894554683895 215.98591549295816 L 655.6647438855562 194.8847631241997 L 659.4349330872174 168.50832266325233 L 663.2051222888786 210.71062740076832 L 666.9753114905398 173.78361075544126 L 670.745500692201 210.71062740076832 L 674.515689893863 231.81177976952586 L 678.2858790955243 205.43533930857848 L 682.0560682971854 189.60947503200987 L 685.8262574988466 163.2330345710625 L 689.5964467005078 136.8565941101151 L 693.366635902169 168.50832266325233 L 697.1368251038302 147.40717029449388 L 700.9070143054914 152.6824583866828 L 704.6772035071526 173.78361075544126 L 708.4473927088138 173.78361075544126 L 712.2175819104759 152.6824583866828 L 715.9877711121371 200.16005121638955 L 719.7579603137983 157.95774647887356 L 723.5281495154595 157.95774647887356 L 727.2983387171207 189.60947503200987 L 731.0685279187819 215.98591549295816 L 734.8387171204431 184.33418693982094 L 738.6089063221043 179.0588988476311 L 742.3790955237655 268.7387964148529 L 746.1492847254267 194.8847631241997 L 749.9194739270879 189.60947503200987 L 753.68966312875 168.50832266325233 L 757.4598523304112 157.95774647887356 L 761.2300415320724 184.33418693982094 L 765.0002307337336 258.18822023047414 L 768.7704199353948 237.0870678617157 L 772.540609137056 237.0870678617157 L 776.3107983387172 215.98591549295816 L 780.0809875403784 221.2612035851471 L 783.8511767420396 221.2612035851471 L 787.6213659437008 184.33418693982094 L 791.3915551453629 105.2048655569779 L 795.1617443470241 131.58130601792527 L 798.9319335486853 136.8565941101151 L 802.7021227503465 242.36235595390553 L 806.4723119520077 332.0422535211269 L 810.2425011536689 405.89628681177965 L 814.01269035533 300.39052496799013 L 817.7828795569912 279.2893725992317 L 821.5530687586524 305.66581306017906 L 825.3232579603136 157.95774647887356 L 829.0934471619757 163.2330345710625 L 832.8636363636369 358.4186939820743" stroke-miterlimit="10" stroke-width="3"/></g><g><path fill="none" stroke="none"/><path fill="rgb(0, 28, 100)" stroke="none" paint-order="stroke fill markers" d=" M 90.13636363636306 179.0588988476311 L 108.98730964466995 121.03072983354559 L 127.83825565297593 242.36235595390463 L 146.68920166128282 163.23303457106158 L 165.5401476695888 105.2048655569779 L 184.3910936778957 179.0588988476311 L 203.24203968620168 215.98591549295725 L 222.09298569450857 231.81177976952586 L 240.94393170281455 231.81177976952677 L 259.79487771112144 231.81177976952586 L 278.6458237194274 68.27784891165084 L 297.4967697277343 252.9129321382843 L 316.3477157360403 258.18822023047323 L 335.1986617443472 263.4635083226631 L 354.0496077526532 210.71062740076832 L 372.90055376096007 226.53649167733693 L 391.75149976926605 189.60947503200987 L 410.60244577757294 210.71062740076832 L 429.4533917858789 194.8847631241997 L 448.3043377941858 194.8847631241997 L 467.1552838024918 157.95774647887265 L 486.0062298107987 263.4635083226631 L 504.85717581910467 147.40717029449388 L 523.7081218274116 258.18822023047414 L 542.5590678357175 152.6824583866828 L 561.4100138440244 305.6658130601786 L 580.2609598523304 358.4186939820743 L 591.571527457314 347.8681177976955 L 595.3417166589752 163.23303457106158 L 599.1119058606373 142.13188220230404 L 602.8820950622985 147.40717029449388 L 606.6522842639597 147.40717029449388 L 610.4224734656209 157.95774647887265 L 614.1926626672821 110.48015364916682 L 617.9628518689433 84.10371318822035 L 621.7330410706045 110.48015364916682 L 625.5032302722657 168.50832266325233 L 629.2734194739269 157.95774647887265 L 633.0436086755881 147.40717029449388 L 636.8137978772502 189.60947503200987 L 640.5839870789114 200.16005121638864 L 644.3541762805726 189.60947503200987 L 648.1243654822338 210.71062740076832 L 651.894554683895 231.81177976952677 L 655.6647438855562 205.43533930857848 L 659.4349330872174 179.0588988476311 L 663.2051222888786 226.53649167733693 L 666.9753114905398 189.60947503201078 L 670.745500692201 221.2612035851471 L 674.515689893863 242.36235595390463 L 678.2858790955243 215.98591549295725 L 682.0560682971854 200.16005121638864 L 685.8262574988466 168.50832266325233 L 689.5964467005078 142.13188220230404 L 693.366635902169 179.0588988476311 L 697.1368251038302 157.95774647887265 L 700.9070143054914 163.23303457106158 L 704.6772035071526 194.8847631241997 L 708.4473927088138 184.33418693982094 L 712.2175819104759 163.23303457106158 L 715.9877711121371 210.71062740076832 L 719.7579603137983 168.50832266325233 L 723.5281495154595 163.2330345710625 L 727.2983387171207 200.16005121638864 L 731.0685279187819 226.53649167733693 L 734.8387171204431 194.8847631241997 L 738.6089063221043 189.60947503200987 L 742.3790955237655 284.5646606914215 L 746.1492847254267 205.43533930857848 L 749.9194739270879 200.16005121638864 L 753.68966312875 179.0588988476311 L 757.4598523304112 168.50832266325233 L 761.2300415320724 200.16005121638955 L 765.0002307337336 279.2893725992317 L 768.7704199353948 258.18822023047414 L 772.540609137056 252.9129321382843 L 776.3107983387172 226.53649167733693 L 780.0809875403784 237.0870678617157 L 783.8511767420396 231.81177976952586 L 787.6213659437008 189.60947503200987 L 791.3915551453629 115.75544174135666 L 795.1617443470241 142.13188220230404 L 798.9319335486853 142.13188220230404 L 802.7021227503465 252.9129321382843 L 806.4723119520077 347.8681177976955 L 810.2425011536689 432.272727272727 L 814.01269035533 316.21638924455874 L 817.7828795569912 289.83994878361045 L 821.5530687586524 321.4916773367481 L 825.3232579603136 168.50832266325233 L 829.0934471619757 173.78361075544126 L 832.8636363636369 384.79513444302165 L 832.8636363636369 332.0422535211269 L 829.0934471619757 152.68245838668372 L 825.3232579603136 147.4071702944948 L 821.5530687586524 289.83994878361045 L 817.7828795569912 268.7387964148529 L 814.01269035533 284.5646606914215 L 810.2425011536689 379.51984635083227 L 806.4723119520077 316.2163892445583 L 802.7021227503465 231.81177976952677 L 798.9319335486853 131.58130601792527 L 795.1617443470241 121.0307298335465 L 791.3915551453629 94.65428937259912 L 787.6213659437008 179.0588988476311 L 783.8511767420396 210.71062740076832 L 780.0809875403784 205.43533930857848 L 776.3107983387172 205.4353393085794 L 772.540609137056 221.2612035851471 L 768.7704199353948 215.98591549295816 L 765.0002307337336 237.0870678617157 L 761.2300415320724 168.50832266325233 L 757.4598523304112 147.4071702944948 L 753.68966312875 157.95774647887356 L 749.9194739270879 179.0588988476311 L 746.1492847254267 184.33418693982094 L 742.3790955237655 252.9129321382843 L 738.6089063221043 168.50832266325233 L 734.8387171204431 173.78361075544126 L 731.0685279187819 205.4353393085794 L 727.2983387171207 179.0588988476311 L 723.5281495154595 152.68245838668372 L 719.7579603137983 147.4071702944948 L 715.9877711121371 189.60947503201078 L 712.2175819104759 142.13188220230404 L 708.4473927088138 163.2330345710625 L 704.6772035071526 152.68245838668372 L 700.9070143054914 142.13188220230404 L 697.1368251038302 136.8565941101151 L 693.366635902169 157.95774647887356 L 689.5964467005078 131.58130601792527 L 685.8262574988466 157.95774647887356 L 682.0560682971854 179.0588988476311 L 678.2858790955243 194.8847631241997 L 674.515689893863 221.2612035851471 L 670.745500692201 200.16005121638955 L 666.9753114905398 157.95774647887356 L 663.2051222888786 194.8847631241997 L 659.4349330872174 157.95774647887356 L 655.6647438855562 184.33418693982094 L 651.894554683895 200.16005121638955 L 648.1243654822338 189.60947503201078 L 644.3541762805726 168.50832266325233 L 640.5839870789114 179.0588988476311 L 636.8137978772502 168.50832266325233 L 633.0436086755881 126.30601792573634 L 629.2734194739269 136.8565941101151 L 625.5032302722657 147.4071702944948 L 621.7330410706045 99.92957746478805 L 617.9628518689433 73.55313700384158 L 614.1926626672821 89.37900128040928 L 610.4224734656209 126.30601792573634 L 606.6522842639597 115.75544174135757 L 602.8820950622985 126.30601792573634 L 599.1119058606373 121.0307298335465 L 595.3417166589752 142.13188220230404 L 591.571527457314 316.2163892445583 L 580.2609598523304 316.2163892445583 L 561.4100138440244 284.5646606914215 L 542.5590678357175 142.13188220230404 L 523.7081218274116 226.53649167733693 L 504.85717581910467 136.8565941101151 L 486.0062298107987 242.36235595390553 L 467.1552838024918 136.8565941101151 L 448.3043377941858 173.78361075544126 L 429.4533917858789 173.78361075544126 L 410.60244577757294 189.60947503201078 L 391.75149976926605 168.50832266325233 L 372.90055376096007 205.4353393085794 L 354.0496077526532 189.60947503201078 L 335.1986617443472 231.81177976952586 L 316.3477157360403 237.0870678617157 L 297.4967697277343 231.81177976952677 L 278.6458237194274 57.727272727272066 L 259.79487771112144 210.71062740076832 L 240.94393170281455 200.16005121638955 L 222.09298569450857 210.71062740076832 L 203.24203968620168 194.8847631241997 L 184.3910936778957 157.95774647887356 L 165.5401476695888 94.65428937259912 L 146.68920166128282 142.13188220230404 L 127.83825565297593 221.2612035851471 L 108.98730964466995 99.92957746478805 L 90.13636363636306 157.95774647887356 Z" fill-opacity="0.3"/><path fill="none" stroke="rgb(0, 28, 100)" paint-order="fill stroke markers" d=" M 90.13636363636306 179.0588988476311 L 108.98730964466995 121.03072983354559 L 127.83825565297593 242.36235595390463 L 146.68920166128282 163.23303457106158 L 165.5401476695888 105.2048655569779 L 184.3910936778957 179.0588988476311 L 203.24203968620168 215.98591549295725 L 222.09298569450857 231.81177976952586 L 240.94393170281455 231.81177976952677 L 259.79487771112144 231.81177976952586 L 278.6458237194274 68.27784891165084 L 297.4967697277343 252.9129321382843 L 316.3477157360403 258.18822023047323 L 335.1986617443472 263.4635083226631 L 354.0496077526532 210.71062740076832 L 372.90055376096007 226.53649167733693 L 391.75149976926605 189.60947503200987 L 410.60244577757294 210.71062740076832 L 429.4533917858789 194.8847631241997 L 448.3043377941858 194.8847631241997 L 467.1552838024918 157.95774647887265 L 486.0062298107987 263.4635083226631 L 504.85717581910467 147.40717029449388 L 523.7081218274116 258.18822023047414 L 542.5590678357175 152.6824583866828 L 561.4100138440244 305.6658130601786 L 580.2609598523304 358.4186939820743 L 591.571527457314 347.8681177976955 L 595.3417166589752 163.23303457106158 L 599.1119058606373 142.13188220230404 L 602.8820950622985 147.40717029449388 L 606.6522842639597 147.40717029449388 L 610.4224734656209 157.95774647887265 L 614.1926626672821 110.48015364916682 L 617.9628518689433 84.10371318822035 L 621.7330410706045 110.48015364916682 L 625.5032302722657 168.50832266325233 L 629.2734194739269 157.95774647887265 L 633.0436086755881 147.40717029449388 L 636.8137978772502 189.60947503200987 L 640.5839870789114 200.16005121638864 L 644.3541762805726 189.60947503200987 L 648.1243654822338 210.71062740076832 L 651.894554683895 231.81177976952677 L 655.6647438855562 205.43533930857848 L 659.4349330872174 179.0588988476311 L 663.2051222888786 226.53649167733693 L 666.9753114905398 189.60947503201078 L 670.745500692201 221.2612035851471 L 674.515689893863 242.36235595390463 L 678.2858790955243 215.98591549295725 L 682.0560682971854 200.16005121638864 L 685.8262574988466 168.50832266325233 L 689.5964467005078 142.13188220230404 L 693.366635902169 179.0588988476311 L 697.1368251038302 157.95774647887265 L 700.9070143054914 163.23303457106158 L 704.6772035071526 194.8847631241997 L 708.4473927088138 184.33418693982094 L 712.2175819104759 163.23303457106158 L 715.9877711121371 210.71062740076832 L 719.7579603137983 168.50832266325233 L 723.5281495154595 163.2330345710625 L 727.2983387171207 200.16005121638864 L 731.0685279187819 226.53649167733693 L 734.8387171204431 194.8847631241997 L 738.6089063221043 189.60947503200987 L 742.3790955237655 284.5646606914215 L 746.1492847254267 205.43533930857848 L 749.9194739270879 200.16005121638864 L 753.68966312875 179.0588988476311 L 757.4598523304112 168.50832266325233 L 761.2300415320724 200.16005121638955 L 765.0002307337336 279.2893725992317 L 768.7704199353948 258.18822023047414 L 772.540609137056 252.9129321382843 L 776.3107983387172 226.53649167733693 L 780.0809875403784 237.0870678617157 L 783.8511767420396 231.81177976952586 L 787.6213659437008 189.60947503200987 L 791.3915551453629 115.75544174135666 L 795.1617443470241 142.13188220230404 L 798.9319335486853 142.13188220230404 L 802.7021227503465 252.9129321382843 L 806.4723119520077 347.8681177976955 L 810.2425011536689 432.272727272727 L 814.01269035533 316.21638924455874 L 817.7828795569912 289.83994878361045 L 821.5530687586524 321.4916773367481 L 825.3232579603136 168.50832266325233 L 829.0934471619757 173.78361075544126 L 832.8636363636369 384.79513444302165 L 832.8636363636369 332.0422535211269 L 829.0934471619757 152.68245838668372 L 825.3232579603136 147.4071702944948 L 821.5530687586524 289.83994878361045 L 817.7828795569912 268.7387964148529 L 814.01269035533 284.5646606914215 L 810.2425011536689 379.51984635083227 L 806.4723119520077 316.2163892445583 L 802.7021227503465 231.81177976952677 L 798.9319335486853 131.58130601792527 L 795.1617443470241 121.0307298335465 L 791.3915551453629 94.65428937259912 L 787.6213659437008 179.0588988476311 L 783.8511767420396 210.71062740076832 L 780.0809875403784 205.43533930857848 L 776.3107983387172 205.4353393085794 L 772.540609137056 221.2612035851471 L 768.7704199353948 215.98591549295816 L 765.0002307337336 237.0870678617157 L 761.2300415320724 168.50832266325233 L 757.4598523304112 147.4071702944948 L 753.68966312875 157.95774647887356 L 749.9194739270879 179.0588988476311 L 746.1492847254267 184.33418693982094 L 742.3790955237655 252.9129321382843 L 738.6089063221043 168.50832266325233 L 734.8387171204431 173.78361075544126 L 731.0685279187819 205.4353393085794 L 727.2983387171207 179.0588988476311 L 723.5281495154595 152.68245838668372 L 719.7579603137983 147.4071702944948 L 715.9877711121371 189.60947503201078 L 712.2175819104759 142.13188220230404 L 708.4473927088138 163.2330345710625 L 704.6772035071526 152.68245838668372 L 700.9070143054914 142.13188220230404 L 697.1368251038302 136.8565941101151 L 693.366635902169 157.95774647887356 L 689.5964467005078 131.58130601792527 L 685.8262574988466 157.95774647887356 L 682.0560682971854 179.0588988476311 L 678.2858790955243 194.8847631241997 L 674.515689893863 221.2612035851471 L 670.745500692201 200.16005121638955 L 666.9753114905398 157.95774647887356 L 663.2051222888786 194.8847631241997 L 659.4349330872174 157.95774647887356 L 655.6647438855562 184.33418693982094 L 651.894554683895 200.16005121638955 L 648.1243654822338 189.60947503201078 L 644.3541762805726 168.50832266325233 L 640.5839870789114 179.0588988476311 L 636.8137978772502 168.50832266325233 L 633.0436086755881 126.30601792573634 L 629.2734194739269 136.8565941101151 L 625.5032302722657 147.4071702944948 L 621.7330410706045 99.92957746478805 L 617.9628518689433 73.55313700384158 L 614.1926626672821 89.37900128040928 L 610.4224734656209 126.30601792573634 L 606.6522842639597 115.75544174135757 L 602.8820950622985 126.30601792573634 L 599.1119058606373 121.0307298335465 L 595.3417166589752 142.13188220230404 L 591.571527457314 316.2163892445583 L 580.2609598523304 316.2163892445583 L 561.4100138440244 284.5646606914215 L 542.5590678357175 142.13188220230404 L 523.7081218274116 226.53649167733693 L 504.85717581910467 136.8565941101151 L 486.0062298107987 242.36235595390553 L 467.1552838024918 136.8565941101151 L 448.3043377941858 173.78361075544126 L 429.4533917858789 173.78361075544126 L 410.60244577757294 189.60947503201078 L 391.75149976926605 168.50832266325233 L 372.90055376096007 205.4353393085794 L 354.0496077526532 189.60947503201078 L 335.1986617443472 231.81177976952586 L 316.3477157360403 237.0870678617157 L 297.4967697277343 231.81177976952677 L 278.6458237194274 57.727272727272066 L 259.79487771112144 210.71062740076832 L 240.94393170281455 200.16005121638955 L 222.09298569450857 210.71062740076832 L 203.24203968620168 194.8847631241997 L 184.3910936778957 157.95774647887356 L 165.5401476695888 94.65428937259912 L 146.68920166128282 142.13188220230404 L 127.83825565297593 221.2612035851471 L 108.98730964466995 99.92957746478805 L 90.13636363636306 157.95774647887356 Z" stroke-miterlimit="10" stroke-opacity="0.3"/></g></g><g/><g><g fill="#444444"><path fill="none" stroke="black" paint-order="fill stroke markers" d=" M 53 451 L 870 451" stroke-miterlimit="10"/><path fill="none" stroke="rgb(255, 67, 67)" paint-order="fill stroke markers" d=" M 64 457 L 64 449" stroke-miterlimit="10" stroke-width="3"/><path fill="none" stroke="rgb(255, 67, 67)" paint-order="fill stroke markers" d=" M 252 457 L 252 449" stroke-miterlimit="10" stroke-width="3"/><path fill="none" stroke="rgb(255, 67, 67)" paint-order="fill stroke markers" d=" M 441 457 L 441 449" stroke-miterlimit="10" stroke-width="3"/><path fill="none" stroke="rgb(255, 67, 67)" paint-order="fill stroke markers" d=" M 629 457 L 629 449" stroke-miterlimit="10" stroke-width="3"/><path fill="none" stroke="rgb(255, 67, 67)" paint-order="fill stroke markers" d=" M 818 457 L 818 449" stroke-miterlimit="10" stroke-width="3"/><path fill="none" stroke="rgb(255, 67, 67)" paint-order="fill stroke markers" d=" M 64 455 L 64 451" stroke-miterlimit="10"/><path fill="none" stroke="rgb(255, 67, 67)" paint-order="fill stroke markers" d=" M 101 455 L 101 451" stroke-miterlimit="10"/><path fill="none" stroke="rgb(255, 67, 67)" paint-order="fill stroke markers" d=" M 139 455 L 139 451" stroke-miterlimit="10"/><path fill="none" stroke="rgb(255, 67, 67)" paint-order="fill stroke markers" d=" M 177 455 L 177 451" stroke-miterlimit="10"/><path fill="none" stroke="rgb(255, 67, 67)" paint-order="fill stroke markers" d=" M 215 455 L 215 451" stroke-miterlimit="10"/><path fill="none" stroke="rgb(255, 67, 67)" paint-order="fill stroke markers" d=" M 252 455 L 252 451" stroke-miterlimit="10"/><path fill="none" stroke="rgb(255, 67, 67)" paint-order="fill stroke markers" d=" M 290 455 L 290 451" stroke-miterlimit="10"/><path fill="none" stroke="rgb(255, 67, 67)" paint-order="fill stroke markers" d=" M 328 455 L 328 451" stroke-miterlimit="10"/><path fill="none" stroke="rgb(255, 67, 67)" paint-order="fill stroke markers" d=" M 365 455 L 365 451" stroke-miterlimit="10"/><path fill="none" stroke="rgb(255, 67, 67)" paint-order="fill stroke markers" d=" M 403 455 L 403 451" stroke-miterlimit="10"/><path fill="none" stroke="rgb(255, 67, 67)" paint-order="fill stroke markers" d=" M 441 455 L 441 451" stroke-miterlimit="10"/><path fill="none" stroke="rgb(255, 67, 67)" paint-order="fill stroke markers" d=" M 478 455 L 478 451" stroke-miterlimit="10"/><path fill="none" stroke="rgb(255, 67, 67)" paint-order="fill stroke markers" d=" M 516 455 L 516 451" stroke-miterlimit="10"/><path fill="none" stroke="rgb(255, 67, 67)" paint-order="fill stroke markers" d=" M 554 455 L 554 451" stroke-miterlimit="10"/><path fill="none" stroke="rgb(255, 67, 67)" paint-order="fill stroke markers" d=" M 592 455 L 592 451" stroke-miterlimit="10"/><path fill="none" stroke="rgb(255, 67, 67)" paint-order="fill stroke markers" d=" M 629 455 L 629 451" stroke-miterlimit="10"/><path fill="none" stroke="rgb(255, 67, 67)" paint-order="fill stroke markers" d=" M 667 455 L 667 451" stroke-miterlimit="10"/><path fill="none" stroke="rgb(255, 67, 67)" paint-order="fill stroke markers" d=" M 705 455 L 705 451" stroke-miterlimit="10"/><path fill="none" stroke="rgb(255, 67, 67)" paint-order="fill stroke markers" d=" M 742 455 L 742 451" stroke-miterlimit="10"/><path fill="none" stroke="rgb(255, 67, 67)" paint-order="fill stroke markers" d=" M 780 455 L 780 451" stroke-miterlimit="10"/><path fill="none" stroke="rgb(255, 67, 67)" paint-order="fill stroke markers" d=" M 818 455 L 818 451" stroke-miterlimit="10"/><path fill="" stroke="rgb(255, 67, 67)" paint-order="fill stroke markers" d=" M 855 455 L 855 451" stroke-miterlimit="10"/><g transform="translate(64,462) rotate(0,0,0)"><text fill="" stroke="none" font-family="helvetica" font-size="8pt" font-style="normal" font-weight="normal" text-decoration="normal" x="0" y="0" text-anchor="middle" dominant-baseline="hanging">1800</text><g transform="rotate(0,0,0) translate(-64,-462) translate(252,462) rotate(0,0,0)"><text fill="" stroke="none" font-family="helvetica" font-size="8pt" font-style="normal" font-weight="normal" text-decoration="normal" x="0" y="0" text-anchor="middle" dominant-baseline="hanging">1850</text><g transform="rotate(0,0,0) translate(-252,-462) translate(441,462) rotate(0,0,0)"><text fill="" stroke="none" font-family="helvetica" font-size="8pt" font-style="normal" font-weight="normal" text-decoration="normal" x="0" y="0" text-anchor="middle" dominant-baseline="hanging">1900</text><g transform="rotate(0,0,0) translate(-441,-462) translate(629,462) rotate(0,0,0)"><text fill="" stroke="none" font-family="helvetica" font-size="8pt" font-style="normal" font-weight="normal" text-decoration="normal" x="0" y="0" text-anchor="middle" dominant-baseline="hanging">1950</text><g transform="rotate(0,0,0) translate(-629,-462) translate(818,462) rotate(0,0,0)"><text fill="" stroke="none" font-family="helvetica" font-size="8pt" font-style="normal" font-weight="normal" text-decoration="normal" x="0" y="0" text-anchor="middle" dominant-baseline="hanging">2000</text><g transform="rotate(0,0,0) translate(-818,-462) translate(462,480) rotate(0,0,0)"><text fill="" stroke="none" font-family="ADAM" font-size="12pt" font-style="normal" font-weight="normal" text-decoration="normal" x="0" y="0" text-anchor="middle" dominant-baseline="hanging">Año</text><g transform="rotate(0,0,0) translate(-462,-480)"/></g></g></g></g></g></g></g><g fill="#444444"><path fill="none" stroke="black" paint-order="fill stroke markers" d=" M 53 451 L 53 39" stroke-miterlimit="10"/><path fill="none" stroke="rgb(255, 67, 67)" paint-order="fill stroke markers" d=" M 47 443 L 55 443" stroke-miterlimit="10" stroke-width="3"/><path fill="none" stroke="rgb(255, 67, 67)" paint-order="fill stroke markers" d=" M 47 390 L 55 390" stroke-miterlimit="10" stroke-width="3"/><path fill="none" stroke="rgb(255, 67, 67)" paint-order="fill stroke markers" d=" M 47 337 L 55 337" stroke-miterlimit="10" stroke-width="3"/><path fill="none" stroke="rgb(255, 67, 67)" paint-order="fill stroke markers" d=" M 47 285 L 55 285" stroke-miterlimit="10" stroke-width="3"/><path fill="none" stroke="rgb(255, 67, 67)" paint-order="fill stroke markers" d=" M 47 232 L 55 232" stroke-miterlimit="10" stroke-width="3"/><path fill="none" stroke="rgb(255, 67, 67)" paint-order="fill stroke markers" d=" M 47 179 L 55 179" stroke-miterlimit="10" stroke-width="3"/><path fill="none" stroke="rgb(255, 67, 67)" paint-order="fill stroke markers" d=" M 47 126 L 55 126" stroke-miterlimit="10" stroke-width="3"/><path fill="none" stroke="rgb(255, 67, 67)" paint-order="fill stroke markers" d=" M 47 74 L 55 74" stroke-miterlimit="10" stroke-width="3"/><path fill="none" stroke="rgb(255, 67, 67)" paint-order="fill stroke markers" d=" M 49 443 L 53 443" stroke-miterlimit="10"/><path fill="none" stroke="rgb(255, 67, 67)" paint-order="fill stroke markers" d=" M 49 432 L 53 432" stroke-miterlimit="10"/><path fill="none" stroke="rgb(255, 67, 67)" paint-order="fill stroke markers" d=" M 49 422 L 53 422" stroke-miterlimit="10"/><path fill="none" stroke="rgb(255, 67, 67)" paint-order="fill stroke markers" d=" M 49 411 L 53 411" stroke-miterlimit="10"/><path fill="none" stroke="rgb(255, 67, 67)" paint-order="fill stroke markers" d=" M 49 401 L 53 401" stroke-miterlimit="10"/><path fill="none" stroke="rgb(255, 67, 67)" paint-order="fill stroke markers" d=" M 49 390 L 53 390" stroke-miterlimit="10"/><path fill="none" stroke="rgb(255, 67, 67)" paint-order="fill stroke markers" d=" M 49 380 L 53 380" stroke-miterlimit="10"/><path fill="none" stroke="rgb(255, 67, 67)" paint-order="fill stroke markers" d=" M 49 369 L 53 369" stroke-miterlimit="10"/><path fill="none" stroke="rgb(255, 67, 67)" paint-order="fill stroke markers" d=" M 49 358 L 53 358" stroke-miterlimit="10"/><path fill="none" stroke="rgb(255, 67, 67)" paint-order="fill stroke markers" d=" M 49 348 L 53 348" stroke-miterlimit="10"/><path fill="none" stroke="rgb(255, 67, 67)" paint-order="fill stroke markers" d=" M 49 337 L 53 337" stroke-miterlimit="10"/><path fill="none" stroke="rgb(255, 67, 67)" paint-order="fill stroke markers" d=" M 49 327 L 53 327" stroke-miterlimit="10"/><path fill="none" stroke="rgb(255, 67, 67)" paint-order="fill stroke markers" d=" M 49 316 L 53 316" stroke-miterlimit="10"/><path fill="none" stroke="rgb(255, 67, 67)" paint-order="fill stroke markers" d=" M 49 306 L 53 306" stroke-miterlimit="10"/><path fill="none" stroke="rgb(255, 67, 67)" paint-order="fill stroke markers" d=" M 49 295 L 53 295" stroke-miterlimit="10"/><path fill="none" stroke="rgb(255, 67, 67)" paint-order="fill stroke markers" d=" M 49 285 L 53 285" stroke-miterlimit="10"/><path fill="none" stroke="rgb(255, 67, 67)" paint-order="fill stroke markers" d=" M 49 274 L 53 274" stroke-miterlimit="10"/><path fill="none" stroke="rgb(255, 67, 67)" paint-order="fill stroke markers" d=" M 49 263 L 53 263" stroke-miterlimit="10"/><path fill="none" stroke="rgb(255, 67, 67)" paint-order="fill stroke markers" d=" M 49 253 L 53 253" stroke-miterlimit="10"/><path fill="none" stroke="rgb(255, 67, 67)" paint-order="fill stroke markers" d=" M 49 242 L 53 242" stroke-miterlimit="10"/><path fill="none" stroke="rgb(255, 67, 67)" paint-order="fill stroke markers" d=" M 49 232 L 53 232" stroke-miterlimit="10"/><path fill="none" stroke="rgb(255, 67, 67)" paint-order="fill stroke markers" d=" M 49 221 L 53 221" stroke-miterlimit="10"/><path fill="none" stroke="rgb(255, 67, 67)" paint-order="fill stroke markers" d=" M 49 211 L 53 211" stroke-miterlimit="10"/><path fill="none" stroke="rgb(255, 67, 67)" paint-order="fill stroke markers" d=" M 49 200 L 53 200" stroke-miterlimit="10"/><path fill="none" stroke="rgb(255, 67, 67)" paint-order="fill stroke markers" d=" M 49 190 L 53 190" stroke-miterlimit="10"/><path fill="none" stroke="rgb(255, 67, 67)" paint-order="fill stroke markers" d=" M 49 179 L 53 179" stroke-miterlimit="10"/><path fill="none" stroke="rgb(255, 67, 67)" paint-order="fill stroke markers" d=" M 49 169 L 53 169" stroke-miterlimit="10"/><path fill="none" stroke="rgb(255, 67, 67)" paint-order="fill stroke markers" d=" M 49 158 L 53 158" stroke-miterlimit="10"/><path fill="none" stroke="rgb(255, 67, 67)" paint-order="fill stroke markers" d=" M 49 147 L 53 147" stroke-miterlimit="10"/><path fill="none" stroke="rgb(255, 67, 67)" paint-order="fill stroke markers" d=" M 49 137 L 53 137" stroke-miterlimit="10"/><path fill="none" stroke="rgb(255, 67, 67)" paint-order="fill stroke markers" d=" M 49 126 L 53 126" stroke-miterlimit="10"/><path fill="none" stroke="rgb(255, 67, 67)" paint-order="fill stroke markers" d=" M 49 116 L 53 116" stroke-miterlimit="10"/><path fill="none" stroke="rgb(255, 67, 67)" paint-order="fill stroke markers" d=" M 49 105 L 53 105" stroke-miterlimit="10"/><path fill="none" stroke="rgb(255, 67, 67)" paint-order="fill stroke markers" d=" M 49 95 L 53 95" stroke-miterlimit="10"/><path fill="none" stroke="rgb(255, 67, 67)" paint-order="fill stroke markers" d=" M 49 84 L 53 84" stroke-miterlimit="10"/><path fill="none" stroke="rgb(255, 67, 67)" paint-order="fill stroke markers" d=" M 49 74 L 53 74" stroke-miterlimit="10"/><path fill="none" stroke="rgb(255, 67, 67)" paint-order="fill stroke markers" d=" M 49 63 L 53 63" stroke-miterlimit="10"/><path fill="none" stroke="rgb(255, 67, 67)" paint-order="fill stroke markers" d=" M 49 52 L 53 52" stroke-miterlimit="10"/><path fill="" stroke="rgb(255, 67, 67)" paint-order="fill stroke markers" d=" M 49 42 L 53 42" stroke-miterlimit="10"/><g transform="translate(42,443) rotate(0,0,0)"><text fill="" stroke="none" font-family="helvetica" font-size="8pt" font-style="normal" font-weight="normal" text-decoration="normal" x="0" y="0" text-anchor="end" dominant-baseline="central">7.5</text><g transform="rotate(0,0,0) translate(-42,-443) translate(42,390) rotate(0,0,0)"><text fill="" stroke="none" font-family="helvetica" font-size="8pt" font-style="normal" font-weight="normal" text-decoration="normal" x="0" y="0" text-anchor="end" dominant-baseline="central">7.6</text><g transform="rotate(0,0,0) translate(-42,-390) translate(42,337) rotate(0,0,0)"><text fill="" stroke="none" font-family="helvetica" font-size="8pt" font-style="normal" font-weight="normal" text-decoration="normal" x="0" y="0" text-anchor="end" dominant-baseline="central">7.7</text><g transform="rotate(0,0,0) translate(-42,-337) translate(42,285) rotate(0,0,0)"><text fill="" stroke="none" font-family="helvetica" font-size="8pt" font-style="normal" font-weight="normal" text-decoration="normal" x="0" y="0" text-anchor="end" dominant-baseline="central">7.8</text><g transform="rotate(0,0,0) translate(-42,-285) translate(42,232) rotate(0,0,0)"><text fill="" stroke="none" font-family="helvetica" font-size="8pt" font-style="normal" font-weight="normal" text-decoration="normal" x="0" y="0" text-anchor="end" dominant-baseline="central">7.9</text><g transform="rotate(0,0,0) translate(-42,-232) translate(42,179) rotate(0,0,0)"><text fill="" stroke="none" font-family="helvetica" font-size="8pt" font-style="normal" font-weight="normal" text-decoration="normal" x="0" y="0" text-anchor="end" dominant-baseline="central">8</text><g transform="rotate(0,0,0) translate(-42,-179) translate(42,126) rotate(0,0,0)"><text fill="" stroke="none" font-family="helvetica" font-size="8pt" font-style="normal" font-weight="normal" text-decoration="normal" x="0" y="0" text-anchor="end" dominant-baseline="central">8.1</text><g transform="rotate(0,0,0) translate(-42,-126) translate(42,74) rotate(0,0,0)"><text fill="" stroke="none" font-family="helvetica" font-size="8pt" font-style="normal" font-weight="normal" text-decoration="normal" x="0" y="0" text-anchor="end" dominant-baseline="central">8.2</text><g transform="rotate(0,0,0) translate(-42,-74) translate(21,245) rotate(-90,0,0)"><text fill="" stroke="none" font-family="ADAM" font-size="12pt" font-style="normal" font-weight="normal" text-decoration="normal" x="0" y="0" text-anchor="middle" dominant-baseline="alphabetic">pH</text><g transform="rotate(90,0,0) translate(-21,-245)"/></g></g></g></g></g></g></g></g></g></g><g fill="black"><path fill="" stroke="none" d=""/><g transform="translate(461.5,34)"><path fill="none" stroke="none"/><text fill="" stroke="none" font-family="ADAM" font-size="16pt" font-style="normal" font-weight="normal" text-decoration="normal" x="0" y="0" text-anchor="middle" dominant-baseline="text-after-edge">Acidificación del océano en la gran barrera de coral</text></g></g></g></g></g></svg>